G04 #@! TF.GenerationSoftware,KiCad,Pcbnew,(5.1.2)-2*
G04 #@! TF.CreationDate,2020-11-02T14:54:12+01:00*
G04 #@! TF.ProjectId,MacroBoard,4d616372-6f42-46f6-9172-642e6b696361,rev?*
G04 #@! TF.SameCoordinates,Original*
G04 #@! TF.FileFunction,Profile,NP*
%FSLAX46Y46*%
G04 Gerber Fmt 4.6, Leading zero omitted, Abs format (unit mm)*
G04 Created by KiCad (PCBNEW (5.1.2)-2) date 2020-11-02 14:54:12*
%MOMM*%
%LPD*%
G04 APERTURE LIST*
%ADD10C,0.150000*%
%ADD11C,0.050000*%
G04 APERTURE END LIST*
D10*
X80180000Y-133020000D02*
X85280000Y-133020000D01*
X80180000Y-127920000D02*
X80180000Y-133020000D01*
X85280000Y-127920000D02*
X80180000Y-127920000D01*
X85280000Y-133020000D02*
X85280000Y-127920000D01*
X100180000Y-133020000D02*
X105280000Y-133020000D01*
X100180000Y-127920000D02*
X100180000Y-133020000D01*
X105280000Y-127920000D02*
X100180000Y-127920000D01*
X105280000Y-133020000D02*
X105280000Y-127920000D01*
X120180000Y-133020000D02*
X125280000Y-133020000D01*
X120180000Y-127920000D02*
X120180000Y-133020000D01*
X125280000Y-127920000D02*
X120180000Y-127920000D01*
X125280000Y-133020000D02*
X125280000Y-127920000D01*
X140180000Y-133020000D02*
X145280000Y-133020000D01*
X140180000Y-127920000D02*
X140180000Y-133020000D01*
X145280000Y-127920000D02*
X140180000Y-127920000D01*
X145280000Y-133020000D02*
X145280000Y-127920000D01*
X160180000Y-133020000D02*
X165280000Y-133020000D01*
X160180000Y-127920000D02*
X160180000Y-133020000D01*
X165280000Y-127920000D02*
X160180000Y-127920000D01*
X165280000Y-133020000D02*
X165280000Y-127920000D01*
X160180000Y-113020000D02*
X165280000Y-113020000D01*
X160180000Y-107920000D02*
X160180000Y-113020000D01*
X165280000Y-107920000D02*
X160180000Y-107920000D01*
X165280000Y-113020000D02*
X165280000Y-107920000D01*
X140180000Y-113020000D02*
X145280000Y-113020000D01*
X140180000Y-107920000D02*
X140180000Y-113020000D01*
X145280000Y-107920000D02*
X140180000Y-107920000D01*
X145280000Y-113020000D02*
X145280000Y-107920000D01*
X120180000Y-113020000D02*
X125280000Y-113020000D01*
X120180000Y-107920000D02*
X120180000Y-113020000D01*
X125280000Y-107920000D02*
X120180000Y-107920000D01*
X125280000Y-113020000D02*
X125280000Y-107920000D01*
X100180000Y-113020000D02*
X105280000Y-113020000D01*
X100180000Y-107920000D02*
X100180000Y-113020000D01*
X105280000Y-107920000D02*
X100180000Y-107920000D01*
X105280000Y-113020000D02*
X105280000Y-107920000D01*
X85280000Y-107920000D02*
X80180000Y-107920000D01*
X85280000Y-113020000D02*
X85280000Y-107920000D01*
X80180000Y-113020000D02*
X85280000Y-113020000D01*
X80180000Y-107920000D02*
X80180000Y-113020000D01*
D11*
X174000000Y-76000000D02*
X174000000Y-86000000D01*
X72000000Y-86000000D02*
X72000000Y-76000000D01*
X72000000Y-86000000D02*
X72000000Y-136000000D01*
X174000000Y-76000000D02*
X72000000Y-76000000D01*
X174000000Y-136000000D02*
X174000000Y-86000000D01*
X72000000Y-136000000D02*
X174000000Y-136000000D01*
M02*
