G04 #@! TF.GenerationSoftware,KiCad,Pcbnew,(5.1.2)-2*
G04 #@! TF.CreationDate,2020-11-02T14:54:12+01:00*
G04 #@! TF.ProjectId,MacroBoard,4d616372-6f42-46f6-9172-642e6b696361,rev?*
G04 #@! TF.SameCoordinates,Original*
G04 #@! TF.FileFunction,Soldermask,Top*
G04 #@! TF.FilePolarity,Negative*
%FSLAX46Y46*%
G04 Gerber Fmt 4.6, Leading zero omitted, Abs format (unit mm)*
G04 Created by KiCad (PCBNEW (5.1.2)-2) date 2020-11-02 14:54:12*
%MOMM*%
%LPD*%
G04 APERTURE LIST*
%ADD10C,0.100000*%
G04 APERTURE END LIST*
D10*
G36*
X123328254Y-123297818D02*
G01*
X123701511Y-123452426D01*
X123701513Y-123452427D01*
X124037436Y-123676884D01*
X124323116Y-123962564D01*
X124547574Y-124298489D01*
X124702182Y-124671746D01*
X124781000Y-125067993D01*
X124781000Y-125472007D01*
X124702182Y-125868254D01*
X124547574Y-126241511D01*
X124547573Y-126241513D01*
X124323116Y-126577436D01*
X124037436Y-126863116D01*
X123701513Y-127087573D01*
X123701512Y-127087574D01*
X123701511Y-127087574D01*
X123328254Y-127242182D01*
X122932007Y-127321000D01*
X122527993Y-127321000D01*
X122131746Y-127242182D01*
X121758489Y-127087574D01*
X121758488Y-127087574D01*
X121758487Y-127087573D01*
X121422564Y-126863116D01*
X121136884Y-126577436D01*
X120912427Y-126241513D01*
X120912426Y-126241511D01*
X120757818Y-125868254D01*
X120679000Y-125472007D01*
X120679000Y-125067993D01*
X120757818Y-124671746D01*
X120912426Y-124298489D01*
X121136884Y-123962564D01*
X121422564Y-123676884D01*
X121758487Y-123452427D01*
X121758489Y-123452426D01*
X122131746Y-123297818D01*
X122527993Y-123219000D01*
X122932007Y-123219000D01*
X123328254Y-123297818D01*
X123328254Y-123297818D01*
G37*
G36*
X143328254Y-123297818D02*
G01*
X143701511Y-123452426D01*
X143701513Y-123452427D01*
X144037436Y-123676884D01*
X144323116Y-123962564D01*
X144547574Y-124298489D01*
X144702182Y-124671746D01*
X144781000Y-125067993D01*
X144781000Y-125472007D01*
X144702182Y-125868254D01*
X144547574Y-126241511D01*
X144547573Y-126241513D01*
X144323116Y-126577436D01*
X144037436Y-126863116D01*
X143701513Y-127087573D01*
X143701512Y-127087574D01*
X143701511Y-127087574D01*
X143328254Y-127242182D01*
X142932007Y-127321000D01*
X142527993Y-127321000D01*
X142131746Y-127242182D01*
X141758489Y-127087574D01*
X141758488Y-127087574D01*
X141758487Y-127087573D01*
X141422564Y-126863116D01*
X141136884Y-126577436D01*
X140912427Y-126241513D01*
X140912426Y-126241511D01*
X140757818Y-125868254D01*
X140679000Y-125472007D01*
X140679000Y-125067993D01*
X140757818Y-124671746D01*
X140912426Y-124298489D01*
X141136884Y-123962564D01*
X141422564Y-123676884D01*
X141758487Y-123452427D01*
X141758489Y-123452426D01*
X142131746Y-123297818D01*
X142527993Y-123219000D01*
X142932007Y-123219000D01*
X143328254Y-123297818D01*
X143328254Y-123297818D01*
G37*
G36*
X163328254Y-123297818D02*
G01*
X163701511Y-123452426D01*
X163701513Y-123452427D01*
X164037436Y-123676884D01*
X164323116Y-123962564D01*
X164547574Y-124298489D01*
X164702182Y-124671746D01*
X164781000Y-125067993D01*
X164781000Y-125472007D01*
X164702182Y-125868254D01*
X164547574Y-126241511D01*
X164547573Y-126241513D01*
X164323116Y-126577436D01*
X164037436Y-126863116D01*
X163701513Y-127087573D01*
X163701512Y-127087574D01*
X163701511Y-127087574D01*
X163328254Y-127242182D01*
X162932007Y-127321000D01*
X162527993Y-127321000D01*
X162131746Y-127242182D01*
X161758489Y-127087574D01*
X161758488Y-127087574D01*
X161758487Y-127087573D01*
X161422564Y-126863116D01*
X161136884Y-126577436D01*
X160912427Y-126241513D01*
X160912426Y-126241511D01*
X160757818Y-125868254D01*
X160679000Y-125472007D01*
X160679000Y-125067993D01*
X160757818Y-124671746D01*
X160912426Y-124298489D01*
X161136884Y-123962564D01*
X161422564Y-123676884D01*
X161758487Y-123452427D01*
X161758489Y-123452426D01*
X162131746Y-123297818D01*
X162527993Y-123219000D01*
X162932007Y-123219000D01*
X163328254Y-123297818D01*
X163328254Y-123297818D01*
G37*
G36*
X103328254Y-123297818D02*
G01*
X103701511Y-123452426D01*
X103701513Y-123452427D01*
X104037436Y-123676884D01*
X104323116Y-123962564D01*
X104547574Y-124298489D01*
X104702182Y-124671746D01*
X104781000Y-125067993D01*
X104781000Y-125472007D01*
X104702182Y-125868254D01*
X104547574Y-126241511D01*
X104547573Y-126241513D01*
X104323116Y-126577436D01*
X104037436Y-126863116D01*
X103701513Y-127087573D01*
X103701512Y-127087574D01*
X103701511Y-127087574D01*
X103328254Y-127242182D01*
X102932007Y-127321000D01*
X102527993Y-127321000D01*
X102131746Y-127242182D01*
X101758489Y-127087574D01*
X101758488Y-127087574D01*
X101758487Y-127087573D01*
X101422564Y-126863116D01*
X101136884Y-126577436D01*
X100912427Y-126241513D01*
X100912426Y-126241511D01*
X100757818Y-125868254D01*
X100679000Y-125472007D01*
X100679000Y-125067993D01*
X100757818Y-124671746D01*
X100912426Y-124298489D01*
X101136884Y-123962564D01*
X101422564Y-123676884D01*
X101758487Y-123452427D01*
X101758489Y-123452426D01*
X102131746Y-123297818D01*
X102527993Y-123219000D01*
X102932007Y-123219000D01*
X103328254Y-123297818D01*
X103328254Y-123297818D01*
G37*
G36*
X83328254Y-123297818D02*
G01*
X83701511Y-123452426D01*
X83701513Y-123452427D01*
X84037436Y-123676884D01*
X84323116Y-123962564D01*
X84547574Y-124298489D01*
X84702182Y-124671746D01*
X84781000Y-125067993D01*
X84781000Y-125472007D01*
X84702182Y-125868254D01*
X84547574Y-126241511D01*
X84547573Y-126241513D01*
X84323116Y-126577436D01*
X84037436Y-126863116D01*
X83701513Y-127087573D01*
X83701512Y-127087574D01*
X83701511Y-127087574D01*
X83328254Y-127242182D01*
X82932007Y-127321000D01*
X82527993Y-127321000D01*
X82131746Y-127242182D01*
X81758489Y-127087574D01*
X81758488Y-127087574D01*
X81758487Y-127087573D01*
X81422564Y-126863116D01*
X81136884Y-126577436D01*
X80912427Y-126241513D01*
X80912426Y-126241511D01*
X80757818Y-125868254D01*
X80679000Y-125472007D01*
X80679000Y-125067993D01*
X80757818Y-124671746D01*
X80912426Y-124298489D01*
X81136884Y-123962564D01*
X81422564Y-123676884D01*
X81758487Y-123452427D01*
X81758489Y-123452426D01*
X82131746Y-123297818D01*
X82527993Y-123219000D01*
X82932007Y-123219000D01*
X83328254Y-123297818D01*
X83328254Y-123297818D01*
G37*
G36*
X87923512Y-124373927D02*
G01*
X88072812Y-124403624D01*
X88236784Y-124471544D01*
X88384354Y-124570147D01*
X88509853Y-124695646D01*
X88608456Y-124843216D01*
X88676376Y-125007188D01*
X88711000Y-125181259D01*
X88711000Y-125358741D01*
X88676376Y-125532812D01*
X88608456Y-125696784D01*
X88509853Y-125844354D01*
X88384354Y-125969853D01*
X88236784Y-126068456D01*
X88072812Y-126136376D01*
X87923512Y-126166073D01*
X87898742Y-126171000D01*
X87721258Y-126171000D01*
X87696488Y-126166073D01*
X87547188Y-126136376D01*
X87383216Y-126068456D01*
X87235646Y-125969853D01*
X87110147Y-125844354D01*
X87011544Y-125696784D01*
X86943624Y-125532812D01*
X86909000Y-125358741D01*
X86909000Y-125181259D01*
X86943624Y-125007188D01*
X87011544Y-124843216D01*
X87110147Y-124695646D01*
X87235646Y-124570147D01*
X87383216Y-124471544D01*
X87547188Y-124403624D01*
X87696488Y-124373927D01*
X87721258Y-124369000D01*
X87898742Y-124369000D01*
X87923512Y-124373927D01*
X87923512Y-124373927D01*
G37*
G36*
X77763512Y-124373927D02*
G01*
X77912812Y-124403624D01*
X78076784Y-124471544D01*
X78224354Y-124570147D01*
X78349853Y-124695646D01*
X78448456Y-124843216D01*
X78516376Y-125007188D01*
X78551000Y-125181259D01*
X78551000Y-125358741D01*
X78516376Y-125532812D01*
X78448456Y-125696784D01*
X78349853Y-125844354D01*
X78224354Y-125969853D01*
X78076784Y-126068456D01*
X77912812Y-126136376D01*
X77763512Y-126166073D01*
X77738742Y-126171000D01*
X77561258Y-126171000D01*
X77536488Y-126166073D01*
X77387188Y-126136376D01*
X77223216Y-126068456D01*
X77075646Y-125969853D01*
X76950147Y-125844354D01*
X76851544Y-125696784D01*
X76783624Y-125532812D01*
X76749000Y-125358741D01*
X76749000Y-125181259D01*
X76783624Y-125007188D01*
X76851544Y-124843216D01*
X76950147Y-124695646D01*
X77075646Y-124570147D01*
X77223216Y-124471544D01*
X77387188Y-124403624D01*
X77536488Y-124373927D01*
X77561258Y-124369000D01*
X77738742Y-124369000D01*
X77763512Y-124373927D01*
X77763512Y-124373927D01*
G37*
G36*
X117763512Y-124373927D02*
G01*
X117912812Y-124403624D01*
X118076784Y-124471544D01*
X118224354Y-124570147D01*
X118349853Y-124695646D01*
X118448456Y-124843216D01*
X118516376Y-125007188D01*
X118551000Y-125181259D01*
X118551000Y-125358741D01*
X118516376Y-125532812D01*
X118448456Y-125696784D01*
X118349853Y-125844354D01*
X118224354Y-125969853D01*
X118076784Y-126068456D01*
X117912812Y-126136376D01*
X117763512Y-126166073D01*
X117738742Y-126171000D01*
X117561258Y-126171000D01*
X117536488Y-126166073D01*
X117387188Y-126136376D01*
X117223216Y-126068456D01*
X117075646Y-125969853D01*
X116950147Y-125844354D01*
X116851544Y-125696784D01*
X116783624Y-125532812D01*
X116749000Y-125358741D01*
X116749000Y-125181259D01*
X116783624Y-125007188D01*
X116851544Y-124843216D01*
X116950147Y-124695646D01*
X117075646Y-124570147D01*
X117223216Y-124471544D01*
X117387188Y-124403624D01*
X117536488Y-124373927D01*
X117561258Y-124369000D01*
X117738742Y-124369000D01*
X117763512Y-124373927D01*
X117763512Y-124373927D01*
G37*
G36*
X127923512Y-124373927D02*
G01*
X128072812Y-124403624D01*
X128236784Y-124471544D01*
X128384354Y-124570147D01*
X128509853Y-124695646D01*
X128608456Y-124843216D01*
X128676376Y-125007188D01*
X128711000Y-125181259D01*
X128711000Y-125358741D01*
X128676376Y-125532812D01*
X128608456Y-125696784D01*
X128509853Y-125844354D01*
X128384354Y-125969853D01*
X128236784Y-126068456D01*
X128072812Y-126136376D01*
X127923512Y-126166073D01*
X127898742Y-126171000D01*
X127721258Y-126171000D01*
X127696488Y-126166073D01*
X127547188Y-126136376D01*
X127383216Y-126068456D01*
X127235646Y-125969853D01*
X127110147Y-125844354D01*
X127011544Y-125696784D01*
X126943624Y-125532812D01*
X126909000Y-125358741D01*
X126909000Y-125181259D01*
X126943624Y-125007188D01*
X127011544Y-124843216D01*
X127110147Y-124695646D01*
X127235646Y-124570147D01*
X127383216Y-124471544D01*
X127547188Y-124403624D01*
X127696488Y-124373927D01*
X127721258Y-124369000D01*
X127898742Y-124369000D01*
X127923512Y-124373927D01*
X127923512Y-124373927D01*
G37*
G36*
X137763512Y-124373927D02*
G01*
X137912812Y-124403624D01*
X138076784Y-124471544D01*
X138224354Y-124570147D01*
X138349853Y-124695646D01*
X138448456Y-124843216D01*
X138516376Y-125007188D01*
X138551000Y-125181259D01*
X138551000Y-125358741D01*
X138516376Y-125532812D01*
X138448456Y-125696784D01*
X138349853Y-125844354D01*
X138224354Y-125969853D01*
X138076784Y-126068456D01*
X137912812Y-126136376D01*
X137763512Y-126166073D01*
X137738742Y-126171000D01*
X137561258Y-126171000D01*
X137536488Y-126166073D01*
X137387188Y-126136376D01*
X137223216Y-126068456D01*
X137075646Y-125969853D01*
X136950147Y-125844354D01*
X136851544Y-125696784D01*
X136783624Y-125532812D01*
X136749000Y-125358741D01*
X136749000Y-125181259D01*
X136783624Y-125007188D01*
X136851544Y-124843216D01*
X136950147Y-124695646D01*
X137075646Y-124570147D01*
X137223216Y-124471544D01*
X137387188Y-124403624D01*
X137536488Y-124373927D01*
X137561258Y-124369000D01*
X137738742Y-124369000D01*
X137763512Y-124373927D01*
X137763512Y-124373927D01*
G37*
G36*
X147923512Y-124373927D02*
G01*
X148072812Y-124403624D01*
X148236784Y-124471544D01*
X148384354Y-124570147D01*
X148509853Y-124695646D01*
X148608456Y-124843216D01*
X148676376Y-125007188D01*
X148711000Y-125181259D01*
X148711000Y-125358741D01*
X148676376Y-125532812D01*
X148608456Y-125696784D01*
X148509853Y-125844354D01*
X148384354Y-125969853D01*
X148236784Y-126068456D01*
X148072812Y-126136376D01*
X147923512Y-126166073D01*
X147898742Y-126171000D01*
X147721258Y-126171000D01*
X147696488Y-126166073D01*
X147547188Y-126136376D01*
X147383216Y-126068456D01*
X147235646Y-125969853D01*
X147110147Y-125844354D01*
X147011544Y-125696784D01*
X146943624Y-125532812D01*
X146909000Y-125358741D01*
X146909000Y-125181259D01*
X146943624Y-125007188D01*
X147011544Y-124843216D01*
X147110147Y-124695646D01*
X147235646Y-124570147D01*
X147383216Y-124471544D01*
X147547188Y-124403624D01*
X147696488Y-124373927D01*
X147721258Y-124369000D01*
X147898742Y-124369000D01*
X147923512Y-124373927D01*
X147923512Y-124373927D01*
G37*
G36*
X157763512Y-124373927D02*
G01*
X157912812Y-124403624D01*
X158076784Y-124471544D01*
X158224354Y-124570147D01*
X158349853Y-124695646D01*
X158448456Y-124843216D01*
X158516376Y-125007188D01*
X158551000Y-125181259D01*
X158551000Y-125358741D01*
X158516376Y-125532812D01*
X158448456Y-125696784D01*
X158349853Y-125844354D01*
X158224354Y-125969853D01*
X158076784Y-126068456D01*
X157912812Y-126136376D01*
X157763512Y-126166073D01*
X157738742Y-126171000D01*
X157561258Y-126171000D01*
X157536488Y-126166073D01*
X157387188Y-126136376D01*
X157223216Y-126068456D01*
X157075646Y-125969853D01*
X156950147Y-125844354D01*
X156851544Y-125696784D01*
X156783624Y-125532812D01*
X156749000Y-125358741D01*
X156749000Y-125181259D01*
X156783624Y-125007188D01*
X156851544Y-124843216D01*
X156950147Y-124695646D01*
X157075646Y-124570147D01*
X157223216Y-124471544D01*
X157387188Y-124403624D01*
X157536488Y-124373927D01*
X157561258Y-124369000D01*
X157738742Y-124369000D01*
X157763512Y-124373927D01*
X157763512Y-124373927D01*
G37*
G36*
X167923512Y-124373927D02*
G01*
X168072812Y-124403624D01*
X168236784Y-124471544D01*
X168384354Y-124570147D01*
X168509853Y-124695646D01*
X168608456Y-124843216D01*
X168676376Y-125007188D01*
X168711000Y-125181259D01*
X168711000Y-125358741D01*
X168676376Y-125532812D01*
X168608456Y-125696784D01*
X168509853Y-125844354D01*
X168384354Y-125969853D01*
X168236784Y-126068456D01*
X168072812Y-126136376D01*
X167923512Y-126166073D01*
X167898742Y-126171000D01*
X167721258Y-126171000D01*
X167696488Y-126166073D01*
X167547188Y-126136376D01*
X167383216Y-126068456D01*
X167235646Y-125969853D01*
X167110147Y-125844354D01*
X167011544Y-125696784D01*
X166943624Y-125532812D01*
X166909000Y-125358741D01*
X166909000Y-125181259D01*
X166943624Y-125007188D01*
X167011544Y-124843216D01*
X167110147Y-124695646D01*
X167235646Y-124570147D01*
X167383216Y-124471544D01*
X167547188Y-124403624D01*
X167696488Y-124373927D01*
X167721258Y-124369000D01*
X167898742Y-124369000D01*
X167923512Y-124373927D01*
X167923512Y-124373927D01*
G37*
G36*
X107923512Y-124373927D02*
G01*
X108072812Y-124403624D01*
X108236784Y-124471544D01*
X108384354Y-124570147D01*
X108509853Y-124695646D01*
X108608456Y-124843216D01*
X108676376Y-125007188D01*
X108711000Y-125181259D01*
X108711000Y-125358741D01*
X108676376Y-125532812D01*
X108608456Y-125696784D01*
X108509853Y-125844354D01*
X108384354Y-125969853D01*
X108236784Y-126068456D01*
X108072812Y-126136376D01*
X107923512Y-126166073D01*
X107898742Y-126171000D01*
X107721258Y-126171000D01*
X107696488Y-126166073D01*
X107547188Y-126136376D01*
X107383216Y-126068456D01*
X107235646Y-125969853D01*
X107110147Y-125844354D01*
X107011544Y-125696784D01*
X106943624Y-125532812D01*
X106909000Y-125358741D01*
X106909000Y-125181259D01*
X106943624Y-125007188D01*
X107011544Y-124843216D01*
X107110147Y-124695646D01*
X107235646Y-124570147D01*
X107383216Y-124471544D01*
X107547188Y-124403624D01*
X107696488Y-124373927D01*
X107721258Y-124369000D01*
X107898742Y-124369000D01*
X107923512Y-124373927D01*
X107923512Y-124373927D01*
G37*
G36*
X97763512Y-124373927D02*
G01*
X97912812Y-124403624D01*
X98076784Y-124471544D01*
X98224354Y-124570147D01*
X98349853Y-124695646D01*
X98448456Y-124843216D01*
X98516376Y-125007188D01*
X98551000Y-125181259D01*
X98551000Y-125358741D01*
X98516376Y-125532812D01*
X98448456Y-125696784D01*
X98349853Y-125844354D01*
X98224354Y-125969853D01*
X98076784Y-126068456D01*
X97912812Y-126136376D01*
X97763512Y-126166073D01*
X97738742Y-126171000D01*
X97561258Y-126171000D01*
X97536488Y-126166073D01*
X97387188Y-126136376D01*
X97223216Y-126068456D01*
X97075646Y-125969853D01*
X96950147Y-125844354D01*
X96851544Y-125696784D01*
X96783624Y-125532812D01*
X96749000Y-125358741D01*
X96749000Y-125181259D01*
X96783624Y-125007188D01*
X96851544Y-124843216D01*
X96950147Y-124695646D01*
X97075646Y-124570147D01*
X97223216Y-124471544D01*
X97387188Y-124403624D01*
X97536488Y-124373927D01*
X97561258Y-124369000D01*
X97738742Y-124369000D01*
X97763512Y-124373927D01*
X97763512Y-124373927D01*
G37*
G36*
X139144549Y-121601116D02*
G01*
X139255734Y-121623232D01*
X139465203Y-121709997D01*
X139653720Y-121835960D01*
X139814040Y-121996280D01*
X139940003Y-122184797D01*
X140026768Y-122394266D01*
X140071000Y-122616636D01*
X140071000Y-122843364D01*
X140026768Y-123065734D01*
X139940003Y-123275203D01*
X139814040Y-123463720D01*
X139653720Y-123624040D01*
X139465203Y-123750003D01*
X139255734Y-123836768D01*
X139144549Y-123858884D01*
X139033365Y-123881000D01*
X138806635Y-123881000D01*
X138695451Y-123858884D01*
X138584266Y-123836768D01*
X138374797Y-123750003D01*
X138186280Y-123624040D01*
X138025960Y-123463720D01*
X137899997Y-123275203D01*
X137813232Y-123065734D01*
X137769000Y-122843364D01*
X137769000Y-122616636D01*
X137813232Y-122394266D01*
X137899997Y-122184797D01*
X138025960Y-121996280D01*
X138186280Y-121835960D01*
X138374797Y-121709997D01*
X138584266Y-121623232D01*
X138695451Y-121601116D01*
X138806635Y-121579000D01*
X139033365Y-121579000D01*
X139144549Y-121601116D01*
X139144549Y-121601116D01*
G37*
G36*
X119144549Y-121601116D02*
G01*
X119255734Y-121623232D01*
X119465203Y-121709997D01*
X119653720Y-121835960D01*
X119814040Y-121996280D01*
X119940003Y-122184797D01*
X120026768Y-122394266D01*
X120071000Y-122616636D01*
X120071000Y-122843364D01*
X120026768Y-123065734D01*
X119940003Y-123275203D01*
X119814040Y-123463720D01*
X119653720Y-123624040D01*
X119465203Y-123750003D01*
X119255734Y-123836768D01*
X119144549Y-123858884D01*
X119033365Y-123881000D01*
X118806635Y-123881000D01*
X118695451Y-123858884D01*
X118584266Y-123836768D01*
X118374797Y-123750003D01*
X118186280Y-123624040D01*
X118025960Y-123463720D01*
X117899997Y-123275203D01*
X117813232Y-123065734D01*
X117769000Y-122843364D01*
X117769000Y-122616636D01*
X117813232Y-122394266D01*
X117899997Y-122184797D01*
X118025960Y-121996280D01*
X118186280Y-121835960D01*
X118374797Y-121709997D01*
X118584266Y-121623232D01*
X118695451Y-121601116D01*
X118806635Y-121579000D01*
X119033365Y-121579000D01*
X119144549Y-121601116D01*
X119144549Y-121601116D01*
G37*
G36*
X159144549Y-121601116D02*
G01*
X159255734Y-121623232D01*
X159465203Y-121709997D01*
X159653720Y-121835960D01*
X159814040Y-121996280D01*
X159940003Y-122184797D01*
X160026768Y-122394266D01*
X160071000Y-122616636D01*
X160071000Y-122843364D01*
X160026768Y-123065734D01*
X159940003Y-123275203D01*
X159814040Y-123463720D01*
X159653720Y-123624040D01*
X159465203Y-123750003D01*
X159255734Y-123836768D01*
X159144549Y-123858884D01*
X159033365Y-123881000D01*
X158806635Y-123881000D01*
X158695451Y-123858884D01*
X158584266Y-123836768D01*
X158374797Y-123750003D01*
X158186280Y-123624040D01*
X158025960Y-123463720D01*
X157899997Y-123275203D01*
X157813232Y-123065734D01*
X157769000Y-122843364D01*
X157769000Y-122616636D01*
X157813232Y-122394266D01*
X157899997Y-122184797D01*
X158025960Y-121996280D01*
X158186280Y-121835960D01*
X158374797Y-121709997D01*
X158584266Y-121623232D01*
X158695451Y-121601116D01*
X158806635Y-121579000D01*
X159033365Y-121579000D01*
X159144549Y-121601116D01*
X159144549Y-121601116D01*
G37*
G36*
X99144549Y-121601116D02*
G01*
X99255734Y-121623232D01*
X99465203Y-121709997D01*
X99653720Y-121835960D01*
X99814040Y-121996280D01*
X99940003Y-122184797D01*
X100026768Y-122394266D01*
X100071000Y-122616636D01*
X100071000Y-122843364D01*
X100026768Y-123065734D01*
X99940003Y-123275203D01*
X99814040Y-123463720D01*
X99653720Y-123624040D01*
X99465203Y-123750003D01*
X99255734Y-123836768D01*
X99144549Y-123858884D01*
X99033365Y-123881000D01*
X98806635Y-123881000D01*
X98695451Y-123858884D01*
X98584266Y-123836768D01*
X98374797Y-123750003D01*
X98186280Y-123624040D01*
X98025960Y-123463720D01*
X97899997Y-123275203D01*
X97813232Y-123065734D01*
X97769000Y-122843364D01*
X97769000Y-122616636D01*
X97813232Y-122394266D01*
X97899997Y-122184797D01*
X98025960Y-121996280D01*
X98186280Y-121835960D01*
X98374797Y-121709997D01*
X98584266Y-121623232D01*
X98695451Y-121601116D01*
X98806635Y-121579000D01*
X99033365Y-121579000D01*
X99144549Y-121601116D01*
X99144549Y-121601116D01*
G37*
G36*
X79144549Y-121601116D02*
G01*
X79255734Y-121623232D01*
X79465203Y-121709997D01*
X79653720Y-121835960D01*
X79814040Y-121996280D01*
X79940003Y-122184797D01*
X80026768Y-122394266D01*
X80071000Y-122616636D01*
X80071000Y-122843364D01*
X80026768Y-123065734D01*
X79940003Y-123275203D01*
X79814040Y-123463720D01*
X79653720Y-123624040D01*
X79465203Y-123750003D01*
X79255734Y-123836768D01*
X79144549Y-123858884D01*
X79033365Y-123881000D01*
X78806635Y-123881000D01*
X78695451Y-123858884D01*
X78584266Y-123836768D01*
X78374797Y-123750003D01*
X78186280Y-123624040D01*
X78025960Y-123463720D01*
X77899997Y-123275203D01*
X77813232Y-123065734D01*
X77769000Y-122843364D01*
X77769000Y-122616636D01*
X77813232Y-122394266D01*
X77899997Y-122184797D01*
X78025960Y-121996280D01*
X78186280Y-121835960D01*
X78374797Y-121709997D01*
X78584266Y-121623232D01*
X78695451Y-121601116D01*
X78806635Y-121579000D01*
X79033365Y-121579000D01*
X79144549Y-121601116D01*
X79144549Y-121601116D01*
G37*
G36*
X85494549Y-119061116D02*
G01*
X85605734Y-119083232D01*
X85815203Y-119169997D01*
X86003720Y-119295960D01*
X86164040Y-119456280D01*
X86290003Y-119644797D01*
X86376768Y-119854266D01*
X86421000Y-120076636D01*
X86421000Y-120303364D01*
X86376768Y-120525734D01*
X86290003Y-120735203D01*
X86164040Y-120923720D01*
X86003720Y-121084040D01*
X85815203Y-121210003D01*
X85605734Y-121296768D01*
X85494549Y-121318884D01*
X85383365Y-121341000D01*
X85156635Y-121341000D01*
X85045451Y-121318884D01*
X84934266Y-121296768D01*
X84724797Y-121210003D01*
X84536280Y-121084040D01*
X84375960Y-120923720D01*
X84249997Y-120735203D01*
X84163232Y-120525734D01*
X84119000Y-120303364D01*
X84119000Y-120076636D01*
X84163232Y-119854266D01*
X84249997Y-119644797D01*
X84375960Y-119456280D01*
X84536280Y-119295960D01*
X84724797Y-119169997D01*
X84934266Y-119083232D01*
X85045451Y-119061116D01*
X85156635Y-119039000D01*
X85383365Y-119039000D01*
X85494549Y-119061116D01*
X85494549Y-119061116D01*
G37*
G36*
X105494549Y-119061116D02*
G01*
X105605734Y-119083232D01*
X105815203Y-119169997D01*
X106003720Y-119295960D01*
X106164040Y-119456280D01*
X106290003Y-119644797D01*
X106376768Y-119854266D01*
X106421000Y-120076636D01*
X106421000Y-120303364D01*
X106376768Y-120525734D01*
X106290003Y-120735203D01*
X106164040Y-120923720D01*
X106003720Y-121084040D01*
X105815203Y-121210003D01*
X105605734Y-121296768D01*
X105494549Y-121318884D01*
X105383365Y-121341000D01*
X105156635Y-121341000D01*
X105045451Y-121318884D01*
X104934266Y-121296768D01*
X104724797Y-121210003D01*
X104536280Y-121084040D01*
X104375960Y-120923720D01*
X104249997Y-120735203D01*
X104163232Y-120525734D01*
X104119000Y-120303364D01*
X104119000Y-120076636D01*
X104163232Y-119854266D01*
X104249997Y-119644797D01*
X104375960Y-119456280D01*
X104536280Y-119295960D01*
X104724797Y-119169997D01*
X104934266Y-119083232D01*
X105045451Y-119061116D01*
X105156635Y-119039000D01*
X105383365Y-119039000D01*
X105494549Y-119061116D01*
X105494549Y-119061116D01*
G37*
G36*
X145494549Y-119061116D02*
G01*
X145605734Y-119083232D01*
X145815203Y-119169997D01*
X146003720Y-119295960D01*
X146164040Y-119456280D01*
X146290003Y-119644797D01*
X146376768Y-119854266D01*
X146421000Y-120076636D01*
X146421000Y-120303364D01*
X146376768Y-120525734D01*
X146290003Y-120735203D01*
X146164040Y-120923720D01*
X146003720Y-121084040D01*
X145815203Y-121210003D01*
X145605734Y-121296768D01*
X145494549Y-121318884D01*
X145383365Y-121341000D01*
X145156635Y-121341000D01*
X145045451Y-121318884D01*
X144934266Y-121296768D01*
X144724797Y-121210003D01*
X144536280Y-121084040D01*
X144375960Y-120923720D01*
X144249997Y-120735203D01*
X144163232Y-120525734D01*
X144119000Y-120303364D01*
X144119000Y-120076636D01*
X144163232Y-119854266D01*
X144249997Y-119644797D01*
X144375960Y-119456280D01*
X144536280Y-119295960D01*
X144724797Y-119169997D01*
X144934266Y-119083232D01*
X145045451Y-119061116D01*
X145156635Y-119039000D01*
X145383365Y-119039000D01*
X145494549Y-119061116D01*
X145494549Y-119061116D01*
G37*
G36*
X165494549Y-119061116D02*
G01*
X165605734Y-119083232D01*
X165815203Y-119169997D01*
X166003720Y-119295960D01*
X166164040Y-119456280D01*
X166290003Y-119644797D01*
X166376768Y-119854266D01*
X166421000Y-120076636D01*
X166421000Y-120303364D01*
X166376768Y-120525734D01*
X166290003Y-120735203D01*
X166164040Y-120923720D01*
X166003720Y-121084040D01*
X165815203Y-121210003D01*
X165605734Y-121296768D01*
X165494549Y-121318884D01*
X165383365Y-121341000D01*
X165156635Y-121341000D01*
X165045451Y-121318884D01*
X164934266Y-121296768D01*
X164724797Y-121210003D01*
X164536280Y-121084040D01*
X164375960Y-120923720D01*
X164249997Y-120735203D01*
X164163232Y-120525734D01*
X164119000Y-120303364D01*
X164119000Y-120076636D01*
X164163232Y-119854266D01*
X164249997Y-119644797D01*
X164375960Y-119456280D01*
X164536280Y-119295960D01*
X164724797Y-119169997D01*
X164934266Y-119083232D01*
X165045451Y-119061116D01*
X165156635Y-119039000D01*
X165383365Y-119039000D01*
X165494549Y-119061116D01*
X165494549Y-119061116D01*
G37*
G36*
X125494549Y-119061116D02*
G01*
X125605734Y-119083232D01*
X125815203Y-119169997D01*
X126003720Y-119295960D01*
X126164040Y-119456280D01*
X126290003Y-119644797D01*
X126376768Y-119854266D01*
X126421000Y-120076636D01*
X126421000Y-120303364D01*
X126376768Y-120525734D01*
X126290003Y-120735203D01*
X126164040Y-120923720D01*
X126003720Y-121084040D01*
X125815203Y-121210003D01*
X125605734Y-121296768D01*
X125494549Y-121318884D01*
X125383365Y-121341000D01*
X125156635Y-121341000D01*
X125045451Y-121318884D01*
X124934266Y-121296768D01*
X124724797Y-121210003D01*
X124536280Y-121084040D01*
X124375960Y-120923720D01*
X124249997Y-120735203D01*
X124163232Y-120525734D01*
X124119000Y-120303364D01*
X124119000Y-120076636D01*
X124163232Y-119854266D01*
X124249997Y-119644797D01*
X124375960Y-119456280D01*
X124536280Y-119295960D01*
X124724797Y-119169997D01*
X124934266Y-119083232D01*
X125045451Y-119061116D01*
X125156635Y-119039000D01*
X125383365Y-119039000D01*
X125494549Y-119061116D01*
X125494549Y-119061116D01*
G37*
G36*
X77758142Y-113893781D02*
G01*
X77903914Y-113954162D01*
X77903916Y-113954163D01*
X78035108Y-114041822D01*
X78146678Y-114153392D01*
X78234337Y-114284584D01*
X78234338Y-114284586D01*
X78294719Y-114430358D01*
X78325500Y-114585107D01*
X78325500Y-114742893D01*
X78294719Y-114897642D01*
X78234338Y-115043414D01*
X78234337Y-115043416D01*
X78146678Y-115174608D01*
X78035108Y-115286178D01*
X77903916Y-115373837D01*
X77903915Y-115373838D01*
X77903914Y-115373838D01*
X77758142Y-115434219D01*
X77603393Y-115465000D01*
X77445607Y-115465000D01*
X77290858Y-115434219D01*
X77145086Y-115373838D01*
X77145085Y-115373838D01*
X77145084Y-115373837D01*
X77013892Y-115286178D01*
X76902322Y-115174608D01*
X76814663Y-115043416D01*
X76814662Y-115043414D01*
X76754281Y-114897642D01*
X76723500Y-114742893D01*
X76723500Y-114585107D01*
X76754281Y-114430358D01*
X76814662Y-114284586D01*
X76814663Y-114284584D01*
X76902322Y-114153392D01*
X77013892Y-114041822D01*
X77145084Y-113954163D01*
X77145086Y-113954162D01*
X77290858Y-113893781D01*
X77445607Y-113863000D01*
X77603393Y-113863000D01*
X77758142Y-113893781D01*
X77758142Y-113893781D01*
G37*
G36*
X74650499Y-111411445D02*
G01*
X74687995Y-111422820D01*
X74722554Y-111441292D01*
X74752847Y-111466153D01*
X74777708Y-111496446D01*
X74796180Y-111531005D01*
X74807555Y-111568501D01*
X74812000Y-111613638D01*
X74812000Y-112352362D01*
X74807555Y-112397499D01*
X74796180Y-112434995D01*
X74777708Y-112469554D01*
X74752847Y-112499847D01*
X74722554Y-112524708D01*
X74687995Y-112543180D01*
X74650499Y-112554555D01*
X74605362Y-112559000D01*
X73966638Y-112559000D01*
X73921501Y-112554555D01*
X73884005Y-112543180D01*
X73849446Y-112524708D01*
X73819153Y-112499847D01*
X73794292Y-112469554D01*
X73775820Y-112434995D01*
X73764445Y-112397499D01*
X73760000Y-112352362D01*
X73760000Y-111613638D01*
X73764445Y-111568501D01*
X73775820Y-111531005D01*
X73794292Y-111496446D01*
X73819153Y-111466153D01*
X73849446Y-111441292D01*
X73884005Y-111422820D01*
X73921501Y-111411445D01*
X73966638Y-111407000D01*
X74605362Y-111407000D01*
X74650499Y-111411445D01*
X74650499Y-111411445D01*
G37*
G36*
X74650499Y-109661445D02*
G01*
X74687995Y-109672820D01*
X74722554Y-109691292D01*
X74752847Y-109716153D01*
X74777708Y-109746446D01*
X74796180Y-109781005D01*
X74807555Y-109818501D01*
X74812000Y-109863638D01*
X74812000Y-110602362D01*
X74807555Y-110647499D01*
X74796180Y-110684995D01*
X74777708Y-110719554D01*
X74752847Y-110749847D01*
X74722554Y-110774708D01*
X74687995Y-110793180D01*
X74650499Y-110804555D01*
X74605362Y-110809000D01*
X73966638Y-110809000D01*
X73921501Y-110804555D01*
X73884005Y-110793180D01*
X73849446Y-110774708D01*
X73819153Y-110749847D01*
X73794292Y-110719554D01*
X73775820Y-110684995D01*
X73764445Y-110647499D01*
X73760000Y-110602362D01*
X73760000Y-109863638D01*
X73764445Y-109818501D01*
X73775820Y-109781005D01*
X73794292Y-109746446D01*
X73819153Y-109716153D01*
X73849446Y-109691292D01*
X73884005Y-109672820D01*
X73921501Y-109661445D01*
X73966638Y-109657000D01*
X74605362Y-109657000D01*
X74650499Y-109661445D01*
X74650499Y-109661445D01*
G37*
G36*
X163328254Y-103437818D02*
G01*
X163701511Y-103592426D01*
X163701513Y-103592427D01*
X164037436Y-103816884D01*
X164323116Y-104102564D01*
X164547574Y-104438489D01*
X164702182Y-104811746D01*
X164781000Y-105207993D01*
X164781000Y-105612007D01*
X164702182Y-106008254D01*
X164547574Y-106381511D01*
X164547573Y-106381513D01*
X164323116Y-106717436D01*
X164037436Y-107003116D01*
X163701513Y-107227573D01*
X163701512Y-107227574D01*
X163701511Y-107227574D01*
X163328254Y-107382182D01*
X162932007Y-107461000D01*
X162527993Y-107461000D01*
X162131746Y-107382182D01*
X161758489Y-107227574D01*
X161758488Y-107227574D01*
X161758487Y-107227573D01*
X161422564Y-107003116D01*
X161136884Y-106717436D01*
X160912427Y-106381513D01*
X160912426Y-106381511D01*
X160757818Y-106008254D01*
X160679000Y-105612007D01*
X160679000Y-105207993D01*
X160757818Y-104811746D01*
X160912426Y-104438489D01*
X161136884Y-104102564D01*
X161422564Y-103816884D01*
X161758487Y-103592427D01*
X161758489Y-103592426D01*
X162131746Y-103437818D01*
X162527993Y-103359000D01*
X162932007Y-103359000D01*
X163328254Y-103437818D01*
X163328254Y-103437818D01*
G37*
G36*
X123328254Y-103297818D02*
G01*
X123701511Y-103452426D01*
X123701513Y-103452427D01*
X124037436Y-103676884D01*
X124323116Y-103962564D01*
X124547574Y-104298489D01*
X124702182Y-104671746D01*
X124781000Y-105067993D01*
X124781000Y-105472007D01*
X124702182Y-105868254D01*
X124561266Y-106208456D01*
X124547573Y-106241513D01*
X124323116Y-106577436D01*
X124037436Y-106863116D01*
X123701513Y-107087573D01*
X123701512Y-107087574D01*
X123701511Y-107087574D01*
X123328254Y-107242182D01*
X122932007Y-107321000D01*
X122527993Y-107321000D01*
X122131746Y-107242182D01*
X121758489Y-107087574D01*
X121758488Y-107087574D01*
X121758487Y-107087573D01*
X121422564Y-106863116D01*
X121136884Y-106577436D01*
X120912427Y-106241513D01*
X120898734Y-106208456D01*
X120757818Y-105868254D01*
X120679000Y-105472007D01*
X120679000Y-105067993D01*
X120757818Y-104671746D01*
X120912426Y-104298489D01*
X121136884Y-103962564D01*
X121422564Y-103676884D01*
X121758487Y-103452427D01*
X121758489Y-103452426D01*
X122131746Y-103297818D01*
X122527993Y-103219000D01*
X122932007Y-103219000D01*
X123328254Y-103297818D01*
X123328254Y-103297818D01*
G37*
G36*
X83328254Y-103297818D02*
G01*
X83701511Y-103452426D01*
X83701513Y-103452427D01*
X84037436Y-103676884D01*
X84323116Y-103962564D01*
X84547574Y-104298489D01*
X84702182Y-104671746D01*
X84781000Y-105067993D01*
X84781000Y-105472007D01*
X84702182Y-105868254D01*
X84561266Y-106208456D01*
X84547573Y-106241513D01*
X84323116Y-106577436D01*
X84037436Y-106863116D01*
X83701513Y-107087573D01*
X83701512Y-107087574D01*
X83701511Y-107087574D01*
X83328254Y-107242182D01*
X82932007Y-107321000D01*
X82527993Y-107321000D01*
X82131746Y-107242182D01*
X81758489Y-107087574D01*
X81758488Y-107087574D01*
X81758487Y-107087573D01*
X81422564Y-106863116D01*
X81136884Y-106577436D01*
X80912427Y-106241513D01*
X80898734Y-106208456D01*
X80757818Y-105868254D01*
X80679000Y-105472007D01*
X80679000Y-105067993D01*
X80757818Y-104671746D01*
X80912426Y-104298489D01*
X81136884Y-103962564D01*
X81422564Y-103676884D01*
X81758487Y-103452427D01*
X81758489Y-103452426D01*
X82131746Y-103297818D01*
X82527993Y-103219000D01*
X82932007Y-103219000D01*
X83328254Y-103297818D01*
X83328254Y-103297818D01*
G37*
G36*
X103328254Y-103297818D02*
G01*
X103701511Y-103452426D01*
X103701513Y-103452427D01*
X104037436Y-103676884D01*
X104323116Y-103962564D01*
X104547574Y-104298489D01*
X104702182Y-104671746D01*
X104781000Y-105067993D01*
X104781000Y-105472007D01*
X104702182Y-105868254D01*
X104561266Y-106208456D01*
X104547573Y-106241513D01*
X104323116Y-106577436D01*
X104037436Y-106863116D01*
X103701513Y-107087573D01*
X103701512Y-107087574D01*
X103701511Y-107087574D01*
X103328254Y-107242182D01*
X102932007Y-107321000D01*
X102527993Y-107321000D01*
X102131746Y-107242182D01*
X101758489Y-107087574D01*
X101758488Y-107087574D01*
X101758487Y-107087573D01*
X101422564Y-106863116D01*
X101136884Y-106577436D01*
X100912427Y-106241513D01*
X100898734Y-106208456D01*
X100757818Y-105868254D01*
X100679000Y-105472007D01*
X100679000Y-105067993D01*
X100757818Y-104671746D01*
X100912426Y-104298489D01*
X101136884Y-103962564D01*
X101422564Y-103676884D01*
X101758487Y-103452427D01*
X101758489Y-103452426D01*
X102131746Y-103297818D01*
X102527993Y-103219000D01*
X102932007Y-103219000D01*
X103328254Y-103297818D01*
X103328254Y-103297818D01*
G37*
G36*
X143328254Y-103297818D02*
G01*
X143701511Y-103452426D01*
X143701513Y-103452427D01*
X144037436Y-103676884D01*
X144323116Y-103962564D01*
X144547574Y-104298489D01*
X144702182Y-104671746D01*
X144781000Y-105067993D01*
X144781000Y-105472007D01*
X144702182Y-105868254D01*
X144561266Y-106208456D01*
X144547573Y-106241513D01*
X144323116Y-106577436D01*
X144037436Y-106863116D01*
X143701513Y-107087573D01*
X143701512Y-107087574D01*
X143701511Y-107087574D01*
X143328254Y-107242182D01*
X142932007Y-107321000D01*
X142527993Y-107321000D01*
X142131746Y-107242182D01*
X141758489Y-107087574D01*
X141758488Y-107087574D01*
X141758487Y-107087573D01*
X141422564Y-106863116D01*
X141136884Y-106577436D01*
X140912427Y-106241513D01*
X140898734Y-106208456D01*
X140757818Y-105868254D01*
X140679000Y-105472007D01*
X140679000Y-105067993D01*
X140757818Y-104671746D01*
X140912426Y-104298489D01*
X141136884Y-103962564D01*
X141422564Y-103676884D01*
X141758487Y-103452427D01*
X141758489Y-103452426D01*
X142131746Y-103297818D01*
X142527993Y-103219000D01*
X142932007Y-103219000D01*
X143328254Y-103297818D01*
X143328254Y-103297818D01*
G37*
G36*
X167923512Y-104513927D02*
G01*
X168072812Y-104543624D01*
X168236784Y-104611544D01*
X168384354Y-104710147D01*
X168509853Y-104835646D01*
X168608456Y-104983216D01*
X168676376Y-105147188D01*
X168711000Y-105321259D01*
X168711000Y-105498741D01*
X168676376Y-105672812D01*
X168608456Y-105836784D01*
X168509853Y-105984354D01*
X168384354Y-106109853D01*
X168236784Y-106208456D01*
X168072812Y-106276376D01*
X167923512Y-106306073D01*
X167898742Y-106311000D01*
X167721258Y-106311000D01*
X167696488Y-106306073D01*
X167547188Y-106276376D01*
X167383216Y-106208456D01*
X167235646Y-106109853D01*
X167110147Y-105984354D01*
X167011544Y-105836784D01*
X166943624Y-105672812D01*
X166909000Y-105498741D01*
X166909000Y-105321259D01*
X166943624Y-105147188D01*
X167011544Y-104983216D01*
X167110147Y-104835646D01*
X167235646Y-104710147D01*
X167383216Y-104611544D01*
X167547188Y-104543624D01*
X167696488Y-104513927D01*
X167721258Y-104509000D01*
X167898742Y-104509000D01*
X167923512Y-104513927D01*
X167923512Y-104513927D01*
G37*
G36*
X157763512Y-104513927D02*
G01*
X157912812Y-104543624D01*
X158076784Y-104611544D01*
X158224354Y-104710147D01*
X158349853Y-104835646D01*
X158448456Y-104983216D01*
X158516376Y-105147188D01*
X158551000Y-105321259D01*
X158551000Y-105498741D01*
X158516376Y-105672812D01*
X158448456Y-105836784D01*
X158349853Y-105984354D01*
X158224354Y-106109853D01*
X158076784Y-106208456D01*
X157912812Y-106276376D01*
X157763512Y-106306073D01*
X157738742Y-106311000D01*
X157561258Y-106311000D01*
X157536488Y-106306073D01*
X157387188Y-106276376D01*
X157223216Y-106208456D01*
X157075646Y-106109853D01*
X156950147Y-105984354D01*
X156851544Y-105836784D01*
X156783624Y-105672812D01*
X156749000Y-105498741D01*
X156749000Y-105321259D01*
X156783624Y-105147188D01*
X156851544Y-104983216D01*
X156950147Y-104835646D01*
X157075646Y-104710147D01*
X157223216Y-104611544D01*
X157387188Y-104543624D01*
X157536488Y-104513927D01*
X157561258Y-104509000D01*
X157738742Y-104509000D01*
X157763512Y-104513927D01*
X157763512Y-104513927D01*
G37*
G36*
X137763512Y-104373927D02*
G01*
X137912812Y-104403624D01*
X138076784Y-104471544D01*
X138224354Y-104570147D01*
X138349853Y-104695646D01*
X138448456Y-104843216D01*
X138516376Y-105007188D01*
X138551000Y-105181259D01*
X138551000Y-105358741D01*
X138516376Y-105532812D01*
X138448456Y-105696784D01*
X138349853Y-105844354D01*
X138224354Y-105969853D01*
X138076784Y-106068456D01*
X137912812Y-106136376D01*
X137763512Y-106166073D01*
X137738742Y-106171000D01*
X137561258Y-106171000D01*
X137536488Y-106166073D01*
X137387188Y-106136376D01*
X137223216Y-106068456D01*
X137075646Y-105969853D01*
X136950147Y-105844354D01*
X136851544Y-105696784D01*
X136783624Y-105532812D01*
X136749000Y-105358741D01*
X136749000Y-105181259D01*
X136783624Y-105007188D01*
X136851544Y-104843216D01*
X136950147Y-104695646D01*
X137075646Y-104570147D01*
X137223216Y-104471544D01*
X137387188Y-104403624D01*
X137536488Y-104373927D01*
X137561258Y-104369000D01*
X137738742Y-104369000D01*
X137763512Y-104373927D01*
X137763512Y-104373927D01*
G37*
G36*
X127923512Y-104373927D02*
G01*
X128072812Y-104403624D01*
X128236784Y-104471544D01*
X128384354Y-104570147D01*
X128509853Y-104695646D01*
X128608456Y-104843216D01*
X128676376Y-105007188D01*
X128711000Y-105181259D01*
X128711000Y-105358741D01*
X128676376Y-105532812D01*
X128608456Y-105696784D01*
X128509853Y-105844354D01*
X128384354Y-105969853D01*
X128236784Y-106068456D01*
X128072812Y-106136376D01*
X127923512Y-106166073D01*
X127898742Y-106171000D01*
X127721258Y-106171000D01*
X127696488Y-106166073D01*
X127547188Y-106136376D01*
X127383216Y-106068456D01*
X127235646Y-105969853D01*
X127110147Y-105844354D01*
X127011544Y-105696784D01*
X126943624Y-105532812D01*
X126909000Y-105358741D01*
X126909000Y-105181259D01*
X126943624Y-105007188D01*
X127011544Y-104843216D01*
X127110147Y-104695646D01*
X127235646Y-104570147D01*
X127383216Y-104471544D01*
X127547188Y-104403624D01*
X127696488Y-104373927D01*
X127721258Y-104369000D01*
X127898742Y-104369000D01*
X127923512Y-104373927D01*
X127923512Y-104373927D01*
G37*
G36*
X87923512Y-104373927D02*
G01*
X88072812Y-104403624D01*
X88236784Y-104471544D01*
X88384354Y-104570147D01*
X88509853Y-104695646D01*
X88608456Y-104843216D01*
X88676376Y-105007188D01*
X88711000Y-105181259D01*
X88711000Y-105358741D01*
X88676376Y-105532812D01*
X88608456Y-105696784D01*
X88509853Y-105844354D01*
X88384354Y-105969853D01*
X88236784Y-106068456D01*
X88072812Y-106136376D01*
X87923512Y-106166073D01*
X87898742Y-106171000D01*
X87721258Y-106171000D01*
X87696488Y-106166073D01*
X87547188Y-106136376D01*
X87383216Y-106068456D01*
X87235646Y-105969853D01*
X87110147Y-105844354D01*
X87011544Y-105696784D01*
X86943624Y-105532812D01*
X86909000Y-105358741D01*
X86909000Y-105181259D01*
X86943624Y-105007188D01*
X87011544Y-104843216D01*
X87110147Y-104695646D01*
X87235646Y-104570147D01*
X87383216Y-104471544D01*
X87547188Y-104403624D01*
X87696488Y-104373927D01*
X87721258Y-104369000D01*
X87898742Y-104369000D01*
X87923512Y-104373927D01*
X87923512Y-104373927D01*
G37*
G36*
X77763512Y-104373927D02*
G01*
X77912812Y-104403624D01*
X78076784Y-104471544D01*
X78224354Y-104570147D01*
X78349853Y-104695646D01*
X78448456Y-104843216D01*
X78516376Y-105007188D01*
X78551000Y-105181259D01*
X78551000Y-105358741D01*
X78516376Y-105532812D01*
X78448456Y-105696784D01*
X78349853Y-105844354D01*
X78224354Y-105969853D01*
X78076784Y-106068456D01*
X77912812Y-106136376D01*
X77763512Y-106166073D01*
X77738742Y-106171000D01*
X77561258Y-106171000D01*
X77536488Y-106166073D01*
X77387188Y-106136376D01*
X77223216Y-106068456D01*
X77075646Y-105969853D01*
X76950147Y-105844354D01*
X76851544Y-105696784D01*
X76783624Y-105532812D01*
X76749000Y-105358741D01*
X76749000Y-105181259D01*
X76783624Y-105007188D01*
X76851544Y-104843216D01*
X76950147Y-104695646D01*
X77075646Y-104570147D01*
X77223216Y-104471544D01*
X77387188Y-104403624D01*
X77536488Y-104373927D01*
X77561258Y-104369000D01*
X77738742Y-104369000D01*
X77763512Y-104373927D01*
X77763512Y-104373927D01*
G37*
G36*
X97763512Y-104373927D02*
G01*
X97912812Y-104403624D01*
X98076784Y-104471544D01*
X98224354Y-104570147D01*
X98349853Y-104695646D01*
X98448456Y-104843216D01*
X98516376Y-105007188D01*
X98551000Y-105181259D01*
X98551000Y-105358741D01*
X98516376Y-105532812D01*
X98448456Y-105696784D01*
X98349853Y-105844354D01*
X98224354Y-105969853D01*
X98076784Y-106068456D01*
X97912812Y-106136376D01*
X97763512Y-106166073D01*
X97738742Y-106171000D01*
X97561258Y-106171000D01*
X97536488Y-106166073D01*
X97387188Y-106136376D01*
X97223216Y-106068456D01*
X97075646Y-105969853D01*
X96950147Y-105844354D01*
X96851544Y-105696784D01*
X96783624Y-105532812D01*
X96749000Y-105358741D01*
X96749000Y-105181259D01*
X96783624Y-105007188D01*
X96851544Y-104843216D01*
X96950147Y-104695646D01*
X97075646Y-104570147D01*
X97223216Y-104471544D01*
X97387188Y-104403624D01*
X97536488Y-104373927D01*
X97561258Y-104369000D01*
X97738742Y-104369000D01*
X97763512Y-104373927D01*
X97763512Y-104373927D01*
G37*
G36*
X107923512Y-104373927D02*
G01*
X108072812Y-104403624D01*
X108236784Y-104471544D01*
X108384354Y-104570147D01*
X108509853Y-104695646D01*
X108608456Y-104843216D01*
X108676376Y-105007188D01*
X108711000Y-105181259D01*
X108711000Y-105358741D01*
X108676376Y-105532812D01*
X108608456Y-105696784D01*
X108509853Y-105844354D01*
X108384354Y-105969853D01*
X108236784Y-106068456D01*
X108072812Y-106136376D01*
X107923512Y-106166073D01*
X107898742Y-106171000D01*
X107721258Y-106171000D01*
X107696488Y-106166073D01*
X107547188Y-106136376D01*
X107383216Y-106068456D01*
X107235646Y-105969853D01*
X107110147Y-105844354D01*
X107011544Y-105696784D01*
X106943624Y-105532812D01*
X106909000Y-105358741D01*
X106909000Y-105181259D01*
X106943624Y-105007188D01*
X107011544Y-104843216D01*
X107110147Y-104695646D01*
X107235646Y-104570147D01*
X107383216Y-104471544D01*
X107547188Y-104403624D01*
X107696488Y-104373927D01*
X107721258Y-104369000D01*
X107898742Y-104369000D01*
X107923512Y-104373927D01*
X107923512Y-104373927D01*
G37*
G36*
X117763512Y-104373927D02*
G01*
X117912812Y-104403624D01*
X118076784Y-104471544D01*
X118224354Y-104570147D01*
X118349853Y-104695646D01*
X118448456Y-104843216D01*
X118516376Y-105007188D01*
X118551000Y-105181259D01*
X118551000Y-105358741D01*
X118516376Y-105532812D01*
X118448456Y-105696784D01*
X118349853Y-105844354D01*
X118224354Y-105969853D01*
X118076784Y-106068456D01*
X117912812Y-106136376D01*
X117763512Y-106166073D01*
X117738742Y-106171000D01*
X117561258Y-106171000D01*
X117536488Y-106166073D01*
X117387188Y-106136376D01*
X117223216Y-106068456D01*
X117075646Y-105969853D01*
X116950147Y-105844354D01*
X116851544Y-105696784D01*
X116783624Y-105532812D01*
X116749000Y-105358741D01*
X116749000Y-105181259D01*
X116783624Y-105007188D01*
X116851544Y-104843216D01*
X116950147Y-104695646D01*
X117075646Y-104570147D01*
X117223216Y-104471544D01*
X117387188Y-104403624D01*
X117536488Y-104373927D01*
X117561258Y-104369000D01*
X117738742Y-104369000D01*
X117763512Y-104373927D01*
X117763512Y-104373927D01*
G37*
G36*
X147923512Y-104373927D02*
G01*
X148072812Y-104403624D01*
X148236784Y-104471544D01*
X148384354Y-104570147D01*
X148509853Y-104695646D01*
X148608456Y-104843216D01*
X148676376Y-105007188D01*
X148711000Y-105181259D01*
X148711000Y-105358741D01*
X148676376Y-105532812D01*
X148608456Y-105696784D01*
X148509853Y-105844354D01*
X148384354Y-105969853D01*
X148236784Y-106068456D01*
X148072812Y-106136376D01*
X147923512Y-106166073D01*
X147898742Y-106171000D01*
X147721258Y-106171000D01*
X147696488Y-106166073D01*
X147547188Y-106136376D01*
X147383216Y-106068456D01*
X147235646Y-105969853D01*
X147110147Y-105844354D01*
X147011544Y-105696784D01*
X146943624Y-105532812D01*
X146909000Y-105358741D01*
X146909000Y-105181259D01*
X146943624Y-105007188D01*
X147011544Y-104843216D01*
X147110147Y-104695646D01*
X147235646Y-104570147D01*
X147383216Y-104471544D01*
X147547188Y-104403624D01*
X147696488Y-104373927D01*
X147721258Y-104369000D01*
X147898742Y-104369000D01*
X147923512Y-104373927D01*
X147923512Y-104373927D01*
G37*
G36*
X159144549Y-101741116D02*
G01*
X159255734Y-101763232D01*
X159465203Y-101849997D01*
X159653720Y-101975960D01*
X159814040Y-102136280D01*
X159940003Y-102324797D01*
X160026768Y-102534266D01*
X160071000Y-102756636D01*
X160071000Y-102983364D01*
X160026768Y-103205734D01*
X159940003Y-103415203D01*
X159814040Y-103603720D01*
X159653720Y-103764040D01*
X159465203Y-103890003D01*
X159255734Y-103976768D01*
X159144549Y-103998884D01*
X159033365Y-104021000D01*
X158806635Y-104021000D01*
X158695451Y-103998884D01*
X158584266Y-103976768D01*
X158374797Y-103890003D01*
X158186280Y-103764040D01*
X158025960Y-103603720D01*
X157899997Y-103415203D01*
X157813232Y-103205734D01*
X157769000Y-102983364D01*
X157769000Y-102756636D01*
X157813232Y-102534266D01*
X157899997Y-102324797D01*
X158025960Y-102136280D01*
X158186280Y-101975960D01*
X158374797Y-101849997D01*
X158584266Y-101763232D01*
X158695451Y-101741116D01*
X158806635Y-101719000D01*
X159033365Y-101719000D01*
X159144549Y-101741116D01*
X159144549Y-101741116D01*
G37*
G36*
X139144549Y-101601116D02*
G01*
X139255734Y-101623232D01*
X139465203Y-101709997D01*
X139653720Y-101835960D01*
X139814040Y-101996280D01*
X139940003Y-102184797D01*
X140026768Y-102394266D01*
X140071000Y-102616636D01*
X140071000Y-102843364D01*
X140026768Y-103065734D01*
X139940003Y-103275203D01*
X139814040Y-103463720D01*
X139653720Y-103624040D01*
X139465203Y-103750003D01*
X139255734Y-103836768D01*
X139144549Y-103858884D01*
X139033365Y-103881000D01*
X138806635Y-103881000D01*
X138695451Y-103858884D01*
X138584266Y-103836768D01*
X138374797Y-103750003D01*
X138186280Y-103624040D01*
X138025960Y-103463720D01*
X137899997Y-103275203D01*
X137813232Y-103065734D01*
X137769000Y-102843364D01*
X137769000Y-102616636D01*
X137813232Y-102394266D01*
X137899997Y-102184797D01*
X138025960Y-101996280D01*
X138186280Y-101835960D01*
X138374797Y-101709997D01*
X138584266Y-101623232D01*
X138695451Y-101601116D01*
X138806635Y-101579000D01*
X139033365Y-101579000D01*
X139144549Y-101601116D01*
X139144549Y-101601116D01*
G37*
G36*
X119144549Y-101601116D02*
G01*
X119255734Y-101623232D01*
X119465203Y-101709997D01*
X119653720Y-101835960D01*
X119814040Y-101996280D01*
X119940003Y-102184797D01*
X120026768Y-102394266D01*
X120071000Y-102616636D01*
X120071000Y-102843364D01*
X120026768Y-103065734D01*
X119940003Y-103275203D01*
X119814040Y-103463720D01*
X119653720Y-103624040D01*
X119465203Y-103750003D01*
X119255734Y-103836768D01*
X119144549Y-103858884D01*
X119033365Y-103881000D01*
X118806635Y-103881000D01*
X118695451Y-103858884D01*
X118584266Y-103836768D01*
X118374797Y-103750003D01*
X118186280Y-103624040D01*
X118025960Y-103463720D01*
X117899997Y-103275203D01*
X117813232Y-103065734D01*
X117769000Y-102843364D01*
X117769000Y-102616636D01*
X117813232Y-102394266D01*
X117899997Y-102184797D01*
X118025960Y-101996280D01*
X118186280Y-101835960D01*
X118374797Y-101709997D01*
X118584266Y-101623232D01*
X118695451Y-101601116D01*
X118806635Y-101579000D01*
X119033365Y-101579000D01*
X119144549Y-101601116D01*
X119144549Y-101601116D01*
G37*
G36*
X79144549Y-101601116D02*
G01*
X79255734Y-101623232D01*
X79465203Y-101709997D01*
X79653720Y-101835960D01*
X79814040Y-101996280D01*
X79940003Y-102184797D01*
X80026768Y-102394266D01*
X80071000Y-102616636D01*
X80071000Y-102843364D01*
X80026768Y-103065734D01*
X79940003Y-103275203D01*
X79814040Y-103463720D01*
X79653720Y-103624040D01*
X79465203Y-103750003D01*
X79255734Y-103836768D01*
X79144549Y-103858884D01*
X79033365Y-103881000D01*
X78806635Y-103881000D01*
X78695451Y-103858884D01*
X78584266Y-103836768D01*
X78374797Y-103750003D01*
X78186280Y-103624040D01*
X78025960Y-103463720D01*
X77899997Y-103275203D01*
X77813232Y-103065734D01*
X77769000Y-102843364D01*
X77769000Y-102616636D01*
X77813232Y-102394266D01*
X77899997Y-102184797D01*
X78025960Y-101996280D01*
X78186280Y-101835960D01*
X78374797Y-101709997D01*
X78584266Y-101623232D01*
X78695451Y-101601116D01*
X78806635Y-101579000D01*
X79033365Y-101579000D01*
X79144549Y-101601116D01*
X79144549Y-101601116D01*
G37*
G36*
X99144549Y-101601116D02*
G01*
X99255734Y-101623232D01*
X99465203Y-101709997D01*
X99653720Y-101835960D01*
X99814040Y-101996280D01*
X99940003Y-102184797D01*
X100026768Y-102394266D01*
X100071000Y-102616636D01*
X100071000Y-102843364D01*
X100026768Y-103065734D01*
X99940003Y-103275203D01*
X99814040Y-103463720D01*
X99653720Y-103624040D01*
X99465203Y-103750003D01*
X99255734Y-103836768D01*
X99144549Y-103858884D01*
X99033365Y-103881000D01*
X98806635Y-103881000D01*
X98695451Y-103858884D01*
X98584266Y-103836768D01*
X98374797Y-103750003D01*
X98186280Y-103624040D01*
X98025960Y-103463720D01*
X97899997Y-103275203D01*
X97813232Y-103065734D01*
X97769000Y-102843364D01*
X97769000Y-102616636D01*
X97813232Y-102394266D01*
X97899997Y-102184797D01*
X98025960Y-101996280D01*
X98186280Y-101835960D01*
X98374797Y-101709997D01*
X98584266Y-101623232D01*
X98695451Y-101601116D01*
X98806635Y-101579000D01*
X99033365Y-101579000D01*
X99144549Y-101601116D01*
X99144549Y-101601116D01*
G37*
G36*
X165494549Y-99201116D02*
G01*
X165605734Y-99223232D01*
X165815203Y-99309997D01*
X166003720Y-99435960D01*
X166164040Y-99596280D01*
X166290003Y-99784797D01*
X166376768Y-99994266D01*
X166421000Y-100216636D01*
X166421000Y-100443364D01*
X166376768Y-100665734D01*
X166290003Y-100875203D01*
X166164040Y-101063720D01*
X166003720Y-101224040D01*
X165815203Y-101350003D01*
X165605734Y-101436768D01*
X165494549Y-101458884D01*
X165383365Y-101481000D01*
X165156635Y-101481000D01*
X165045451Y-101458884D01*
X164934266Y-101436768D01*
X164724797Y-101350003D01*
X164536280Y-101224040D01*
X164375960Y-101063720D01*
X164249997Y-100875203D01*
X164163232Y-100665734D01*
X164119000Y-100443364D01*
X164119000Y-100216636D01*
X164163232Y-99994266D01*
X164249997Y-99784797D01*
X164375960Y-99596280D01*
X164536280Y-99435960D01*
X164724797Y-99309997D01*
X164934266Y-99223232D01*
X165045451Y-99201116D01*
X165156635Y-99179000D01*
X165383365Y-99179000D01*
X165494549Y-99201116D01*
X165494549Y-99201116D01*
G37*
G36*
X125494549Y-99061116D02*
G01*
X125605734Y-99083232D01*
X125815203Y-99169997D01*
X126003720Y-99295960D01*
X126164040Y-99456280D01*
X126290003Y-99644797D01*
X126376768Y-99854266D01*
X126421000Y-100076636D01*
X126421000Y-100303364D01*
X126376768Y-100525734D01*
X126290003Y-100735203D01*
X126164040Y-100923720D01*
X126003720Y-101084040D01*
X125815203Y-101210003D01*
X125605734Y-101296768D01*
X125494549Y-101318884D01*
X125383365Y-101341000D01*
X125156635Y-101341000D01*
X125045451Y-101318884D01*
X124934266Y-101296768D01*
X124724797Y-101210003D01*
X124536280Y-101084040D01*
X124375960Y-100923720D01*
X124249997Y-100735203D01*
X124163232Y-100525734D01*
X124119000Y-100303364D01*
X124119000Y-100076636D01*
X124163232Y-99854266D01*
X124249997Y-99644797D01*
X124375960Y-99456280D01*
X124536280Y-99295960D01*
X124724797Y-99169997D01*
X124934266Y-99083232D01*
X125045451Y-99061116D01*
X125156635Y-99039000D01*
X125383365Y-99039000D01*
X125494549Y-99061116D01*
X125494549Y-99061116D01*
G37*
G36*
X145494549Y-99061116D02*
G01*
X145605734Y-99083232D01*
X145815203Y-99169997D01*
X146003720Y-99295960D01*
X146164040Y-99456280D01*
X146290003Y-99644797D01*
X146376768Y-99854266D01*
X146421000Y-100076636D01*
X146421000Y-100303364D01*
X146376768Y-100525734D01*
X146290003Y-100735203D01*
X146164040Y-100923720D01*
X146003720Y-101084040D01*
X145815203Y-101210003D01*
X145605734Y-101296768D01*
X145494549Y-101318884D01*
X145383365Y-101341000D01*
X145156635Y-101341000D01*
X145045451Y-101318884D01*
X144934266Y-101296768D01*
X144724797Y-101210003D01*
X144536280Y-101084040D01*
X144375960Y-100923720D01*
X144249997Y-100735203D01*
X144163232Y-100525734D01*
X144119000Y-100303364D01*
X144119000Y-100076636D01*
X144163232Y-99854266D01*
X144249997Y-99644797D01*
X144375960Y-99456280D01*
X144536280Y-99295960D01*
X144724797Y-99169997D01*
X144934266Y-99083232D01*
X145045451Y-99061116D01*
X145156635Y-99039000D01*
X145383365Y-99039000D01*
X145494549Y-99061116D01*
X145494549Y-99061116D01*
G37*
G36*
X85494549Y-99061116D02*
G01*
X85605734Y-99083232D01*
X85815203Y-99169997D01*
X86003720Y-99295960D01*
X86164040Y-99456280D01*
X86290003Y-99644797D01*
X86376768Y-99854266D01*
X86421000Y-100076636D01*
X86421000Y-100303364D01*
X86376768Y-100525734D01*
X86290003Y-100735203D01*
X86164040Y-100923720D01*
X86003720Y-101084040D01*
X85815203Y-101210003D01*
X85605734Y-101296768D01*
X85494549Y-101318884D01*
X85383365Y-101341000D01*
X85156635Y-101341000D01*
X85045451Y-101318884D01*
X84934266Y-101296768D01*
X84724797Y-101210003D01*
X84536280Y-101084040D01*
X84375960Y-100923720D01*
X84249997Y-100735203D01*
X84163232Y-100525734D01*
X84119000Y-100303364D01*
X84119000Y-100076636D01*
X84163232Y-99854266D01*
X84249997Y-99644797D01*
X84375960Y-99456280D01*
X84536280Y-99295960D01*
X84724797Y-99169997D01*
X84934266Y-99083232D01*
X85045451Y-99061116D01*
X85156635Y-99039000D01*
X85383365Y-99039000D01*
X85494549Y-99061116D01*
X85494549Y-99061116D01*
G37*
G36*
X105494549Y-99061116D02*
G01*
X105605734Y-99083232D01*
X105815203Y-99169997D01*
X106003720Y-99295960D01*
X106164040Y-99456280D01*
X106290003Y-99644797D01*
X106376768Y-99854266D01*
X106421000Y-100076636D01*
X106421000Y-100303364D01*
X106376768Y-100525734D01*
X106290003Y-100735203D01*
X106164040Y-100923720D01*
X106003720Y-101084040D01*
X105815203Y-101210003D01*
X105605734Y-101296768D01*
X105494549Y-101318884D01*
X105383365Y-101341000D01*
X105156635Y-101341000D01*
X105045451Y-101318884D01*
X104934266Y-101296768D01*
X104724797Y-101210003D01*
X104536280Y-101084040D01*
X104375960Y-100923720D01*
X104249997Y-100735203D01*
X104163232Y-100525734D01*
X104119000Y-100303364D01*
X104119000Y-100076636D01*
X104163232Y-99854266D01*
X104249997Y-99644797D01*
X104375960Y-99456280D01*
X104536280Y-99295960D01*
X104724797Y-99169997D01*
X104934266Y-99083232D01*
X105045451Y-99061116D01*
X105156635Y-99039000D01*
X105383365Y-99039000D01*
X105494549Y-99061116D01*
X105494549Y-99061116D01*
G37*
G36*
X147417642Y-95351781D02*
G01*
X147563414Y-95412162D01*
X147563416Y-95412163D01*
X147694608Y-95499822D01*
X147806178Y-95611392D01*
X147893837Y-95742584D01*
X147893838Y-95742586D01*
X147954219Y-95888358D01*
X147985000Y-96043107D01*
X147985000Y-96200893D01*
X147954219Y-96355642D01*
X147893838Y-96501414D01*
X147893837Y-96501416D01*
X147806178Y-96632608D01*
X147694608Y-96744178D01*
X147563416Y-96831837D01*
X147563415Y-96831838D01*
X147563414Y-96831838D01*
X147417642Y-96892219D01*
X147262893Y-96923000D01*
X147105107Y-96923000D01*
X146950358Y-96892219D01*
X146804586Y-96831838D01*
X146804585Y-96831838D01*
X146804584Y-96831837D01*
X146673392Y-96744178D01*
X146561822Y-96632608D01*
X146474163Y-96501416D01*
X146474162Y-96501414D01*
X146413781Y-96355642D01*
X146383000Y-96200893D01*
X146383000Y-96043107D01*
X146413781Y-95888358D01*
X146474162Y-95742586D01*
X146474163Y-95742584D01*
X146561822Y-95611392D01*
X146673392Y-95499822D01*
X146804584Y-95412163D01*
X146804586Y-95412162D01*
X146950358Y-95351781D01*
X147105107Y-95321000D01*
X147262893Y-95321000D01*
X147417642Y-95351781D01*
X147417642Y-95351781D01*
G37*
G36*
X84051999Y-94559737D02*
G01*
X84061608Y-94562652D01*
X84070472Y-94567390D01*
X84078237Y-94573763D01*
X84088448Y-94586206D01*
X84095378Y-94596575D01*
X84112705Y-94613902D01*
X84133080Y-94627515D01*
X84155720Y-94636891D01*
X84179753Y-94641671D01*
X84204257Y-94641670D01*
X84228290Y-94636888D01*
X84250929Y-94627510D01*
X84271302Y-94613895D01*
X84288629Y-94596568D01*
X84295558Y-94586198D01*
X84305763Y-94573763D01*
X84313528Y-94567390D01*
X84322392Y-94562652D01*
X84332001Y-94559737D01*
X84348140Y-94558148D01*
X84835861Y-94558148D01*
X84854199Y-94559954D01*
X84866450Y-94560556D01*
X84884869Y-94560556D01*
X84907149Y-94562750D01*
X84991233Y-94579476D01*
X85012660Y-94585976D01*
X85091858Y-94618780D01*
X85097303Y-94621691D01*
X85097309Y-94621693D01*
X85106169Y-94626429D01*
X85106173Y-94626432D01*
X85111614Y-94629340D01*
X85182899Y-94676971D01*
X85200204Y-94691172D01*
X85260828Y-94751796D01*
X85275029Y-94769101D01*
X85322660Y-94840386D01*
X85325568Y-94845827D01*
X85325571Y-94845831D01*
X85330307Y-94854691D01*
X85330309Y-94854697D01*
X85333220Y-94860142D01*
X85366024Y-94939340D01*
X85372524Y-94960767D01*
X85389250Y-95044851D01*
X85391444Y-95067131D01*
X85391444Y-95085550D01*
X85392046Y-95097801D01*
X85393852Y-95116139D01*
X85393852Y-95603862D01*
X85392046Y-95622199D01*
X85391444Y-95634450D01*
X85391444Y-95652869D01*
X85389250Y-95675149D01*
X85372524Y-95759233D01*
X85366024Y-95780660D01*
X85333220Y-95859858D01*
X85330309Y-95865303D01*
X85330307Y-95865309D01*
X85325571Y-95874169D01*
X85325568Y-95874173D01*
X85322660Y-95879614D01*
X85275029Y-95950899D01*
X85260828Y-95968204D01*
X85200204Y-96028828D01*
X85182899Y-96043029D01*
X85111614Y-96090660D01*
X85106173Y-96093568D01*
X85106169Y-96093571D01*
X85097309Y-96098307D01*
X85097303Y-96098309D01*
X85091858Y-96101220D01*
X85012660Y-96134024D01*
X84991233Y-96140524D01*
X84907149Y-96157250D01*
X84884869Y-96159444D01*
X84866450Y-96159444D01*
X84854199Y-96160046D01*
X84835862Y-96161852D01*
X84348140Y-96161852D01*
X84332001Y-96160263D01*
X84322392Y-96157348D01*
X84313528Y-96152610D01*
X84305763Y-96146237D01*
X84295552Y-96133794D01*
X84288622Y-96123425D01*
X84271295Y-96106098D01*
X84250920Y-96092485D01*
X84228280Y-96083109D01*
X84204247Y-96078329D01*
X84179743Y-96078330D01*
X84155710Y-96083112D01*
X84133071Y-96092490D01*
X84112698Y-96106105D01*
X84095371Y-96123432D01*
X84088442Y-96133802D01*
X84078237Y-96146237D01*
X84070472Y-96152610D01*
X84061608Y-96157348D01*
X84051999Y-96160263D01*
X84035860Y-96161852D01*
X83548138Y-96161852D01*
X83529801Y-96160046D01*
X83517550Y-96159444D01*
X83499131Y-96159444D01*
X83476851Y-96157250D01*
X83392767Y-96140524D01*
X83371340Y-96134024D01*
X83292142Y-96101220D01*
X83286697Y-96098309D01*
X83286691Y-96098307D01*
X83277831Y-96093571D01*
X83277827Y-96093568D01*
X83272386Y-96090660D01*
X83201101Y-96043029D01*
X83183796Y-96028828D01*
X83123172Y-95968204D01*
X83108971Y-95950899D01*
X83061340Y-95879614D01*
X83058432Y-95874173D01*
X83058429Y-95874169D01*
X83053693Y-95865309D01*
X83053691Y-95865303D01*
X83050780Y-95859858D01*
X83017976Y-95780660D01*
X83011476Y-95759233D01*
X82994750Y-95675149D01*
X82992556Y-95652869D01*
X82992556Y-95634450D01*
X82991954Y-95622199D01*
X82990148Y-95603862D01*
X82990148Y-95116139D01*
X82991954Y-95097801D01*
X82992556Y-95085550D01*
X82992556Y-95067131D01*
X82994750Y-95044851D01*
X83011476Y-94960767D01*
X83017976Y-94939340D01*
X83050780Y-94860142D01*
X83053691Y-94854697D01*
X83053693Y-94854691D01*
X83058429Y-94845831D01*
X83058432Y-94845827D01*
X83061340Y-94840386D01*
X83108971Y-94769101D01*
X83123172Y-94751796D01*
X83183796Y-94691172D01*
X83201101Y-94676971D01*
X83272386Y-94629340D01*
X83277827Y-94626432D01*
X83277831Y-94626429D01*
X83286691Y-94621693D01*
X83286697Y-94621691D01*
X83292142Y-94618780D01*
X83371340Y-94585976D01*
X83392767Y-94579476D01*
X83476851Y-94562750D01*
X83499131Y-94560556D01*
X83517550Y-94560556D01*
X83529801Y-94559954D01*
X83548139Y-94558148D01*
X84035860Y-94558148D01*
X84051999Y-94559737D01*
X84051999Y-94559737D01*
G37*
G36*
X142651468Y-93470565D02*
G01*
X142690138Y-93482296D01*
X142725777Y-93501346D01*
X142757017Y-93526983D01*
X142782654Y-93558223D01*
X142801704Y-93593862D01*
X142813435Y-93632532D01*
X142818000Y-93678888D01*
X142818000Y-94755112D01*
X142813435Y-94801468D01*
X142801704Y-94840138D01*
X142782654Y-94875777D01*
X142757017Y-94907017D01*
X142725777Y-94932654D01*
X142690138Y-94951704D01*
X142651468Y-94963435D01*
X142605112Y-94968000D01*
X141953888Y-94968000D01*
X141907532Y-94963435D01*
X141868862Y-94951704D01*
X141833223Y-94932654D01*
X141801983Y-94907017D01*
X141776346Y-94875777D01*
X141757296Y-94840138D01*
X141745565Y-94801468D01*
X141741000Y-94755112D01*
X141741000Y-93678888D01*
X141745565Y-93632532D01*
X141757296Y-93593862D01*
X141776346Y-93558223D01*
X141801983Y-93526983D01*
X141833223Y-93501346D01*
X141868862Y-93482296D01*
X141907532Y-93470565D01*
X141953888Y-93466000D01*
X142605112Y-93466000D01*
X142651468Y-93470565D01*
X142651468Y-93470565D01*
G37*
G36*
X140776468Y-93470565D02*
G01*
X140815138Y-93482296D01*
X140850777Y-93501346D01*
X140882017Y-93526983D01*
X140907654Y-93558223D01*
X140926704Y-93593862D01*
X140938435Y-93632532D01*
X140943000Y-93678888D01*
X140943000Y-94755112D01*
X140938435Y-94801468D01*
X140926704Y-94840138D01*
X140907654Y-94875777D01*
X140882017Y-94907017D01*
X140850777Y-94932654D01*
X140815138Y-94951704D01*
X140776468Y-94963435D01*
X140730112Y-94968000D01*
X140078888Y-94968000D01*
X140032532Y-94963435D01*
X139993862Y-94951704D01*
X139958223Y-94932654D01*
X139926983Y-94907017D01*
X139901346Y-94875777D01*
X139882296Y-94840138D01*
X139870565Y-94801468D01*
X139866000Y-94755112D01*
X139866000Y-93678888D01*
X139870565Y-93632532D01*
X139882296Y-93593862D01*
X139901346Y-93558223D01*
X139926983Y-93526983D01*
X139958223Y-93501346D01*
X139993862Y-93482296D01*
X140032532Y-93470565D01*
X140078888Y-93466000D01*
X140730112Y-93466000D01*
X140776468Y-93470565D01*
X140776468Y-93470565D01*
G37*
G36*
X84051999Y-92019737D02*
G01*
X84061608Y-92022652D01*
X84070472Y-92027390D01*
X84078237Y-92033763D01*
X84088448Y-92046206D01*
X84095378Y-92056575D01*
X84112705Y-92073902D01*
X84133080Y-92087515D01*
X84155720Y-92096891D01*
X84179753Y-92101671D01*
X84204257Y-92101670D01*
X84228290Y-92096888D01*
X84250929Y-92087510D01*
X84271302Y-92073895D01*
X84288629Y-92056568D01*
X84295558Y-92046198D01*
X84305763Y-92033763D01*
X84313528Y-92027390D01*
X84322392Y-92022652D01*
X84332001Y-92019737D01*
X84348140Y-92018148D01*
X84835861Y-92018148D01*
X84854199Y-92019954D01*
X84866450Y-92020556D01*
X84884869Y-92020556D01*
X84907149Y-92022750D01*
X84991233Y-92039476D01*
X85012660Y-92045976D01*
X85091858Y-92078780D01*
X85097303Y-92081691D01*
X85097309Y-92081693D01*
X85106169Y-92086429D01*
X85106173Y-92086432D01*
X85111614Y-92089340D01*
X85182899Y-92136971D01*
X85200204Y-92151172D01*
X85260828Y-92211796D01*
X85275029Y-92229101D01*
X85322660Y-92300386D01*
X85325568Y-92305827D01*
X85325571Y-92305831D01*
X85330307Y-92314691D01*
X85330309Y-92314697D01*
X85333220Y-92320142D01*
X85366024Y-92399340D01*
X85372524Y-92420767D01*
X85389250Y-92504851D01*
X85391444Y-92527131D01*
X85391444Y-92545550D01*
X85392046Y-92557801D01*
X85393852Y-92576139D01*
X85393852Y-93063862D01*
X85392046Y-93082199D01*
X85391444Y-93094450D01*
X85391444Y-93112869D01*
X85389250Y-93135149D01*
X85372524Y-93219233D01*
X85366024Y-93240660D01*
X85333220Y-93319858D01*
X85330309Y-93325303D01*
X85330307Y-93325309D01*
X85325571Y-93334169D01*
X85325568Y-93334173D01*
X85322660Y-93339614D01*
X85275029Y-93410899D01*
X85260828Y-93428204D01*
X85200204Y-93488828D01*
X85182899Y-93503029D01*
X85111614Y-93550660D01*
X85106173Y-93553568D01*
X85106169Y-93553571D01*
X85097309Y-93558307D01*
X85097303Y-93558309D01*
X85091858Y-93561220D01*
X85012660Y-93594024D01*
X84991233Y-93600524D01*
X84907149Y-93617250D01*
X84884869Y-93619444D01*
X84866450Y-93619444D01*
X84854199Y-93620046D01*
X84835862Y-93621852D01*
X84348140Y-93621852D01*
X84332001Y-93620263D01*
X84322392Y-93617348D01*
X84313528Y-93612610D01*
X84305763Y-93606237D01*
X84295552Y-93593794D01*
X84288622Y-93583425D01*
X84271295Y-93566098D01*
X84250920Y-93552485D01*
X84228280Y-93543109D01*
X84204247Y-93538329D01*
X84179743Y-93538330D01*
X84155710Y-93543112D01*
X84133071Y-93552490D01*
X84112698Y-93566105D01*
X84095371Y-93583432D01*
X84088442Y-93593802D01*
X84078237Y-93606237D01*
X84070472Y-93612610D01*
X84061608Y-93617348D01*
X84051999Y-93620263D01*
X84035860Y-93621852D01*
X83548138Y-93621852D01*
X83529801Y-93620046D01*
X83517550Y-93619444D01*
X83499131Y-93619444D01*
X83476851Y-93617250D01*
X83392767Y-93600524D01*
X83371340Y-93594024D01*
X83292142Y-93561220D01*
X83286697Y-93558309D01*
X83286691Y-93558307D01*
X83277831Y-93553571D01*
X83277827Y-93553568D01*
X83272386Y-93550660D01*
X83201101Y-93503029D01*
X83183796Y-93488828D01*
X83123172Y-93428204D01*
X83108971Y-93410899D01*
X83061340Y-93339614D01*
X83058432Y-93334173D01*
X83058429Y-93334169D01*
X83053693Y-93325309D01*
X83053691Y-93325303D01*
X83050780Y-93319858D01*
X83017976Y-93240660D01*
X83011476Y-93219233D01*
X82994750Y-93135149D01*
X82992556Y-93112869D01*
X82992556Y-93094450D01*
X82991954Y-93082199D01*
X82990148Y-93063862D01*
X82990148Y-92576139D01*
X82991954Y-92557801D01*
X82992556Y-92545550D01*
X82992556Y-92527131D01*
X82994750Y-92504851D01*
X83011476Y-92420767D01*
X83017976Y-92399340D01*
X83050780Y-92320142D01*
X83053691Y-92314697D01*
X83053693Y-92314691D01*
X83058429Y-92305831D01*
X83058432Y-92305827D01*
X83061340Y-92300386D01*
X83108971Y-92229101D01*
X83123172Y-92211796D01*
X83183796Y-92151172D01*
X83201101Y-92136971D01*
X83272386Y-92089340D01*
X83277827Y-92086432D01*
X83277831Y-92086429D01*
X83286691Y-92081693D01*
X83286697Y-92081691D01*
X83292142Y-92078780D01*
X83371340Y-92045976D01*
X83392767Y-92039476D01*
X83476851Y-92022750D01*
X83499131Y-92020556D01*
X83517550Y-92020556D01*
X83529801Y-92019954D01*
X83548139Y-92018148D01*
X84035860Y-92018148D01*
X84051999Y-92019737D01*
X84051999Y-92019737D01*
G37*
G36*
X143557000Y-92723000D02*
G01*
X140905000Y-92723000D01*
X140905000Y-91561000D01*
X143557000Y-91561000D01*
X143557000Y-92723000D01*
X143557000Y-92723000D01*
G37*
G36*
X103504199Y-89333954D02*
G01*
X103516450Y-89334556D01*
X103534869Y-89334556D01*
X103557149Y-89336750D01*
X103641233Y-89353476D01*
X103662660Y-89359976D01*
X103741858Y-89392780D01*
X103747303Y-89395691D01*
X103747309Y-89395693D01*
X103756169Y-89400429D01*
X103756173Y-89400432D01*
X103761614Y-89403340D01*
X103832899Y-89450971D01*
X103850204Y-89465172D01*
X103910828Y-89525796D01*
X103925029Y-89543101D01*
X103972660Y-89614386D01*
X103975568Y-89619827D01*
X103975571Y-89619831D01*
X103980307Y-89628691D01*
X103980309Y-89628697D01*
X103983220Y-89634142D01*
X104016024Y-89713340D01*
X104022524Y-89734767D01*
X104039250Y-89818851D01*
X104041444Y-89841131D01*
X104041444Y-89859550D01*
X104042046Y-89871801D01*
X104043852Y-89890139D01*
X104043852Y-90377860D01*
X104042263Y-90393999D01*
X104039348Y-90403608D01*
X104034610Y-90412472D01*
X104028237Y-90420237D01*
X104015794Y-90430448D01*
X104005425Y-90437378D01*
X103988098Y-90454705D01*
X103974485Y-90475080D01*
X103965109Y-90497720D01*
X103960329Y-90521753D01*
X103960330Y-90546257D01*
X103965112Y-90570290D01*
X103974490Y-90592929D01*
X103988105Y-90613302D01*
X104005432Y-90630629D01*
X104015802Y-90637558D01*
X104028237Y-90647763D01*
X104034610Y-90655528D01*
X104039348Y-90664392D01*
X104042263Y-90674001D01*
X104043852Y-90690140D01*
X104043852Y-91177862D01*
X104042046Y-91196199D01*
X104041444Y-91208450D01*
X104041444Y-91226869D01*
X104039250Y-91249149D01*
X104022524Y-91333233D01*
X104016024Y-91354660D01*
X103983220Y-91433858D01*
X103980309Y-91439303D01*
X103980307Y-91439309D01*
X103975571Y-91448169D01*
X103975568Y-91448173D01*
X103972660Y-91453614D01*
X103925029Y-91524899D01*
X103910828Y-91542204D01*
X103850204Y-91602828D01*
X103832899Y-91617029D01*
X103761614Y-91664660D01*
X103756173Y-91667568D01*
X103756169Y-91667571D01*
X103747309Y-91672307D01*
X103747303Y-91672309D01*
X103741858Y-91675220D01*
X103662660Y-91708024D01*
X103641233Y-91714524D01*
X103557149Y-91731250D01*
X103534869Y-91733444D01*
X103516450Y-91733444D01*
X103504199Y-91734046D01*
X103485862Y-91735852D01*
X102998138Y-91735852D01*
X102979801Y-91734046D01*
X102967550Y-91733444D01*
X102949131Y-91733444D01*
X102926851Y-91731250D01*
X102842767Y-91714524D01*
X102821340Y-91708024D01*
X102742142Y-91675220D01*
X102736697Y-91672309D01*
X102736691Y-91672307D01*
X102727831Y-91667571D01*
X102727827Y-91667568D01*
X102722386Y-91664660D01*
X102651101Y-91617029D01*
X102633796Y-91602828D01*
X102573172Y-91542204D01*
X102558971Y-91524899D01*
X102511340Y-91453614D01*
X102508432Y-91448173D01*
X102508429Y-91448169D01*
X102503693Y-91439309D01*
X102503691Y-91439303D01*
X102500780Y-91433858D01*
X102467976Y-91354660D01*
X102461476Y-91333233D01*
X102444750Y-91249149D01*
X102442556Y-91226869D01*
X102442556Y-91208450D01*
X102441954Y-91196199D01*
X102440148Y-91177862D01*
X102440148Y-90690140D01*
X102441737Y-90674001D01*
X102444652Y-90664392D01*
X102449390Y-90655528D01*
X102455763Y-90647763D01*
X102468206Y-90637552D01*
X102478575Y-90630622D01*
X102495902Y-90613295D01*
X102509515Y-90592920D01*
X102518891Y-90570280D01*
X102523671Y-90546247D01*
X102523670Y-90521743D01*
X102518888Y-90497710D01*
X102509510Y-90475071D01*
X102495895Y-90454698D01*
X102478568Y-90437371D01*
X102468198Y-90430442D01*
X102455763Y-90420237D01*
X102449390Y-90412472D01*
X102444652Y-90403608D01*
X102441737Y-90393999D01*
X102440148Y-90377860D01*
X102440148Y-89890138D01*
X102441954Y-89871801D01*
X102442556Y-89859550D01*
X102442556Y-89841131D01*
X102444750Y-89818851D01*
X102461476Y-89734767D01*
X102467976Y-89713340D01*
X102500780Y-89634142D01*
X102503691Y-89628697D01*
X102503693Y-89628691D01*
X102508429Y-89619831D01*
X102508432Y-89619827D01*
X102511340Y-89614386D01*
X102558971Y-89543101D01*
X102573172Y-89525796D01*
X102633796Y-89465172D01*
X102651101Y-89450971D01*
X102722386Y-89403340D01*
X102727827Y-89400432D01*
X102727831Y-89400429D01*
X102736691Y-89395693D01*
X102736697Y-89395691D01*
X102742142Y-89392780D01*
X102821340Y-89359976D01*
X102842767Y-89353476D01*
X102926851Y-89336750D01*
X102949131Y-89334556D01*
X102967550Y-89334556D01*
X102979801Y-89333954D01*
X102998139Y-89332148D01*
X103485861Y-89332148D01*
X103504199Y-89333954D01*
X103504199Y-89333954D01*
G37*
G36*
X110337443Y-89385519D02*
G01*
X110403627Y-89392037D01*
X110573466Y-89443557D01*
X110573468Y-89443558D01*
X110606582Y-89461258D01*
X110729991Y-89527222D01*
X110759269Y-89551250D01*
X110867186Y-89639814D01*
X110922026Y-89706638D01*
X110979778Y-89777009D01*
X111063443Y-89933534D01*
X111114963Y-90103373D01*
X111132359Y-90280000D01*
X111114963Y-90456627D01*
X111063443Y-90626466D01*
X110979778Y-90782991D01*
X110954101Y-90814278D01*
X110867186Y-90920186D01*
X110765729Y-91003448D01*
X110729991Y-91032778D01*
X110573466Y-91116443D01*
X110403627Y-91167963D01*
X110337443Y-91174481D01*
X110271260Y-91181000D01*
X110182740Y-91181000D01*
X110116557Y-91174481D01*
X110050373Y-91167963D01*
X109880534Y-91116443D01*
X109724009Y-91032778D01*
X109688271Y-91003448D01*
X109586814Y-90920186D01*
X109499899Y-90814278D01*
X109474222Y-90782991D01*
X109390557Y-90626466D01*
X109339037Y-90456627D01*
X109321641Y-90280000D01*
X109339037Y-90103373D01*
X109390557Y-89933534D01*
X109474222Y-89777009D01*
X109531974Y-89706638D01*
X109586814Y-89639814D01*
X109694731Y-89551250D01*
X109724009Y-89527222D01*
X109847418Y-89461258D01*
X109880532Y-89443558D01*
X109880534Y-89443557D01*
X110050373Y-89392037D01*
X110116557Y-89385519D01*
X110182740Y-89379000D01*
X110271260Y-89379000D01*
X110337443Y-89385519D01*
X110337443Y-89385519D01*
G37*
G36*
X112877443Y-89385519D02*
G01*
X112943627Y-89392037D01*
X113113466Y-89443557D01*
X113113468Y-89443558D01*
X113146582Y-89461258D01*
X113269991Y-89527222D01*
X113299269Y-89551250D01*
X113407186Y-89639814D01*
X113462026Y-89706638D01*
X113519778Y-89777009D01*
X113603443Y-89933534D01*
X113654963Y-90103373D01*
X113672359Y-90280000D01*
X113654963Y-90456627D01*
X113603443Y-90626466D01*
X113519778Y-90782991D01*
X113494101Y-90814278D01*
X113407186Y-90920186D01*
X113305729Y-91003448D01*
X113269991Y-91032778D01*
X113113466Y-91116443D01*
X112943627Y-91167963D01*
X112877443Y-91174481D01*
X112811260Y-91181000D01*
X112722740Y-91181000D01*
X112656557Y-91174481D01*
X112590373Y-91167963D01*
X112420534Y-91116443D01*
X112264009Y-91032778D01*
X112228271Y-91003448D01*
X112126814Y-90920186D01*
X112039899Y-90814278D01*
X112014222Y-90782991D01*
X111930557Y-90626466D01*
X111879037Y-90456627D01*
X111861641Y-90280000D01*
X111879037Y-90103373D01*
X111930557Y-89933534D01*
X112014222Y-89777009D01*
X112071974Y-89706638D01*
X112126814Y-89639814D01*
X112234731Y-89551250D01*
X112264009Y-89527222D01*
X112387418Y-89461258D01*
X112420532Y-89443558D01*
X112420534Y-89443557D01*
X112590373Y-89392037D01*
X112656557Y-89385519D01*
X112722740Y-89379000D01*
X112811260Y-89379000D01*
X112877443Y-89385519D01*
X112877443Y-89385519D01*
G37*
G36*
X115417443Y-89385519D02*
G01*
X115483627Y-89392037D01*
X115653466Y-89443557D01*
X115653468Y-89443558D01*
X115686582Y-89461258D01*
X115809991Y-89527222D01*
X115839269Y-89551250D01*
X115947186Y-89639814D01*
X116002026Y-89706638D01*
X116059778Y-89777009D01*
X116143443Y-89933534D01*
X116194963Y-90103373D01*
X116212359Y-90280000D01*
X116194963Y-90456627D01*
X116143443Y-90626466D01*
X116059778Y-90782991D01*
X116034101Y-90814278D01*
X115947186Y-90920186D01*
X115845729Y-91003448D01*
X115809991Y-91032778D01*
X115653466Y-91116443D01*
X115483627Y-91167963D01*
X115417443Y-91174481D01*
X115351260Y-91181000D01*
X115262740Y-91181000D01*
X115196557Y-91174481D01*
X115130373Y-91167963D01*
X114960534Y-91116443D01*
X114804009Y-91032778D01*
X114768271Y-91003448D01*
X114666814Y-90920186D01*
X114579899Y-90814278D01*
X114554222Y-90782991D01*
X114470557Y-90626466D01*
X114419037Y-90456627D01*
X114401641Y-90280000D01*
X114419037Y-90103373D01*
X114470557Y-89933534D01*
X114554222Y-89777009D01*
X114611974Y-89706638D01*
X114666814Y-89639814D01*
X114774731Y-89551250D01*
X114804009Y-89527222D01*
X114927418Y-89461258D01*
X114960532Y-89443558D01*
X114960534Y-89443557D01*
X115130373Y-89392037D01*
X115196557Y-89385519D01*
X115262740Y-89379000D01*
X115351260Y-89379000D01*
X115417443Y-89385519D01*
X115417443Y-89385519D01*
G37*
G36*
X117957443Y-89385519D02*
G01*
X118023627Y-89392037D01*
X118193466Y-89443557D01*
X118193468Y-89443558D01*
X118226582Y-89461258D01*
X118349991Y-89527222D01*
X118379269Y-89551250D01*
X118487186Y-89639814D01*
X118542026Y-89706638D01*
X118599778Y-89777009D01*
X118683443Y-89933534D01*
X118734963Y-90103373D01*
X118752359Y-90280000D01*
X118734963Y-90456627D01*
X118683443Y-90626466D01*
X118599778Y-90782991D01*
X118574101Y-90814278D01*
X118487186Y-90920186D01*
X118385729Y-91003448D01*
X118349991Y-91032778D01*
X118193466Y-91116443D01*
X118023627Y-91167963D01*
X117957443Y-91174481D01*
X117891260Y-91181000D01*
X117802740Y-91181000D01*
X117736557Y-91174481D01*
X117670373Y-91167963D01*
X117500534Y-91116443D01*
X117344009Y-91032778D01*
X117308271Y-91003448D01*
X117206814Y-90920186D01*
X117119899Y-90814278D01*
X117094222Y-90782991D01*
X117010557Y-90626466D01*
X116959037Y-90456627D01*
X116941641Y-90280000D01*
X116959037Y-90103373D01*
X117010557Y-89933534D01*
X117094222Y-89777009D01*
X117151974Y-89706638D01*
X117206814Y-89639814D01*
X117314731Y-89551250D01*
X117344009Y-89527222D01*
X117467418Y-89461258D01*
X117500532Y-89443558D01*
X117500534Y-89443557D01*
X117670373Y-89392037D01*
X117736557Y-89385519D01*
X117802740Y-89379000D01*
X117891260Y-89379000D01*
X117957443Y-89385519D01*
X117957443Y-89385519D01*
G37*
G36*
X120497443Y-89385519D02*
G01*
X120563627Y-89392037D01*
X120733466Y-89443557D01*
X120733468Y-89443558D01*
X120766582Y-89461258D01*
X120889991Y-89527222D01*
X120919269Y-89551250D01*
X121027186Y-89639814D01*
X121082026Y-89706638D01*
X121139778Y-89777009D01*
X121223443Y-89933534D01*
X121274963Y-90103373D01*
X121292359Y-90280000D01*
X121274963Y-90456627D01*
X121223443Y-90626466D01*
X121139778Y-90782991D01*
X121114101Y-90814278D01*
X121027186Y-90920186D01*
X120925729Y-91003448D01*
X120889991Y-91032778D01*
X120733466Y-91116443D01*
X120563627Y-91167963D01*
X120497443Y-91174481D01*
X120431260Y-91181000D01*
X120342740Y-91181000D01*
X120276557Y-91174481D01*
X120210373Y-91167963D01*
X120040534Y-91116443D01*
X119884009Y-91032778D01*
X119848271Y-91003448D01*
X119746814Y-90920186D01*
X119659899Y-90814278D01*
X119634222Y-90782991D01*
X119550557Y-90626466D01*
X119499037Y-90456627D01*
X119481641Y-90280000D01*
X119499037Y-90103373D01*
X119550557Y-89933534D01*
X119634222Y-89777009D01*
X119691974Y-89706638D01*
X119746814Y-89639814D01*
X119854731Y-89551250D01*
X119884009Y-89527222D01*
X120007418Y-89461258D01*
X120040532Y-89443558D01*
X120040534Y-89443557D01*
X120210373Y-89392037D01*
X120276557Y-89385519D01*
X120342740Y-89379000D01*
X120431260Y-89379000D01*
X120497443Y-89385519D01*
X120497443Y-89385519D01*
G37*
G36*
X123037443Y-89385519D02*
G01*
X123103627Y-89392037D01*
X123273466Y-89443557D01*
X123273468Y-89443558D01*
X123306582Y-89461258D01*
X123429991Y-89527222D01*
X123459269Y-89551250D01*
X123567186Y-89639814D01*
X123622026Y-89706638D01*
X123679778Y-89777009D01*
X123763443Y-89933534D01*
X123814963Y-90103373D01*
X123832359Y-90280000D01*
X123814963Y-90456627D01*
X123763443Y-90626466D01*
X123679778Y-90782991D01*
X123654101Y-90814278D01*
X123567186Y-90920186D01*
X123465729Y-91003448D01*
X123429991Y-91032778D01*
X123273466Y-91116443D01*
X123103627Y-91167963D01*
X123037443Y-91174481D01*
X122971260Y-91181000D01*
X122882740Y-91181000D01*
X122816557Y-91174481D01*
X122750373Y-91167963D01*
X122580534Y-91116443D01*
X122424009Y-91032778D01*
X122388271Y-91003448D01*
X122286814Y-90920186D01*
X122199899Y-90814278D01*
X122174222Y-90782991D01*
X122090557Y-90626466D01*
X122039037Y-90456627D01*
X122021641Y-90280000D01*
X122039037Y-90103373D01*
X122090557Y-89933534D01*
X122174222Y-89777009D01*
X122231974Y-89706638D01*
X122286814Y-89639814D01*
X122394731Y-89551250D01*
X122424009Y-89527222D01*
X122547418Y-89461258D01*
X122580532Y-89443558D01*
X122580534Y-89443557D01*
X122750373Y-89392037D01*
X122816557Y-89385519D01*
X122882740Y-89379000D01*
X122971260Y-89379000D01*
X123037443Y-89385519D01*
X123037443Y-89385519D01*
G37*
G36*
X125577443Y-89385519D02*
G01*
X125643627Y-89392037D01*
X125813466Y-89443557D01*
X125813468Y-89443558D01*
X125846582Y-89461258D01*
X125969991Y-89527222D01*
X125999269Y-89551250D01*
X126107186Y-89639814D01*
X126162026Y-89706638D01*
X126219778Y-89777009D01*
X126303443Y-89933534D01*
X126354963Y-90103373D01*
X126372359Y-90280000D01*
X126354963Y-90456627D01*
X126303443Y-90626466D01*
X126219778Y-90782991D01*
X126194101Y-90814278D01*
X126107186Y-90920186D01*
X126005729Y-91003448D01*
X125969991Y-91032778D01*
X125813466Y-91116443D01*
X125643627Y-91167963D01*
X125577443Y-91174481D01*
X125511260Y-91181000D01*
X125422740Y-91181000D01*
X125356557Y-91174481D01*
X125290373Y-91167963D01*
X125120534Y-91116443D01*
X124964009Y-91032778D01*
X124928271Y-91003448D01*
X124826814Y-90920186D01*
X124739899Y-90814278D01*
X124714222Y-90782991D01*
X124630557Y-90626466D01*
X124579037Y-90456627D01*
X124561641Y-90280000D01*
X124579037Y-90103373D01*
X124630557Y-89933534D01*
X124714222Y-89777009D01*
X124771974Y-89706638D01*
X124826814Y-89639814D01*
X124934731Y-89551250D01*
X124964009Y-89527222D01*
X125087418Y-89461258D01*
X125120532Y-89443558D01*
X125120534Y-89443557D01*
X125290373Y-89392037D01*
X125356557Y-89385519D01*
X125422740Y-89379000D01*
X125511260Y-89379000D01*
X125577443Y-89385519D01*
X125577443Y-89385519D01*
G37*
G36*
X89722468Y-89533565D02*
G01*
X89761138Y-89545296D01*
X89796777Y-89564346D01*
X89828017Y-89589983D01*
X89853654Y-89621223D01*
X89872704Y-89656862D01*
X89884435Y-89695532D01*
X89889000Y-89741888D01*
X89889000Y-90818112D01*
X89884435Y-90864468D01*
X89872704Y-90903138D01*
X89853654Y-90938777D01*
X89828017Y-90970017D01*
X89796777Y-90995654D01*
X89761138Y-91014704D01*
X89722468Y-91026435D01*
X89676112Y-91031000D01*
X89024888Y-91031000D01*
X88978532Y-91026435D01*
X88939862Y-91014704D01*
X88904223Y-90995654D01*
X88872983Y-90970017D01*
X88847346Y-90938777D01*
X88828296Y-90903138D01*
X88816565Y-90864468D01*
X88812000Y-90818112D01*
X88812000Y-89741888D01*
X88816565Y-89695532D01*
X88828296Y-89656862D01*
X88847346Y-89621223D01*
X88872983Y-89589983D01*
X88904223Y-89564346D01*
X88939862Y-89545296D01*
X88978532Y-89533565D01*
X89024888Y-89529000D01*
X89676112Y-89529000D01*
X89722468Y-89533565D01*
X89722468Y-89533565D01*
G37*
G36*
X91597468Y-89533565D02*
G01*
X91636138Y-89545296D01*
X91671777Y-89564346D01*
X91703017Y-89589983D01*
X91728654Y-89621223D01*
X91747704Y-89656862D01*
X91759435Y-89695532D01*
X91764000Y-89741888D01*
X91764000Y-90818112D01*
X91759435Y-90864468D01*
X91747704Y-90903138D01*
X91728654Y-90938777D01*
X91703017Y-90970017D01*
X91671777Y-90995654D01*
X91636138Y-91014704D01*
X91597468Y-91026435D01*
X91551112Y-91031000D01*
X90899888Y-91031000D01*
X90853532Y-91026435D01*
X90814862Y-91014704D01*
X90779223Y-90995654D01*
X90747983Y-90970017D01*
X90722346Y-90938777D01*
X90703296Y-90903138D01*
X90691565Y-90864468D01*
X90687000Y-90818112D01*
X90687000Y-89741888D01*
X90691565Y-89695532D01*
X90703296Y-89656862D01*
X90722346Y-89621223D01*
X90747983Y-89589983D01*
X90779223Y-89564346D01*
X90814862Y-89545296D01*
X90853532Y-89533565D01*
X90899888Y-89529000D01*
X91551112Y-89529000D01*
X91597468Y-89533565D01*
X91597468Y-89533565D01*
G37*
G36*
X155422499Y-89440445D02*
G01*
X155459995Y-89451820D01*
X155494554Y-89470292D01*
X155524847Y-89495153D01*
X155549708Y-89525446D01*
X155568180Y-89560005D01*
X155579555Y-89597501D01*
X155584000Y-89642638D01*
X155584000Y-90381362D01*
X155579555Y-90426499D01*
X155568180Y-90463995D01*
X155549708Y-90498554D01*
X155524847Y-90528847D01*
X155494554Y-90553708D01*
X155459995Y-90572180D01*
X155422499Y-90583555D01*
X155377362Y-90588000D01*
X154738638Y-90588000D01*
X154693501Y-90583555D01*
X154656005Y-90572180D01*
X154621446Y-90553708D01*
X154591153Y-90528847D01*
X154566292Y-90498554D01*
X154547820Y-90463995D01*
X154536445Y-90426499D01*
X154532000Y-90381362D01*
X154532000Y-89642638D01*
X154536445Y-89597501D01*
X154547820Y-89560005D01*
X154566292Y-89525446D01*
X154591153Y-89495153D01*
X154621446Y-89470292D01*
X154656005Y-89451820D01*
X154693501Y-89440445D01*
X154738638Y-89436000D01*
X155377362Y-89436000D01*
X155422499Y-89440445D01*
X155422499Y-89440445D01*
G37*
G36*
X79385499Y-89504445D02*
G01*
X79422995Y-89515820D01*
X79457554Y-89534292D01*
X79487847Y-89559153D01*
X79512708Y-89589446D01*
X79531180Y-89624005D01*
X79542555Y-89661501D01*
X79547000Y-89706638D01*
X79547000Y-90345362D01*
X79542555Y-90390499D01*
X79531180Y-90427995D01*
X79512708Y-90462554D01*
X79487847Y-90492847D01*
X79457554Y-90517708D01*
X79422995Y-90536180D01*
X79385499Y-90547555D01*
X79340362Y-90552000D01*
X78601638Y-90552000D01*
X78556501Y-90547555D01*
X78519005Y-90536180D01*
X78484446Y-90517708D01*
X78454153Y-90492847D01*
X78429292Y-90462554D01*
X78410820Y-90427995D01*
X78399445Y-90390499D01*
X78395000Y-90345362D01*
X78395000Y-89706638D01*
X78399445Y-89661501D01*
X78410820Y-89624005D01*
X78429292Y-89589446D01*
X78454153Y-89559153D01*
X78484446Y-89534292D01*
X78519005Y-89515820D01*
X78556501Y-89504445D01*
X78601638Y-89500000D01*
X79340362Y-89500000D01*
X79385499Y-89504445D01*
X79385499Y-89504445D01*
G37*
G36*
X77635499Y-89504445D02*
G01*
X77672995Y-89515820D01*
X77707554Y-89534292D01*
X77737847Y-89559153D01*
X77762708Y-89589446D01*
X77781180Y-89624005D01*
X77792555Y-89661501D01*
X77797000Y-89706638D01*
X77797000Y-90345362D01*
X77792555Y-90390499D01*
X77781180Y-90427995D01*
X77762708Y-90462554D01*
X77737847Y-90492847D01*
X77707554Y-90517708D01*
X77672995Y-90536180D01*
X77635499Y-90547555D01*
X77590362Y-90552000D01*
X76851638Y-90552000D01*
X76806501Y-90547555D01*
X76769005Y-90536180D01*
X76734446Y-90517708D01*
X76704153Y-90492847D01*
X76679292Y-90462554D01*
X76660820Y-90427995D01*
X76649445Y-90390499D01*
X76645000Y-90345362D01*
X76645000Y-89706638D01*
X76649445Y-89661501D01*
X76660820Y-89624005D01*
X76679292Y-89589446D01*
X76704153Y-89559153D01*
X76734446Y-89534292D01*
X76769005Y-89515820D01*
X76806501Y-89504445D01*
X76851638Y-89500000D01*
X77590362Y-89500000D01*
X77635499Y-89504445D01*
X77635499Y-89504445D01*
G37*
G36*
X141657000Y-90523000D02*
G01*
X140905000Y-90523000D01*
X140905000Y-89361000D01*
X141657000Y-89361000D01*
X141657000Y-90523000D01*
X141657000Y-90523000D01*
G37*
G36*
X143557000Y-90523000D02*
G01*
X142805000Y-90523000D01*
X142805000Y-89361000D01*
X143557000Y-89361000D01*
X143557000Y-90523000D01*
X143557000Y-90523000D01*
G37*
G36*
X158509000Y-90441000D02*
G01*
X156707000Y-90441000D01*
X156707000Y-88639000D01*
X158509000Y-88639000D01*
X158509000Y-90441000D01*
X158509000Y-90441000D01*
G37*
G36*
X151509000Y-90441000D02*
G01*
X149707000Y-90441000D01*
X149707000Y-88639000D01*
X151509000Y-88639000D01*
X151509000Y-90441000D01*
X151509000Y-90441000D01*
G37*
G36*
X140021468Y-89286565D02*
G01*
X140060138Y-89298296D01*
X140095777Y-89317346D01*
X140127017Y-89342983D01*
X140152654Y-89374223D01*
X140171704Y-89409862D01*
X140183435Y-89448532D01*
X140188000Y-89494888D01*
X140188000Y-90146112D01*
X140183435Y-90192468D01*
X140171704Y-90231138D01*
X140152654Y-90266777D01*
X140127017Y-90298017D01*
X140095777Y-90323654D01*
X140060138Y-90342704D01*
X140021468Y-90354435D01*
X139975112Y-90359000D01*
X138898888Y-90359000D01*
X138852532Y-90354435D01*
X138813862Y-90342704D01*
X138778223Y-90323654D01*
X138746983Y-90298017D01*
X138721346Y-90266777D01*
X138702296Y-90231138D01*
X138690565Y-90192468D01*
X138686000Y-90146112D01*
X138686000Y-89494888D01*
X138690565Y-89448532D01*
X138702296Y-89409862D01*
X138721346Y-89374223D01*
X138746983Y-89342983D01*
X138778223Y-89317346D01*
X138813862Y-89298296D01*
X138852532Y-89286565D01*
X138898888Y-89282000D01*
X139975112Y-89282000D01*
X140021468Y-89286565D01*
X140021468Y-89286565D01*
G37*
G36*
X97595355Y-81163083D02*
G01*
X97600029Y-81164501D01*
X97604330Y-81166800D01*
X97610702Y-81172029D01*
X97631076Y-81185643D01*
X97653715Y-81195020D01*
X97677749Y-81199800D01*
X97702253Y-81199800D01*
X97726286Y-81195019D01*
X97748925Y-81185642D01*
X97769298Y-81172029D01*
X97775670Y-81166800D01*
X97779971Y-81164501D01*
X97784645Y-81163083D01*
X97795641Y-81162000D01*
X98084359Y-81162000D01*
X98095355Y-81163083D01*
X98100029Y-81164501D01*
X98104330Y-81166800D01*
X98110702Y-81172029D01*
X98131076Y-81185643D01*
X98153715Y-81195020D01*
X98177749Y-81199800D01*
X98202253Y-81199800D01*
X98226286Y-81195019D01*
X98248925Y-81185642D01*
X98269298Y-81172029D01*
X98275670Y-81166800D01*
X98279971Y-81164501D01*
X98284645Y-81163083D01*
X98295641Y-81162000D01*
X98584359Y-81162000D01*
X98595355Y-81163083D01*
X98600029Y-81164501D01*
X98604330Y-81166800D01*
X98610702Y-81172029D01*
X98631076Y-81185643D01*
X98653715Y-81195020D01*
X98677749Y-81199800D01*
X98702253Y-81199800D01*
X98726286Y-81195019D01*
X98748925Y-81185642D01*
X98769298Y-81172029D01*
X98775670Y-81166800D01*
X98779971Y-81164501D01*
X98784645Y-81163083D01*
X98795641Y-81162000D01*
X99084359Y-81162000D01*
X99095355Y-81163083D01*
X99100029Y-81164501D01*
X99104330Y-81166800D01*
X99110702Y-81172029D01*
X99131076Y-81185643D01*
X99153715Y-81195020D01*
X99177749Y-81199800D01*
X99202253Y-81199800D01*
X99226286Y-81195019D01*
X99248925Y-81185642D01*
X99269298Y-81172029D01*
X99275670Y-81166800D01*
X99279971Y-81164501D01*
X99284645Y-81163083D01*
X99295641Y-81162000D01*
X99584359Y-81162000D01*
X99595355Y-81163083D01*
X99600029Y-81164501D01*
X99604330Y-81166800D01*
X99610702Y-81172029D01*
X99631076Y-81185643D01*
X99653715Y-81195020D01*
X99677749Y-81199800D01*
X99702253Y-81199800D01*
X99726286Y-81195019D01*
X99748925Y-81185642D01*
X99769298Y-81172029D01*
X99775670Y-81166800D01*
X99779971Y-81164501D01*
X99784645Y-81163083D01*
X99795641Y-81162000D01*
X100084359Y-81162000D01*
X100095355Y-81163083D01*
X100100029Y-81164501D01*
X100104330Y-81166800D01*
X100110702Y-81172029D01*
X100131076Y-81185643D01*
X100153715Y-81195020D01*
X100177749Y-81199800D01*
X100202253Y-81199800D01*
X100226286Y-81195019D01*
X100248925Y-81185642D01*
X100269298Y-81172029D01*
X100275670Y-81166800D01*
X100279971Y-81164501D01*
X100284645Y-81163083D01*
X100295641Y-81162000D01*
X100584359Y-81162000D01*
X100595355Y-81163083D01*
X100600029Y-81164501D01*
X100604330Y-81166800D01*
X100610702Y-81172029D01*
X100631076Y-81185643D01*
X100653715Y-81195020D01*
X100677749Y-81199800D01*
X100702253Y-81199800D01*
X100726286Y-81195019D01*
X100748925Y-81185642D01*
X100769298Y-81172029D01*
X100775670Y-81166800D01*
X100779971Y-81164501D01*
X100784645Y-81163083D01*
X100795641Y-81162000D01*
X101084359Y-81162000D01*
X101095355Y-81163083D01*
X101100029Y-81164501D01*
X101104330Y-81166800D01*
X101110702Y-81172029D01*
X101131076Y-81185643D01*
X101153715Y-81195020D01*
X101177749Y-81199800D01*
X101202253Y-81199800D01*
X101226286Y-81195019D01*
X101248925Y-81185642D01*
X101269298Y-81172029D01*
X101275670Y-81166800D01*
X101279971Y-81164501D01*
X101284645Y-81163083D01*
X101295641Y-81162000D01*
X101584359Y-81162000D01*
X101595355Y-81163083D01*
X101600029Y-81164501D01*
X101604330Y-81166800D01*
X101610702Y-81172029D01*
X101631076Y-81185643D01*
X101653715Y-81195020D01*
X101677749Y-81199800D01*
X101702253Y-81199800D01*
X101726286Y-81195019D01*
X101748925Y-81185642D01*
X101769298Y-81172029D01*
X101775670Y-81166800D01*
X101779971Y-81164501D01*
X101784645Y-81163083D01*
X101795641Y-81162000D01*
X102084359Y-81162000D01*
X102095355Y-81163083D01*
X102100029Y-81164501D01*
X102104330Y-81166800D01*
X102110702Y-81172029D01*
X102131076Y-81185643D01*
X102153715Y-81195020D01*
X102177749Y-81199800D01*
X102202253Y-81199800D01*
X102226286Y-81195019D01*
X102248925Y-81185642D01*
X102269298Y-81172029D01*
X102275670Y-81166800D01*
X102279971Y-81164501D01*
X102284645Y-81163083D01*
X102295641Y-81162000D01*
X102584359Y-81162000D01*
X102595355Y-81163083D01*
X102600029Y-81164501D01*
X102604331Y-81166800D01*
X102608104Y-81169896D01*
X102611200Y-81173669D01*
X102613499Y-81177971D01*
X102614917Y-81182645D01*
X102616000Y-81193641D01*
X102616000Y-82287001D01*
X102618402Y-82311387D01*
X102625515Y-82334836D01*
X102637066Y-82356447D01*
X102652611Y-82375389D01*
X102671553Y-82390934D01*
X102693164Y-82402485D01*
X102716613Y-82409598D01*
X102740999Y-82412000D01*
X103834359Y-82412000D01*
X103845355Y-82413083D01*
X103850029Y-82414501D01*
X103854331Y-82416800D01*
X103858104Y-82419896D01*
X103861200Y-82423669D01*
X103863499Y-82427971D01*
X103864917Y-82432645D01*
X103866000Y-82443641D01*
X103866000Y-82732359D01*
X103864917Y-82743355D01*
X103863499Y-82748029D01*
X103861200Y-82752330D01*
X103855971Y-82758702D01*
X103842357Y-82779076D01*
X103832980Y-82801715D01*
X103828200Y-82825749D01*
X103828200Y-82850253D01*
X103832981Y-82874286D01*
X103842358Y-82896925D01*
X103855971Y-82917298D01*
X103861200Y-82923670D01*
X103863499Y-82927971D01*
X103864917Y-82932645D01*
X103866000Y-82943641D01*
X103866000Y-83232359D01*
X103864917Y-83243355D01*
X103863499Y-83248029D01*
X103861200Y-83252330D01*
X103855971Y-83258702D01*
X103842357Y-83279076D01*
X103832980Y-83301715D01*
X103828200Y-83325749D01*
X103828200Y-83350253D01*
X103832981Y-83374286D01*
X103842358Y-83396925D01*
X103855971Y-83417298D01*
X103861200Y-83423670D01*
X103863499Y-83427971D01*
X103864917Y-83432645D01*
X103866000Y-83443641D01*
X103866000Y-83732359D01*
X103864917Y-83743355D01*
X103863499Y-83748029D01*
X103861200Y-83752330D01*
X103855971Y-83758702D01*
X103842357Y-83779076D01*
X103832980Y-83801715D01*
X103828200Y-83825749D01*
X103828200Y-83850253D01*
X103832981Y-83874286D01*
X103842358Y-83896925D01*
X103855971Y-83917298D01*
X103861200Y-83923670D01*
X103863499Y-83927971D01*
X103864917Y-83932645D01*
X103866000Y-83943641D01*
X103866000Y-84232359D01*
X103864917Y-84243355D01*
X103863499Y-84248029D01*
X103861200Y-84252330D01*
X103855971Y-84258702D01*
X103842357Y-84279076D01*
X103832980Y-84301715D01*
X103828200Y-84325749D01*
X103828200Y-84350253D01*
X103832981Y-84374286D01*
X103842358Y-84396925D01*
X103855971Y-84417298D01*
X103861200Y-84423670D01*
X103863499Y-84427971D01*
X103864917Y-84432645D01*
X103866000Y-84443641D01*
X103866000Y-84732359D01*
X103864917Y-84743355D01*
X103863499Y-84748029D01*
X103861200Y-84752330D01*
X103855971Y-84758702D01*
X103842357Y-84779076D01*
X103832980Y-84801715D01*
X103828200Y-84825749D01*
X103828200Y-84850253D01*
X103832981Y-84874286D01*
X103842358Y-84896925D01*
X103855971Y-84917298D01*
X103861200Y-84923670D01*
X103863499Y-84927971D01*
X103864917Y-84932645D01*
X103866000Y-84943641D01*
X103866000Y-85232359D01*
X103864917Y-85243355D01*
X103863499Y-85248029D01*
X103861200Y-85252330D01*
X103855971Y-85258702D01*
X103842357Y-85279076D01*
X103832980Y-85301715D01*
X103828200Y-85325749D01*
X103828200Y-85350253D01*
X103832981Y-85374286D01*
X103842358Y-85396925D01*
X103855971Y-85417298D01*
X103861200Y-85423670D01*
X103863499Y-85427971D01*
X103864917Y-85432645D01*
X103866000Y-85443641D01*
X103866000Y-85732359D01*
X103864917Y-85743355D01*
X103863499Y-85748029D01*
X103861200Y-85752330D01*
X103855971Y-85758702D01*
X103842357Y-85779076D01*
X103832980Y-85801715D01*
X103828200Y-85825749D01*
X103828200Y-85850253D01*
X103832981Y-85874286D01*
X103842358Y-85896925D01*
X103855971Y-85917298D01*
X103861200Y-85923670D01*
X103863499Y-85927971D01*
X103864917Y-85932645D01*
X103866000Y-85943641D01*
X103866000Y-86232359D01*
X103864917Y-86243355D01*
X103863499Y-86248029D01*
X103861200Y-86252330D01*
X103855971Y-86258702D01*
X103842357Y-86279076D01*
X103832980Y-86301715D01*
X103828200Y-86325749D01*
X103828200Y-86350253D01*
X103832981Y-86374286D01*
X103842358Y-86396925D01*
X103855971Y-86417298D01*
X103861200Y-86423670D01*
X103863499Y-86427971D01*
X103864917Y-86432645D01*
X103866000Y-86443641D01*
X103866000Y-86732359D01*
X103864917Y-86743355D01*
X103863499Y-86748029D01*
X103861200Y-86752330D01*
X103855971Y-86758702D01*
X103842357Y-86779076D01*
X103832980Y-86801715D01*
X103828200Y-86825749D01*
X103828200Y-86850253D01*
X103832981Y-86874286D01*
X103842358Y-86896925D01*
X103855971Y-86917298D01*
X103861200Y-86923670D01*
X103863499Y-86927971D01*
X103864917Y-86932645D01*
X103866000Y-86943641D01*
X103866000Y-87232359D01*
X103864917Y-87243355D01*
X103863499Y-87248029D01*
X103861200Y-87252330D01*
X103855971Y-87258702D01*
X103842357Y-87279076D01*
X103832980Y-87301715D01*
X103828200Y-87325749D01*
X103828200Y-87350253D01*
X103832981Y-87374286D01*
X103842358Y-87396925D01*
X103855971Y-87417298D01*
X103861200Y-87423670D01*
X103863499Y-87427971D01*
X103864917Y-87432645D01*
X103866000Y-87443641D01*
X103866000Y-87732359D01*
X103864917Y-87743355D01*
X103863499Y-87748029D01*
X103861200Y-87752331D01*
X103858104Y-87756104D01*
X103854331Y-87759200D01*
X103850029Y-87761499D01*
X103845355Y-87762917D01*
X103834359Y-87764000D01*
X102740999Y-87764000D01*
X102716613Y-87766402D01*
X102693164Y-87773515D01*
X102671553Y-87785066D01*
X102652611Y-87800611D01*
X102637066Y-87819553D01*
X102625515Y-87841164D01*
X102618402Y-87864613D01*
X102616000Y-87888999D01*
X102616000Y-88982359D01*
X102614917Y-88993355D01*
X102613499Y-88998029D01*
X102611200Y-89002331D01*
X102608104Y-89006104D01*
X102604331Y-89009200D01*
X102600029Y-89011499D01*
X102595355Y-89012917D01*
X102584359Y-89014000D01*
X102295641Y-89014000D01*
X102284645Y-89012917D01*
X102279971Y-89011499D01*
X102275670Y-89009200D01*
X102269298Y-89003971D01*
X102248924Y-88990357D01*
X102226285Y-88980980D01*
X102202251Y-88976200D01*
X102177747Y-88976200D01*
X102153714Y-88980981D01*
X102131075Y-88990358D01*
X102110702Y-89003971D01*
X102104330Y-89009200D01*
X102100029Y-89011499D01*
X102095355Y-89012917D01*
X102084359Y-89014000D01*
X101795641Y-89014000D01*
X101784645Y-89012917D01*
X101779971Y-89011499D01*
X101775670Y-89009200D01*
X101769298Y-89003971D01*
X101748924Y-88990357D01*
X101726285Y-88980980D01*
X101702251Y-88976200D01*
X101677747Y-88976200D01*
X101653714Y-88980981D01*
X101631075Y-88990358D01*
X101610702Y-89003971D01*
X101604330Y-89009200D01*
X101600029Y-89011499D01*
X101595355Y-89012917D01*
X101584359Y-89014000D01*
X101295641Y-89014000D01*
X101284645Y-89012917D01*
X101279971Y-89011499D01*
X101275670Y-89009200D01*
X101269298Y-89003971D01*
X101248924Y-88990357D01*
X101226285Y-88980980D01*
X101202251Y-88976200D01*
X101177747Y-88976200D01*
X101153714Y-88980981D01*
X101131075Y-88990358D01*
X101110702Y-89003971D01*
X101104330Y-89009200D01*
X101100029Y-89011499D01*
X101095355Y-89012917D01*
X101084359Y-89014000D01*
X100795641Y-89014000D01*
X100784645Y-89012917D01*
X100779971Y-89011499D01*
X100775670Y-89009200D01*
X100769298Y-89003971D01*
X100748924Y-88990357D01*
X100726285Y-88980980D01*
X100702251Y-88976200D01*
X100677747Y-88976200D01*
X100653714Y-88980981D01*
X100631075Y-88990358D01*
X100610702Y-89003971D01*
X100604330Y-89009200D01*
X100600029Y-89011499D01*
X100595355Y-89012917D01*
X100584359Y-89014000D01*
X100295641Y-89014000D01*
X100284645Y-89012917D01*
X100279971Y-89011499D01*
X100275670Y-89009200D01*
X100269298Y-89003971D01*
X100248924Y-88990357D01*
X100226285Y-88980980D01*
X100202251Y-88976200D01*
X100177747Y-88976200D01*
X100153714Y-88980981D01*
X100131075Y-88990358D01*
X100110702Y-89003971D01*
X100104330Y-89009200D01*
X100100029Y-89011499D01*
X100095355Y-89012917D01*
X100084359Y-89014000D01*
X99795641Y-89014000D01*
X99784645Y-89012917D01*
X99779971Y-89011499D01*
X99775670Y-89009200D01*
X99769298Y-89003971D01*
X99748924Y-88990357D01*
X99726285Y-88980980D01*
X99702251Y-88976200D01*
X99677747Y-88976200D01*
X99653714Y-88980981D01*
X99631075Y-88990358D01*
X99610702Y-89003971D01*
X99604330Y-89009200D01*
X99600029Y-89011499D01*
X99595355Y-89012917D01*
X99584359Y-89014000D01*
X99295641Y-89014000D01*
X99284645Y-89012917D01*
X99279971Y-89011499D01*
X99275670Y-89009200D01*
X99269298Y-89003971D01*
X99248924Y-88990357D01*
X99226285Y-88980980D01*
X99202251Y-88976200D01*
X99177747Y-88976200D01*
X99153714Y-88980981D01*
X99131075Y-88990358D01*
X99110702Y-89003971D01*
X99104330Y-89009200D01*
X99100029Y-89011499D01*
X99095355Y-89012917D01*
X99084359Y-89014000D01*
X98795641Y-89014000D01*
X98784645Y-89012917D01*
X98779971Y-89011499D01*
X98775670Y-89009200D01*
X98769298Y-89003971D01*
X98748924Y-88990357D01*
X98726285Y-88980980D01*
X98702251Y-88976200D01*
X98677747Y-88976200D01*
X98653714Y-88980981D01*
X98631075Y-88990358D01*
X98610702Y-89003971D01*
X98604330Y-89009200D01*
X98600029Y-89011499D01*
X98595355Y-89012917D01*
X98584359Y-89014000D01*
X98295641Y-89014000D01*
X98284645Y-89012917D01*
X98279971Y-89011499D01*
X98275670Y-89009200D01*
X98269298Y-89003971D01*
X98248924Y-88990357D01*
X98226285Y-88980980D01*
X98202251Y-88976200D01*
X98177747Y-88976200D01*
X98153714Y-88980981D01*
X98131075Y-88990358D01*
X98110702Y-89003971D01*
X98104330Y-89009200D01*
X98100029Y-89011499D01*
X98095355Y-89012917D01*
X98084359Y-89014000D01*
X97795641Y-89014000D01*
X97784645Y-89012917D01*
X97779971Y-89011499D01*
X97775670Y-89009200D01*
X97769298Y-89003971D01*
X97748924Y-88990357D01*
X97726285Y-88980980D01*
X97702251Y-88976200D01*
X97677747Y-88976200D01*
X97653714Y-88980981D01*
X97631075Y-88990358D01*
X97610702Y-89003971D01*
X97604330Y-89009200D01*
X97600029Y-89011499D01*
X97595355Y-89012917D01*
X97584359Y-89014000D01*
X97295641Y-89014000D01*
X97284645Y-89012917D01*
X97279971Y-89011499D01*
X97275669Y-89009200D01*
X97271896Y-89006104D01*
X97268800Y-89002331D01*
X97266501Y-88998029D01*
X97265083Y-88993355D01*
X97264000Y-88982359D01*
X97264000Y-87888999D01*
X97261598Y-87864613D01*
X97254485Y-87841164D01*
X97242934Y-87819553D01*
X97227389Y-87800611D01*
X97208447Y-87785066D01*
X97186836Y-87773515D01*
X97163387Y-87766402D01*
X97139001Y-87764000D01*
X96045641Y-87764000D01*
X96034645Y-87762917D01*
X96029971Y-87761499D01*
X96025669Y-87759200D01*
X96021896Y-87756104D01*
X96018800Y-87752331D01*
X96016501Y-87748029D01*
X96015083Y-87743355D01*
X96014000Y-87732359D01*
X96014000Y-87443641D01*
X96015083Y-87432645D01*
X96016501Y-87427971D01*
X96018800Y-87423670D01*
X96024029Y-87417298D01*
X96037643Y-87396924D01*
X96047020Y-87374285D01*
X96051800Y-87350251D01*
X96051800Y-87325747D01*
X96047019Y-87301714D01*
X96037642Y-87279075D01*
X96024029Y-87258702D01*
X96018800Y-87252330D01*
X96016501Y-87248029D01*
X96015083Y-87243355D01*
X96014000Y-87232359D01*
X96014000Y-86943641D01*
X96015083Y-86932645D01*
X96016501Y-86927971D01*
X96018800Y-86923670D01*
X96024029Y-86917298D01*
X96037643Y-86896924D01*
X96047020Y-86874285D01*
X96051800Y-86850251D01*
X96051800Y-86825747D01*
X96047019Y-86801714D01*
X96037642Y-86779075D01*
X96024029Y-86758702D01*
X96018800Y-86752330D01*
X96016501Y-86748029D01*
X96015083Y-86743355D01*
X96014000Y-86732359D01*
X96014000Y-86443641D01*
X96015083Y-86432645D01*
X96016501Y-86427971D01*
X96018800Y-86423670D01*
X96024029Y-86417298D01*
X96037643Y-86396924D01*
X96047020Y-86374285D01*
X96051800Y-86350251D01*
X96051800Y-86325747D01*
X96047019Y-86301714D01*
X96037642Y-86279075D01*
X96024029Y-86258702D01*
X96018800Y-86252330D01*
X96016501Y-86248029D01*
X96015083Y-86243355D01*
X96014000Y-86232359D01*
X96014000Y-85943641D01*
X96015083Y-85932645D01*
X96016501Y-85927971D01*
X96018800Y-85923670D01*
X96024029Y-85917298D01*
X96037643Y-85896924D01*
X96047020Y-85874285D01*
X96051800Y-85850251D01*
X96051800Y-85825747D01*
X96047019Y-85801714D01*
X96037642Y-85779075D01*
X96024029Y-85758702D01*
X96018800Y-85752330D01*
X96016501Y-85748029D01*
X96015083Y-85743355D01*
X96014000Y-85732359D01*
X96014000Y-85443641D01*
X96015083Y-85432645D01*
X96016501Y-85427971D01*
X96018800Y-85423670D01*
X96024029Y-85417298D01*
X96037643Y-85396924D01*
X96047020Y-85374285D01*
X96051800Y-85350251D01*
X96051800Y-85325747D01*
X96047019Y-85301714D01*
X96037642Y-85279075D01*
X96024029Y-85258702D01*
X96018800Y-85252330D01*
X96016501Y-85248029D01*
X96015083Y-85243355D01*
X96014000Y-85232359D01*
X96014000Y-84943641D01*
X96015083Y-84932645D01*
X96016501Y-84927971D01*
X96018800Y-84923670D01*
X96024029Y-84917298D01*
X96037643Y-84896924D01*
X96047020Y-84874285D01*
X96051800Y-84850251D01*
X96051800Y-84825747D01*
X96047019Y-84801714D01*
X96037642Y-84779075D01*
X96024029Y-84758702D01*
X96018800Y-84752330D01*
X96016501Y-84748029D01*
X96015083Y-84743355D01*
X96014000Y-84732359D01*
X96014000Y-84443641D01*
X96015083Y-84432645D01*
X96016501Y-84427971D01*
X96018800Y-84423670D01*
X96024029Y-84417298D01*
X96037643Y-84396924D01*
X96047020Y-84374285D01*
X96051800Y-84350251D01*
X96051800Y-84325747D01*
X96047019Y-84301714D01*
X96037642Y-84279075D01*
X96024029Y-84258702D01*
X96018800Y-84252330D01*
X96016501Y-84248029D01*
X96015083Y-84243355D01*
X96014000Y-84232359D01*
X96014000Y-83943641D01*
X96015083Y-83932645D01*
X96016501Y-83927971D01*
X96018800Y-83923670D01*
X96024029Y-83917298D01*
X96037643Y-83896924D01*
X96047020Y-83874285D01*
X96051800Y-83850251D01*
X96051800Y-83825747D01*
X96047019Y-83801714D01*
X96037642Y-83779075D01*
X96024029Y-83758702D01*
X96018800Y-83752330D01*
X96016501Y-83748029D01*
X96015083Y-83743355D01*
X96014000Y-83732359D01*
X96014000Y-83443641D01*
X96015083Y-83432645D01*
X96016501Y-83427971D01*
X96018800Y-83423670D01*
X96024029Y-83417298D01*
X96037643Y-83396924D01*
X96047020Y-83374285D01*
X96051800Y-83350251D01*
X96051800Y-83325747D01*
X96047019Y-83301714D01*
X96037642Y-83279075D01*
X96024029Y-83258702D01*
X96018800Y-83252330D01*
X96016501Y-83248029D01*
X96015083Y-83243355D01*
X96014000Y-83232359D01*
X96014000Y-82943641D01*
X96015083Y-82932645D01*
X96016501Y-82927971D01*
X96018800Y-82923670D01*
X96024029Y-82917298D01*
X96037643Y-82896924D01*
X96047020Y-82874285D01*
X96051800Y-82850251D01*
X96051800Y-82825747D01*
X96047019Y-82801714D01*
X96037642Y-82779075D01*
X96024029Y-82758702D01*
X96018800Y-82752330D01*
X96016501Y-82748029D01*
X96015083Y-82743355D01*
X96014000Y-82732359D01*
X96014000Y-82443641D01*
X96015083Y-82432645D01*
X96016501Y-82427971D01*
X96018800Y-82423669D01*
X96021896Y-82419896D01*
X96025669Y-82416800D01*
X96029971Y-82414501D01*
X96034645Y-82413083D01*
X96045641Y-82412000D01*
X97139001Y-82412000D01*
X97163387Y-82409598D01*
X97186836Y-82402485D01*
X97208447Y-82390934D01*
X97227389Y-82375389D01*
X97242934Y-82356447D01*
X97254485Y-82334836D01*
X97261598Y-82311387D01*
X97264000Y-82287001D01*
X97264000Y-81193641D01*
X97265083Y-81182645D01*
X97266501Y-81177971D01*
X97268800Y-81173669D01*
X97271896Y-81169896D01*
X97275669Y-81166800D01*
X97279971Y-81164501D01*
X97284645Y-81163083D01*
X97295641Y-81162000D01*
X97584359Y-81162000D01*
X97595355Y-81163083D01*
X97595355Y-81163083D01*
G37*
G36*
X155422499Y-87690445D02*
G01*
X155459995Y-87701820D01*
X155494554Y-87720292D01*
X155524847Y-87745153D01*
X155549708Y-87775446D01*
X155568180Y-87810005D01*
X155579555Y-87847501D01*
X155584000Y-87892638D01*
X155584000Y-88631362D01*
X155579555Y-88676499D01*
X155568180Y-88713995D01*
X155549708Y-88748554D01*
X155524847Y-88778847D01*
X155494554Y-88803708D01*
X155459995Y-88822180D01*
X155422499Y-88833555D01*
X155377362Y-88838000D01*
X154738638Y-88838000D01*
X154693501Y-88833555D01*
X154656005Y-88822180D01*
X154621446Y-88803708D01*
X154591153Y-88778847D01*
X154566292Y-88748554D01*
X154547820Y-88713995D01*
X154536445Y-88676499D01*
X154532000Y-88631362D01*
X154532000Y-87892638D01*
X154536445Y-87847501D01*
X154547820Y-87810005D01*
X154566292Y-87775446D01*
X154591153Y-87745153D01*
X154621446Y-87720292D01*
X154656005Y-87701820D01*
X154693501Y-87690445D01*
X154738638Y-87686000D01*
X155377362Y-87686000D01*
X155422499Y-87690445D01*
X155422499Y-87690445D01*
G37*
G36*
X115417442Y-86845518D02*
G01*
X115483627Y-86852037D01*
X115653466Y-86903557D01*
X115653468Y-86903558D01*
X115697008Y-86926831D01*
X115809991Y-86987222D01*
X115845729Y-87016552D01*
X115947186Y-87099814D01*
X116030448Y-87201271D01*
X116059778Y-87237009D01*
X116143443Y-87393534D01*
X116194963Y-87563373D01*
X116212359Y-87740000D01*
X116194963Y-87916627D01*
X116143443Y-88086466D01*
X116059778Y-88242991D01*
X116030448Y-88278729D01*
X115947186Y-88380186D01*
X115845729Y-88463448D01*
X115809991Y-88492778D01*
X115653466Y-88576443D01*
X115483627Y-88627963D01*
X115417443Y-88634481D01*
X115351260Y-88641000D01*
X115262740Y-88641000D01*
X115196557Y-88634481D01*
X115130373Y-88627963D01*
X114960534Y-88576443D01*
X114804009Y-88492778D01*
X114768271Y-88463448D01*
X114666814Y-88380186D01*
X114583552Y-88278729D01*
X114554222Y-88242991D01*
X114470557Y-88086466D01*
X114419037Y-87916627D01*
X114401641Y-87740000D01*
X114419037Y-87563373D01*
X114470557Y-87393534D01*
X114554222Y-87237009D01*
X114583552Y-87201271D01*
X114666814Y-87099814D01*
X114768271Y-87016552D01*
X114804009Y-86987222D01*
X114916992Y-86926831D01*
X114960532Y-86903558D01*
X114960534Y-86903557D01*
X115130373Y-86852037D01*
X115196558Y-86845518D01*
X115262740Y-86839000D01*
X115351260Y-86839000D01*
X115417442Y-86845518D01*
X115417442Y-86845518D01*
G37*
G36*
X111128000Y-88641000D02*
G01*
X109326000Y-88641000D01*
X109326000Y-86839000D01*
X111128000Y-86839000D01*
X111128000Y-88641000D01*
X111128000Y-88641000D01*
G37*
G36*
X112877442Y-86845518D02*
G01*
X112943627Y-86852037D01*
X113113466Y-86903557D01*
X113113468Y-86903558D01*
X113157008Y-86926831D01*
X113269991Y-86987222D01*
X113305729Y-87016552D01*
X113407186Y-87099814D01*
X113490448Y-87201271D01*
X113519778Y-87237009D01*
X113603443Y-87393534D01*
X113654963Y-87563373D01*
X113672359Y-87740000D01*
X113654963Y-87916627D01*
X113603443Y-88086466D01*
X113519778Y-88242991D01*
X113490448Y-88278729D01*
X113407186Y-88380186D01*
X113305729Y-88463448D01*
X113269991Y-88492778D01*
X113113466Y-88576443D01*
X112943627Y-88627963D01*
X112877443Y-88634481D01*
X112811260Y-88641000D01*
X112722740Y-88641000D01*
X112656557Y-88634481D01*
X112590373Y-88627963D01*
X112420534Y-88576443D01*
X112264009Y-88492778D01*
X112228271Y-88463448D01*
X112126814Y-88380186D01*
X112043552Y-88278729D01*
X112014222Y-88242991D01*
X111930557Y-88086466D01*
X111879037Y-87916627D01*
X111861641Y-87740000D01*
X111879037Y-87563373D01*
X111930557Y-87393534D01*
X112014222Y-87237009D01*
X112043552Y-87201271D01*
X112126814Y-87099814D01*
X112228271Y-87016552D01*
X112264009Y-86987222D01*
X112376992Y-86926831D01*
X112420532Y-86903558D01*
X112420534Y-86903557D01*
X112590373Y-86852037D01*
X112656558Y-86845518D01*
X112722740Y-86839000D01*
X112811260Y-86839000D01*
X112877442Y-86845518D01*
X112877442Y-86845518D01*
G37*
G36*
X117957442Y-86845518D02*
G01*
X118023627Y-86852037D01*
X118193466Y-86903557D01*
X118193468Y-86903558D01*
X118237008Y-86926831D01*
X118349991Y-86987222D01*
X118385729Y-87016552D01*
X118487186Y-87099814D01*
X118570448Y-87201271D01*
X118599778Y-87237009D01*
X118683443Y-87393534D01*
X118734963Y-87563373D01*
X118752359Y-87740000D01*
X118734963Y-87916627D01*
X118683443Y-88086466D01*
X118599778Y-88242991D01*
X118570448Y-88278729D01*
X118487186Y-88380186D01*
X118385729Y-88463448D01*
X118349991Y-88492778D01*
X118193466Y-88576443D01*
X118023627Y-88627963D01*
X117957443Y-88634481D01*
X117891260Y-88641000D01*
X117802740Y-88641000D01*
X117736557Y-88634481D01*
X117670373Y-88627963D01*
X117500534Y-88576443D01*
X117344009Y-88492778D01*
X117308271Y-88463448D01*
X117206814Y-88380186D01*
X117123552Y-88278729D01*
X117094222Y-88242991D01*
X117010557Y-88086466D01*
X116959037Y-87916627D01*
X116941641Y-87740000D01*
X116959037Y-87563373D01*
X117010557Y-87393534D01*
X117094222Y-87237009D01*
X117123552Y-87201271D01*
X117206814Y-87099814D01*
X117308271Y-87016552D01*
X117344009Y-86987222D01*
X117456992Y-86926831D01*
X117500532Y-86903558D01*
X117500534Y-86903557D01*
X117670373Y-86852037D01*
X117736558Y-86845518D01*
X117802740Y-86839000D01*
X117891260Y-86839000D01*
X117957442Y-86845518D01*
X117957442Y-86845518D01*
G37*
G36*
X120497442Y-86845518D02*
G01*
X120563627Y-86852037D01*
X120733466Y-86903557D01*
X120733468Y-86903558D01*
X120777008Y-86926831D01*
X120889991Y-86987222D01*
X120925729Y-87016552D01*
X121027186Y-87099814D01*
X121110448Y-87201271D01*
X121139778Y-87237009D01*
X121223443Y-87393534D01*
X121274963Y-87563373D01*
X121292359Y-87740000D01*
X121274963Y-87916627D01*
X121223443Y-88086466D01*
X121139778Y-88242991D01*
X121110448Y-88278729D01*
X121027186Y-88380186D01*
X120925729Y-88463448D01*
X120889991Y-88492778D01*
X120733466Y-88576443D01*
X120563627Y-88627963D01*
X120497443Y-88634481D01*
X120431260Y-88641000D01*
X120342740Y-88641000D01*
X120276557Y-88634481D01*
X120210373Y-88627963D01*
X120040534Y-88576443D01*
X119884009Y-88492778D01*
X119848271Y-88463448D01*
X119746814Y-88380186D01*
X119663552Y-88278729D01*
X119634222Y-88242991D01*
X119550557Y-88086466D01*
X119499037Y-87916627D01*
X119481641Y-87740000D01*
X119499037Y-87563373D01*
X119550557Y-87393534D01*
X119634222Y-87237009D01*
X119663552Y-87201271D01*
X119746814Y-87099814D01*
X119848271Y-87016552D01*
X119884009Y-86987222D01*
X119996992Y-86926831D01*
X120040532Y-86903558D01*
X120040534Y-86903557D01*
X120210373Y-86852037D01*
X120276558Y-86845518D01*
X120342740Y-86839000D01*
X120431260Y-86839000D01*
X120497442Y-86845518D01*
X120497442Y-86845518D01*
G37*
G36*
X123037442Y-86845518D02*
G01*
X123103627Y-86852037D01*
X123273466Y-86903557D01*
X123273468Y-86903558D01*
X123317008Y-86926831D01*
X123429991Y-86987222D01*
X123465729Y-87016552D01*
X123567186Y-87099814D01*
X123650448Y-87201271D01*
X123679778Y-87237009D01*
X123763443Y-87393534D01*
X123814963Y-87563373D01*
X123832359Y-87740000D01*
X123814963Y-87916627D01*
X123763443Y-88086466D01*
X123679778Y-88242991D01*
X123650448Y-88278729D01*
X123567186Y-88380186D01*
X123465729Y-88463448D01*
X123429991Y-88492778D01*
X123273466Y-88576443D01*
X123103627Y-88627963D01*
X123037443Y-88634481D01*
X122971260Y-88641000D01*
X122882740Y-88641000D01*
X122816557Y-88634481D01*
X122750373Y-88627963D01*
X122580534Y-88576443D01*
X122424009Y-88492778D01*
X122388271Y-88463448D01*
X122286814Y-88380186D01*
X122203552Y-88278729D01*
X122174222Y-88242991D01*
X122090557Y-88086466D01*
X122039037Y-87916627D01*
X122021641Y-87740000D01*
X122039037Y-87563373D01*
X122090557Y-87393534D01*
X122174222Y-87237009D01*
X122203552Y-87201271D01*
X122286814Y-87099814D01*
X122388271Y-87016552D01*
X122424009Y-86987222D01*
X122536992Y-86926831D01*
X122580532Y-86903558D01*
X122580534Y-86903557D01*
X122750373Y-86852037D01*
X122816558Y-86845518D01*
X122882740Y-86839000D01*
X122971260Y-86839000D01*
X123037442Y-86845518D01*
X123037442Y-86845518D01*
G37*
G36*
X125577442Y-86845518D02*
G01*
X125643627Y-86852037D01*
X125813466Y-86903557D01*
X125813468Y-86903558D01*
X125857008Y-86926831D01*
X125969991Y-86987222D01*
X126005729Y-87016552D01*
X126107186Y-87099814D01*
X126190448Y-87201271D01*
X126219778Y-87237009D01*
X126303443Y-87393534D01*
X126354963Y-87563373D01*
X126372359Y-87740000D01*
X126354963Y-87916627D01*
X126303443Y-88086466D01*
X126219778Y-88242991D01*
X126190448Y-88278729D01*
X126107186Y-88380186D01*
X126005729Y-88463448D01*
X125969991Y-88492778D01*
X125813466Y-88576443D01*
X125643627Y-88627963D01*
X125577443Y-88634481D01*
X125511260Y-88641000D01*
X125422740Y-88641000D01*
X125356557Y-88634481D01*
X125290373Y-88627963D01*
X125120534Y-88576443D01*
X124964009Y-88492778D01*
X124928271Y-88463448D01*
X124826814Y-88380186D01*
X124743552Y-88278729D01*
X124714222Y-88242991D01*
X124630557Y-88086466D01*
X124579037Y-87916627D01*
X124561641Y-87740000D01*
X124579037Y-87563373D01*
X124630557Y-87393534D01*
X124714222Y-87237009D01*
X124743552Y-87201271D01*
X124826814Y-87099814D01*
X124928271Y-87016552D01*
X124964009Y-86987222D01*
X125076992Y-86926831D01*
X125120532Y-86903558D01*
X125120534Y-86903557D01*
X125290373Y-86852037D01*
X125356558Y-86845518D01*
X125422740Y-86839000D01*
X125511260Y-86839000D01*
X125577442Y-86845518D01*
X125577442Y-86845518D01*
G37*
G36*
X133193642Y-86969781D02*
G01*
X133339414Y-87030162D01*
X133339416Y-87030163D01*
X133470608Y-87117822D01*
X133582178Y-87229392D01*
X133662934Y-87350253D01*
X133669838Y-87360586D01*
X133730219Y-87506358D01*
X133761000Y-87661107D01*
X133761000Y-87818893D01*
X133730219Y-87973642D01*
X133674658Y-88107777D01*
X133669837Y-88119416D01*
X133582178Y-88250608D01*
X133470608Y-88362178D01*
X133339416Y-88449837D01*
X133339415Y-88449838D01*
X133339414Y-88449838D01*
X133193642Y-88510219D01*
X133038893Y-88541000D01*
X132881107Y-88541000D01*
X132726358Y-88510219D01*
X132580586Y-88449838D01*
X132580585Y-88449838D01*
X132580584Y-88449837D01*
X132449392Y-88362178D01*
X132337822Y-88250608D01*
X132250163Y-88119416D01*
X132245342Y-88107777D01*
X132189781Y-87973642D01*
X132159000Y-87818893D01*
X132159000Y-87661107D01*
X132189781Y-87506358D01*
X132250162Y-87360586D01*
X132257066Y-87350253D01*
X132337822Y-87229392D01*
X132449392Y-87117822D01*
X132580584Y-87030163D01*
X132580586Y-87030162D01*
X132726358Y-86969781D01*
X132881107Y-86939000D01*
X133038893Y-86939000D01*
X133193642Y-86969781D01*
X133193642Y-86969781D01*
G37*
G36*
X91701000Y-88491000D02*
G01*
X90399000Y-88491000D01*
X90399000Y-86989000D01*
X91701000Y-86989000D01*
X91701000Y-88491000D01*
X91701000Y-88491000D01*
G37*
G36*
X90001000Y-88491000D02*
G01*
X88699000Y-88491000D01*
X88699000Y-86989000D01*
X90001000Y-86989000D01*
X90001000Y-88491000D01*
X90001000Y-88491000D01*
G37*
G36*
X140021468Y-87411565D02*
G01*
X140060138Y-87423296D01*
X140095777Y-87442346D01*
X140127017Y-87467983D01*
X140152654Y-87499223D01*
X140171704Y-87534862D01*
X140183435Y-87573532D01*
X140188000Y-87619888D01*
X140188000Y-88271112D01*
X140183435Y-88317468D01*
X140171704Y-88356138D01*
X140152654Y-88391777D01*
X140127017Y-88423017D01*
X140095777Y-88448654D01*
X140060138Y-88467704D01*
X140021468Y-88479435D01*
X139975112Y-88484000D01*
X138898888Y-88484000D01*
X138852532Y-88479435D01*
X138813862Y-88467704D01*
X138778223Y-88448654D01*
X138746983Y-88423017D01*
X138721346Y-88391777D01*
X138702296Y-88356138D01*
X138690565Y-88317468D01*
X138686000Y-88271112D01*
X138686000Y-87619888D01*
X138690565Y-87573532D01*
X138702296Y-87534862D01*
X138721346Y-87499223D01*
X138746983Y-87467983D01*
X138778223Y-87442346D01*
X138813862Y-87423296D01*
X138852532Y-87411565D01*
X138898888Y-87407000D01*
X139975112Y-87407000D01*
X140021468Y-87411565D01*
X140021468Y-87411565D01*
G37*
G36*
X74234213Y-87434249D02*
G01*
X74328652Y-87462897D01*
X74415687Y-87509418D01*
X74491975Y-87572025D01*
X74554582Y-87648313D01*
X74601103Y-87735348D01*
X74629751Y-87829787D01*
X74639424Y-87928000D01*
X74629751Y-88026213D01*
X74601103Y-88120652D01*
X74554582Y-88207687D01*
X74491975Y-88283975D01*
X74415687Y-88346582D01*
X74328652Y-88393103D01*
X74234213Y-88421751D01*
X74160612Y-88429000D01*
X73311388Y-88429000D01*
X73237787Y-88421751D01*
X73143348Y-88393103D01*
X73056313Y-88346582D01*
X72980025Y-88283975D01*
X72917418Y-88207687D01*
X72870897Y-88120652D01*
X72842249Y-88026213D01*
X72832576Y-87928000D01*
X72842249Y-87829787D01*
X72870897Y-87735348D01*
X72917418Y-87648313D01*
X72980025Y-87572025D01*
X73056313Y-87509418D01*
X73143348Y-87462897D01*
X73237787Y-87434249D01*
X73311388Y-87427000D01*
X74160612Y-87427000D01*
X74234213Y-87434249D01*
X74234213Y-87434249D01*
G37*
G36*
X77964213Y-87434249D02*
G01*
X78058652Y-87462897D01*
X78145687Y-87509418D01*
X78221975Y-87572025D01*
X78284582Y-87648313D01*
X78331103Y-87735348D01*
X78359751Y-87829787D01*
X78369424Y-87928000D01*
X78359751Y-88026213D01*
X78331103Y-88120652D01*
X78284582Y-88207687D01*
X78221975Y-88283975D01*
X78145687Y-88346582D01*
X78058652Y-88393103D01*
X77964213Y-88421751D01*
X77890612Y-88429000D01*
X76341388Y-88429000D01*
X76267787Y-88421751D01*
X76173348Y-88393103D01*
X76086313Y-88346582D01*
X76010025Y-88283975D01*
X75947418Y-88207687D01*
X75900897Y-88120652D01*
X75872249Y-88026213D01*
X75862576Y-87928000D01*
X75872249Y-87829787D01*
X75900897Y-87735348D01*
X75947418Y-87648313D01*
X76010025Y-87572025D01*
X76086313Y-87509418D01*
X76173348Y-87462897D01*
X76267787Y-87434249D01*
X76341388Y-87427000D01*
X77890612Y-87427000D01*
X77964213Y-87434249D01*
X77964213Y-87434249D01*
G37*
G36*
X87316468Y-87127565D02*
G01*
X87355138Y-87139296D01*
X87390777Y-87158346D01*
X87422017Y-87183983D01*
X87447654Y-87215223D01*
X87466704Y-87250862D01*
X87478435Y-87289532D01*
X87483000Y-87335888D01*
X87483000Y-87987112D01*
X87478435Y-88033468D01*
X87466704Y-88072138D01*
X87447654Y-88107777D01*
X87422017Y-88139017D01*
X87390777Y-88164654D01*
X87355138Y-88183704D01*
X87316468Y-88195435D01*
X87270112Y-88200000D01*
X86193888Y-88200000D01*
X86147532Y-88195435D01*
X86108862Y-88183704D01*
X86073223Y-88164654D01*
X86041983Y-88139017D01*
X86016346Y-88107777D01*
X85997296Y-88072138D01*
X85985565Y-88033468D01*
X85981000Y-87987112D01*
X85981000Y-87335888D01*
X85985565Y-87289532D01*
X85997296Y-87250862D01*
X86016346Y-87215223D01*
X86041983Y-87183983D01*
X86073223Y-87158346D01*
X86108862Y-87139296D01*
X86147532Y-87127565D01*
X86193888Y-87123000D01*
X87270112Y-87123000D01*
X87316468Y-87127565D01*
X87316468Y-87127565D01*
G37*
G36*
X157714843Y-86105164D02*
G01*
X157784627Y-86112037D01*
X157954466Y-86163557D01*
X158110991Y-86247222D01*
X158134508Y-86266522D01*
X158248186Y-86359814D01*
X158331253Y-86461033D01*
X158360778Y-86497009D01*
X158444443Y-86653534D01*
X158495963Y-86823373D01*
X158513359Y-87000000D01*
X158495963Y-87176627D01*
X158444443Y-87346466D01*
X158360778Y-87502991D01*
X158341351Y-87526663D01*
X158248186Y-87640186D01*
X158163511Y-87709676D01*
X158110991Y-87752778D01*
X158102529Y-87757301D01*
X157966919Y-87829787D01*
X157954466Y-87836443D01*
X157784627Y-87887963D01*
X157737160Y-87892638D01*
X157652260Y-87901000D01*
X157563740Y-87901000D01*
X157478840Y-87892638D01*
X157431373Y-87887963D01*
X157261534Y-87836443D01*
X157249082Y-87829787D01*
X157113471Y-87757301D01*
X157105009Y-87752778D01*
X157052489Y-87709676D01*
X156967814Y-87640186D01*
X156874649Y-87526663D01*
X156855222Y-87502991D01*
X156771557Y-87346466D01*
X156720037Y-87176627D01*
X156702641Y-87000000D01*
X156720037Y-86823373D01*
X156771557Y-86653534D01*
X156855222Y-86497009D01*
X156884747Y-86461033D01*
X156967814Y-86359814D01*
X157081492Y-86266522D01*
X157105009Y-86247222D01*
X157261534Y-86163557D01*
X157431373Y-86112037D01*
X157501157Y-86105164D01*
X157563740Y-86099000D01*
X157652260Y-86099000D01*
X157714843Y-86105164D01*
X157714843Y-86105164D01*
G37*
G36*
X150714843Y-86105164D02*
G01*
X150784627Y-86112037D01*
X150954466Y-86163557D01*
X151110991Y-86247222D01*
X151134508Y-86266522D01*
X151248186Y-86359814D01*
X151331253Y-86461033D01*
X151360778Y-86497009D01*
X151444443Y-86653534D01*
X151495963Y-86823373D01*
X151513359Y-87000000D01*
X151495963Y-87176627D01*
X151444443Y-87346466D01*
X151360778Y-87502991D01*
X151341351Y-87526663D01*
X151248186Y-87640186D01*
X151163511Y-87709676D01*
X151110991Y-87752778D01*
X151102529Y-87757301D01*
X150966919Y-87829787D01*
X150954466Y-87836443D01*
X150784627Y-87887963D01*
X150737160Y-87892638D01*
X150652260Y-87901000D01*
X150563740Y-87901000D01*
X150478840Y-87892638D01*
X150431373Y-87887963D01*
X150261534Y-87836443D01*
X150249082Y-87829787D01*
X150113471Y-87757301D01*
X150105009Y-87752778D01*
X150052489Y-87709676D01*
X149967814Y-87640186D01*
X149874649Y-87526663D01*
X149855222Y-87502991D01*
X149771557Y-87346466D01*
X149720037Y-87176627D01*
X149702641Y-87000000D01*
X149720037Y-86823373D01*
X149771557Y-86653534D01*
X149855222Y-86497009D01*
X149884747Y-86461033D01*
X149967814Y-86359814D01*
X150081492Y-86266522D01*
X150105009Y-86247222D01*
X150261534Y-86163557D01*
X150431373Y-86112037D01*
X150501157Y-86105164D01*
X150563740Y-86099000D01*
X150652260Y-86099000D01*
X150714843Y-86105164D01*
X150714843Y-86105164D01*
G37*
G36*
X78174231Y-80234705D02*
G01*
X78212967Y-80242410D01*
X78243195Y-80254931D01*
X78285944Y-80272638D01*
X78351622Y-80316523D01*
X78407477Y-80372378D01*
X78451362Y-80438056D01*
X78481590Y-80511034D01*
X78493863Y-80572731D01*
X78497000Y-80588505D01*
X78497000Y-80667495D01*
X78481590Y-80744967D01*
X78473706Y-80764000D01*
X78451362Y-80817944D01*
X78407477Y-80883622D01*
X78351621Y-80939478D01*
X78337270Y-80949067D01*
X78318328Y-80964613D01*
X78302783Y-80983555D01*
X78291232Y-81005165D01*
X78284119Y-81028614D01*
X78281717Y-81053001D01*
X78284119Y-81077387D01*
X78291232Y-81100836D01*
X78302783Y-81122446D01*
X78318329Y-81141388D01*
X78337270Y-81156933D01*
X78351621Y-81166522D01*
X78407477Y-81222378D01*
X78451362Y-81288056D01*
X78469069Y-81330805D01*
X78473318Y-81341062D01*
X78481590Y-81361034D01*
X78497000Y-81438504D01*
X78497000Y-81517496D01*
X78481590Y-81594966D01*
X78451362Y-81667944D01*
X78407477Y-81733622D01*
X78351621Y-81789478D01*
X78337270Y-81799067D01*
X78318328Y-81814613D01*
X78302783Y-81833555D01*
X78291232Y-81855165D01*
X78284119Y-81878614D01*
X78281717Y-81903001D01*
X78284119Y-81927387D01*
X78291232Y-81950836D01*
X78302783Y-81972446D01*
X78318329Y-81991388D01*
X78337270Y-82006933D01*
X78351621Y-82016522D01*
X78407477Y-82072378D01*
X78451362Y-82138056D01*
X78481590Y-82211034D01*
X78496239Y-82284676D01*
X78497000Y-82288505D01*
X78497000Y-82367495D01*
X78483021Y-82437775D01*
X78481590Y-82444966D01*
X78451362Y-82517944D01*
X78407477Y-82583622D01*
X78351621Y-82639478D01*
X78337270Y-82649067D01*
X78318328Y-82664613D01*
X78302783Y-82683555D01*
X78291232Y-82705165D01*
X78284119Y-82728614D01*
X78281717Y-82753001D01*
X78284119Y-82777387D01*
X78291232Y-82800836D01*
X78302783Y-82822446D01*
X78318329Y-82841388D01*
X78337270Y-82856933D01*
X78351621Y-82866522D01*
X78407477Y-82922378D01*
X78451362Y-82988056D01*
X78456309Y-83000000D01*
X78481590Y-83061033D01*
X78489295Y-83099769D01*
X78497000Y-83138504D01*
X78497000Y-83217496D01*
X78481590Y-83294966D01*
X78451362Y-83367944D01*
X78407477Y-83433622D01*
X78351621Y-83489478D01*
X78337270Y-83499067D01*
X78318328Y-83514613D01*
X78302783Y-83533555D01*
X78291232Y-83555165D01*
X78284119Y-83578614D01*
X78281717Y-83603001D01*
X78284119Y-83627387D01*
X78291232Y-83650836D01*
X78302783Y-83672446D01*
X78318329Y-83691388D01*
X78337270Y-83706933D01*
X78351621Y-83716522D01*
X78407477Y-83772378D01*
X78451362Y-83838056D01*
X78456413Y-83850251D01*
X78481590Y-83911033D01*
X78484732Y-83926831D01*
X78497000Y-83988504D01*
X78497000Y-84067496D01*
X78481590Y-84144966D01*
X78451362Y-84217944D01*
X78407477Y-84283622D01*
X78351621Y-84339478D01*
X78337270Y-84349067D01*
X78318328Y-84364613D01*
X78302783Y-84383555D01*
X78291232Y-84405165D01*
X78284119Y-84428614D01*
X78281717Y-84453001D01*
X78284119Y-84477387D01*
X78291232Y-84500836D01*
X78302783Y-84522446D01*
X78318329Y-84541388D01*
X78337270Y-84556933D01*
X78351621Y-84566522D01*
X78407477Y-84622378D01*
X78451362Y-84688056D01*
X78453479Y-84693168D01*
X78476676Y-84749169D01*
X78481590Y-84761034D01*
X78497000Y-84838504D01*
X78497000Y-84917496D01*
X78481590Y-84994966D01*
X78451362Y-85067944D01*
X78407477Y-85133622D01*
X78351621Y-85189478D01*
X78337270Y-85199067D01*
X78318328Y-85214613D01*
X78302783Y-85233555D01*
X78291232Y-85255165D01*
X78284119Y-85278614D01*
X78281717Y-85303001D01*
X78284119Y-85327387D01*
X78291232Y-85350836D01*
X78302783Y-85372446D01*
X78318329Y-85391388D01*
X78337270Y-85406933D01*
X78351621Y-85416522D01*
X78407477Y-85472378D01*
X78451362Y-85538056D01*
X78481590Y-85611034D01*
X78497000Y-85688504D01*
X78497000Y-85767496D01*
X78481590Y-85844966D01*
X78451362Y-85917944D01*
X78407477Y-85983622D01*
X78351621Y-86039478D01*
X78337270Y-86049067D01*
X78318328Y-86064613D01*
X78302783Y-86083555D01*
X78291232Y-86105165D01*
X78284119Y-86128614D01*
X78281717Y-86153001D01*
X78284119Y-86177387D01*
X78291232Y-86200836D01*
X78302783Y-86222446D01*
X78318329Y-86241388D01*
X78337270Y-86256933D01*
X78351621Y-86266522D01*
X78407477Y-86322378D01*
X78451362Y-86388056D01*
X78467423Y-86426831D01*
X78477480Y-86451110D01*
X78481590Y-86461034D01*
X78497000Y-86538504D01*
X78497000Y-86617496D01*
X78481590Y-86694966D01*
X78451362Y-86767944D01*
X78407477Y-86833622D01*
X78351622Y-86889477D01*
X78285944Y-86933362D01*
X78243195Y-86951069D01*
X78212967Y-86963590D01*
X78181842Y-86969781D01*
X78135496Y-86979000D01*
X78056504Y-86979000D01*
X78010158Y-86969781D01*
X77979033Y-86963590D01*
X77948805Y-86951069D01*
X77906056Y-86933362D01*
X77840378Y-86889477D01*
X77784523Y-86833622D01*
X77740638Y-86767944D01*
X77710410Y-86694966D01*
X77695000Y-86617496D01*
X77695000Y-86538504D01*
X77710410Y-86461034D01*
X77714521Y-86451110D01*
X77724577Y-86426831D01*
X77740638Y-86388056D01*
X77784523Y-86322378D01*
X77840379Y-86266522D01*
X77854730Y-86256933D01*
X77873672Y-86241387D01*
X77889217Y-86222445D01*
X77900768Y-86200835D01*
X77907881Y-86177386D01*
X77910283Y-86152999D01*
X77907881Y-86128613D01*
X77900768Y-86105164D01*
X77889217Y-86083554D01*
X77873671Y-86064612D01*
X77854730Y-86049067D01*
X77840379Y-86039478D01*
X77784523Y-85983622D01*
X77740638Y-85917944D01*
X77710410Y-85844966D01*
X77695000Y-85767496D01*
X77695000Y-85688504D01*
X77710410Y-85611034D01*
X77740638Y-85538056D01*
X77784523Y-85472378D01*
X77840379Y-85416522D01*
X77854730Y-85406933D01*
X77873672Y-85391387D01*
X77889217Y-85372445D01*
X77900768Y-85350835D01*
X77907881Y-85327386D01*
X77910283Y-85302999D01*
X77907881Y-85278613D01*
X77900768Y-85255164D01*
X77889217Y-85233554D01*
X77873671Y-85214612D01*
X77854730Y-85199067D01*
X77840379Y-85189478D01*
X77784523Y-85133622D01*
X77740638Y-85067944D01*
X77710410Y-84994966D01*
X77695000Y-84917496D01*
X77695000Y-84838504D01*
X77710410Y-84761034D01*
X77715325Y-84749169D01*
X77738521Y-84693168D01*
X77740638Y-84688056D01*
X77784523Y-84622378D01*
X77840379Y-84566522D01*
X77854730Y-84556933D01*
X77873672Y-84541387D01*
X77889217Y-84522445D01*
X77900768Y-84500835D01*
X77907881Y-84477386D01*
X77910283Y-84452999D01*
X77907881Y-84428613D01*
X77900768Y-84405164D01*
X77889217Y-84383554D01*
X77873671Y-84364612D01*
X77854730Y-84349067D01*
X77840379Y-84339478D01*
X77784523Y-84283622D01*
X77740638Y-84217944D01*
X77710410Y-84144966D01*
X77695000Y-84067496D01*
X77695000Y-83988504D01*
X77707268Y-83926831D01*
X77710410Y-83911033D01*
X77735587Y-83850251D01*
X77740638Y-83838056D01*
X77784523Y-83772378D01*
X77840379Y-83716522D01*
X77854730Y-83706933D01*
X77873672Y-83691387D01*
X77889217Y-83672445D01*
X77900768Y-83650835D01*
X77907881Y-83627386D01*
X77910283Y-83602999D01*
X77907881Y-83578613D01*
X77900768Y-83555164D01*
X77889217Y-83533554D01*
X77873671Y-83514612D01*
X77854730Y-83499067D01*
X77840379Y-83489478D01*
X77784523Y-83433622D01*
X77740638Y-83367944D01*
X77710410Y-83294966D01*
X77695000Y-83217496D01*
X77695000Y-83138504D01*
X77702705Y-83099769D01*
X77710410Y-83061033D01*
X77735691Y-83000000D01*
X77740638Y-82988056D01*
X77784523Y-82922378D01*
X77840379Y-82866522D01*
X77854730Y-82856933D01*
X77873672Y-82841387D01*
X77889217Y-82822445D01*
X77900768Y-82800835D01*
X77907881Y-82777386D01*
X77910283Y-82752999D01*
X77907881Y-82728613D01*
X77900768Y-82705164D01*
X77889217Y-82683554D01*
X77873671Y-82664612D01*
X77854730Y-82649067D01*
X77840379Y-82639478D01*
X77784523Y-82583622D01*
X77740638Y-82517944D01*
X77710410Y-82444966D01*
X77708980Y-82437775D01*
X77695000Y-82367495D01*
X77695000Y-82288505D01*
X77695762Y-82284676D01*
X77710410Y-82211034D01*
X77740638Y-82138056D01*
X77784523Y-82072378D01*
X77840379Y-82016522D01*
X77854730Y-82006933D01*
X77873672Y-81991387D01*
X77889217Y-81972445D01*
X77900768Y-81950835D01*
X77907881Y-81927386D01*
X77910283Y-81902999D01*
X77907881Y-81878613D01*
X77900768Y-81855164D01*
X77889217Y-81833554D01*
X77873671Y-81814612D01*
X77854730Y-81799067D01*
X77840379Y-81789478D01*
X77784523Y-81733622D01*
X77740638Y-81667944D01*
X77710410Y-81594966D01*
X77695000Y-81517496D01*
X77695000Y-81438504D01*
X77710410Y-81361034D01*
X77718683Y-81341062D01*
X77722931Y-81330805D01*
X77740638Y-81288056D01*
X77784523Y-81222378D01*
X77840379Y-81166522D01*
X77854730Y-81156933D01*
X77873672Y-81141387D01*
X77889217Y-81122445D01*
X77900768Y-81100835D01*
X77907881Y-81077386D01*
X77910283Y-81052999D01*
X77907881Y-81028613D01*
X77900768Y-81005164D01*
X77889217Y-80983554D01*
X77873671Y-80964612D01*
X77854730Y-80949067D01*
X77840379Y-80939478D01*
X77784523Y-80883622D01*
X77740638Y-80817944D01*
X77718294Y-80764000D01*
X77710410Y-80744967D01*
X77695000Y-80667495D01*
X77695000Y-80588505D01*
X77698138Y-80572731D01*
X77710410Y-80511034D01*
X77740638Y-80438056D01*
X77784523Y-80372378D01*
X77840378Y-80316523D01*
X77906056Y-80272638D01*
X77948805Y-80254931D01*
X77979033Y-80242410D01*
X78017769Y-80234705D01*
X78056504Y-80227000D01*
X78135496Y-80227000D01*
X78174231Y-80234705D01*
X78174231Y-80234705D01*
G37*
G36*
X76824231Y-80234705D02*
G01*
X76862967Y-80242410D01*
X76893195Y-80254931D01*
X76935944Y-80272638D01*
X77001622Y-80316523D01*
X77057477Y-80372378D01*
X77101362Y-80438056D01*
X77131590Y-80511034D01*
X77143863Y-80572731D01*
X77147000Y-80588505D01*
X77147000Y-80667495D01*
X77131590Y-80744967D01*
X77123706Y-80764000D01*
X77101362Y-80817944D01*
X77057477Y-80883622D01*
X77001621Y-80939478D01*
X76987270Y-80949067D01*
X76968328Y-80964613D01*
X76952783Y-80983555D01*
X76941232Y-81005165D01*
X76934119Y-81028614D01*
X76931717Y-81053001D01*
X76934119Y-81077387D01*
X76941232Y-81100836D01*
X76952783Y-81122446D01*
X76968329Y-81141388D01*
X76987270Y-81156933D01*
X77001621Y-81166522D01*
X77057477Y-81222378D01*
X77101362Y-81288056D01*
X77119069Y-81330805D01*
X77123318Y-81341062D01*
X77131590Y-81361034D01*
X77147000Y-81438504D01*
X77147000Y-81517496D01*
X77131590Y-81594966D01*
X77101362Y-81667944D01*
X77057477Y-81733622D01*
X77001621Y-81789478D01*
X76987270Y-81799067D01*
X76968328Y-81814613D01*
X76952783Y-81833555D01*
X76941232Y-81855165D01*
X76934119Y-81878614D01*
X76931717Y-81903001D01*
X76934119Y-81927387D01*
X76941232Y-81950836D01*
X76952783Y-81972446D01*
X76968329Y-81991388D01*
X76987270Y-82006933D01*
X77001621Y-82016522D01*
X77057477Y-82072378D01*
X77101362Y-82138056D01*
X77131590Y-82211034D01*
X77146239Y-82284676D01*
X77147000Y-82288505D01*
X77147000Y-82367495D01*
X77133021Y-82437775D01*
X77131590Y-82444966D01*
X77101362Y-82517944D01*
X77057477Y-82583622D01*
X77001621Y-82639478D01*
X76987270Y-82649067D01*
X76968328Y-82664613D01*
X76952783Y-82683555D01*
X76941232Y-82705165D01*
X76934119Y-82728614D01*
X76931717Y-82753001D01*
X76934119Y-82777387D01*
X76941232Y-82800836D01*
X76952783Y-82822446D01*
X76968329Y-82841388D01*
X76987270Y-82856933D01*
X77001621Y-82866522D01*
X77057477Y-82922378D01*
X77101362Y-82988056D01*
X77106309Y-83000000D01*
X77131590Y-83061033D01*
X77139295Y-83099769D01*
X77147000Y-83138504D01*
X77147000Y-83217496D01*
X77131590Y-83294966D01*
X77101362Y-83367944D01*
X77057477Y-83433622D01*
X77001621Y-83489478D01*
X76987270Y-83499067D01*
X76968328Y-83514613D01*
X76952783Y-83533555D01*
X76941232Y-83555165D01*
X76934119Y-83578614D01*
X76931717Y-83603001D01*
X76934119Y-83627387D01*
X76941232Y-83650836D01*
X76952783Y-83672446D01*
X76968329Y-83691388D01*
X76987270Y-83706933D01*
X77001621Y-83716522D01*
X77057477Y-83772378D01*
X77101362Y-83838056D01*
X77106413Y-83850251D01*
X77131590Y-83911033D01*
X77134732Y-83926831D01*
X77147000Y-83988504D01*
X77147000Y-84067496D01*
X77131590Y-84144966D01*
X77101362Y-84217944D01*
X77057477Y-84283622D01*
X77001621Y-84339478D01*
X76987270Y-84349067D01*
X76968328Y-84364613D01*
X76952783Y-84383555D01*
X76941232Y-84405165D01*
X76934119Y-84428614D01*
X76931717Y-84453001D01*
X76934119Y-84477387D01*
X76941232Y-84500836D01*
X76952783Y-84522446D01*
X76968329Y-84541388D01*
X76987270Y-84556933D01*
X77001621Y-84566522D01*
X77057477Y-84622378D01*
X77101362Y-84688056D01*
X77103479Y-84693168D01*
X77126676Y-84749169D01*
X77131590Y-84761034D01*
X77147000Y-84838504D01*
X77147000Y-84917496D01*
X77131590Y-84994966D01*
X77101362Y-85067944D01*
X77057477Y-85133622D01*
X77001621Y-85189478D01*
X76987270Y-85199067D01*
X76968328Y-85214613D01*
X76952783Y-85233555D01*
X76941232Y-85255165D01*
X76934119Y-85278614D01*
X76931717Y-85303001D01*
X76934119Y-85327387D01*
X76941232Y-85350836D01*
X76952783Y-85372446D01*
X76968329Y-85391388D01*
X76987270Y-85406933D01*
X77001621Y-85416522D01*
X77057477Y-85472378D01*
X77101362Y-85538056D01*
X77131590Y-85611034D01*
X77147000Y-85688504D01*
X77147000Y-85767496D01*
X77131590Y-85844966D01*
X77101362Y-85917944D01*
X77057477Y-85983622D01*
X77001621Y-86039478D01*
X76987270Y-86049067D01*
X76968328Y-86064613D01*
X76952783Y-86083555D01*
X76941232Y-86105165D01*
X76934119Y-86128614D01*
X76931717Y-86153001D01*
X76934119Y-86177387D01*
X76941232Y-86200836D01*
X76952783Y-86222446D01*
X76968329Y-86241388D01*
X76987270Y-86256933D01*
X77001621Y-86266522D01*
X77057477Y-86322378D01*
X77101362Y-86388056D01*
X77117423Y-86426831D01*
X77127480Y-86451110D01*
X77131590Y-86461034D01*
X77147000Y-86538504D01*
X77147000Y-86617496D01*
X77131590Y-86694966D01*
X77101362Y-86767944D01*
X77057477Y-86833622D01*
X77001622Y-86889477D01*
X76935944Y-86933362D01*
X76893195Y-86951069D01*
X76862967Y-86963590D01*
X76831842Y-86969781D01*
X76785496Y-86979000D01*
X76706504Y-86979000D01*
X76660158Y-86969781D01*
X76629033Y-86963590D01*
X76598805Y-86951069D01*
X76556056Y-86933362D01*
X76490378Y-86889477D01*
X76434523Y-86833622D01*
X76390638Y-86767944D01*
X76360410Y-86694966D01*
X76345000Y-86617496D01*
X76345000Y-86538504D01*
X76360410Y-86461034D01*
X76364521Y-86451110D01*
X76374577Y-86426831D01*
X76390638Y-86388056D01*
X76434523Y-86322378D01*
X76490379Y-86266522D01*
X76504730Y-86256933D01*
X76523672Y-86241387D01*
X76539217Y-86222445D01*
X76550768Y-86200835D01*
X76557881Y-86177386D01*
X76560283Y-86152999D01*
X76557881Y-86128613D01*
X76550768Y-86105164D01*
X76539217Y-86083554D01*
X76523671Y-86064612D01*
X76504730Y-86049067D01*
X76490379Y-86039478D01*
X76434523Y-85983622D01*
X76390638Y-85917944D01*
X76360410Y-85844966D01*
X76345000Y-85767496D01*
X76345000Y-85688504D01*
X76360410Y-85611034D01*
X76390638Y-85538056D01*
X76434523Y-85472378D01*
X76490379Y-85416522D01*
X76504730Y-85406933D01*
X76523672Y-85391387D01*
X76539217Y-85372445D01*
X76550768Y-85350835D01*
X76557881Y-85327386D01*
X76560283Y-85302999D01*
X76557881Y-85278613D01*
X76550768Y-85255164D01*
X76539217Y-85233554D01*
X76523671Y-85214612D01*
X76504730Y-85199067D01*
X76490379Y-85189478D01*
X76434523Y-85133622D01*
X76390638Y-85067944D01*
X76360410Y-84994966D01*
X76345000Y-84917496D01*
X76345000Y-84838504D01*
X76360410Y-84761034D01*
X76365325Y-84749169D01*
X76388521Y-84693168D01*
X76390638Y-84688056D01*
X76434523Y-84622378D01*
X76490379Y-84566522D01*
X76504730Y-84556933D01*
X76523672Y-84541387D01*
X76539217Y-84522445D01*
X76550768Y-84500835D01*
X76557881Y-84477386D01*
X76560283Y-84452999D01*
X76557881Y-84428613D01*
X76550768Y-84405164D01*
X76539217Y-84383554D01*
X76523671Y-84364612D01*
X76504730Y-84349067D01*
X76490379Y-84339478D01*
X76434523Y-84283622D01*
X76390638Y-84217944D01*
X76360410Y-84144966D01*
X76345000Y-84067496D01*
X76345000Y-83988504D01*
X76357268Y-83926831D01*
X76360410Y-83911033D01*
X76385587Y-83850251D01*
X76390638Y-83838056D01*
X76434523Y-83772378D01*
X76490379Y-83716522D01*
X76504730Y-83706933D01*
X76523672Y-83691387D01*
X76539217Y-83672445D01*
X76550768Y-83650835D01*
X76557881Y-83627386D01*
X76560283Y-83602999D01*
X76557881Y-83578613D01*
X76550768Y-83555164D01*
X76539217Y-83533554D01*
X76523671Y-83514612D01*
X76504730Y-83499067D01*
X76490379Y-83489478D01*
X76434523Y-83433622D01*
X76390638Y-83367944D01*
X76360410Y-83294966D01*
X76345000Y-83217496D01*
X76345000Y-83138504D01*
X76352705Y-83099769D01*
X76360410Y-83061033D01*
X76385691Y-83000000D01*
X76390638Y-82988056D01*
X76434523Y-82922378D01*
X76490379Y-82866522D01*
X76504730Y-82856933D01*
X76523672Y-82841387D01*
X76539217Y-82822445D01*
X76550768Y-82800835D01*
X76557881Y-82777386D01*
X76560283Y-82752999D01*
X76557881Y-82728613D01*
X76550768Y-82705164D01*
X76539217Y-82683554D01*
X76523671Y-82664612D01*
X76504730Y-82649067D01*
X76490379Y-82639478D01*
X76434523Y-82583622D01*
X76390638Y-82517944D01*
X76360410Y-82444966D01*
X76358980Y-82437775D01*
X76345000Y-82367495D01*
X76345000Y-82288505D01*
X76345762Y-82284676D01*
X76360410Y-82211034D01*
X76390638Y-82138056D01*
X76434523Y-82072378D01*
X76490379Y-82016522D01*
X76504730Y-82006933D01*
X76523672Y-81991387D01*
X76539217Y-81972445D01*
X76550768Y-81950835D01*
X76557881Y-81927386D01*
X76560283Y-81902999D01*
X76557881Y-81878613D01*
X76550768Y-81855164D01*
X76539217Y-81833554D01*
X76523671Y-81814612D01*
X76504730Y-81799067D01*
X76490379Y-81789478D01*
X76434523Y-81733622D01*
X76390638Y-81667944D01*
X76360410Y-81594966D01*
X76345000Y-81517496D01*
X76345000Y-81438504D01*
X76360410Y-81361034D01*
X76368683Y-81341062D01*
X76372931Y-81330805D01*
X76390638Y-81288056D01*
X76434523Y-81222378D01*
X76490379Y-81166522D01*
X76504730Y-81156933D01*
X76523672Y-81141387D01*
X76539217Y-81122445D01*
X76550768Y-81100835D01*
X76557881Y-81077386D01*
X76560283Y-81052999D01*
X76557881Y-81028613D01*
X76550768Y-81005164D01*
X76539217Y-80983554D01*
X76523671Y-80964612D01*
X76504730Y-80949067D01*
X76490379Y-80939478D01*
X76434523Y-80883622D01*
X76390638Y-80817944D01*
X76368294Y-80764000D01*
X76360410Y-80744967D01*
X76345000Y-80667495D01*
X76345000Y-80588505D01*
X76348138Y-80572731D01*
X76360410Y-80511034D01*
X76390638Y-80438056D01*
X76434523Y-80372378D01*
X76490378Y-80316523D01*
X76556056Y-80272638D01*
X76598805Y-80254931D01*
X76629033Y-80242410D01*
X76667769Y-80234705D01*
X76706504Y-80227000D01*
X76785496Y-80227000D01*
X76824231Y-80234705D01*
X76824231Y-80234705D01*
G37*
G36*
X139543642Y-85191781D02*
G01*
X139655767Y-85238225D01*
X139689416Y-85252163D01*
X139820608Y-85339822D01*
X139932178Y-85451392D01*
X140019837Y-85582584D01*
X140019838Y-85582586D01*
X140080219Y-85728358D01*
X140111000Y-85883107D01*
X140111000Y-86040893D01*
X140080219Y-86195642D01*
X140019838Y-86341414D01*
X140019837Y-86341416D01*
X139932178Y-86472608D01*
X139820608Y-86584178D01*
X139689416Y-86671837D01*
X139689415Y-86671838D01*
X139689414Y-86671838D01*
X139543642Y-86732219D01*
X139388893Y-86763000D01*
X139231107Y-86763000D01*
X139076358Y-86732219D01*
X138930586Y-86671838D01*
X138930585Y-86671838D01*
X138930584Y-86671837D01*
X138799392Y-86584178D01*
X138687822Y-86472608D01*
X138600163Y-86341416D01*
X138600162Y-86341414D01*
X138539781Y-86195642D01*
X138509000Y-86040893D01*
X138509000Y-85883107D01*
X138539781Y-85728358D01*
X138600162Y-85582586D01*
X138600163Y-85582584D01*
X138687822Y-85451392D01*
X138799392Y-85339822D01*
X138930584Y-85252163D01*
X138964233Y-85238225D01*
X139076358Y-85191781D01*
X139231107Y-85161000D01*
X139388893Y-85161000D01*
X139543642Y-85191781D01*
X139543642Y-85191781D01*
G37*
G36*
X87316468Y-85252565D02*
G01*
X87355138Y-85264296D01*
X87390777Y-85283346D01*
X87422017Y-85308983D01*
X87447654Y-85340223D01*
X87466704Y-85375862D01*
X87478435Y-85414532D01*
X87483000Y-85460888D01*
X87483000Y-86112112D01*
X87478435Y-86158468D01*
X87466704Y-86197138D01*
X87447654Y-86232777D01*
X87422017Y-86264017D01*
X87390777Y-86289654D01*
X87355138Y-86308704D01*
X87316468Y-86320435D01*
X87270112Y-86325000D01*
X86193888Y-86325000D01*
X86147532Y-86320435D01*
X86108862Y-86308704D01*
X86073223Y-86289654D01*
X86041983Y-86264017D01*
X86016346Y-86232777D01*
X85997296Y-86197138D01*
X85985565Y-86158468D01*
X85981000Y-86112112D01*
X85981000Y-85460888D01*
X85985565Y-85414532D01*
X85997296Y-85375862D01*
X86016346Y-85340223D01*
X86041983Y-85308983D01*
X86073223Y-85283346D01*
X86108862Y-85264296D01*
X86147532Y-85252565D01*
X86193888Y-85248000D01*
X87270112Y-85248000D01*
X87316468Y-85252565D01*
X87316468Y-85252565D01*
G37*
G36*
X90001000Y-86291000D02*
G01*
X88699000Y-86291000D01*
X88699000Y-84789000D01*
X90001000Y-84789000D01*
X90001000Y-86291000D01*
X90001000Y-86291000D01*
G37*
G36*
X91701000Y-86291000D02*
G01*
X90399000Y-86291000D01*
X90399000Y-84789000D01*
X91701000Y-84789000D01*
X91701000Y-86291000D01*
X91701000Y-86291000D01*
G37*
G36*
X157698862Y-83563590D02*
G01*
X157784627Y-83572037D01*
X157954466Y-83623557D01*
X157954468Y-83623558D01*
X157961631Y-83627387D01*
X158110991Y-83707222D01*
X158122324Y-83716523D01*
X158248186Y-83819814D01*
X158311468Y-83896925D01*
X158360778Y-83957009D01*
X158444443Y-84113534D01*
X158495963Y-84283373D01*
X158513359Y-84460000D01*
X158495963Y-84636627D01*
X158444443Y-84806466D01*
X158360778Y-84962991D01*
X158344495Y-84982832D01*
X158248186Y-85100186D01*
X158155805Y-85176000D01*
X158110991Y-85212778D01*
X158110989Y-85212779D01*
X157987822Y-85278614D01*
X157954466Y-85296443D01*
X157784627Y-85347963D01*
X157718442Y-85354482D01*
X157652260Y-85361000D01*
X157563740Y-85361000D01*
X157497558Y-85354482D01*
X157431373Y-85347963D01*
X157261534Y-85296443D01*
X157228179Y-85278614D01*
X157105011Y-85212779D01*
X157105009Y-85212778D01*
X157060195Y-85176000D01*
X156967814Y-85100186D01*
X156871505Y-84982832D01*
X156855222Y-84962991D01*
X156771557Y-84806466D01*
X156720037Y-84636627D01*
X156702641Y-84460000D01*
X156720037Y-84283373D01*
X156771557Y-84113534D01*
X156855222Y-83957009D01*
X156904532Y-83896925D01*
X156967814Y-83819814D01*
X157093676Y-83716523D01*
X157105009Y-83707222D01*
X157254369Y-83627387D01*
X157261532Y-83623558D01*
X157261534Y-83623557D01*
X157431373Y-83572037D01*
X157517138Y-83563590D01*
X157563740Y-83559000D01*
X157652260Y-83559000D01*
X157698862Y-83563590D01*
X157698862Y-83563590D01*
G37*
G36*
X150698862Y-83563590D02*
G01*
X150784627Y-83572037D01*
X150954466Y-83623557D01*
X150954468Y-83623558D01*
X150961631Y-83627387D01*
X151110991Y-83707222D01*
X151122324Y-83716523D01*
X151248186Y-83819814D01*
X151311468Y-83896925D01*
X151360778Y-83957009D01*
X151444443Y-84113534D01*
X151495963Y-84283373D01*
X151513359Y-84460000D01*
X151495963Y-84636627D01*
X151444443Y-84806466D01*
X151360778Y-84962991D01*
X151344495Y-84982832D01*
X151248186Y-85100186D01*
X151155805Y-85176000D01*
X151110991Y-85212778D01*
X151110989Y-85212779D01*
X150987822Y-85278614D01*
X150954466Y-85296443D01*
X150784627Y-85347963D01*
X150718442Y-85354482D01*
X150652260Y-85361000D01*
X150563740Y-85361000D01*
X150497558Y-85354482D01*
X150431373Y-85347963D01*
X150261534Y-85296443D01*
X150228179Y-85278614D01*
X150105011Y-85212779D01*
X150105009Y-85212778D01*
X150060195Y-85176000D01*
X149967814Y-85100186D01*
X149871505Y-84982832D01*
X149855222Y-84962991D01*
X149771557Y-84806466D01*
X149720037Y-84636627D01*
X149702641Y-84460000D01*
X149720037Y-84283373D01*
X149771557Y-84113534D01*
X149855222Y-83957009D01*
X149904532Y-83896925D01*
X149967814Y-83819814D01*
X150093676Y-83716523D01*
X150105009Y-83707222D01*
X150254369Y-83627387D01*
X150261532Y-83623558D01*
X150261534Y-83623557D01*
X150431373Y-83572037D01*
X150517138Y-83563590D01*
X150563740Y-83559000D01*
X150652260Y-83559000D01*
X150698862Y-83563590D01*
X150698862Y-83563590D01*
G37*
G36*
X136249000Y-84603000D02*
G01*
X134447000Y-84603000D01*
X134447000Y-83501000D01*
X136249000Y-83501000D01*
X136249000Y-84603000D01*
X136249000Y-84603000D01*
G37*
G36*
X129949000Y-84603000D02*
G01*
X128147000Y-84603000D01*
X128147000Y-83501000D01*
X129949000Y-83501000D01*
X129949000Y-84603000D01*
X129949000Y-84603000D01*
G37*
G36*
X155422499Y-82455445D02*
G01*
X155459995Y-82466820D01*
X155494554Y-82485292D01*
X155524847Y-82510153D01*
X155549708Y-82540446D01*
X155568180Y-82575005D01*
X155579555Y-82612501D01*
X155584000Y-82657638D01*
X155584000Y-83396362D01*
X155579555Y-83441499D01*
X155568180Y-83478995D01*
X155549708Y-83513554D01*
X155524847Y-83543847D01*
X155494554Y-83568708D01*
X155459995Y-83587180D01*
X155422499Y-83598555D01*
X155377362Y-83603000D01*
X154738638Y-83603000D01*
X154693501Y-83598555D01*
X154656005Y-83587180D01*
X154621446Y-83568708D01*
X154591153Y-83543847D01*
X154566292Y-83513554D01*
X154547820Y-83478995D01*
X154536445Y-83441499D01*
X154532000Y-83396362D01*
X154532000Y-82657638D01*
X154536445Y-82612501D01*
X154547820Y-82575005D01*
X154566292Y-82540446D01*
X154591153Y-82510153D01*
X154621446Y-82485292D01*
X154656005Y-82466820D01*
X154693501Y-82455445D01*
X154738638Y-82451000D01*
X155377362Y-82451000D01*
X155422499Y-82455445D01*
X155422499Y-82455445D01*
G37*
G36*
X83642599Y-82138445D02*
G01*
X83680095Y-82149820D01*
X83714654Y-82168292D01*
X83744947Y-82193153D01*
X83769808Y-82223446D01*
X83788280Y-82258005D01*
X83799655Y-82295501D01*
X83804100Y-82340638D01*
X83804100Y-82979362D01*
X83799655Y-83024499D01*
X83788280Y-83061995D01*
X83769808Y-83096554D01*
X83744947Y-83126847D01*
X83714654Y-83151708D01*
X83680095Y-83170180D01*
X83642599Y-83181555D01*
X83597462Y-83186000D01*
X82858738Y-83186000D01*
X82813601Y-83181555D01*
X82776105Y-83170180D01*
X82741546Y-83151708D01*
X82711253Y-83126847D01*
X82686392Y-83096554D01*
X82667920Y-83061995D01*
X82656545Y-83024499D01*
X82652100Y-82979362D01*
X82652100Y-82340638D01*
X82656545Y-82295501D01*
X82667920Y-82258005D01*
X82686392Y-82223446D01*
X82711253Y-82193153D01*
X82741546Y-82168292D01*
X82776105Y-82149820D01*
X82813601Y-82138445D01*
X82858738Y-82134000D01*
X83597462Y-82134000D01*
X83642599Y-82138445D01*
X83642599Y-82138445D01*
G37*
G36*
X85392599Y-82138445D02*
G01*
X85430095Y-82149820D01*
X85464654Y-82168292D01*
X85494947Y-82193153D01*
X85519808Y-82223446D01*
X85538280Y-82258005D01*
X85549655Y-82295501D01*
X85554100Y-82340638D01*
X85554100Y-82979362D01*
X85549655Y-83024499D01*
X85538280Y-83061995D01*
X85519808Y-83096554D01*
X85494947Y-83126847D01*
X85464654Y-83151708D01*
X85430095Y-83170180D01*
X85392599Y-83181555D01*
X85347462Y-83186000D01*
X84608738Y-83186000D01*
X84563601Y-83181555D01*
X84526105Y-83170180D01*
X84491546Y-83151708D01*
X84461253Y-83126847D01*
X84436392Y-83096554D01*
X84417920Y-83061995D01*
X84406545Y-83024499D01*
X84402100Y-82979362D01*
X84402100Y-82340638D01*
X84406545Y-82295501D01*
X84417920Y-82258005D01*
X84436392Y-82223446D01*
X84461253Y-82193153D01*
X84491546Y-82168292D01*
X84526105Y-82149820D01*
X84563601Y-82138445D01*
X84608738Y-82134000D01*
X85347462Y-82134000D01*
X85392599Y-82138445D01*
X85392599Y-82138445D01*
G37*
G36*
X155422499Y-80705445D02*
G01*
X155459995Y-80716820D01*
X155494554Y-80735292D01*
X155524847Y-80760153D01*
X155549708Y-80790446D01*
X155568180Y-80825005D01*
X155579555Y-80862501D01*
X155584000Y-80907638D01*
X155584000Y-81646362D01*
X155579555Y-81691499D01*
X155568180Y-81728995D01*
X155549708Y-81763554D01*
X155524847Y-81793847D01*
X155494554Y-81818708D01*
X155459995Y-81837180D01*
X155422499Y-81848555D01*
X155377362Y-81853000D01*
X154738638Y-81853000D01*
X154693501Y-81848555D01*
X154656005Y-81837180D01*
X154621446Y-81818708D01*
X154591153Y-81793847D01*
X154566292Y-81763554D01*
X154547820Y-81728995D01*
X154536445Y-81691499D01*
X154532000Y-81646362D01*
X154532000Y-80907638D01*
X154536445Y-80862501D01*
X154547820Y-80825005D01*
X154566292Y-80790446D01*
X154591153Y-80760153D01*
X154621446Y-80735292D01*
X154656005Y-80716820D01*
X154693501Y-80705445D01*
X154738638Y-80701000D01*
X155377362Y-80701000D01*
X155422499Y-80705445D01*
X155422499Y-80705445D01*
G37*
G36*
X83655299Y-80500145D02*
G01*
X83692795Y-80511520D01*
X83727354Y-80529992D01*
X83757647Y-80554853D01*
X83782508Y-80585146D01*
X83800980Y-80619705D01*
X83812355Y-80657201D01*
X83816800Y-80702338D01*
X83816800Y-81341062D01*
X83812355Y-81386199D01*
X83800980Y-81423695D01*
X83782508Y-81458254D01*
X83757647Y-81488547D01*
X83727354Y-81513408D01*
X83692795Y-81531880D01*
X83655299Y-81543255D01*
X83610162Y-81547700D01*
X82871438Y-81547700D01*
X82826301Y-81543255D01*
X82788805Y-81531880D01*
X82754246Y-81513408D01*
X82723953Y-81488547D01*
X82699092Y-81458254D01*
X82680620Y-81423695D01*
X82669245Y-81386199D01*
X82664800Y-81341062D01*
X82664800Y-80702338D01*
X82669245Y-80657201D01*
X82680620Y-80619705D01*
X82699092Y-80585146D01*
X82723953Y-80554853D01*
X82754246Y-80529992D01*
X82788805Y-80511520D01*
X82826301Y-80500145D01*
X82871438Y-80495700D01*
X83610162Y-80495700D01*
X83655299Y-80500145D01*
X83655299Y-80500145D01*
G37*
G36*
X85405299Y-80500145D02*
G01*
X85442795Y-80511520D01*
X85477354Y-80529992D01*
X85507647Y-80554853D01*
X85532508Y-80585146D01*
X85550980Y-80619705D01*
X85562355Y-80657201D01*
X85566800Y-80702338D01*
X85566800Y-81341062D01*
X85562355Y-81386199D01*
X85550980Y-81423695D01*
X85532508Y-81458254D01*
X85507647Y-81488547D01*
X85477354Y-81513408D01*
X85442795Y-81531880D01*
X85405299Y-81543255D01*
X85360162Y-81547700D01*
X84621438Y-81547700D01*
X84576301Y-81543255D01*
X84538805Y-81531880D01*
X84504246Y-81513408D01*
X84473953Y-81488547D01*
X84449092Y-81458254D01*
X84430620Y-81423695D01*
X84419245Y-81386199D01*
X84414800Y-81341062D01*
X84414800Y-80702338D01*
X84419245Y-80657201D01*
X84430620Y-80619705D01*
X84449092Y-80585146D01*
X84473953Y-80554853D01*
X84504246Y-80529992D01*
X84538805Y-80511520D01*
X84576301Y-80500145D01*
X84621438Y-80495700D01*
X85360162Y-80495700D01*
X85405299Y-80500145D01*
X85405299Y-80500145D01*
G37*
G36*
X112405499Y-79979445D02*
G01*
X112442995Y-79990820D01*
X112477554Y-80009292D01*
X112507847Y-80034153D01*
X112532708Y-80064446D01*
X112551180Y-80099005D01*
X112562555Y-80136501D01*
X112567000Y-80181638D01*
X112567000Y-80820362D01*
X112562555Y-80865499D01*
X112551180Y-80902995D01*
X112532708Y-80937554D01*
X112507847Y-80967847D01*
X112477554Y-80992708D01*
X112442995Y-81011180D01*
X112405499Y-81022555D01*
X112360362Y-81027000D01*
X111621638Y-81027000D01*
X111576501Y-81022555D01*
X111539005Y-81011180D01*
X111504446Y-80992708D01*
X111474153Y-80967847D01*
X111449292Y-80937554D01*
X111430820Y-80902995D01*
X111419445Y-80865499D01*
X111415000Y-80820362D01*
X111415000Y-80181638D01*
X111419445Y-80136501D01*
X111430820Y-80099005D01*
X111449292Y-80064446D01*
X111474153Y-80034153D01*
X111504446Y-80009292D01*
X111539005Y-79990820D01*
X111576501Y-79979445D01*
X111621638Y-79975000D01*
X112360362Y-79975000D01*
X112405499Y-79979445D01*
X112405499Y-79979445D01*
G37*
G36*
X110655499Y-79979445D02*
G01*
X110692995Y-79990820D01*
X110727554Y-80009292D01*
X110757847Y-80034153D01*
X110782708Y-80064446D01*
X110801180Y-80099005D01*
X110812555Y-80136501D01*
X110817000Y-80181638D01*
X110817000Y-80820362D01*
X110812555Y-80865499D01*
X110801180Y-80902995D01*
X110782708Y-80937554D01*
X110757847Y-80967847D01*
X110727554Y-80992708D01*
X110692995Y-81011180D01*
X110655499Y-81022555D01*
X110610362Y-81027000D01*
X109871638Y-81027000D01*
X109826501Y-81022555D01*
X109789005Y-81011180D01*
X109754446Y-80992708D01*
X109724153Y-80967847D01*
X109699292Y-80937554D01*
X109680820Y-80902995D01*
X109669445Y-80865499D01*
X109665000Y-80820362D01*
X109665000Y-80181638D01*
X109669445Y-80136501D01*
X109680820Y-80099005D01*
X109699292Y-80064446D01*
X109724153Y-80034153D01*
X109754446Y-80009292D01*
X109789005Y-79990820D01*
X109826501Y-79979445D01*
X109871638Y-79975000D01*
X110610362Y-79975000D01*
X110655499Y-79979445D01*
X110655499Y-79979445D01*
G37*
G36*
X129949000Y-80803000D02*
G01*
X128147000Y-80803000D01*
X128147000Y-79701000D01*
X129949000Y-79701000D01*
X129949000Y-80803000D01*
X129949000Y-80803000D01*
G37*
G36*
X136249000Y-80803000D02*
G01*
X134447000Y-80803000D01*
X134447000Y-79701000D01*
X136249000Y-79701000D01*
X136249000Y-80803000D01*
X136249000Y-80803000D01*
G37*
G36*
X74234213Y-78784249D02*
G01*
X74328652Y-78812897D01*
X74415687Y-78859418D01*
X74491975Y-78922025D01*
X74554582Y-78998313D01*
X74601103Y-79085348D01*
X74629751Y-79179787D01*
X74639424Y-79278000D01*
X74629751Y-79376213D01*
X74601103Y-79470652D01*
X74554582Y-79557687D01*
X74491975Y-79633975D01*
X74415687Y-79696582D01*
X74328652Y-79743103D01*
X74234213Y-79771751D01*
X74160612Y-79779000D01*
X73311388Y-79779000D01*
X73237787Y-79771751D01*
X73143348Y-79743103D01*
X73056313Y-79696582D01*
X72980025Y-79633975D01*
X72917418Y-79557687D01*
X72870897Y-79470652D01*
X72842249Y-79376213D01*
X72832576Y-79278000D01*
X72842249Y-79179787D01*
X72870897Y-79085348D01*
X72917418Y-78998313D01*
X72980025Y-78922025D01*
X73056313Y-78859418D01*
X73143348Y-78812897D01*
X73237787Y-78784249D01*
X73311388Y-78777000D01*
X74160612Y-78777000D01*
X74234213Y-78784249D01*
X74234213Y-78784249D01*
G37*
G36*
X77964213Y-78784249D02*
G01*
X78058652Y-78812897D01*
X78145687Y-78859418D01*
X78221975Y-78922025D01*
X78284582Y-78998313D01*
X78331103Y-79085348D01*
X78359751Y-79179787D01*
X78369424Y-79278000D01*
X78359751Y-79376213D01*
X78331103Y-79470652D01*
X78284582Y-79557687D01*
X78221975Y-79633975D01*
X78145687Y-79696582D01*
X78058652Y-79743103D01*
X77964213Y-79771751D01*
X77890612Y-79779000D01*
X76341388Y-79779000D01*
X76267787Y-79771751D01*
X76173348Y-79743103D01*
X76086313Y-79696582D01*
X76010025Y-79633975D01*
X75947418Y-79557687D01*
X75900897Y-79470652D01*
X75872249Y-79376213D01*
X75862576Y-79278000D01*
X75872249Y-79179787D01*
X75900897Y-79085348D01*
X75947418Y-78998313D01*
X76010025Y-78922025D01*
X76086313Y-78859418D01*
X76173348Y-78812897D01*
X76267787Y-78784249D01*
X76341388Y-78777000D01*
X77890612Y-78777000D01*
X77964213Y-78784249D01*
X77964213Y-78784249D01*
G37*
G36*
X77635499Y-76804445D02*
G01*
X77672995Y-76815820D01*
X77707554Y-76834292D01*
X77737847Y-76859153D01*
X77762708Y-76889446D01*
X77781180Y-76924005D01*
X77792555Y-76961501D01*
X77797000Y-77006638D01*
X77797000Y-77645362D01*
X77792555Y-77690499D01*
X77781180Y-77727995D01*
X77762708Y-77762554D01*
X77737847Y-77792847D01*
X77707554Y-77817708D01*
X77672995Y-77836180D01*
X77635499Y-77847555D01*
X77590362Y-77852000D01*
X76851638Y-77852000D01*
X76806501Y-77847555D01*
X76769005Y-77836180D01*
X76734446Y-77817708D01*
X76704153Y-77792847D01*
X76679292Y-77762554D01*
X76660820Y-77727995D01*
X76649445Y-77690499D01*
X76645000Y-77645362D01*
X76645000Y-77006638D01*
X76649445Y-76961501D01*
X76660820Y-76924005D01*
X76679292Y-76889446D01*
X76704153Y-76859153D01*
X76734446Y-76834292D01*
X76769005Y-76815820D01*
X76806501Y-76804445D01*
X76851638Y-76800000D01*
X77590362Y-76800000D01*
X77635499Y-76804445D01*
X77635499Y-76804445D01*
G37*
G36*
X79385499Y-76804445D02*
G01*
X79422995Y-76815820D01*
X79457554Y-76834292D01*
X79487847Y-76859153D01*
X79512708Y-76889446D01*
X79531180Y-76924005D01*
X79542555Y-76961501D01*
X79547000Y-77006638D01*
X79547000Y-77645362D01*
X79542555Y-77690499D01*
X79531180Y-77727995D01*
X79512708Y-77762554D01*
X79487847Y-77792847D01*
X79457554Y-77817708D01*
X79422995Y-77836180D01*
X79385499Y-77847555D01*
X79340362Y-77852000D01*
X78601638Y-77852000D01*
X78556501Y-77847555D01*
X78519005Y-77836180D01*
X78484446Y-77817708D01*
X78454153Y-77792847D01*
X78429292Y-77762554D01*
X78410820Y-77727995D01*
X78399445Y-77690499D01*
X78395000Y-77645362D01*
X78395000Y-77006638D01*
X78399445Y-76961501D01*
X78410820Y-76924005D01*
X78429292Y-76889446D01*
X78454153Y-76859153D01*
X78484446Y-76834292D01*
X78519005Y-76815820D01*
X78556501Y-76804445D01*
X78601638Y-76800000D01*
X79340362Y-76800000D01*
X79385499Y-76804445D01*
X79385499Y-76804445D01*
G37*
M02*
