G04 #@! TF.GenerationSoftware,KiCad,Pcbnew,(5.1.2)-2*
G04 #@! TF.CreationDate,2020-11-02T14:54:11+01:00*
G04 #@! TF.ProjectId,MacroBoard,4d616372-6f42-46f6-9172-642e6b696361,rev?*
G04 #@! TF.SameCoordinates,Original*
G04 #@! TF.FileFunction,Paste,Top*
G04 #@! TF.FilePolarity,Positive*
%FSLAX46Y46*%
G04 Gerber Fmt 4.6, Leading zero omitted, Abs format (unit mm)*
G04 Created by KiCad (PCBNEW (5.1.2)-2) date 2020-11-02 14:54:11*
%MOMM*%
%LPD*%
G04 APERTURE LIST*
%ADD10C,0.100000*%
%ADD11C,0.950000*%
%ADD12R,0.650000X1.060000*%
%ADD13C,0.975000*%
%ADD14R,1.700000X1.000000*%
%ADD15R,1.200000X1.400000*%
%ADD16C,1.050000*%
%ADD17C,0.250000*%
G04 APERTURE END LIST*
D10*
G36*
X74546779Y-111459144D02*
G01*
X74569834Y-111462563D01*
X74592443Y-111468227D01*
X74614387Y-111476079D01*
X74635457Y-111486044D01*
X74655448Y-111498026D01*
X74674168Y-111511910D01*
X74691438Y-111527562D01*
X74707090Y-111544832D01*
X74720974Y-111563552D01*
X74732956Y-111583543D01*
X74742921Y-111604613D01*
X74750773Y-111626557D01*
X74756437Y-111649166D01*
X74759856Y-111672221D01*
X74761000Y-111695500D01*
X74761000Y-112270500D01*
X74759856Y-112293779D01*
X74756437Y-112316834D01*
X74750773Y-112339443D01*
X74742921Y-112361387D01*
X74732956Y-112382457D01*
X74720974Y-112402448D01*
X74707090Y-112421168D01*
X74691438Y-112438438D01*
X74674168Y-112454090D01*
X74655448Y-112467974D01*
X74635457Y-112479956D01*
X74614387Y-112489921D01*
X74592443Y-112497773D01*
X74569834Y-112503437D01*
X74546779Y-112506856D01*
X74523500Y-112508000D01*
X74048500Y-112508000D01*
X74025221Y-112506856D01*
X74002166Y-112503437D01*
X73979557Y-112497773D01*
X73957613Y-112489921D01*
X73936543Y-112479956D01*
X73916552Y-112467974D01*
X73897832Y-112454090D01*
X73880562Y-112438438D01*
X73864910Y-112421168D01*
X73851026Y-112402448D01*
X73839044Y-112382457D01*
X73829079Y-112361387D01*
X73821227Y-112339443D01*
X73815563Y-112316834D01*
X73812144Y-112293779D01*
X73811000Y-112270500D01*
X73811000Y-111695500D01*
X73812144Y-111672221D01*
X73815563Y-111649166D01*
X73821227Y-111626557D01*
X73829079Y-111604613D01*
X73839044Y-111583543D01*
X73851026Y-111563552D01*
X73864910Y-111544832D01*
X73880562Y-111527562D01*
X73897832Y-111511910D01*
X73916552Y-111498026D01*
X73936543Y-111486044D01*
X73957613Y-111476079D01*
X73979557Y-111468227D01*
X74002166Y-111462563D01*
X74025221Y-111459144D01*
X74048500Y-111458000D01*
X74523500Y-111458000D01*
X74546779Y-111459144D01*
X74546779Y-111459144D01*
G37*
D11*
X74286000Y-111983000D03*
D10*
G36*
X74546779Y-109709144D02*
G01*
X74569834Y-109712563D01*
X74592443Y-109718227D01*
X74614387Y-109726079D01*
X74635457Y-109736044D01*
X74655448Y-109748026D01*
X74674168Y-109761910D01*
X74691438Y-109777562D01*
X74707090Y-109794832D01*
X74720974Y-109813552D01*
X74732956Y-109833543D01*
X74742921Y-109854613D01*
X74750773Y-109876557D01*
X74756437Y-109899166D01*
X74759856Y-109922221D01*
X74761000Y-109945500D01*
X74761000Y-110520500D01*
X74759856Y-110543779D01*
X74756437Y-110566834D01*
X74750773Y-110589443D01*
X74742921Y-110611387D01*
X74732956Y-110632457D01*
X74720974Y-110652448D01*
X74707090Y-110671168D01*
X74691438Y-110688438D01*
X74674168Y-110704090D01*
X74655448Y-110717974D01*
X74635457Y-110729956D01*
X74614387Y-110739921D01*
X74592443Y-110747773D01*
X74569834Y-110753437D01*
X74546779Y-110756856D01*
X74523500Y-110758000D01*
X74048500Y-110758000D01*
X74025221Y-110756856D01*
X74002166Y-110753437D01*
X73979557Y-110747773D01*
X73957613Y-110739921D01*
X73936543Y-110729956D01*
X73916552Y-110717974D01*
X73897832Y-110704090D01*
X73880562Y-110688438D01*
X73864910Y-110671168D01*
X73851026Y-110652448D01*
X73839044Y-110632457D01*
X73829079Y-110611387D01*
X73821227Y-110589443D01*
X73815563Y-110566834D01*
X73812144Y-110543779D01*
X73811000Y-110520500D01*
X73811000Y-109945500D01*
X73812144Y-109922221D01*
X73815563Y-109899166D01*
X73821227Y-109876557D01*
X73829079Y-109854613D01*
X73839044Y-109833543D01*
X73851026Y-109813552D01*
X73864910Y-109794832D01*
X73880562Y-109777562D01*
X73897832Y-109761910D01*
X73916552Y-109748026D01*
X73936543Y-109736044D01*
X73957613Y-109726079D01*
X73979557Y-109718227D01*
X74002166Y-109712563D01*
X74025221Y-109709144D01*
X74048500Y-109708000D01*
X74523500Y-109708000D01*
X74546779Y-109709144D01*
X74546779Y-109709144D01*
G37*
D11*
X74286000Y-110233000D03*
D12*
X141281000Y-89942000D03*
X143181000Y-89942000D03*
X143181000Y-92142000D03*
X142231000Y-92142000D03*
X141281000Y-92142000D03*
D10*
G36*
X155318779Y-80753144D02*
G01*
X155341834Y-80756563D01*
X155364443Y-80762227D01*
X155386387Y-80770079D01*
X155407457Y-80780044D01*
X155427448Y-80792026D01*
X155446168Y-80805910D01*
X155463438Y-80821562D01*
X155479090Y-80838832D01*
X155492974Y-80857552D01*
X155504956Y-80877543D01*
X155514921Y-80898613D01*
X155522773Y-80920557D01*
X155528437Y-80943166D01*
X155531856Y-80966221D01*
X155533000Y-80989500D01*
X155533000Y-81564500D01*
X155531856Y-81587779D01*
X155528437Y-81610834D01*
X155522773Y-81633443D01*
X155514921Y-81655387D01*
X155504956Y-81676457D01*
X155492974Y-81696448D01*
X155479090Y-81715168D01*
X155463438Y-81732438D01*
X155446168Y-81748090D01*
X155427448Y-81761974D01*
X155407457Y-81773956D01*
X155386387Y-81783921D01*
X155364443Y-81791773D01*
X155341834Y-81797437D01*
X155318779Y-81800856D01*
X155295500Y-81802000D01*
X154820500Y-81802000D01*
X154797221Y-81800856D01*
X154774166Y-81797437D01*
X154751557Y-81791773D01*
X154729613Y-81783921D01*
X154708543Y-81773956D01*
X154688552Y-81761974D01*
X154669832Y-81748090D01*
X154652562Y-81732438D01*
X154636910Y-81715168D01*
X154623026Y-81696448D01*
X154611044Y-81676457D01*
X154601079Y-81655387D01*
X154593227Y-81633443D01*
X154587563Y-81610834D01*
X154584144Y-81587779D01*
X154583000Y-81564500D01*
X154583000Y-80989500D01*
X154584144Y-80966221D01*
X154587563Y-80943166D01*
X154593227Y-80920557D01*
X154601079Y-80898613D01*
X154611044Y-80877543D01*
X154623026Y-80857552D01*
X154636910Y-80838832D01*
X154652562Y-80821562D01*
X154669832Y-80805910D01*
X154688552Y-80792026D01*
X154708543Y-80780044D01*
X154729613Y-80770079D01*
X154751557Y-80762227D01*
X154774166Y-80756563D01*
X154797221Y-80753144D01*
X154820500Y-80752000D01*
X155295500Y-80752000D01*
X155318779Y-80753144D01*
X155318779Y-80753144D01*
G37*
D11*
X155058000Y-81277000D03*
D10*
G36*
X155318779Y-82503144D02*
G01*
X155341834Y-82506563D01*
X155364443Y-82512227D01*
X155386387Y-82520079D01*
X155407457Y-82530044D01*
X155427448Y-82542026D01*
X155446168Y-82555910D01*
X155463438Y-82571562D01*
X155479090Y-82588832D01*
X155492974Y-82607552D01*
X155504956Y-82627543D01*
X155514921Y-82648613D01*
X155522773Y-82670557D01*
X155528437Y-82693166D01*
X155531856Y-82716221D01*
X155533000Y-82739500D01*
X155533000Y-83314500D01*
X155531856Y-83337779D01*
X155528437Y-83360834D01*
X155522773Y-83383443D01*
X155514921Y-83405387D01*
X155504956Y-83426457D01*
X155492974Y-83446448D01*
X155479090Y-83465168D01*
X155463438Y-83482438D01*
X155446168Y-83498090D01*
X155427448Y-83511974D01*
X155407457Y-83523956D01*
X155386387Y-83533921D01*
X155364443Y-83541773D01*
X155341834Y-83547437D01*
X155318779Y-83550856D01*
X155295500Y-83552000D01*
X154820500Y-83552000D01*
X154797221Y-83550856D01*
X154774166Y-83547437D01*
X154751557Y-83541773D01*
X154729613Y-83533921D01*
X154708543Y-83523956D01*
X154688552Y-83511974D01*
X154669832Y-83498090D01*
X154652562Y-83482438D01*
X154636910Y-83465168D01*
X154623026Y-83446448D01*
X154611044Y-83426457D01*
X154601079Y-83405387D01*
X154593227Y-83383443D01*
X154587563Y-83360834D01*
X154584144Y-83337779D01*
X154583000Y-83314500D01*
X154583000Y-82739500D01*
X154584144Y-82716221D01*
X154587563Y-82693166D01*
X154593227Y-82670557D01*
X154601079Y-82648613D01*
X154611044Y-82627543D01*
X154623026Y-82607552D01*
X154636910Y-82588832D01*
X154652562Y-82571562D01*
X154669832Y-82555910D01*
X154688552Y-82542026D01*
X154708543Y-82530044D01*
X154729613Y-82520079D01*
X154751557Y-82512227D01*
X154774166Y-82506563D01*
X154797221Y-82503144D01*
X154820500Y-82502000D01*
X155295500Y-82502000D01*
X155318779Y-82503144D01*
X155318779Y-82503144D01*
G37*
D11*
X155058000Y-83027000D03*
D10*
G36*
X155318779Y-89488144D02*
G01*
X155341834Y-89491563D01*
X155364443Y-89497227D01*
X155386387Y-89505079D01*
X155407457Y-89515044D01*
X155427448Y-89527026D01*
X155446168Y-89540910D01*
X155463438Y-89556562D01*
X155479090Y-89573832D01*
X155492974Y-89592552D01*
X155504956Y-89612543D01*
X155514921Y-89633613D01*
X155522773Y-89655557D01*
X155528437Y-89678166D01*
X155531856Y-89701221D01*
X155533000Y-89724500D01*
X155533000Y-90299500D01*
X155531856Y-90322779D01*
X155528437Y-90345834D01*
X155522773Y-90368443D01*
X155514921Y-90390387D01*
X155504956Y-90411457D01*
X155492974Y-90431448D01*
X155479090Y-90450168D01*
X155463438Y-90467438D01*
X155446168Y-90483090D01*
X155427448Y-90496974D01*
X155407457Y-90508956D01*
X155386387Y-90518921D01*
X155364443Y-90526773D01*
X155341834Y-90532437D01*
X155318779Y-90535856D01*
X155295500Y-90537000D01*
X154820500Y-90537000D01*
X154797221Y-90535856D01*
X154774166Y-90532437D01*
X154751557Y-90526773D01*
X154729613Y-90518921D01*
X154708543Y-90508956D01*
X154688552Y-90496974D01*
X154669832Y-90483090D01*
X154652562Y-90467438D01*
X154636910Y-90450168D01*
X154623026Y-90431448D01*
X154611044Y-90411457D01*
X154601079Y-90390387D01*
X154593227Y-90368443D01*
X154587563Y-90345834D01*
X154584144Y-90322779D01*
X154583000Y-90299500D01*
X154583000Y-89724500D01*
X154584144Y-89701221D01*
X154587563Y-89678166D01*
X154593227Y-89655557D01*
X154601079Y-89633613D01*
X154611044Y-89612543D01*
X154623026Y-89592552D01*
X154636910Y-89573832D01*
X154652562Y-89556562D01*
X154669832Y-89540910D01*
X154688552Y-89527026D01*
X154708543Y-89515044D01*
X154729613Y-89505079D01*
X154751557Y-89497227D01*
X154774166Y-89491563D01*
X154797221Y-89488144D01*
X154820500Y-89487000D01*
X155295500Y-89487000D01*
X155318779Y-89488144D01*
X155318779Y-89488144D01*
G37*
D11*
X155058000Y-90012000D03*
D10*
G36*
X155318779Y-87738144D02*
G01*
X155341834Y-87741563D01*
X155364443Y-87747227D01*
X155386387Y-87755079D01*
X155407457Y-87765044D01*
X155427448Y-87777026D01*
X155446168Y-87790910D01*
X155463438Y-87806562D01*
X155479090Y-87823832D01*
X155492974Y-87842552D01*
X155504956Y-87862543D01*
X155514921Y-87883613D01*
X155522773Y-87905557D01*
X155528437Y-87928166D01*
X155531856Y-87951221D01*
X155533000Y-87974500D01*
X155533000Y-88549500D01*
X155531856Y-88572779D01*
X155528437Y-88595834D01*
X155522773Y-88618443D01*
X155514921Y-88640387D01*
X155504956Y-88661457D01*
X155492974Y-88681448D01*
X155479090Y-88700168D01*
X155463438Y-88717438D01*
X155446168Y-88733090D01*
X155427448Y-88746974D01*
X155407457Y-88758956D01*
X155386387Y-88768921D01*
X155364443Y-88776773D01*
X155341834Y-88782437D01*
X155318779Y-88785856D01*
X155295500Y-88787000D01*
X154820500Y-88787000D01*
X154797221Y-88785856D01*
X154774166Y-88782437D01*
X154751557Y-88776773D01*
X154729613Y-88768921D01*
X154708543Y-88758956D01*
X154688552Y-88746974D01*
X154669832Y-88733090D01*
X154652562Y-88717438D01*
X154636910Y-88700168D01*
X154623026Y-88681448D01*
X154611044Y-88661457D01*
X154601079Y-88640387D01*
X154593227Y-88618443D01*
X154587563Y-88595834D01*
X154584144Y-88572779D01*
X154583000Y-88549500D01*
X154583000Y-87974500D01*
X154584144Y-87951221D01*
X154587563Y-87928166D01*
X154593227Y-87905557D01*
X154601079Y-87883613D01*
X154611044Y-87862543D01*
X154623026Y-87842552D01*
X154636910Y-87823832D01*
X154652562Y-87806562D01*
X154669832Y-87790910D01*
X154688552Y-87777026D01*
X154708543Y-87765044D01*
X154729613Y-87755079D01*
X154751557Y-87747227D01*
X154774166Y-87741563D01*
X154797221Y-87738144D01*
X154820500Y-87737000D01*
X155295500Y-87737000D01*
X155318779Y-87738144D01*
X155318779Y-87738144D01*
G37*
D11*
X155058000Y-88262000D03*
D10*
G36*
X139917142Y-87459174D02*
G01*
X139940803Y-87462684D01*
X139964007Y-87468496D01*
X139986529Y-87476554D01*
X140008153Y-87486782D01*
X140028670Y-87499079D01*
X140047883Y-87513329D01*
X140065607Y-87529393D01*
X140081671Y-87547117D01*
X140095921Y-87566330D01*
X140108218Y-87586847D01*
X140118446Y-87608471D01*
X140126504Y-87630993D01*
X140132316Y-87654197D01*
X140135826Y-87677858D01*
X140137000Y-87701750D01*
X140137000Y-88189250D01*
X140135826Y-88213142D01*
X140132316Y-88236803D01*
X140126504Y-88260007D01*
X140118446Y-88282529D01*
X140108218Y-88304153D01*
X140095921Y-88324670D01*
X140081671Y-88343883D01*
X140065607Y-88361607D01*
X140047883Y-88377671D01*
X140028670Y-88391921D01*
X140008153Y-88404218D01*
X139986529Y-88414446D01*
X139964007Y-88422504D01*
X139940803Y-88428316D01*
X139917142Y-88431826D01*
X139893250Y-88433000D01*
X138980750Y-88433000D01*
X138956858Y-88431826D01*
X138933197Y-88428316D01*
X138909993Y-88422504D01*
X138887471Y-88414446D01*
X138865847Y-88404218D01*
X138845330Y-88391921D01*
X138826117Y-88377671D01*
X138808393Y-88361607D01*
X138792329Y-88343883D01*
X138778079Y-88324670D01*
X138765782Y-88304153D01*
X138755554Y-88282529D01*
X138747496Y-88260007D01*
X138741684Y-88236803D01*
X138738174Y-88213142D01*
X138737000Y-88189250D01*
X138737000Y-87701750D01*
X138738174Y-87677858D01*
X138741684Y-87654197D01*
X138747496Y-87630993D01*
X138755554Y-87608471D01*
X138765782Y-87586847D01*
X138778079Y-87566330D01*
X138792329Y-87547117D01*
X138808393Y-87529393D01*
X138826117Y-87513329D01*
X138845330Y-87499079D01*
X138865847Y-87486782D01*
X138887471Y-87476554D01*
X138909993Y-87468496D01*
X138933197Y-87462684D01*
X138956858Y-87459174D01*
X138980750Y-87458000D01*
X139893250Y-87458000D01*
X139917142Y-87459174D01*
X139917142Y-87459174D01*
G37*
D13*
X139437000Y-87945500D03*
D10*
G36*
X139917142Y-89334174D02*
G01*
X139940803Y-89337684D01*
X139964007Y-89343496D01*
X139986529Y-89351554D01*
X140008153Y-89361782D01*
X140028670Y-89374079D01*
X140047883Y-89388329D01*
X140065607Y-89404393D01*
X140081671Y-89422117D01*
X140095921Y-89441330D01*
X140108218Y-89461847D01*
X140118446Y-89483471D01*
X140126504Y-89505993D01*
X140132316Y-89529197D01*
X140135826Y-89552858D01*
X140137000Y-89576750D01*
X140137000Y-90064250D01*
X140135826Y-90088142D01*
X140132316Y-90111803D01*
X140126504Y-90135007D01*
X140118446Y-90157529D01*
X140108218Y-90179153D01*
X140095921Y-90199670D01*
X140081671Y-90218883D01*
X140065607Y-90236607D01*
X140047883Y-90252671D01*
X140028670Y-90266921D01*
X140008153Y-90279218D01*
X139986529Y-90289446D01*
X139964007Y-90297504D01*
X139940803Y-90303316D01*
X139917142Y-90306826D01*
X139893250Y-90308000D01*
X138980750Y-90308000D01*
X138956858Y-90306826D01*
X138933197Y-90303316D01*
X138909993Y-90297504D01*
X138887471Y-90289446D01*
X138865847Y-90279218D01*
X138845330Y-90266921D01*
X138826117Y-90252671D01*
X138808393Y-90236607D01*
X138792329Y-90218883D01*
X138778079Y-90199670D01*
X138765782Y-90179153D01*
X138755554Y-90157529D01*
X138747496Y-90135007D01*
X138741684Y-90111803D01*
X138738174Y-90088142D01*
X138737000Y-90064250D01*
X138737000Y-89576750D01*
X138738174Y-89552858D01*
X138741684Y-89529197D01*
X138747496Y-89505993D01*
X138755554Y-89483471D01*
X138765782Y-89461847D01*
X138778079Y-89441330D01*
X138792329Y-89422117D01*
X138808393Y-89404393D01*
X138826117Y-89388329D01*
X138845330Y-89374079D01*
X138865847Y-89361782D01*
X138887471Y-89351554D01*
X138909993Y-89343496D01*
X138933197Y-89337684D01*
X138956858Y-89334174D01*
X138980750Y-89333000D01*
X139893250Y-89333000D01*
X139917142Y-89334174D01*
X139917142Y-89334174D01*
G37*
D13*
X139437000Y-89820500D03*
D10*
G36*
X142547142Y-93518174D02*
G01*
X142570803Y-93521684D01*
X142594007Y-93527496D01*
X142616529Y-93535554D01*
X142638153Y-93545782D01*
X142658670Y-93558079D01*
X142677883Y-93572329D01*
X142695607Y-93588393D01*
X142711671Y-93606117D01*
X142725921Y-93625330D01*
X142738218Y-93645847D01*
X142748446Y-93667471D01*
X142756504Y-93689993D01*
X142762316Y-93713197D01*
X142765826Y-93736858D01*
X142767000Y-93760750D01*
X142767000Y-94673250D01*
X142765826Y-94697142D01*
X142762316Y-94720803D01*
X142756504Y-94744007D01*
X142748446Y-94766529D01*
X142738218Y-94788153D01*
X142725921Y-94808670D01*
X142711671Y-94827883D01*
X142695607Y-94845607D01*
X142677883Y-94861671D01*
X142658670Y-94875921D01*
X142638153Y-94888218D01*
X142616529Y-94898446D01*
X142594007Y-94906504D01*
X142570803Y-94912316D01*
X142547142Y-94915826D01*
X142523250Y-94917000D01*
X142035750Y-94917000D01*
X142011858Y-94915826D01*
X141988197Y-94912316D01*
X141964993Y-94906504D01*
X141942471Y-94898446D01*
X141920847Y-94888218D01*
X141900330Y-94875921D01*
X141881117Y-94861671D01*
X141863393Y-94845607D01*
X141847329Y-94827883D01*
X141833079Y-94808670D01*
X141820782Y-94788153D01*
X141810554Y-94766529D01*
X141802496Y-94744007D01*
X141796684Y-94720803D01*
X141793174Y-94697142D01*
X141792000Y-94673250D01*
X141792000Y-93760750D01*
X141793174Y-93736858D01*
X141796684Y-93713197D01*
X141802496Y-93689993D01*
X141810554Y-93667471D01*
X141820782Y-93645847D01*
X141833079Y-93625330D01*
X141847329Y-93606117D01*
X141863393Y-93588393D01*
X141881117Y-93572329D01*
X141900330Y-93558079D01*
X141920847Y-93545782D01*
X141942471Y-93535554D01*
X141964993Y-93527496D01*
X141988197Y-93521684D01*
X142011858Y-93518174D01*
X142035750Y-93517000D01*
X142523250Y-93517000D01*
X142547142Y-93518174D01*
X142547142Y-93518174D01*
G37*
D13*
X142279500Y-94217000D03*
D10*
G36*
X140672142Y-93518174D02*
G01*
X140695803Y-93521684D01*
X140719007Y-93527496D01*
X140741529Y-93535554D01*
X140763153Y-93545782D01*
X140783670Y-93558079D01*
X140802883Y-93572329D01*
X140820607Y-93588393D01*
X140836671Y-93606117D01*
X140850921Y-93625330D01*
X140863218Y-93645847D01*
X140873446Y-93667471D01*
X140881504Y-93689993D01*
X140887316Y-93713197D01*
X140890826Y-93736858D01*
X140892000Y-93760750D01*
X140892000Y-94673250D01*
X140890826Y-94697142D01*
X140887316Y-94720803D01*
X140881504Y-94744007D01*
X140873446Y-94766529D01*
X140863218Y-94788153D01*
X140850921Y-94808670D01*
X140836671Y-94827883D01*
X140820607Y-94845607D01*
X140802883Y-94861671D01*
X140783670Y-94875921D01*
X140763153Y-94888218D01*
X140741529Y-94898446D01*
X140719007Y-94906504D01*
X140695803Y-94912316D01*
X140672142Y-94915826D01*
X140648250Y-94917000D01*
X140160750Y-94917000D01*
X140136858Y-94915826D01*
X140113197Y-94912316D01*
X140089993Y-94906504D01*
X140067471Y-94898446D01*
X140045847Y-94888218D01*
X140025330Y-94875921D01*
X140006117Y-94861671D01*
X139988393Y-94845607D01*
X139972329Y-94827883D01*
X139958079Y-94808670D01*
X139945782Y-94788153D01*
X139935554Y-94766529D01*
X139927496Y-94744007D01*
X139921684Y-94720803D01*
X139918174Y-94697142D01*
X139917000Y-94673250D01*
X139917000Y-93760750D01*
X139918174Y-93736858D01*
X139921684Y-93713197D01*
X139927496Y-93689993D01*
X139935554Y-93667471D01*
X139945782Y-93645847D01*
X139958079Y-93625330D01*
X139972329Y-93606117D01*
X139988393Y-93588393D01*
X140006117Y-93572329D01*
X140025330Y-93558079D01*
X140045847Y-93545782D01*
X140067471Y-93535554D01*
X140089993Y-93527496D01*
X140113197Y-93521684D01*
X140136858Y-93518174D01*
X140160750Y-93517000D01*
X140648250Y-93517000D01*
X140672142Y-93518174D01*
X140672142Y-93518174D01*
G37*
D13*
X140404500Y-94217000D03*
D14*
X129048000Y-80252000D03*
X135348000Y-80252000D03*
X129048000Y-84052000D03*
X135348000Y-84052000D03*
D10*
G36*
X112301779Y-80027144D02*
G01*
X112324834Y-80030563D01*
X112347443Y-80036227D01*
X112369387Y-80044079D01*
X112390457Y-80054044D01*
X112410448Y-80066026D01*
X112429168Y-80079910D01*
X112446438Y-80095562D01*
X112462090Y-80112832D01*
X112475974Y-80131552D01*
X112487956Y-80151543D01*
X112497921Y-80172613D01*
X112505773Y-80194557D01*
X112511437Y-80217166D01*
X112514856Y-80240221D01*
X112516000Y-80263500D01*
X112516000Y-80738500D01*
X112514856Y-80761779D01*
X112511437Y-80784834D01*
X112505773Y-80807443D01*
X112497921Y-80829387D01*
X112487956Y-80850457D01*
X112475974Y-80870448D01*
X112462090Y-80889168D01*
X112446438Y-80906438D01*
X112429168Y-80922090D01*
X112410448Y-80935974D01*
X112390457Y-80947956D01*
X112369387Y-80957921D01*
X112347443Y-80965773D01*
X112324834Y-80971437D01*
X112301779Y-80974856D01*
X112278500Y-80976000D01*
X111703500Y-80976000D01*
X111680221Y-80974856D01*
X111657166Y-80971437D01*
X111634557Y-80965773D01*
X111612613Y-80957921D01*
X111591543Y-80947956D01*
X111571552Y-80935974D01*
X111552832Y-80922090D01*
X111535562Y-80906438D01*
X111519910Y-80889168D01*
X111506026Y-80870448D01*
X111494044Y-80850457D01*
X111484079Y-80829387D01*
X111476227Y-80807443D01*
X111470563Y-80784834D01*
X111467144Y-80761779D01*
X111466000Y-80738500D01*
X111466000Y-80263500D01*
X111467144Y-80240221D01*
X111470563Y-80217166D01*
X111476227Y-80194557D01*
X111484079Y-80172613D01*
X111494044Y-80151543D01*
X111506026Y-80131552D01*
X111519910Y-80112832D01*
X111535562Y-80095562D01*
X111552832Y-80079910D01*
X111571552Y-80066026D01*
X111591543Y-80054044D01*
X111612613Y-80044079D01*
X111634557Y-80036227D01*
X111657166Y-80030563D01*
X111680221Y-80027144D01*
X111703500Y-80026000D01*
X112278500Y-80026000D01*
X112301779Y-80027144D01*
X112301779Y-80027144D01*
G37*
D11*
X111991000Y-80501000D03*
D10*
G36*
X110551779Y-80027144D02*
G01*
X110574834Y-80030563D01*
X110597443Y-80036227D01*
X110619387Y-80044079D01*
X110640457Y-80054044D01*
X110660448Y-80066026D01*
X110679168Y-80079910D01*
X110696438Y-80095562D01*
X110712090Y-80112832D01*
X110725974Y-80131552D01*
X110737956Y-80151543D01*
X110747921Y-80172613D01*
X110755773Y-80194557D01*
X110761437Y-80217166D01*
X110764856Y-80240221D01*
X110766000Y-80263500D01*
X110766000Y-80738500D01*
X110764856Y-80761779D01*
X110761437Y-80784834D01*
X110755773Y-80807443D01*
X110747921Y-80829387D01*
X110737956Y-80850457D01*
X110725974Y-80870448D01*
X110712090Y-80889168D01*
X110696438Y-80906438D01*
X110679168Y-80922090D01*
X110660448Y-80935974D01*
X110640457Y-80947956D01*
X110619387Y-80957921D01*
X110597443Y-80965773D01*
X110574834Y-80971437D01*
X110551779Y-80974856D01*
X110528500Y-80976000D01*
X109953500Y-80976000D01*
X109930221Y-80974856D01*
X109907166Y-80971437D01*
X109884557Y-80965773D01*
X109862613Y-80957921D01*
X109841543Y-80947956D01*
X109821552Y-80935974D01*
X109802832Y-80922090D01*
X109785562Y-80906438D01*
X109769910Y-80889168D01*
X109756026Y-80870448D01*
X109744044Y-80850457D01*
X109734079Y-80829387D01*
X109726227Y-80807443D01*
X109720563Y-80784834D01*
X109717144Y-80761779D01*
X109716000Y-80738500D01*
X109716000Y-80263500D01*
X109717144Y-80240221D01*
X109720563Y-80217166D01*
X109726227Y-80194557D01*
X109734079Y-80172613D01*
X109744044Y-80151543D01*
X109756026Y-80131552D01*
X109769910Y-80112832D01*
X109785562Y-80095562D01*
X109802832Y-80079910D01*
X109821552Y-80066026D01*
X109841543Y-80054044D01*
X109862613Y-80044079D01*
X109884557Y-80036227D01*
X109907166Y-80030563D01*
X109930221Y-80027144D01*
X109953500Y-80026000D01*
X110528500Y-80026000D01*
X110551779Y-80027144D01*
X110551779Y-80027144D01*
G37*
D11*
X110241000Y-80501000D03*
D10*
G36*
X77531779Y-89552144D02*
G01*
X77554834Y-89555563D01*
X77577443Y-89561227D01*
X77599387Y-89569079D01*
X77620457Y-89579044D01*
X77640448Y-89591026D01*
X77659168Y-89604910D01*
X77676438Y-89620562D01*
X77692090Y-89637832D01*
X77705974Y-89656552D01*
X77717956Y-89676543D01*
X77727921Y-89697613D01*
X77735773Y-89719557D01*
X77741437Y-89742166D01*
X77744856Y-89765221D01*
X77746000Y-89788500D01*
X77746000Y-90263500D01*
X77744856Y-90286779D01*
X77741437Y-90309834D01*
X77735773Y-90332443D01*
X77727921Y-90354387D01*
X77717956Y-90375457D01*
X77705974Y-90395448D01*
X77692090Y-90414168D01*
X77676438Y-90431438D01*
X77659168Y-90447090D01*
X77640448Y-90460974D01*
X77620457Y-90472956D01*
X77599387Y-90482921D01*
X77577443Y-90490773D01*
X77554834Y-90496437D01*
X77531779Y-90499856D01*
X77508500Y-90501000D01*
X76933500Y-90501000D01*
X76910221Y-90499856D01*
X76887166Y-90496437D01*
X76864557Y-90490773D01*
X76842613Y-90482921D01*
X76821543Y-90472956D01*
X76801552Y-90460974D01*
X76782832Y-90447090D01*
X76765562Y-90431438D01*
X76749910Y-90414168D01*
X76736026Y-90395448D01*
X76724044Y-90375457D01*
X76714079Y-90354387D01*
X76706227Y-90332443D01*
X76700563Y-90309834D01*
X76697144Y-90286779D01*
X76696000Y-90263500D01*
X76696000Y-89788500D01*
X76697144Y-89765221D01*
X76700563Y-89742166D01*
X76706227Y-89719557D01*
X76714079Y-89697613D01*
X76724044Y-89676543D01*
X76736026Y-89656552D01*
X76749910Y-89637832D01*
X76765562Y-89620562D01*
X76782832Y-89604910D01*
X76801552Y-89591026D01*
X76821543Y-89579044D01*
X76842613Y-89569079D01*
X76864557Y-89561227D01*
X76887166Y-89555563D01*
X76910221Y-89552144D01*
X76933500Y-89551000D01*
X77508500Y-89551000D01*
X77531779Y-89552144D01*
X77531779Y-89552144D01*
G37*
D11*
X77221000Y-90026000D03*
D10*
G36*
X79281779Y-89552144D02*
G01*
X79304834Y-89555563D01*
X79327443Y-89561227D01*
X79349387Y-89569079D01*
X79370457Y-89579044D01*
X79390448Y-89591026D01*
X79409168Y-89604910D01*
X79426438Y-89620562D01*
X79442090Y-89637832D01*
X79455974Y-89656552D01*
X79467956Y-89676543D01*
X79477921Y-89697613D01*
X79485773Y-89719557D01*
X79491437Y-89742166D01*
X79494856Y-89765221D01*
X79496000Y-89788500D01*
X79496000Y-90263500D01*
X79494856Y-90286779D01*
X79491437Y-90309834D01*
X79485773Y-90332443D01*
X79477921Y-90354387D01*
X79467956Y-90375457D01*
X79455974Y-90395448D01*
X79442090Y-90414168D01*
X79426438Y-90431438D01*
X79409168Y-90447090D01*
X79390448Y-90460974D01*
X79370457Y-90472956D01*
X79349387Y-90482921D01*
X79327443Y-90490773D01*
X79304834Y-90496437D01*
X79281779Y-90499856D01*
X79258500Y-90501000D01*
X78683500Y-90501000D01*
X78660221Y-90499856D01*
X78637166Y-90496437D01*
X78614557Y-90490773D01*
X78592613Y-90482921D01*
X78571543Y-90472956D01*
X78551552Y-90460974D01*
X78532832Y-90447090D01*
X78515562Y-90431438D01*
X78499910Y-90414168D01*
X78486026Y-90395448D01*
X78474044Y-90375457D01*
X78464079Y-90354387D01*
X78456227Y-90332443D01*
X78450563Y-90309834D01*
X78447144Y-90286779D01*
X78446000Y-90263500D01*
X78446000Y-89788500D01*
X78447144Y-89765221D01*
X78450563Y-89742166D01*
X78456227Y-89719557D01*
X78464079Y-89697613D01*
X78474044Y-89676543D01*
X78486026Y-89656552D01*
X78499910Y-89637832D01*
X78515562Y-89620562D01*
X78532832Y-89604910D01*
X78551552Y-89591026D01*
X78571543Y-89579044D01*
X78592613Y-89569079D01*
X78614557Y-89561227D01*
X78637166Y-89555563D01*
X78660221Y-89552144D01*
X78683500Y-89551000D01*
X79258500Y-89551000D01*
X79281779Y-89552144D01*
X79281779Y-89552144D01*
G37*
D11*
X78971000Y-90026000D03*
D10*
G36*
X79281779Y-76852144D02*
G01*
X79304834Y-76855563D01*
X79327443Y-76861227D01*
X79349387Y-76869079D01*
X79370457Y-76879044D01*
X79390448Y-76891026D01*
X79409168Y-76904910D01*
X79426438Y-76920562D01*
X79442090Y-76937832D01*
X79455974Y-76956552D01*
X79467956Y-76976543D01*
X79477921Y-76997613D01*
X79485773Y-77019557D01*
X79491437Y-77042166D01*
X79494856Y-77065221D01*
X79496000Y-77088500D01*
X79496000Y-77563500D01*
X79494856Y-77586779D01*
X79491437Y-77609834D01*
X79485773Y-77632443D01*
X79477921Y-77654387D01*
X79467956Y-77675457D01*
X79455974Y-77695448D01*
X79442090Y-77714168D01*
X79426438Y-77731438D01*
X79409168Y-77747090D01*
X79390448Y-77760974D01*
X79370457Y-77772956D01*
X79349387Y-77782921D01*
X79327443Y-77790773D01*
X79304834Y-77796437D01*
X79281779Y-77799856D01*
X79258500Y-77801000D01*
X78683500Y-77801000D01*
X78660221Y-77799856D01*
X78637166Y-77796437D01*
X78614557Y-77790773D01*
X78592613Y-77782921D01*
X78571543Y-77772956D01*
X78551552Y-77760974D01*
X78532832Y-77747090D01*
X78515562Y-77731438D01*
X78499910Y-77714168D01*
X78486026Y-77695448D01*
X78474044Y-77675457D01*
X78464079Y-77654387D01*
X78456227Y-77632443D01*
X78450563Y-77609834D01*
X78447144Y-77586779D01*
X78446000Y-77563500D01*
X78446000Y-77088500D01*
X78447144Y-77065221D01*
X78450563Y-77042166D01*
X78456227Y-77019557D01*
X78464079Y-76997613D01*
X78474044Y-76976543D01*
X78486026Y-76956552D01*
X78499910Y-76937832D01*
X78515562Y-76920562D01*
X78532832Y-76904910D01*
X78551552Y-76891026D01*
X78571543Y-76879044D01*
X78592613Y-76869079D01*
X78614557Y-76861227D01*
X78637166Y-76855563D01*
X78660221Y-76852144D01*
X78683500Y-76851000D01*
X79258500Y-76851000D01*
X79281779Y-76852144D01*
X79281779Y-76852144D01*
G37*
D11*
X78971000Y-77326000D03*
D10*
G36*
X77531779Y-76852144D02*
G01*
X77554834Y-76855563D01*
X77577443Y-76861227D01*
X77599387Y-76869079D01*
X77620457Y-76879044D01*
X77640448Y-76891026D01*
X77659168Y-76904910D01*
X77676438Y-76920562D01*
X77692090Y-76937832D01*
X77705974Y-76956552D01*
X77717956Y-76976543D01*
X77727921Y-76997613D01*
X77735773Y-77019557D01*
X77741437Y-77042166D01*
X77744856Y-77065221D01*
X77746000Y-77088500D01*
X77746000Y-77563500D01*
X77744856Y-77586779D01*
X77741437Y-77609834D01*
X77735773Y-77632443D01*
X77727921Y-77654387D01*
X77717956Y-77675457D01*
X77705974Y-77695448D01*
X77692090Y-77714168D01*
X77676438Y-77731438D01*
X77659168Y-77747090D01*
X77640448Y-77760974D01*
X77620457Y-77772956D01*
X77599387Y-77782921D01*
X77577443Y-77790773D01*
X77554834Y-77796437D01*
X77531779Y-77799856D01*
X77508500Y-77801000D01*
X76933500Y-77801000D01*
X76910221Y-77799856D01*
X76887166Y-77796437D01*
X76864557Y-77790773D01*
X76842613Y-77782921D01*
X76821543Y-77772956D01*
X76801552Y-77760974D01*
X76782832Y-77747090D01*
X76765562Y-77731438D01*
X76749910Y-77714168D01*
X76736026Y-77695448D01*
X76724044Y-77675457D01*
X76714079Y-77654387D01*
X76706227Y-77632443D01*
X76700563Y-77609834D01*
X76697144Y-77586779D01*
X76696000Y-77563500D01*
X76696000Y-77088500D01*
X76697144Y-77065221D01*
X76700563Y-77042166D01*
X76706227Y-77019557D01*
X76714079Y-76997613D01*
X76724044Y-76976543D01*
X76736026Y-76956552D01*
X76749910Y-76937832D01*
X76765562Y-76920562D01*
X76782832Y-76904910D01*
X76801552Y-76891026D01*
X76821543Y-76879044D01*
X76842613Y-76869079D01*
X76864557Y-76861227D01*
X76887166Y-76855563D01*
X76910221Y-76852144D01*
X76933500Y-76851000D01*
X77508500Y-76851000D01*
X77531779Y-76852144D01*
X77531779Y-76852144D01*
G37*
D11*
X77221000Y-77326000D03*
D10*
G36*
X87212142Y-87175174D02*
G01*
X87235803Y-87178684D01*
X87259007Y-87184496D01*
X87281529Y-87192554D01*
X87303153Y-87202782D01*
X87323670Y-87215079D01*
X87342883Y-87229329D01*
X87360607Y-87245393D01*
X87376671Y-87263117D01*
X87390921Y-87282330D01*
X87403218Y-87302847D01*
X87413446Y-87324471D01*
X87421504Y-87346993D01*
X87427316Y-87370197D01*
X87430826Y-87393858D01*
X87432000Y-87417750D01*
X87432000Y-87905250D01*
X87430826Y-87929142D01*
X87427316Y-87952803D01*
X87421504Y-87976007D01*
X87413446Y-87998529D01*
X87403218Y-88020153D01*
X87390921Y-88040670D01*
X87376671Y-88059883D01*
X87360607Y-88077607D01*
X87342883Y-88093671D01*
X87323670Y-88107921D01*
X87303153Y-88120218D01*
X87281529Y-88130446D01*
X87259007Y-88138504D01*
X87235803Y-88144316D01*
X87212142Y-88147826D01*
X87188250Y-88149000D01*
X86275750Y-88149000D01*
X86251858Y-88147826D01*
X86228197Y-88144316D01*
X86204993Y-88138504D01*
X86182471Y-88130446D01*
X86160847Y-88120218D01*
X86140330Y-88107921D01*
X86121117Y-88093671D01*
X86103393Y-88077607D01*
X86087329Y-88059883D01*
X86073079Y-88040670D01*
X86060782Y-88020153D01*
X86050554Y-87998529D01*
X86042496Y-87976007D01*
X86036684Y-87952803D01*
X86033174Y-87929142D01*
X86032000Y-87905250D01*
X86032000Y-87417750D01*
X86033174Y-87393858D01*
X86036684Y-87370197D01*
X86042496Y-87346993D01*
X86050554Y-87324471D01*
X86060782Y-87302847D01*
X86073079Y-87282330D01*
X86087329Y-87263117D01*
X86103393Y-87245393D01*
X86121117Y-87229329D01*
X86140330Y-87215079D01*
X86160847Y-87202782D01*
X86182471Y-87192554D01*
X86204993Y-87184496D01*
X86228197Y-87178684D01*
X86251858Y-87175174D01*
X86275750Y-87174000D01*
X87188250Y-87174000D01*
X87212142Y-87175174D01*
X87212142Y-87175174D01*
G37*
D13*
X86732000Y-87661500D03*
D10*
G36*
X87212142Y-85300174D02*
G01*
X87235803Y-85303684D01*
X87259007Y-85309496D01*
X87281529Y-85317554D01*
X87303153Y-85327782D01*
X87323670Y-85340079D01*
X87342883Y-85354329D01*
X87360607Y-85370393D01*
X87376671Y-85388117D01*
X87390921Y-85407330D01*
X87403218Y-85427847D01*
X87413446Y-85449471D01*
X87421504Y-85471993D01*
X87427316Y-85495197D01*
X87430826Y-85518858D01*
X87432000Y-85542750D01*
X87432000Y-86030250D01*
X87430826Y-86054142D01*
X87427316Y-86077803D01*
X87421504Y-86101007D01*
X87413446Y-86123529D01*
X87403218Y-86145153D01*
X87390921Y-86165670D01*
X87376671Y-86184883D01*
X87360607Y-86202607D01*
X87342883Y-86218671D01*
X87323670Y-86232921D01*
X87303153Y-86245218D01*
X87281529Y-86255446D01*
X87259007Y-86263504D01*
X87235803Y-86269316D01*
X87212142Y-86272826D01*
X87188250Y-86274000D01*
X86275750Y-86274000D01*
X86251858Y-86272826D01*
X86228197Y-86269316D01*
X86204993Y-86263504D01*
X86182471Y-86255446D01*
X86160847Y-86245218D01*
X86140330Y-86232921D01*
X86121117Y-86218671D01*
X86103393Y-86202607D01*
X86087329Y-86184883D01*
X86073079Y-86165670D01*
X86060782Y-86145153D01*
X86050554Y-86123529D01*
X86042496Y-86101007D01*
X86036684Y-86077803D01*
X86033174Y-86054142D01*
X86032000Y-86030250D01*
X86032000Y-85542750D01*
X86033174Y-85518858D01*
X86036684Y-85495197D01*
X86042496Y-85471993D01*
X86050554Y-85449471D01*
X86060782Y-85427847D01*
X86073079Y-85407330D01*
X86087329Y-85388117D01*
X86103393Y-85370393D01*
X86121117Y-85354329D01*
X86140330Y-85340079D01*
X86160847Y-85327782D01*
X86182471Y-85317554D01*
X86204993Y-85309496D01*
X86228197Y-85303684D01*
X86251858Y-85300174D01*
X86275750Y-85299000D01*
X87188250Y-85299000D01*
X87212142Y-85300174D01*
X87212142Y-85300174D01*
G37*
D13*
X86732000Y-85786500D03*
D10*
G36*
X89618142Y-89581174D02*
G01*
X89641803Y-89584684D01*
X89665007Y-89590496D01*
X89687529Y-89598554D01*
X89709153Y-89608782D01*
X89729670Y-89621079D01*
X89748883Y-89635329D01*
X89766607Y-89651393D01*
X89782671Y-89669117D01*
X89796921Y-89688330D01*
X89809218Y-89708847D01*
X89819446Y-89730471D01*
X89827504Y-89752993D01*
X89833316Y-89776197D01*
X89836826Y-89799858D01*
X89838000Y-89823750D01*
X89838000Y-90736250D01*
X89836826Y-90760142D01*
X89833316Y-90783803D01*
X89827504Y-90807007D01*
X89819446Y-90829529D01*
X89809218Y-90851153D01*
X89796921Y-90871670D01*
X89782671Y-90890883D01*
X89766607Y-90908607D01*
X89748883Y-90924671D01*
X89729670Y-90938921D01*
X89709153Y-90951218D01*
X89687529Y-90961446D01*
X89665007Y-90969504D01*
X89641803Y-90975316D01*
X89618142Y-90978826D01*
X89594250Y-90980000D01*
X89106750Y-90980000D01*
X89082858Y-90978826D01*
X89059197Y-90975316D01*
X89035993Y-90969504D01*
X89013471Y-90961446D01*
X88991847Y-90951218D01*
X88971330Y-90938921D01*
X88952117Y-90924671D01*
X88934393Y-90908607D01*
X88918329Y-90890883D01*
X88904079Y-90871670D01*
X88891782Y-90851153D01*
X88881554Y-90829529D01*
X88873496Y-90807007D01*
X88867684Y-90783803D01*
X88864174Y-90760142D01*
X88863000Y-90736250D01*
X88863000Y-89823750D01*
X88864174Y-89799858D01*
X88867684Y-89776197D01*
X88873496Y-89752993D01*
X88881554Y-89730471D01*
X88891782Y-89708847D01*
X88904079Y-89688330D01*
X88918329Y-89669117D01*
X88934393Y-89651393D01*
X88952117Y-89635329D01*
X88971330Y-89621079D01*
X88991847Y-89608782D01*
X89013471Y-89598554D01*
X89035993Y-89590496D01*
X89059197Y-89584684D01*
X89082858Y-89581174D01*
X89106750Y-89580000D01*
X89594250Y-89580000D01*
X89618142Y-89581174D01*
X89618142Y-89581174D01*
G37*
D13*
X89350500Y-90280000D03*
D10*
G36*
X91493142Y-89581174D02*
G01*
X91516803Y-89584684D01*
X91540007Y-89590496D01*
X91562529Y-89598554D01*
X91584153Y-89608782D01*
X91604670Y-89621079D01*
X91623883Y-89635329D01*
X91641607Y-89651393D01*
X91657671Y-89669117D01*
X91671921Y-89688330D01*
X91684218Y-89708847D01*
X91694446Y-89730471D01*
X91702504Y-89752993D01*
X91708316Y-89776197D01*
X91711826Y-89799858D01*
X91713000Y-89823750D01*
X91713000Y-90736250D01*
X91711826Y-90760142D01*
X91708316Y-90783803D01*
X91702504Y-90807007D01*
X91694446Y-90829529D01*
X91684218Y-90851153D01*
X91671921Y-90871670D01*
X91657671Y-90890883D01*
X91641607Y-90908607D01*
X91623883Y-90924671D01*
X91604670Y-90938921D01*
X91584153Y-90951218D01*
X91562529Y-90961446D01*
X91540007Y-90969504D01*
X91516803Y-90975316D01*
X91493142Y-90978826D01*
X91469250Y-90980000D01*
X90981750Y-90980000D01*
X90957858Y-90978826D01*
X90934197Y-90975316D01*
X90910993Y-90969504D01*
X90888471Y-90961446D01*
X90866847Y-90951218D01*
X90846330Y-90938921D01*
X90827117Y-90924671D01*
X90809393Y-90908607D01*
X90793329Y-90890883D01*
X90779079Y-90871670D01*
X90766782Y-90851153D01*
X90756554Y-90829529D01*
X90748496Y-90807007D01*
X90742684Y-90783803D01*
X90739174Y-90760142D01*
X90738000Y-90736250D01*
X90738000Y-89823750D01*
X90739174Y-89799858D01*
X90742684Y-89776197D01*
X90748496Y-89752993D01*
X90756554Y-89730471D01*
X90766782Y-89708847D01*
X90779079Y-89688330D01*
X90793329Y-89669117D01*
X90809393Y-89651393D01*
X90827117Y-89635329D01*
X90846330Y-89621079D01*
X90866847Y-89608782D01*
X90888471Y-89598554D01*
X90910993Y-89590496D01*
X90934197Y-89584684D01*
X90957858Y-89581174D01*
X90981750Y-89580000D01*
X91469250Y-89580000D01*
X91493142Y-89581174D01*
X91493142Y-89581174D01*
G37*
D13*
X91225500Y-90280000D03*
D15*
X91050000Y-85540000D03*
X91050000Y-87740000D03*
X89350000Y-87740000D03*
X89350000Y-85540000D03*
D10*
G36*
X98289505Y-86514204D02*
G01*
X98313773Y-86517804D01*
X98337572Y-86523765D01*
X98360671Y-86532030D01*
X98382850Y-86542520D01*
X98403893Y-86555132D01*
X98423599Y-86569747D01*
X98441777Y-86586223D01*
X98458253Y-86604401D01*
X98472868Y-86624107D01*
X98485480Y-86645150D01*
X98495970Y-86667329D01*
X98504235Y-86690428D01*
X98510196Y-86714227D01*
X98513796Y-86738495D01*
X98515000Y-86762999D01*
X98515000Y-87313001D01*
X98513796Y-87337505D01*
X98510196Y-87361773D01*
X98504235Y-87385572D01*
X98495970Y-87408671D01*
X98485480Y-87430850D01*
X98472868Y-87451893D01*
X98458253Y-87471599D01*
X98441777Y-87489777D01*
X98423599Y-87506253D01*
X98403893Y-87520868D01*
X98382850Y-87533480D01*
X98360671Y-87543970D01*
X98337572Y-87552235D01*
X98313773Y-87558196D01*
X98289505Y-87561796D01*
X98265001Y-87563000D01*
X97714999Y-87563000D01*
X97690495Y-87561796D01*
X97666227Y-87558196D01*
X97642428Y-87552235D01*
X97619329Y-87543970D01*
X97597150Y-87533480D01*
X97576107Y-87520868D01*
X97556401Y-87506253D01*
X97538223Y-87489777D01*
X97521747Y-87471599D01*
X97507132Y-87451893D01*
X97494520Y-87430850D01*
X97484030Y-87408671D01*
X97475765Y-87385572D01*
X97469804Y-87361773D01*
X97466204Y-87337505D01*
X97465000Y-87313001D01*
X97465000Y-86762999D01*
X97466204Y-86738495D01*
X97469804Y-86714227D01*
X97475765Y-86690428D01*
X97484030Y-86667329D01*
X97494520Y-86645150D01*
X97507132Y-86624107D01*
X97521747Y-86604401D01*
X97538223Y-86586223D01*
X97556401Y-86569747D01*
X97576107Y-86555132D01*
X97597150Y-86542520D01*
X97619329Y-86532030D01*
X97642428Y-86523765D01*
X97666227Y-86517804D01*
X97690495Y-86514204D01*
X97714999Y-86513000D01*
X98265001Y-86513000D01*
X98289505Y-86514204D01*
X98289505Y-86514204D01*
G37*
D16*
X97990000Y-87038000D03*
D10*
G36*
X99589505Y-86514204D02*
G01*
X99613773Y-86517804D01*
X99637572Y-86523765D01*
X99660671Y-86532030D01*
X99682850Y-86542520D01*
X99703893Y-86555132D01*
X99723599Y-86569747D01*
X99741777Y-86586223D01*
X99758253Y-86604401D01*
X99772868Y-86624107D01*
X99785480Y-86645150D01*
X99795970Y-86667329D01*
X99804235Y-86690428D01*
X99810196Y-86714227D01*
X99813796Y-86738495D01*
X99815000Y-86762999D01*
X99815000Y-87313001D01*
X99813796Y-87337505D01*
X99810196Y-87361773D01*
X99804235Y-87385572D01*
X99795970Y-87408671D01*
X99785480Y-87430850D01*
X99772868Y-87451893D01*
X99758253Y-87471599D01*
X99741777Y-87489777D01*
X99723599Y-87506253D01*
X99703893Y-87520868D01*
X99682850Y-87533480D01*
X99660671Y-87543970D01*
X99637572Y-87552235D01*
X99613773Y-87558196D01*
X99589505Y-87561796D01*
X99565001Y-87563000D01*
X99014999Y-87563000D01*
X98990495Y-87561796D01*
X98966227Y-87558196D01*
X98942428Y-87552235D01*
X98919329Y-87543970D01*
X98897150Y-87533480D01*
X98876107Y-87520868D01*
X98856401Y-87506253D01*
X98838223Y-87489777D01*
X98821747Y-87471599D01*
X98807132Y-87451893D01*
X98794520Y-87430850D01*
X98784030Y-87408671D01*
X98775765Y-87385572D01*
X98769804Y-87361773D01*
X98766204Y-87337505D01*
X98765000Y-87313001D01*
X98765000Y-86762999D01*
X98766204Y-86738495D01*
X98769804Y-86714227D01*
X98775765Y-86690428D01*
X98784030Y-86667329D01*
X98794520Y-86645150D01*
X98807132Y-86624107D01*
X98821747Y-86604401D01*
X98838223Y-86586223D01*
X98856401Y-86569747D01*
X98876107Y-86555132D01*
X98897150Y-86542520D01*
X98919329Y-86532030D01*
X98942428Y-86523765D01*
X98966227Y-86517804D01*
X98990495Y-86514204D01*
X99014999Y-86513000D01*
X99565001Y-86513000D01*
X99589505Y-86514204D01*
X99589505Y-86514204D01*
G37*
D16*
X99290000Y-87038000D03*
D10*
G36*
X100889505Y-86514204D02*
G01*
X100913773Y-86517804D01*
X100937572Y-86523765D01*
X100960671Y-86532030D01*
X100982850Y-86542520D01*
X101003893Y-86555132D01*
X101023599Y-86569747D01*
X101041777Y-86586223D01*
X101058253Y-86604401D01*
X101072868Y-86624107D01*
X101085480Y-86645150D01*
X101095970Y-86667329D01*
X101104235Y-86690428D01*
X101110196Y-86714227D01*
X101113796Y-86738495D01*
X101115000Y-86762999D01*
X101115000Y-87313001D01*
X101113796Y-87337505D01*
X101110196Y-87361773D01*
X101104235Y-87385572D01*
X101095970Y-87408671D01*
X101085480Y-87430850D01*
X101072868Y-87451893D01*
X101058253Y-87471599D01*
X101041777Y-87489777D01*
X101023599Y-87506253D01*
X101003893Y-87520868D01*
X100982850Y-87533480D01*
X100960671Y-87543970D01*
X100937572Y-87552235D01*
X100913773Y-87558196D01*
X100889505Y-87561796D01*
X100865001Y-87563000D01*
X100314999Y-87563000D01*
X100290495Y-87561796D01*
X100266227Y-87558196D01*
X100242428Y-87552235D01*
X100219329Y-87543970D01*
X100197150Y-87533480D01*
X100176107Y-87520868D01*
X100156401Y-87506253D01*
X100138223Y-87489777D01*
X100121747Y-87471599D01*
X100107132Y-87451893D01*
X100094520Y-87430850D01*
X100084030Y-87408671D01*
X100075765Y-87385572D01*
X100069804Y-87361773D01*
X100066204Y-87337505D01*
X100065000Y-87313001D01*
X100065000Y-86762999D01*
X100066204Y-86738495D01*
X100069804Y-86714227D01*
X100075765Y-86690428D01*
X100084030Y-86667329D01*
X100094520Y-86645150D01*
X100107132Y-86624107D01*
X100121747Y-86604401D01*
X100138223Y-86586223D01*
X100156401Y-86569747D01*
X100176107Y-86555132D01*
X100197150Y-86542520D01*
X100219329Y-86532030D01*
X100242428Y-86523765D01*
X100266227Y-86517804D01*
X100290495Y-86514204D01*
X100314999Y-86513000D01*
X100865001Y-86513000D01*
X100889505Y-86514204D01*
X100889505Y-86514204D01*
G37*
D16*
X100590000Y-87038000D03*
D10*
G36*
X102189505Y-86514204D02*
G01*
X102213773Y-86517804D01*
X102237572Y-86523765D01*
X102260671Y-86532030D01*
X102282850Y-86542520D01*
X102303893Y-86555132D01*
X102323599Y-86569747D01*
X102341777Y-86586223D01*
X102358253Y-86604401D01*
X102372868Y-86624107D01*
X102385480Y-86645150D01*
X102395970Y-86667329D01*
X102404235Y-86690428D01*
X102410196Y-86714227D01*
X102413796Y-86738495D01*
X102415000Y-86762999D01*
X102415000Y-87313001D01*
X102413796Y-87337505D01*
X102410196Y-87361773D01*
X102404235Y-87385572D01*
X102395970Y-87408671D01*
X102385480Y-87430850D01*
X102372868Y-87451893D01*
X102358253Y-87471599D01*
X102341777Y-87489777D01*
X102323599Y-87506253D01*
X102303893Y-87520868D01*
X102282850Y-87533480D01*
X102260671Y-87543970D01*
X102237572Y-87552235D01*
X102213773Y-87558196D01*
X102189505Y-87561796D01*
X102165001Y-87563000D01*
X101614999Y-87563000D01*
X101590495Y-87561796D01*
X101566227Y-87558196D01*
X101542428Y-87552235D01*
X101519329Y-87543970D01*
X101497150Y-87533480D01*
X101476107Y-87520868D01*
X101456401Y-87506253D01*
X101438223Y-87489777D01*
X101421747Y-87471599D01*
X101407132Y-87451893D01*
X101394520Y-87430850D01*
X101384030Y-87408671D01*
X101375765Y-87385572D01*
X101369804Y-87361773D01*
X101366204Y-87337505D01*
X101365000Y-87313001D01*
X101365000Y-86762999D01*
X101366204Y-86738495D01*
X101369804Y-86714227D01*
X101375765Y-86690428D01*
X101384030Y-86667329D01*
X101394520Y-86645150D01*
X101407132Y-86624107D01*
X101421747Y-86604401D01*
X101438223Y-86586223D01*
X101456401Y-86569747D01*
X101476107Y-86555132D01*
X101497150Y-86542520D01*
X101519329Y-86532030D01*
X101542428Y-86523765D01*
X101566227Y-86517804D01*
X101590495Y-86514204D01*
X101614999Y-86513000D01*
X102165001Y-86513000D01*
X102189505Y-86514204D01*
X102189505Y-86514204D01*
G37*
D16*
X101890000Y-87038000D03*
D10*
G36*
X98289505Y-85214204D02*
G01*
X98313773Y-85217804D01*
X98337572Y-85223765D01*
X98360671Y-85232030D01*
X98382850Y-85242520D01*
X98403893Y-85255132D01*
X98423599Y-85269747D01*
X98441777Y-85286223D01*
X98458253Y-85304401D01*
X98472868Y-85324107D01*
X98485480Y-85345150D01*
X98495970Y-85367329D01*
X98504235Y-85390428D01*
X98510196Y-85414227D01*
X98513796Y-85438495D01*
X98515000Y-85462999D01*
X98515000Y-86013001D01*
X98513796Y-86037505D01*
X98510196Y-86061773D01*
X98504235Y-86085572D01*
X98495970Y-86108671D01*
X98485480Y-86130850D01*
X98472868Y-86151893D01*
X98458253Y-86171599D01*
X98441777Y-86189777D01*
X98423599Y-86206253D01*
X98403893Y-86220868D01*
X98382850Y-86233480D01*
X98360671Y-86243970D01*
X98337572Y-86252235D01*
X98313773Y-86258196D01*
X98289505Y-86261796D01*
X98265001Y-86263000D01*
X97714999Y-86263000D01*
X97690495Y-86261796D01*
X97666227Y-86258196D01*
X97642428Y-86252235D01*
X97619329Y-86243970D01*
X97597150Y-86233480D01*
X97576107Y-86220868D01*
X97556401Y-86206253D01*
X97538223Y-86189777D01*
X97521747Y-86171599D01*
X97507132Y-86151893D01*
X97494520Y-86130850D01*
X97484030Y-86108671D01*
X97475765Y-86085572D01*
X97469804Y-86061773D01*
X97466204Y-86037505D01*
X97465000Y-86013001D01*
X97465000Y-85462999D01*
X97466204Y-85438495D01*
X97469804Y-85414227D01*
X97475765Y-85390428D01*
X97484030Y-85367329D01*
X97494520Y-85345150D01*
X97507132Y-85324107D01*
X97521747Y-85304401D01*
X97538223Y-85286223D01*
X97556401Y-85269747D01*
X97576107Y-85255132D01*
X97597150Y-85242520D01*
X97619329Y-85232030D01*
X97642428Y-85223765D01*
X97666227Y-85217804D01*
X97690495Y-85214204D01*
X97714999Y-85213000D01*
X98265001Y-85213000D01*
X98289505Y-85214204D01*
X98289505Y-85214204D01*
G37*
D16*
X97990000Y-85738000D03*
D10*
G36*
X99589505Y-85214204D02*
G01*
X99613773Y-85217804D01*
X99637572Y-85223765D01*
X99660671Y-85232030D01*
X99682850Y-85242520D01*
X99703893Y-85255132D01*
X99723599Y-85269747D01*
X99741777Y-85286223D01*
X99758253Y-85304401D01*
X99772868Y-85324107D01*
X99785480Y-85345150D01*
X99795970Y-85367329D01*
X99804235Y-85390428D01*
X99810196Y-85414227D01*
X99813796Y-85438495D01*
X99815000Y-85462999D01*
X99815000Y-86013001D01*
X99813796Y-86037505D01*
X99810196Y-86061773D01*
X99804235Y-86085572D01*
X99795970Y-86108671D01*
X99785480Y-86130850D01*
X99772868Y-86151893D01*
X99758253Y-86171599D01*
X99741777Y-86189777D01*
X99723599Y-86206253D01*
X99703893Y-86220868D01*
X99682850Y-86233480D01*
X99660671Y-86243970D01*
X99637572Y-86252235D01*
X99613773Y-86258196D01*
X99589505Y-86261796D01*
X99565001Y-86263000D01*
X99014999Y-86263000D01*
X98990495Y-86261796D01*
X98966227Y-86258196D01*
X98942428Y-86252235D01*
X98919329Y-86243970D01*
X98897150Y-86233480D01*
X98876107Y-86220868D01*
X98856401Y-86206253D01*
X98838223Y-86189777D01*
X98821747Y-86171599D01*
X98807132Y-86151893D01*
X98794520Y-86130850D01*
X98784030Y-86108671D01*
X98775765Y-86085572D01*
X98769804Y-86061773D01*
X98766204Y-86037505D01*
X98765000Y-86013001D01*
X98765000Y-85462999D01*
X98766204Y-85438495D01*
X98769804Y-85414227D01*
X98775765Y-85390428D01*
X98784030Y-85367329D01*
X98794520Y-85345150D01*
X98807132Y-85324107D01*
X98821747Y-85304401D01*
X98838223Y-85286223D01*
X98856401Y-85269747D01*
X98876107Y-85255132D01*
X98897150Y-85242520D01*
X98919329Y-85232030D01*
X98942428Y-85223765D01*
X98966227Y-85217804D01*
X98990495Y-85214204D01*
X99014999Y-85213000D01*
X99565001Y-85213000D01*
X99589505Y-85214204D01*
X99589505Y-85214204D01*
G37*
D16*
X99290000Y-85738000D03*
D10*
G36*
X100889505Y-85214204D02*
G01*
X100913773Y-85217804D01*
X100937572Y-85223765D01*
X100960671Y-85232030D01*
X100982850Y-85242520D01*
X101003893Y-85255132D01*
X101023599Y-85269747D01*
X101041777Y-85286223D01*
X101058253Y-85304401D01*
X101072868Y-85324107D01*
X101085480Y-85345150D01*
X101095970Y-85367329D01*
X101104235Y-85390428D01*
X101110196Y-85414227D01*
X101113796Y-85438495D01*
X101115000Y-85462999D01*
X101115000Y-86013001D01*
X101113796Y-86037505D01*
X101110196Y-86061773D01*
X101104235Y-86085572D01*
X101095970Y-86108671D01*
X101085480Y-86130850D01*
X101072868Y-86151893D01*
X101058253Y-86171599D01*
X101041777Y-86189777D01*
X101023599Y-86206253D01*
X101003893Y-86220868D01*
X100982850Y-86233480D01*
X100960671Y-86243970D01*
X100937572Y-86252235D01*
X100913773Y-86258196D01*
X100889505Y-86261796D01*
X100865001Y-86263000D01*
X100314999Y-86263000D01*
X100290495Y-86261796D01*
X100266227Y-86258196D01*
X100242428Y-86252235D01*
X100219329Y-86243970D01*
X100197150Y-86233480D01*
X100176107Y-86220868D01*
X100156401Y-86206253D01*
X100138223Y-86189777D01*
X100121747Y-86171599D01*
X100107132Y-86151893D01*
X100094520Y-86130850D01*
X100084030Y-86108671D01*
X100075765Y-86085572D01*
X100069804Y-86061773D01*
X100066204Y-86037505D01*
X100065000Y-86013001D01*
X100065000Y-85462999D01*
X100066204Y-85438495D01*
X100069804Y-85414227D01*
X100075765Y-85390428D01*
X100084030Y-85367329D01*
X100094520Y-85345150D01*
X100107132Y-85324107D01*
X100121747Y-85304401D01*
X100138223Y-85286223D01*
X100156401Y-85269747D01*
X100176107Y-85255132D01*
X100197150Y-85242520D01*
X100219329Y-85232030D01*
X100242428Y-85223765D01*
X100266227Y-85217804D01*
X100290495Y-85214204D01*
X100314999Y-85213000D01*
X100865001Y-85213000D01*
X100889505Y-85214204D01*
X100889505Y-85214204D01*
G37*
D16*
X100590000Y-85738000D03*
D10*
G36*
X102189505Y-85214204D02*
G01*
X102213773Y-85217804D01*
X102237572Y-85223765D01*
X102260671Y-85232030D01*
X102282850Y-85242520D01*
X102303893Y-85255132D01*
X102323599Y-85269747D01*
X102341777Y-85286223D01*
X102358253Y-85304401D01*
X102372868Y-85324107D01*
X102385480Y-85345150D01*
X102395970Y-85367329D01*
X102404235Y-85390428D01*
X102410196Y-85414227D01*
X102413796Y-85438495D01*
X102415000Y-85462999D01*
X102415000Y-86013001D01*
X102413796Y-86037505D01*
X102410196Y-86061773D01*
X102404235Y-86085572D01*
X102395970Y-86108671D01*
X102385480Y-86130850D01*
X102372868Y-86151893D01*
X102358253Y-86171599D01*
X102341777Y-86189777D01*
X102323599Y-86206253D01*
X102303893Y-86220868D01*
X102282850Y-86233480D01*
X102260671Y-86243970D01*
X102237572Y-86252235D01*
X102213773Y-86258196D01*
X102189505Y-86261796D01*
X102165001Y-86263000D01*
X101614999Y-86263000D01*
X101590495Y-86261796D01*
X101566227Y-86258196D01*
X101542428Y-86252235D01*
X101519329Y-86243970D01*
X101497150Y-86233480D01*
X101476107Y-86220868D01*
X101456401Y-86206253D01*
X101438223Y-86189777D01*
X101421747Y-86171599D01*
X101407132Y-86151893D01*
X101394520Y-86130850D01*
X101384030Y-86108671D01*
X101375765Y-86085572D01*
X101369804Y-86061773D01*
X101366204Y-86037505D01*
X101365000Y-86013001D01*
X101365000Y-85462999D01*
X101366204Y-85438495D01*
X101369804Y-85414227D01*
X101375765Y-85390428D01*
X101384030Y-85367329D01*
X101394520Y-85345150D01*
X101407132Y-85324107D01*
X101421747Y-85304401D01*
X101438223Y-85286223D01*
X101456401Y-85269747D01*
X101476107Y-85255132D01*
X101497150Y-85242520D01*
X101519329Y-85232030D01*
X101542428Y-85223765D01*
X101566227Y-85217804D01*
X101590495Y-85214204D01*
X101614999Y-85213000D01*
X102165001Y-85213000D01*
X102189505Y-85214204D01*
X102189505Y-85214204D01*
G37*
D16*
X101890000Y-85738000D03*
D10*
G36*
X98289505Y-83914204D02*
G01*
X98313773Y-83917804D01*
X98337572Y-83923765D01*
X98360671Y-83932030D01*
X98382850Y-83942520D01*
X98403893Y-83955132D01*
X98423599Y-83969747D01*
X98441777Y-83986223D01*
X98458253Y-84004401D01*
X98472868Y-84024107D01*
X98485480Y-84045150D01*
X98495970Y-84067329D01*
X98504235Y-84090428D01*
X98510196Y-84114227D01*
X98513796Y-84138495D01*
X98515000Y-84162999D01*
X98515000Y-84713001D01*
X98513796Y-84737505D01*
X98510196Y-84761773D01*
X98504235Y-84785572D01*
X98495970Y-84808671D01*
X98485480Y-84830850D01*
X98472868Y-84851893D01*
X98458253Y-84871599D01*
X98441777Y-84889777D01*
X98423599Y-84906253D01*
X98403893Y-84920868D01*
X98382850Y-84933480D01*
X98360671Y-84943970D01*
X98337572Y-84952235D01*
X98313773Y-84958196D01*
X98289505Y-84961796D01*
X98265001Y-84963000D01*
X97714999Y-84963000D01*
X97690495Y-84961796D01*
X97666227Y-84958196D01*
X97642428Y-84952235D01*
X97619329Y-84943970D01*
X97597150Y-84933480D01*
X97576107Y-84920868D01*
X97556401Y-84906253D01*
X97538223Y-84889777D01*
X97521747Y-84871599D01*
X97507132Y-84851893D01*
X97494520Y-84830850D01*
X97484030Y-84808671D01*
X97475765Y-84785572D01*
X97469804Y-84761773D01*
X97466204Y-84737505D01*
X97465000Y-84713001D01*
X97465000Y-84162999D01*
X97466204Y-84138495D01*
X97469804Y-84114227D01*
X97475765Y-84090428D01*
X97484030Y-84067329D01*
X97494520Y-84045150D01*
X97507132Y-84024107D01*
X97521747Y-84004401D01*
X97538223Y-83986223D01*
X97556401Y-83969747D01*
X97576107Y-83955132D01*
X97597150Y-83942520D01*
X97619329Y-83932030D01*
X97642428Y-83923765D01*
X97666227Y-83917804D01*
X97690495Y-83914204D01*
X97714999Y-83913000D01*
X98265001Y-83913000D01*
X98289505Y-83914204D01*
X98289505Y-83914204D01*
G37*
D16*
X97990000Y-84438000D03*
D10*
G36*
X99589505Y-83914204D02*
G01*
X99613773Y-83917804D01*
X99637572Y-83923765D01*
X99660671Y-83932030D01*
X99682850Y-83942520D01*
X99703893Y-83955132D01*
X99723599Y-83969747D01*
X99741777Y-83986223D01*
X99758253Y-84004401D01*
X99772868Y-84024107D01*
X99785480Y-84045150D01*
X99795970Y-84067329D01*
X99804235Y-84090428D01*
X99810196Y-84114227D01*
X99813796Y-84138495D01*
X99815000Y-84162999D01*
X99815000Y-84713001D01*
X99813796Y-84737505D01*
X99810196Y-84761773D01*
X99804235Y-84785572D01*
X99795970Y-84808671D01*
X99785480Y-84830850D01*
X99772868Y-84851893D01*
X99758253Y-84871599D01*
X99741777Y-84889777D01*
X99723599Y-84906253D01*
X99703893Y-84920868D01*
X99682850Y-84933480D01*
X99660671Y-84943970D01*
X99637572Y-84952235D01*
X99613773Y-84958196D01*
X99589505Y-84961796D01*
X99565001Y-84963000D01*
X99014999Y-84963000D01*
X98990495Y-84961796D01*
X98966227Y-84958196D01*
X98942428Y-84952235D01*
X98919329Y-84943970D01*
X98897150Y-84933480D01*
X98876107Y-84920868D01*
X98856401Y-84906253D01*
X98838223Y-84889777D01*
X98821747Y-84871599D01*
X98807132Y-84851893D01*
X98794520Y-84830850D01*
X98784030Y-84808671D01*
X98775765Y-84785572D01*
X98769804Y-84761773D01*
X98766204Y-84737505D01*
X98765000Y-84713001D01*
X98765000Y-84162999D01*
X98766204Y-84138495D01*
X98769804Y-84114227D01*
X98775765Y-84090428D01*
X98784030Y-84067329D01*
X98794520Y-84045150D01*
X98807132Y-84024107D01*
X98821747Y-84004401D01*
X98838223Y-83986223D01*
X98856401Y-83969747D01*
X98876107Y-83955132D01*
X98897150Y-83942520D01*
X98919329Y-83932030D01*
X98942428Y-83923765D01*
X98966227Y-83917804D01*
X98990495Y-83914204D01*
X99014999Y-83913000D01*
X99565001Y-83913000D01*
X99589505Y-83914204D01*
X99589505Y-83914204D01*
G37*
D16*
X99290000Y-84438000D03*
D10*
G36*
X100889505Y-83914204D02*
G01*
X100913773Y-83917804D01*
X100937572Y-83923765D01*
X100960671Y-83932030D01*
X100982850Y-83942520D01*
X101003893Y-83955132D01*
X101023599Y-83969747D01*
X101041777Y-83986223D01*
X101058253Y-84004401D01*
X101072868Y-84024107D01*
X101085480Y-84045150D01*
X101095970Y-84067329D01*
X101104235Y-84090428D01*
X101110196Y-84114227D01*
X101113796Y-84138495D01*
X101115000Y-84162999D01*
X101115000Y-84713001D01*
X101113796Y-84737505D01*
X101110196Y-84761773D01*
X101104235Y-84785572D01*
X101095970Y-84808671D01*
X101085480Y-84830850D01*
X101072868Y-84851893D01*
X101058253Y-84871599D01*
X101041777Y-84889777D01*
X101023599Y-84906253D01*
X101003893Y-84920868D01*
X100982850Y-84933480D01*
X100960671Y-84943970D01*
X100937572Y-84952235D01*
X100913773Y-84958196D01*
X100889505Y-84961796D01*
X100865001Y-84963000D01*
X100314999Y-84963000D01*
X100290495Y-84961796D01*
X100266227Y-84958196D01*
X100242428Y-84952235D01*
X100219329Y-84943970D01*
X100197150Y-84933480D01*
X100176107Y-84920868D01*
X100156401Y-84906253D01*
X100138223Y-84889777D01*
X100121747Y-84871599D01*
X100107132Y-84851893D01*
X100094520Y-84830850D01*
X100084030Y-84808671D01*
X100075765Y-84785572D01*
X100069804Y-84761773D01*
X100066204Y-84737505D01*
X100065000Y-84713001D01*
X100065000Y-84162999D01*
X100066204Y-84138495D01*
X100069804Y-84114227D01*
X100075765Y-84090428D01*
X100084030Y-84067329D01*
X100094520Y-84045150D01*
X100107132Y-84024107D01*
X100121747Y-84004401D01*
X100138223Y-83986223D01*
X100156401Y-83969747D01*
X100176107Y-83955132D01*
X100197150Y-83942520D01*
X100219329Y-83932030D01*
X100242428Y-83923765D01*
X100266227Y-83917804D01*
X100290495Y-83914204D01*
X100314999Y-83913000D01*
X100865001Y-83913000D01*
X100889505Y-83914204D01*
X100889505Y-83914204D01*
G37*
D16*
X100590000Y-84438000D03*
D10*
G36*
X102189505Y-83914204D02*
G01*
X102213773Y-83917804D01*
X102237572Y-83923765D01*
X102260671Y-83932030D01*
X102282850Y-83942520D01*
X102303893Y-83955132D01*
X102323599Y-83969747D01*
X102341777Y-83986223D01*
X102358253Y-84004401D01*
X102372868Y-84024107D01*
X102385480Y-84045150D01*
X102395970Y-84067329D01*
X102404235Y-84090428D01*
X102410196Y-84114227D01*
X102413796Y-84138495D01*
X102415000Y-84162999D01*
X102415000Y-84713001D01*
X102413796Y-84737505D01*
X102410196Y-84761773D01*
X102404235Y-84785572D01*
X102395970Y-84808671D01*
X102385480Y-84830850D01*
X102372868Y-84851893D01*
X102358253Y-84871599D01*
X102341777Y-84889777D01*
X102323599Y-84906253D01*
X102303893Y-84920868D01*
X102282850Y-84933480D01*
X102260671Y-84943970D01*
X102237572Y-84952235D01*
X102213773Y-84958196D01*
X102189505Y-84961796D01*
X102165001Y-84963000D01*
X101614999Y-84963000D01*
X101590495Y-84961796D01*
X101566227Y-84958196D01*
X101542428Y-84952235D01*
X101519329Y-84943970D01*
X101497150Y-84933480D01*
X101476107Y-84920868D01*
X101456401Y-84906253D01*
X101438223Y-84889777D01*
X101421747Y-84871599D01*
X101407132Y-84851893D01*
X101394520Y-84830850D01*
X101384030Y-84808671D01*
X101375765Y-84785572D01*
X101369804Y-84761773D01*
X101366204Y-84737505D01*
X101365000Y-84713001D01*
X101365000Y-84162999D01*
X101366204Y-84138495D01*
X101369804Y-84114227D01*
X101375765Y-84090428D01*
X101384030Y-84067329D01*
X101394520Y-84045150D01*
X101407132Y-84024107D01*
X101421747Y-84004401D01*
X101438223Y-83986223D01*
X101456401Y-83969747D01*
X101476107Y-83955132D01*
X101497150Y-83942520D01*
X101519329Y-83932030D01*
X101542428Y-83923765D01*
X101566227Y-83917804D01*
X101590495Y-83914204D01*
X101614999Y-83913000D01*
X102165001Y-83913000D01*
X102189505Y-83914204D01*
X102189505Y-83914204D01*
G37*
D16*
X101890000Y-84438000D03*
D10*
G36*
X98289505Y-82614204D02*
G01*
X98313773Y-82617804D01*
X98337572Y-82623765D01*
X98360671Y-82632030D01*
X98382850Y-82642520D01*
X98403893Y-82655132D01*
X98423599Y-82669747D01*
X98441777Y-82686223D01*
X98458253Y-82704401D01*
X98472868Y-82724107D01*
X98485480Y-82745150D01*
X98495970Y-82767329D01*
X98504235Y-82790428D01*
X98510196Y-82814227D01*
X98513796Y-82838495D01*
X98515000Y-82862999D01*
X98515000Y-83413001D01*
X98513796Y-83437505D01*
X98510196Y-83461773D01*
X98504235Y-83485572D01*
X98495970Y-83508671D01*
X98485480Y-83530850D01*
X98472868Y-83551893D01*
X98458253Y-83571599D01*
X98441777Y-83589777D01*
X98423599Y-83606253D01*
X98403893Y-83620868D01*
X98382850Y-83633480D01*
X98360671Y-83643970D01*
X98337572Y-83652235D01*
X98313773Y-83658196D01*
X98289505Y-83661796D01*
X98265001Y-83663000D01*
X97714999Y-83663000D01*
X97690495Y-83661796D01*
X97666227Y-83658196D01*
X97642428Y-83652235D01*
X97619329Y-83643970D01*
X97597150Y-83633480D01*
X97576107Y-83620868D01*
X97556401Y-83606253D01*
X97538223Y-83589777D01*
X97521747Y-83571599D01*
X97507132Y-83551893D01*
X97494520Y-83530850D01*
X97484030Y-83508671D01*
X97475765Y-83485572D01*
X97469804Y-83461773D01*
X97466204Y-83437505D01*
X97465000Y-83413001D01*
X97465000Y-82862999D01*
X97466204Y-82838495D01*
X97469804Y-82814227D01*
X97475765Y-82790428D01*
X97484030Y-82767329D01*
X97494520Y-82745150D01*
X97507132Y-82724107D01*
X97521747Y-82704401D01*
X97538223Y-82686223D01*
X97556401Y-82669747D01*
X97576107Y-82655132D01*
X97597150Y-82642520D01*
X97619329Y-82632030D01*
X97642428Y-82623765D01*
X97666227Y-82617804D01*
X97690495Y-82614204D01*
X97714999Y-82613000D01*
X98265001Y-82613000D01*
X98289505Y-82614204D01*
X98289505Y-82614204D01*
G37*
D16*
X97990000Y-83138000D03*
D10*
G36*
X99589505Y-82614204D02*
G01*
X99613773Y-82617804D01*
X99637572Y-82623765D01*
X99660671Y-82632030D01*
X99682850Y-82642520D01*
X99703893Y-82655132D01*
X99723599Y-82669747D01*
X99741777Y-82686223D01*
X99758253Y-82704401D01*
X99772868Y-82724107D01*
X99785480Y-82745150D01*
X99795970Y-82767329D01*
X99804235Y-82790428D01*
X99810196Y-82814227D01*
X99813796Y-82838495D01*
X99815000Y-82862999D01*
X99815000Y-83413001D01*
X99813796Y-83437505D01*
X99810196Y-83461773D01*
X99804235Y-83485572D01*
X99795970Y-83508671D01*
X99785480Y-83530850D01*
X99772868Y-83551893D01*
X99758253Y-83571599D01*
X99741777Y-83589777D01*
X99723599Y-83606253D01*
X99703893Y-83620868D01*
X99682850Y-83633480D01*
X99660671Y-83643970D01*
X99637572Y-83652235D01*
X99613773Y-83658196D01*
X99589505Y-83661796D01*
X99565001Y-83663000D01*
X99014999Y-83663000D01*
X98990495Y-83661796D01*
X98966227Y-83658196D01*
X98942428Y-83652235D01*
X98919329Y-83643970D01*
X98897150Y-83633480D01*
X98876107Y-83620868D01*
X98856401Y-83606253D01*
X98838223Y-83589777D01*
X98821747Y-83571599D01*
X98807132Y-83551893D01*
X98794520Y-83530850D01*
X98784030Y-83508671D01*
X98775765Y-83485572D01*
X98769804Y-83461773D01*
X98766204Y-83437505D01*
X98765000Y-83413001D01*
X98765000Y-82862999D01*
X98766204Y-82838495D01*
X98769804Y-82814227D01*
X98775765Y-82790428D01*
X98784030Y-82767329D01*
X98794520Y-82745150D01*
X98807132Y-82724107D01*
X98821747Y-82704401D01*
X98838223Y-82686223D01*
X98856401Y-82669747D01*
X98876107Y-82655132D01*
X98897150Y-82642520D01*
X98919329Y-82632030D01*
X98942428Y-82623765D01*
X98966227Y-82617804D01*
X98990495Y-82614204D01*
X99014999Y-82613000D01*
X99565001Y-82613000D01*
X99589505Y-82614204D01*
X99589505Y-82614204D01*
G37*
D16*
X99290000Y-83138000D03*
D10*
G36*
X100889505Y-82614204D02*
G01*
X100913773Y-82617804D01*
X100937572Y-82623765D01*
X100960671Y-82632030D01*
X100982850Y-82642520D01*
X101003893Y-82655132D01*
X101023599Y-82669747D01*
X101041777Y-82686223D01*
X101058253Y-82704401D01*
X101072868Y-82724107D01*
X101085480Y-82745150D01*
X101095970Y-82767329D01*
X101104235Y-82790428D01*
X101110196Y-82814227D01*
X101113796Y-82838495D01*
X101115000Y-82862999D01*
X101115000Y-83413001D01*
X101113796Y-83437505D01*
X101110196Y-83461773D01*
X101104235Y-83485572D01*
X101095970Y-83508671D01*
X101085480Y-83530850D01*
X101072868Y-83551893D01*
X101058253Y-83571599D01*
X101041777Y-83589777D01*
X101023599Y-83606253D01*
X101003893Y-83620868D01*
X100982850Y-83633480D01*
X100960671Y-83643970D01*
X100937572Y-83652235D01*
X100913773Y-83658196D01*
X100889505Y-83661796D01*
X100865001Y-83663000D01*
X100314999Y-83663000D01*
X100290495Y-83661796D01*
X100266227Y-83658196D01*
X100242428Y-83652235D01*
X100219329Y-83643970D01*
X100197150Y-83633480D01*
X100176107Y-83620868D01*
X100156401Y-83606253D01*
X100138223Y-83589777D01*
X100121747Y-83571599D01*
X100107132Y-83551893D01*
X100094520Y-83530850D01*
X100084030Y-83508671D01*
X100075765Y-83485572D01*
X100069804Y-83461773D01*
X100066204Y-83437505D01*
X100065000Y-83413001D01*
X100065000Y-82862999D01*
X100066204Y-82838495D01*
X100069804Y-82814227D01*
X100075765Y-82790428D01*
X100084030Y-82767329D01*
X100094520Y-82745150D01*
X100107132Y-82724107D01*
X100121747Y-82704401D01*
X100138223Y-82686223D01*
X100156401Y-82669747D01*
X100176107Y-82655132D01*
X100197150Y-82642520D01*
X100219329Y-82632030D01*
X100242428Y-82623765D01*
X100266227Y-82617804D01*
X100290495Y-82614204D01*
X100314999Y-82613000D01*
X100865001Y-82613000D01*
X100889505Y-82614204D01*
X100889505Y-82614204D01*
G37*
D16*
X100590000Y-83138000D03*
D10*
G36*
X102189505Y-82614204D02*
G01*
X102213773Y-82617804D01*
X102237572Y-82623765D01*
X102260671Y-82632030D01*
X102282850Y-82642520D01*
X102303893Y-82655132D01*
X102323599Y-82669747D01*
X102341777Y-82686223D01*
X102358253Y-82704401D01*
X102372868Y-82724107D01*
X102385480Y-82745150D01*
X102395970Y-82767329D01*
X102404235Y-82790428D01*
X102410196Y-82814227D01*
X102413796Y-82838495D01*
X102415000Y-82862999D01*
X102415000Y-83413001D01*
X102413796Y-83437505D01*
X102410196Y-83461773D01*
X102404235Y-83485572D01*
X102395970Y-83508671D01*
X102385480Y-83530850D01*
X102372868Y-83551893D01*
X102358253Y-83571599D01*
X102341777Y-83589777D01*
X102323599Y-83606253D01*
X102303893Y-83620868D01*
X102282850Y-83633480D01*
X102260671Y-83643970D01*
X102237572Y-83652235D01*
X102213773Y-83658196D01*
X102189505Y-83661796D01*
X102165001Y-83663000D01*
X101614999Y-83663000D01*
X101590495Y-83661796D01*
X101566227Y-83658196D01*
X101542428Y-83652235D01*
X101519329Y-83643970D01*
X101497150Y-83633480D01*
X101476107Y-83620868D01*
X101456401Y-83606253D01*
X101438223Y-83589777D01*
X101421747Y-83571599D01*
X101407132Y-83551893D01*
X101394520Y-83530850D01*
X101384030Y-83508671D01*
X101375765Y-83485572D01*
X101369804Y-83461773D01*
X101366204Y-83437505D01*
X101365000Y-83413001D01*
X101365000Y-82862999D01*
X101366204Y-82838495D01*
X101369804Y-82814227D01*
X101375765Y-82790428D01*
X101384030Y-82767329D01*
X101394520Y-82745150D01*
X101407132Y-82724107D01*
X101421747Y-82704401D01*
X101438223Y-82686223D01*
X101456401Y-82669747D01*
X101476107Y-82655132D01*
X101497150Y-82642520D01*
X101519329Y-82632030D01*
X101542428Y-82623765D01*
X101566227Y-82617804D01*
X101590495Y-82614204D01*
X101614999Y-82613000D01*
X102165001Y-82613000D01*
X102189505Y-82614204D01*
X102189505Y-82614204D01*
G37*
D16*
X101890000Y-83138000D03*
D10*
G36*
X103758626Y-82463301D02*
G01*
X103764693Y-82464201D01*
X103770643Y-82465691D01*
X103776418Y-82467758D01*
X103781962Y-82470380D01*
X103787223Y-82473533D01*
X103792150Y-82477187D01*
X103796694Y-82481306D01*
X103800813Y-82485850D01*
X103804467Y-82490777D01*
X103807620Y-82496038D01*
X103810242Y-82501582D01*
X103812309Y-82507357D01*
X103813799Y-82513307D01*
X103814699Y-82519374D01*
X103815000Y-82525500D01*
X103815000Y-82650500D01*
X103814699Y-82656626D01*
X103813799Y-82662693D01*
X103812309Y-82668643D01*
X103810242Y-82674418D01*
X103807620Y-82679962D01*
X103804467Y-82685223D01*
X103800813Y-82690150D01*
X103796694Y-82694694D01*
X103792150Y-82698813D01*
X103787223Y-82702467D01*
X103781962Y-82705620D01*
X103776418Y-82708242D01*
X103770643Y-82710309D01*
X103764693Y-82711799D01*
X103758626Y-82712699D01*
X103752500Y-82713000D01*
X102802500Y-82713000D01*
X102796374Y-82712699D01*
X102790307Y-82711799D01*
X102784357Y-82710309D01*
X102778582Y-82708242D01*
X102773038Y-82705620D01*
X102767777Y-82702467D01*
X102762850Y-82698813D01*
X102758306Y-82694694D01*
X102754187Y-82690150D01*
X102750533Y-82685223D01*
X102747380Y-82679962D01*
X102744758Y-82674418D01*
X102742691Y-82668643D01*
X102741201Y-82662693D01*
X102740301Y-82656626D01*
X102740000Y-82650500D01*
X102740000Y-82525500D01*
X102740301Y-82519374D01*
X102741201Y-82513307D01*
X102742691Y-82507357D01*
X102744758Y-82501582D01*
X102747380Y-82496038D01*
X102750533Y-82490777D01*
X102754187Y-82485850D01*
X102758306Y-82481306D01*
X102762850Y-82477187D01*
X102767777Y-82473533D01*
X102773038Y-82470380D01*
X102778582Y-82467758D01*
X102784357Y-82465691D01*
X102790307Y-82464201D01*
X102796374Y-82463301D01*
X102802500Y-82463000D01*
X103752500Y-82463000D01*
X103758626Y-82463301D01*
X103758626Y-82463301D01*
G37*
D17*
X103277500Y-82588000D03*
D10*
G36*
X103758626Y-82963301D02*
G01*
X103764693Y-82964201D01*
X103770643Y-82965691D01*
X103776418Y-82967758D01*
X103781962Y-82970380D01*
X103787223Y-82973533D01*
X103792150Y-82977187D01*
X103796694Y-82981306D01*
X103800813Y-82985850D01*
X103804467Y-82990777D01*
X103807620Y-82996038D01*
X103810242Y-83001582D01*
X103812309Y-83007357D01*
X103813799Y-83013307D01*
X103814699Y-83019374D01*
X103815000Y-83025500D01*
X103815000Y-83150500D01*
X103814699Y-83156626D01*
X103813799Y-83162693D01*
X103812309Y-83168643D01*
X103810242Y-83174418D01*
X103807620Y-83179962D01*
X103804467Y-83185223D01*
X103800813Y-83190150D01*
X103796694Y-83194694D01*
X103792150Y-83198813D01*
X103787223Y-83202467D01*
X103781962Y-83205620D01*
X103776418Y-83208242D01*
X103770643Y-83210309D01*
X103764693Y-83211799D01*
X103758626Y-83212699D01*
X103752500Y-83213000D01*
X102802500Y-83213000D01*
X102796374Y-83212699D01*
X102790307Y-83211799D01*
X102784357Y-83210309D01*
X102778582Y-83208242D01*
X102773038Y-83205620D01*
X102767777Y-83202467D01*
X102762850Y-83198813D01*
X102758306Y-83194694D01*
X102754187Y-83190150D01*
X102750533Y-83185223D01*
X102747380Y-83179962D01*
X102744758Y-83174418D01*
X102742691Y-83168643D01*
X102741201Y-83162693D01*
X102740301Y-83156626D01*
X102740000Y-83150500D01*
X102740000Y-83025500D01*
X102740301Y-83019374D01*
X102741201Y-83013307D01*
X102742691Y-83007357D01*
X102744758Y-83001582D01*
X102747380Y-82996038D01*
X102750533Y-82990777D01*
X102754187Y-82985850D01*
X102758306Y-82981306D01*
X102762850Y-82977187D01*
X102767777Y-82973533D01*
X102773038Y-82970380D01*
X102778582Y-82967758D01*
X102784357Y-82965691D01*
X102790307Y-82964201D01*
X102796374Y-82963301D01*
X102802500Y-82963000D01*
X103752500Y-82963000D01*
X103758626Y-82963301D01*
X103758626Y-82963301D01*
G37*
D17*
X103277500Y-83088000D03*
D10*
G36*
X103758626Y-83463301D02*
G01*
X103764693Y-83464201D01*
X103770643Y-83465691D01*
X103776418Y-83467758D01*
X103781962Y-83470380D01*
X103787223Y-83473533D01*
X103792150Y-83477187D01*
X103796694Y-83481306D01*
X103800813Y-83485850D01*
X103804467Y-83490777D01*
X103807620Y-83496038D01*
X103810242Y-83501582D01*
X103812309Y-83507357D01*
X103813799Y-83513307D01*
X103814699Y-83519374D01*
X103815000Y-83525500D01*
X103815000Y-83650500D01*
X103814699Y-83656626D01*
X103813799Y-83662693D01*
X103812309Y-83668643D01*
X103810242Y-83674418D01*
X103807620Y-83679962D01*
X103804467Y-83685223D01*
X103800813Y-83690150D01*
X103796694Y-83694694D01*
X103792150Y-83698813D01*
X103787223Y-83702467D01*
X103781962Y-83705620D01*
X103776418Y-83708242D01*
X103770643Y-83710309D01*
X103764693Y-83711799D01*
X103758626Y-83712699D01*
X103752500Y-83713000D01*
X102802500Y-83713000D01*
X102796374Y-83712699D01*
X102790307Y-83711799D01*
X102784357Y-83710309D01*
X102778582Y-83708242D01*
X102773038Y-83705620D01*
X102767777Y-83702467D01*
X102762850Y-83698813D01*
X102758306Y-83694694D01*
X102754187Y-83690150D01*
X102750533Y-83685223D01*
X102747380Y-83679962D01*
X102744758Y-83674418D01*
X102742691Y-83668643D01*
X102741201Y-83662693D01*
X102740301Y-83656626D01*
X102740000Y-83650500D01*
X102740000Y-83525500D01*
X102740301Y-83519374D01*
X102741201Y-83513307D01*
X102742691Y-83507357D01*
X102744758Y-83501582D01*
X102747380Y-83496038D01*
X102750533Y-83490777D01*
X102754187Y-83485850D01*
X102758306Y-83481306D01*
X102762850Y-83477187D01*
X102767777Y-83473533D01*
X102773038Y-83470380D01*
X102778582Y-83467758D01*
X102784357Y-83465691D01*
X102790307Y-83464201D01*
X102796374Y-83463301D01*
X102802500Y-83463000D01*
X103752500Y-83463000D01*
X103758626Y-83463301D01*
X103758626Y-83463301D01*
G37*
D17*
X103277500Y-83588000D03*
D10*
G36*
X103758626Y-83963301D02*
G01*
X103764693Y-83964201D01*
X103770643Y-83965691D01*
X103776418Y-83967758D01*
X103781962Y-83970380D01*
X103787223Y-83973533D01*
X103792150Y-83977187D01*
X103796694Y-83981306D01*
X103800813Y-83985850D01*
X103804467Y-83990777D01*
X103807620Y-83996038D01*
X103810242Y-84001582D01*
X103812309Y-84007357D01*
X103813799Y-84013307D01*
X103814699Y-84019374D01*
X103815000Y-84025500D01*
X103815000Y-84150500D01*
X103814699Y-84156626D01*
X103813799Y-84162693D01*
X103812309Y-84168643D01*
X103810242Y-84174418D01*
X103807620Y-84179962D01*
X103804467Y-84185223D01*
X103800813Y-84190150D01*
X103796694Y-84194694D01*
X103792150Y-84198813D01*
X103787223Y-84202467D01*
X103781962Y-84205620D01*
X103776418Y-84208242D01*
X103770643Y-84210309D01*
X103764693Y-84211799D01*
X103758626Y-84212699D01*
X103752500Y-84213000D01*
X102802500Y-84213000D01*
X102796374Y-84212699D01*
X102790307Y-84211799D01*
X102784357Y-84210309D01*
X102778582Y-84208242D01*
X102773038Y-84205620D01*
X102767777Y-84202467D01*
X102762850Y-84198813D01*
X102758306Y-84194694D01*
X102754187Y-84190150D01*
X102750533Y-84185223D01*
X102747380Y-84179962D01*
X102744758Y-84174418D01*
X102742691Y-84168643D01*
X102741201Y-84162693D01*
X102740301Y-84156626D01*
X102740000Y-84150500D01*
X102740000Y-84025500D01*
X102740301Y-84019374D01*
X102741201Y-84013307D01*
X102742691Y-84007357D01*
X102744758Y-84001582D01*
X102747380Y-83996038D01*
X102750533Y-83990777D01*
X102754187Y-83985850D01*
X102758306Y-83981306D01*
X102762850Y-83977187D01*
X102767777Y-83973533D01*
X102773038Y-83970380D01*
X102778582Y-83967758D01*
X102784357Y-83965691D01*
X102790307Y-83964201D01*
X102796374Y-83963301D01*
X102802500Y-83963000D01*
X103752500Y-83963000D01*
X103758626Y-83963301D01*
X103758626Y-83963301D01*
G37*
D17*
X103277500Y-84088000D03*
D10*
G36*
X103758626Y-84463301D02*
G01*
X103764693Y-84464201D01*
X103770643Y-84465691D01*
X103776418Y-84467758D01*
X103781962Y-84470380D01*
X103787223Y-84473533D01*
X103792150Y-84477187D01*
X103796694Y-84481306D01*
X103800813Y-84485850D01*
X103804467Y-84490777D01*
X103807620Y-84496038D01*
X103810242Y-84501582D01*
X103812309Y-84507357D01*
X103813799Y-84513307D01*
X103814699Y-84519374D01*
X103815000Y-84525500D01*
X103815000Y-84650500D01*
X103814699Y-84656626D01*
X103813799Y-84662693D01*
X103812309Y-84668643D01*
X103810242Y-84674418D01*
X103807620Y-84679962D01*
X103804467Y-84685223D01*
X103800813Y-84690150D01*
X103796694Y-84694694D01*
X103792150Y-84698813D01*
X103787223Y-84702467D01*
X103781962Y-84705620D01*
X103776418Y-84708242D01*
X103770643Y-84710309D01*
X103764693Y-84711799D01*
X103758626Y-84712699D01*
X103752500Y-84713000D01*
X102802500Y-84713000D01*
X102796374Y-84712699D01*
X102790307Y-84711799D01*
X102784357Y-84710309D01*
X102778582Y-84708242D01*
X102773038Y-84705620D01*
X102767777Y-84702467D01*
X102762850Y-84698813D01*
X102758306Y-84694694D01*
X102754187Y-84690150D01*
X102750533Y-84685223D01*
X102747380Y-84679962D01*
X102744758Y-84674418D01*
X102742691Y-84668643D01*
X102741201Y-84662693D01*
X102740301Y-84656626D01*
X102740000Y-84650500D01*
X102740000Y-84525500D01*
X102740301Y-84519374D01*
X102741201Y-84513307D01*
X102742691Y-84507357D01*
X102744758Y-84501582D01*
X102747380Y-84496038D01*
X102750533Y-84490777D01*
X102754187Y-84485850D01*
X102758306Y-84481306D01*
X102762850Y-84477187D01*
X102767777Y-84473533D01*
X102773038Y-84470380D01*
X102778582Y-84467758D01*
X102784357Y-84465691D01*
X102790307Y-84464201D01*
X102796374Y-84463301D01*
X102802500Y-84463000D01*
X103752500Y-84463000D01*
X103758626Y-84463301D01*
X103758626Y-84463301D01*
G37*
D17*
X103277500Y-84588000D03*
D10*
G36*
X103758626Y-84963301D02*
G01*
X103764693Y-84964201D01*
X103770643Y-84965691D01*
X103776418Y-84967758D01*
X103781962Y-84970380D01*
X103787223Y-84973533D01*
X103792150Y-84977187D01*
X103796694Y-84981306D01*
X103800813Y-84985850D01*
X103804467Y-84990777D01*
X103807620Y-84996038D01*
X103810242Y-85001582D01*
X103812309Y-85007357D01*
X103813799Y-85013307D01*
X103814699Y-85019374D01*
X103815000Y-85025500D01*
X103815000Y-85150500D01*
X103814699Y-85156626D01*
X103813799Y-85162693D01*
X103812309Y-85168643D01*
X103810242Y-85174418D01*
X103807620Y-85179962D01*
X103804467Y-85185223D01*
X103800813Y-85190150D01*
X103796694Y-85194694D01*
X103792150Y-85198813D01*
X103787223Y-85202467D01*
X103781962Y-85205620D01*
X103776418Y-85208242D01*
X103770643Y-85210309D01*
X103764693Y-85211799D01*
X103758626Y-85212699D01*
X103752500Y-85213000D01*
X102802500Y-85213000D01*
X102796374Y-85212699D01*
X102790307Y-85211799D01*
X102784357Y-85210309D01*
X102778582Y-85208242D01*
X102773038Y-85205620D01*
X102767777Y-85202467D01*
X102762850Y-85198813D01*
X102758306Y-85194694D01*
X102754187Y-85190150D01*
X102750533Y-85185223D01*
X102747380Y-85179962D01*
X102744758Y-85174418D01*
X102742691Y-85168643D01*
X102741201Y-85162693D01*
X102740301Y-85156626D01*
X102740000Y-85150500D01*
X102740000Y-85025500D01*
X102740301Y-85019374D01*
X102741201Y-85013307D01*
X102742691Y-85007357D01*
X102744758Y-85001582D01*
X102747380Y-84996038D01*
X102750533Y-84990777D01*
X102754187Y-84985850D01*
X102758306Y-84981306D01*
X102762850Y-84977187D01*
X102767777Y-84973533D01*
X102773038Y-84970380D01*
X102778582Y-84967758D01*
X102784357Y-84965691D01*
X102790307Y-84964201D01*
X102796374Y-84963301D01*
X102802500Y-84963000D01*
X103752500Y-84963000D01*
X103758626Y-84963301D01*
X103758626Y-84963301D01*
G37*
D17*
X103277500Y-85088000D03*
D10*
G36*
X103758626Y-85463301D02*
G01*
X103764693Y-85464201D01*
X103770643Y-85465691D01*
X103776418Y-85467758D01*
X103781962Y-85470380D01*
X103787223Y-85473533D01*
X103792150Y-85477187D01*
X103796694Y-85481306D01*
X103800813Y-85485850D01*
X103804467Y-85490777D01*
X103807620Y-85496038D01*
X103810242Y-85501582D01*
X103812309Y-85507357D01*
X103813799Y-85513307D01*
X103814699Y-85519374D01*
X103815000Y-85525500D01*
X103815000Y-85650500D01*
X103814699Y-85656626D01*
X103813799Y-85662693D01*
X103812309Y-85668643D01*
X103810242Y-85674418D01*
X103807620Y-85679962D01*
X103804467Y-85685223D01*
X103800813Y-85690150D01*
X103796694Y-85694694D01*
X103792150Y-85698813D01*
X103787223Y-85702467D01*
X103781962Y-85705620D01*
X103776418Y-85708242D01*
X103770643Y-85710309D01*
X103764693Y-85711799D01*
X103758626Y-85712699D01*
X103752500Y-85713000D01*
X102802500Y-85713000D01*
X102796374Y-85712699D01*
X102790307Y-85711799D01*
X102784357Y-85710309D01*
X102778582Y-85708242D01*
X102773038Y-85705620D01*
X102767777Y-85702467D01*
X102762850Y-85698813D01*
X102758306Y-85694694D01*
X102754187Y-85690150D01*
X102750533Y-85685223D01*
X102747380Y-85679962D01*
X102744758Y-85674418D01*
X102742691Y-85668643D01*
X102741201Y-85662693D01*
X102740301Y-85656626D01*
X102740000Y-85650500D01*
X102740000Y-85525500D01*
X102740301Y-85519374D01*
X102741201Y-85513307D01*
X102742691Y-85507357D01*
X102744758Y-85501582D01*
X102747380Y-85496038D01*
X102750533Y-85490777D01*
X102754187Y-85485850D01*
X102758306Y-85481306D01*
X102762850Y-85477187D01*
X102767777Y-85473533D01*
X102773038Y-85470380D01*
X102778582Y-85467758D01*
X102784357Y-85465691D01*
X102790307Y-85464201D01*
X102796374Y-85463301D01*
X102802500Y-85463000D01*
X103752500Y-85463000D01*
X103758626Y-85463301D01*
X103758626Y-85463301D01*
G37*
D17*
X103277500Y-85588000D03*
D10*
G36*
X103758626Y-85963301D02*
G01*
X103764693Y-85964201D01*
X103770643Y-85965691D01*
X103776418Y-85967758D01*
X103781962Y-85970380D01*
X103787223Y-85973533D01*
X103792150Y-85977187D01*
X103796694Y-85981306D01*
X103800813Y-85985850D01*
X103804467Y-85990777D01*
X103807620Y-85996038D01*
X103810242Y-86001582D01*
X103812309Y-86007357D01*
X103813799Y-86013307D01*
X103814699Y-86019374D01*
X103815000Y-86025500D01*
X103815000Y-86150500D01*
X103814699Y-86156626D01*
X103813799Y-86162693D01*
X103812309Y-86168643D01*
X103810242Y-86174418D01*
X103807620Y-86179962D01*
X103804467Y-86185223D01*
X103800813Y-86190150D01*
X103796694Y-86194694D01*
X103792150Y-86198813D01*
X103787223Y-86202467D01*
X103781962Y-86205620D01*
X103776418Y-86208242D01*
X103770643Y-86210309D01*
X103764693Y-86211799D01*
X103758626Y-86212699D01*
X103752500Y-86213000D01*
X102802500Y-86213000D01*
X102796374Y-86212699D01*
X102790307Y-86211799D01*
X102784357Y-86210309D01*
X102778582Y-86208242D01*
X102773038Y-86205620D01*
X102767777Y-86202467D01*
X102762850Y-86198813D01*
X102758306Y-86194694D01*
X102754187Y-86190150D01*
X102750533Y-86185223D01*
X102747380Y-86179962D01*
X102744758Y-86174418D01*
X102742691Y-86168643D01*
X102741201Y-86162693D01*
X102740301Y-86156626D01*
X102740000Y-86150500D01*
X102740000Y-86025500D01*
X102740301Y-86019374D01*
X102741201Y-86013307D01*
X102742691Y-86007357D01*
X102744758Y-86001582D01*
X102747380Y-85996038D01*
X102750533Y-85990777D01*
X102754187Y-85985850D01*
X102758306Y-85981306D01*
X102762850Y-85977187D01*
X102767777Y-85973533D01*
X102773038Y-85970380D01*
X102778582Y-85967758D01*
X102784357Y-85965691D01*
X102790307Y-85964201D01*
X102796374Y-85963301D01*
X102802500Y-85963000D01*
X103752500Y-85963000D01*
X103758626Y-85963301D01*
X103758626Y-85963301D01*
G37*
D17*
X103277500Y-86088000D03*
D10*
G36*
X103758626Y-86463301D02*
G01*
X103764693Y-86464201D01*
X103770643Y-86465691D01*
X103776418Y-86467758D01*
X103781962Y-86470380D01*
X103787223Y-86473533D01*
X103792150Y-86477187D01*
X103796694Y-86481306D01*
X103800813Y-86485850D01*
X103804467Y-86490777D01*
X103807620Y-86496038D01*
X103810242Y-86501582D01*
X103812309Y-86507357D01*
X103813799Y-86513307D01*
X103814699Y-86519374D01*
X103815000Y-86525500D01*
X103815000Y-86650500D01*
X103814699Y-86656626D01*
X103813799Y-86662693D01*
X103812309Y-86668643D01*
X103810242Y-86674418D01*
X103807620Y-86679962D01*
X103804467Y-86685223D01*
X103800813Y-86690150D01*
X103796694Y-86694694D01*
X103792150Y-86698813D01*
X103787223Y-86702467D01*
X103781962Y-86705620D01*
X103776418Y-86708242D01*
X103770643Y-86710309D01*
X103764693Y-86711799D01*
X103758626Y-86712699D01*
X103752500Y-86713000D01*
X102802500Y-86713000D01*
X102796374Y-86712699D01*
X102790307Y-86711799D01*
X102784357Y-86710309D01*
X102778582Y-86708242D01*
X102773038Y-86705620D01*
X102767777Y-86702467D01*
X102762850Y-86698813D01*
X102758306Y-86694694D01*
X102754187Y-86690150D01*
X102750533Y-86685223D01*
X102747380Y-86679962D01*
X102744758Y-86674418D01*
X102742691Y-86668643D01*
X102741201Y-86662693D01*
X102740301Y-86656626D01*
X102740000Y-86650500D01*
X102740000Y-86525500D01*
X102740301Y-86519374D01*
X102741201Y-86513307D01*
X102742691Y-86507357D01*
X102744758Y-86501582D01*
X102747380Y-86496038D01*
X102750533Y-86490777D01*
X102754187Y-86485850D01*
X102758306Y-86481306D01*
X102762850Y-86477187D01*
X102767777Y-86473533D01*
X102773038Y-86470380D01*
X102778582Y-86467758D01*
X102784357Y-86465691D01*
X102790307Y-86464201D01*
X102796374Y-86463301D01*
X102802500Y-86463000D01*
X103752500Y-86463000D01*
X103758626Y-86463301D01*
X103758626Y-86463301D01*
G37*
D17*
X103277500Y-86588000D03*
D10*
G36*
X103758626Y-86963301D02*
G01*
X103764693Y-86964201D01*
X103770643Y-86965691D01*
X103776418Y-86967758D01*
X103781962Y-86970380D01*
X103787223Y-86973533D01*
X103792150Y-86977187D01*
X103796694Y-86981306D01*
X103800813Y-86985850D01*
X103804467Y-86990777D01*
X103807620Y-86996038D01*
X103810242Y-87001582D01*
X103812309Y-87007357D01*
X103813799Y-87013307D01*
X103814699Y-87019374D01*
X103815000Y-87025500D01*
X103815000Y-87150500D01*
X103814699Y-87156626D01*
X103813799Y-87162693D01*
X103812309Y-87168643D01*
X103810242Y-87174418D01*
X103807620Y-87179962D01*
X103804467Y-87185223D01*
X103800813Y-87190150D01*
X103796694Y-87194694D01*
X103792150Y-87198813D01*
X103787223Y-87202467D01*
X103781962Y-87205620D01*
X103776418Y-87208242D01*
X103770643Y-87210309D01*
X103764693Y-87211799D01*
X103758626Y-87212699D01*
X103752500Y-87213000D01*
X102802500Y-87213000D01*
X102796374Y-87212699D01*
X102790307Y-87211799D01*
X102784357Y-87210309D01*
X102778582Y-87208242D01*
X102773038Y-87205620D01*
X102767777Y-87202467D01*
X102762850Y-87198813D01*
X102758306Y-87194694D01*
X102754187Y-87190150D01*
X102750533Y-87185223D01*
X102747380Y-87179962D01*
X102744758Y-87174418D01*
X102742691Y-87168643D01*
X102741201Y-87162693D01*
X102740301Y-87156626D01*
X102740000Y-87150500D01*
X102740000Y-87025500D01*
X102740301Y-87019374D01*
X102741201Y-87013307D01*
X102742691Y-87007357D01*
X102744758Y-87001582D01*
X102747380Y-86996038D01*
X102750533Y-86990777D01*
X102754187Y-86985850D01*
X102758306Y-86981306D01*
X102762850Y-86977187D01*
X102767777Y-86973533D01*
X102773038Y-86970380D01*
X102778582Y-86967758D01*
X102784357Y-86965691D01*
X102790307Y-86964201D01*
X102796374Y-86963301D01*
X102802500Y-86963000D01*
X103752500Y-86963000D01*
X103758626Y-86963301D01*
X103758626Y-86963301D01*
G37*
D17*
X103277500Y-87088000D03*
D10*
G36*
X103758626Y-87463301D02*
G01*
X103764693Y-87464201D01*
X103770643Y-87465691D01*
X103776418Y-87467758D01*
X103781962Y-87470380D01*
X103787223Y-87473533D01*
X103792150Y-87477187D01*
X103796694Y-87481306D01*
X103800813Y-87485850D01*
X103804467Y-87490777D01*
X103807620Y-87496038D01*
X103810242Y-87501582D01*
X103812309Y-87507357D01*
X103813799Y-87513307D01*
X103814699Y-87519374D01*
X103815000Y-87525500D01*
X103815000Y-87650500D01*
X103814699Y-87656626D01*
X103813799Y-87662693D01*
X103812309Y-87668643D01*
X103810242Y-87674418D01*
X103807620Y-87679962D01*
X103804467Y-87685223D01*
X103800813Y-87690150D01*
X103796694Y-87694694D01*
X103792150Y-87698813D01*
X103787223Y-87702467D01*
X103781962Y-87705620D01*
X103776418Y-87708242D01*
X103770643Y-87710309D01*
X103764693Y-87711799D01*
X103758626Y-87712699D01*
X103752500Y-87713000D01*
X102802500Y-87713000D01*
X102796374Y-87712699D01*
X102790307Y-87711799D01*
X102784357Y-87710309D01*
X102778582Y-87708242D01*
X102773038Y-87705620D01*
X102767777Y-87702467D01*
X102762850Y-87698813D01*
X102758306Y-87694694D01*
X102754187Y-87690150D01*
X102750533Y-87685223D01*
X102747380Y-87679962D01*
X102744758Y-87674418D01*
X102742691Y-87668643D01*
X102741201Y-87662693D01*
X102740301Y-87656626D01*
X102740000Y-87650500D01*
X102740000Y-87525500D01*
X102740301Y-87519374D01*
X102741201Y-87513307D01*
X102742691Y-87507357D01*
X102744758Y-87501582D01*
X102747380Y-87496038D01*
X102750533Y-87490777D01*
X102754187Y-87485850D01*
X102758306Y-87481306D01*
X102762850Y-87477187D01*
X102767777Y-87473533D01*
X102773038Y-87470380D01*
X102778582Y-87467758D01*
X102784357Y-87465691D01*
X102790307Y-87464201D01*
X102796374Y-87463301D01*
X102802500Y-87463000D01*
X103752500Y-87463000D01*
X103758626Y-87463301D01*
X103758626Y-87463301D01*
G37*
D17*
X103277500Y-87588000D03*
D10*
G36*
X102508626Y-87888301D02*
G01*
X102514693Y-87889201D01*
X102520643Y-87890691D01*
X102526418Y-87892758D01*
X102531962Y-87895380D01*
X102537223Y-87898533D01*
X102542150Y-87902187D01*
X102546694Y-87906306D01*
X102550813Y-87910850D01*
X102554467Y-87915777D01*
X102557620Y-87921038D01*
X102560242Y-87926582D01*
X102562309Y-87932357D01*
X102563799Y-87938307D01*
X102564699Y-87944374D01*
X102565000Y-87950500D01*
X102565000Y-88900500D01*
X102564699Y-88906626D01*
X102563799Y-88912693D01*
X102562309Y-88918643D01*
X102560242Y-88924418D01*
X102557620Y-88929962D01*
X102554467Y-88935223D01*
X102550813Y-88940150D01*
X102546694Y-88944694D01*
X102542150Y-88948813D01*
X102537223Y-88952467D01*
X102531962Y-88955620D01*
X102526418Y-88958242D01*
X102520643Y-88960309D01*
X102514693Y-88961799D01*
X102508626Y-88962699D01*
X102502500Y-88963000D01*
X102377500Y-88963000D01*
X102371374Y-88962699D01*
X102365307Y-88961799D01*
X102359357Y-88960309D01*
X102353582Y-88958242D01*
X102348038Y-88955620D01*
X102342777Y-88952467D01*
X102337850Y-88948813D01*
X102333306Y-88944694D01*
X102329187Y-88940150D01*
X102325533Y-88935223D01*
X102322380Y-88929962D01*
X102319758Y-88924418D01*
X102317691Y-88918643D01*
X102316201Y-88912693D01*
X102315301Y-88906626D01*
X102315000Y-88900500D01*
X102315000Y-87950500D01*
X102315301Y-87944374D01*
X102316201Y-87938307D01*
X102317691Y-87932357D01*
X102319758Y-87926582D01*
X102322380Y-87921038D01*
X102325533Y-87915777D01*
X102329187Y-87910850D01*
X102333306Y-87906306D01*
X102337850Y-87902187D01*
X102342777Y-87898533D01*
X102348038Y-87895380D01*
X102353582Y-87892758D01*
X102359357Y-87890691D01*
X102365307Y-87889201D01*
X102371374Y-87888301D01*
X102377500Y-87888000D01*
X102502500Y-87888000D01*
X102508626Y-87888301D01*
X102508626Y-87888301D01*
G37*
D17*
X102440000Y-88425500D03*
D10*
G36*
X102008626Y-87888301D02*
G01*
X102014693Y-87889201D01*
X102020643Y-87890691D01*
X102026418Y-87892758D01*
X102031962Y-87895380D01*
X102037223Y-87898533D01*
X102042150Y-87902187D01*
X102046694Y-87906306D01*
X102050813Y-87910850D01*
X102054467Y-87915777D01*
X102057620Y-87921038D01*
X102060242Y-87926582D01*
X102062309Y-87932357D01*
X102063799Y-87938307D01*
X102064699Y-87944374D01*
X102065000Y-87950500D01*
X102065000Y-88900500D01*
X102064699Y-88906626D01*
X102063799Y-88912693D01*
X102062309Y-88918643D01*
X102060242Y-88924418D01*
X102057620Y-88929962D01*
X102054467Y-88935223D01*
X102050813Y-88940150D01*
X102046694Y-88944694D01*
X102042150Y-88948813D01*
X102037223Y-88952467D01*
X102031962Y-88955620D01*
X102026418Y-88958242D01*
X102020643Y-88960309D01*
X102014693Y-88961799D01*
X102008626Y-88962699D01*
X102002500Y-88963000D01*
X101877500Y-88963000D01*
X101871374Y-88962699D01*
X101865307Y-88961799D01*
X101859357Y-88960309D01*
X101853582Y-88958242D01*
X101848038Y-88955620D01*
X101842777Y-88952467D01*
X101837850Y-88948813D01*
X101833306Y-88944694D01*
X101829187Y-88940150D01*
X101825533Y-88935223D01*
X101822380Y-88929962D01*
X101819758Y-88924418D01*
X101817691Y-88918643D01*
X101816201Y-88912693D01*
X101815301Y-88906626D01*
X101815000Y-88900500D01*
X101815000Y-87950500D01*
X101815301Y-87944374D01*
X101816201Y-87938307D01*
X101817691Y-87932357D01*
X101819758Y-87926582D01*
X101822380Y-87921038D01*
X101825533Y-87915777D01*
X101829187Y-87910850D01*
X101833306Y-87906306D01*
X101837850Y-87902187D01*
X101842777Y-87898533D01*
X101848038Y-87895380D01*
X101853582Y-87892758D01*
X101859357Y-87890691D01*
X101865307Y-87889201D01*
X101871374Y-87888301D01*
X101877500Y-87888000D01*
X102002500Y-87888000D01*
X102008626Y-87888301D01*
X102008626Y-87888301D01*
G37*
D17*
X101940000Y-88425500D03*
D10*
G36*
X101508626Y-87888301D02*
G01*
X101514693Y-87889201D01*
X101520643Y-87890691D01*
X101526418Y-87892758D01*
X101531962Y-87895380D01*
X101537223Y-87898533D01*
X101542150Y-87902187D01*
X101546694Y-87906306D01*
X101550813Y-87910850D01*
X101554467Y-87915777D01*
X101557620Y-87921038D01*
X101560242Y-87926582D01*
X101562309Y-87932357D01*
X101563799Y-87938307D01*
X101564699Y-87944374D01*
X101565000Y-87950500D01*
X101565000Y-88900500D01*
X101564699Y-88906626D01*
X101563799Y-88912693D01*
X101562309Y-88918643D01*
X101560242Y-88924418D01*
X101557620Y-88929962D01*
X101554467Y-88935223D01*
X101550813Y-88940150D01*
X101546694Y-88944694D01*
X101542150Y-88948813D01*
X101537223Y-88952467D01*
X101531962Y-88955620D01*
X101526418Y-88958242D01*
X101520643Y-88960309D01*
X101514693Y-88961799D01*
X101508626Y-88962699D01*
X101502500Y-88963000D01*
X101377500Y-88963000D01*
X101371374Y-88962699D01*
X101365307Y-88961799D01*
X101359357Y-88960309D01*
X101353582Y-88958242D01*
X101348038Y-88955620D01*
X101342777Y-88952467D01*
X101337850Y-88948813D01*
X101333306Y-88944694D01*
X101329187Y-88940150D01*
X101325533Y-88935223D01*
X101322380Y-88929962D01*
X101319758Y-88924418D01*
X101317691Y-88918643D01*
X101316201Y-88912693D01*
X101315301Y-88906626D01*
X101315000Y-88900500D01*
X101315000Y-87950500D01*
X101315301Y-87944374D01*
X101316201Y-87938307D01*
X101317691Y-87932357D01*
X101319758Y-87926582D01*
X101322380Y-87921038D01*
X101325533Y-87915777D01*
X101329187Y-87910850D01*
X101333306Y-87906306D01*
X101337850Y-87902187D01*
X101342777Y-87898533D01*
X101348038Y-87895380D01*
X101353582Y-87892758D01*
X101359357Y-87890691D01*
X101365307Y-87889201D01*
X101371374Y-87888301D01*
X101377500Y-87888000D01*
X101502500Y-87888000D01*
X101508626Y-87888301D01*
X101508626Y-87888301D01*
G37*
D17*
X101440000Y-88425500D03*
D10*
G36*
X101008626Y-87888301D02*
G01*
X101014693Y-87889201D01*
X101020643Y-87890691D01*
X101026418Y-87892758D01*
X101031962Y-87895380D01*
X101037223Y-87898533D01*
X101042150Y-87902187D01*
X101046694Y-87906306D01*
X101050813Y-87910850D01*
X101054467Y-87915777D01*
X101057620Y-87921038D01*
X101060242Y-87926582D01*
X101062309Y-87932357D01*
X101063799Y-87938307D01*
X101064699Y-87944374D01*
X101065000Y-87950500D01*
X101065000Y-88900500D01*
X101064699Y-88906626D01*
X101063799Y-88912693D01*
X101062309Y-88918643D01*
X101060242Y-88924418D01*
X101057620Y-88929962D01*
X101054467Y-88935223D01*
X101050813Y-88940150D01*
X101046694Y-88944694D01*
X101042150Y-88948813D01*
X101037223Y-88952467D01*
X101031962Y-88955620D01*
X101026418Y-88958242D01*
X101020643Y-88960309D01*
X101014693Y-88961799D01*
X101008626Y-88962699D01*
X101002500Y-88963000D01*
X100877500Y-88963000D01*
X100871374Y-88962699D01*
X100865307Y-88961799D01*
X100859357Y-88960309D01*
X100853582Y-88958242D01*
X100848038Y-88955620D01*
X100842777Y-88952467D01*
X100837850Y-88948813D01*
X100833306Y-88944694D01*
X100829187Y-88940150D01*
X100825533Y-88935223D01*
X100822380Y-88929962D01*
X100819758Y-88924418D01*
X100817691Y-88918643D01*
X100816201Y-88912693D01*
X100815301Y-88906626D01*
X100815000Y-88900500D01*
X100815000Y-87950500D01*
X100815301Y-87944374D01*
X100816201Y-87938307D01*
X100817691Y-87932357D01*
X100819758Y-87926582D01*
X100822380Y-87921038D01*
X100825533Y-87915777D01*
X100829187Y-87910850D01*
X100833306Y-87906306D01*
X100837850Y-87902187D01*
X100842777Y-87898533D01*
X100848038Y-87895380D01*
X100853582Y-87892758D01*
X100859357Y-87890691D01*
X100865307Y-87889201D01*
X100871374Y-87888301D01*
X100877500Y-87888000D01*
X101002500Y-87888000D01*
X101008626Y-87888301D01*
X101008626Y-87888301D01*
G37*
D17*
X100940000Y-88425500D03*
D10*
G36*
X100508626Y-87888301D02*
G01*
X100514693Y-87889201D01*
X100520643Y-87890691D01*
X100526418Y-87892758D01*
X100531962Y-87895380D01*
X100537223Y-87898533D01*
X100542150Y-87902187D01*
X100546694Y-87906306D01*
X100550813Y-87910850D01*
X100554467Y-87915777D01*
X100557620Y-87921038D01*
X100560242Y-87926582D01*
X100562309Y-87932357D01*
X100563799Y-87938307D01*
X100564699Y-87944374D01*
X100565000Y-87950500D01*
X100565000Y-88900500D01*
X100564699Y-88906626D01*
X100563799Y-88912693D01*
X100562309Y-88918643D01*
X100560242Y-88924418D01*
X100557620Y-88929962D01*
X100554467Y-88935223D01*
X100550813Y-88940150D01*
X100546694Y-88944694D01*
X100542150Y-88948813D01*
X100537223Y-88952467D01*
X100531962Y-88955620D01*
X100526418Y-88958242D01*
X100520643Y-88960309D01*
X100514693Y-88961799D01*
X100508626Y-88962699D01*
X100502500Y-88963000D01*
X100377500Y-88963000D01*
X100371374Y-88962699D01*
X100365307Y-88961799D01*
X100359357Y-88960309D01*
X100353582Y-88958242D01*
X100348038Y-88955620D01*
X100342777Y-88952467D01*
X100337850Y-88948813D01*
X100333306Y-88944694D01*
X100329187Y-88940150D01*
X100325533Y-88935223D01*
X100322380Y-88929962D01*
X100319758Y-88924418D01*
X100317691Y-88918643D01*
X100316201Y-88912693D01*
X100315301Y-88906626D01*
X100315000Y-88900500D01*
X100315000Y-87950500D01*
X100315301Y-87944374D01*
X100316201Y-87938307D01*
X100317691Y-87932357D01*
X100319758Y-87926582D01*
X100322380Y-87921038D01*
X100325533Y-87915777D01*
X100329187Y-87910850D01*
X100333306Y-87906306D01*
X100337850Y-87902187D01*
X100342777Y-87898533D01*
X100348038Y-87895380D01*
X100353582Y-87892758D01*
X100359357Y-87890691D01*
X100365307Y-87889201D01*
X100371374Y-87888301D01*
X100377500Y-87888000D01*
X100502500Y-87888000D01*
X100508626Y-87888301D01*
X100508626Y-87888301D01*
G37*
D17*
X100440000Y-88425500D03*
D10*
G36*
X100008626Y-87888301D02*
G01*
X100014693Y-87889201D01*
X100020643Y-87890691D01*
X100026418Y-87892758D01*
X100031962Y-87895380D01*
X100037223Y-87898533D01*
X100042150Y-87902187D01*
X100046694Y-87906306D01*
X100050813Y-87910850D01*
X100054467Y-87915777D01*
X100057620Y-87921038D01*
X100060242Y-87926582D01*
X100062309Y-87932357D01*
X100063799Y-87938307D01*
X100064699Y-87944374D01*
X100065000Y-87950500D01*
X100065000Y-88900500D01*
X100064699Y-88906626D01*
X100063799Y-88912693D01*
X100062309Y-88918643D01*
X100060242Y-88924418D01*
X100057620Y-88929962D01*
X100054467Y-88935223D01*
X100050813Y-88940150D01*
X100046694Y-88944694D01*
X100042150Y-88948813D01*
X100037223Y-88952467D01*
X100031962Y-88955620D01*
X100026418Y-88958242D01*
X100020643Y-88960309D01*
X100014693Y-88961799D01*
X100008626Y-88962699D01*
X100002500Y-88963000D01*
X99877500Y-88963000D01*
X99871374Y-88962699D01*
X99865307Y-88961799D01*
X99859357Y-88960309D01*
X99853582Y-88958242D01*
X99848038Y-88955620D01*
X99842777Y-88952467D01*
X99837850Y-88948813D01*
X99833306Y-88944694D01*
X99829187Y-88940150D01*
X99825533Y-88935223D01*
X99822380Y-88929962D01*
X99819758Y-88924418D01*
X99817691Y-88918643D01*
X99816201Y-88912693D01*
X99815301Y-88906626D01*
X99815000Y-88900500D01*
X99815000Y-87950500D01*
X99815301Y-87944374D01*
X99816201Y-87938307D01*
X99817691Y-87932357D01*
X99819758Y-87926582D01*
X99822380Y-87921038D01*
X99825533Y-87915777D01*
X99829187Y-87910850D01*
X99833306Y-87906306D01*
X99837850Y-87902187D01*
X99842777Y-87898533D01*
X99848038Y-87895380D01*
X99853582Y-87892758D01*
X99859357Y-87890691D01*
X99865307Y-87889201D01*
X99871374Y-87888301D01*
X99877500Y-87888000D01*
X100002500Y-87888000D01*
X100008626Y-87888301D01*
X100008626Y-87888301D01*
G37*
D17*
X99940000Y-88425500D03*
D10*
G36*
X99508626Y-87888301D02*
G01*
X99514693Y-87889201D01*
X99520643Y-87890691D01*
X99526418Y-87892758D01*
X99531962Y-87895380D01*
X99537223Y-87898533D01*
X99542150Y-87902187D01*
X99546694Y-87906306D01*
X99550813Y-87910850D01*
X99554467Y-87915777D01*
X99557620Y-87921038D01*
X99560242Y-87926582D01*
X99562309Y-87932357D01*
X99563799Y-87938307D01*
X99564699Y-87944374D01*
X99565000Y-87950500D01*
X99565000Y-88900500D01*
X99564699Y-88906626D01*
X99563799Y-88912693D01*
X99562309Y-88918643D01*
X99560242Y-88924418D01*
X99557620Y-88929962D01*
X99554467Y-88935223D01*
X99550813Y-88940150D01*
X99546694Y-88944694D01*
X99542150Y-88948813D01*
X99537223Y-88952467D01*
X99531962Y-88955620D01*
X99526418Y-88958242D01*
X99520643Y-88960309D01*
X99514693Y-88961799D01*
X99508626Y-88962699D01*
X99502500Y-88963000D01*
X99377500Y-88963000D01*
X99371374Y-88962699D01*
X99365307Y-88961799D01*
X99359357Y-88960309D01*
X99353582Y-88958242D01*
X99348038Y-88955620D01*
X99342777Y-88952467D01*
X99337850Y-88948813D01*
X99333306Y-88944694D01*
X99329187Y-88940150D01*
X99325533Y-88935223D01*
X99322380Y-88929962D01*
X99319758Y-88924418D01*
X99317691Y-88918643D01*
X99316201Y-88912693D01*
X99315301Y-88906626D01*
X99315000Y-88900500D01*
X99315000Y-87950500D01*
X99315301Y-87944374D01*
X99316201Y-87938307D01*
X99317691Y-87932357D01*
X99319758Y-87926582D01*
X99322380Y-87921038D01*
X99325533Y-87915777D01*
X99329187Y-87910850D01*
X99333306Y-87906306D01*
X99337850Y-87902187D01*
X99342777Y-87898533D01*
X99348038Y-87895380D01*
X99353582Y-87892758D01*
X99359357Y-87890691D01*
X99365307Y-87889201D01*
X99371374Y-87888301D01*
X99377500Y-87888000D01*
X99502500Y-87888000D01*
X99508626Y-87888301D01*
X99508626Y-87888301D01*
G37*
D17*
X99440000Y-88425500D03*
D10*
G36*
X99008626Y-87888301D02*
G01*
X99014693Y-87889201D01*
X99020643Y-87890691D01*
X99026418Y-87892758D01*
X99031962Y-87895380D01*
X99037223Y-87898533D01*
X99042150Y-87902187D01*
X99046694Y-87906306D01*
X99050813Y-87910850D01*
X99054467Y-87915777D01*
X99057620Y-87921038D01*
X99060242Y-87926582D01*
X99062309Y-87932357D01*
X99063799Y-87938307D01*
X99064699Y-87944374D01*
X99065000Y-87950500D01*
X99065000Y-88900500D01*
X99064699Y-88906626D01*
X99063799Y-88912693D01*
X99062309Y-88918643D01*
X99060242Y-88924418D01*
X99057620Y-88929962D01*
X99054467Y-88935223D01*
X99050813Y-88940150D01*
X99046694Y-88944694D01*
X99042150Y-88948813D01*
X99037223Y-88952467D01*
X99031962Y-88955620D01*
X99026418Y-88958242D01*
X99020643Y-88960309D01*
X99014693Y-88961799D01*
X99008626Y-88962699D01*
X99002500Y-88963000D01*
X98877500Y-88963000D01*
X98871374Y-88962699D01*
X98865307Y-88961799D01*
X98859357Y-88960309D01*
X98853582Y-88958242D01*
X98848038Y-88955620D01*
X98842777Y-88952467D01*
X98837850Y-88948813D01*
X98833306Y-88944694D01*
X98829187Y-88940150D01*
X98825533Y-88935223D01*
X98822380Y-88929962D01*
X98819758Y-88924418D01*
X98817691Y-88918643D01*
X98816201Y-88912693D01*
X98815301Y-88906626D01*
X98815000Y-88900500D01*
X98815000Y-87950500D01*
X98815301Y-87944374D01*
X98816201Y-87938307D01*
X98817691Y-87932357D01*
X98819758Y-87926582D01*
X98822380Y-87921038D01*
X98825533Y-87915777D01*
X98829187Y-87910850D01*
X98833306Y-87906306D01*
X98837850Y-87902187D01*
X98842777Y-87898533D01*
X98848038Y-87895380D01*
X98853582Y-87892758D01*
X98859357Y-87890691D01*
X98865307Y-87889201D01*
X98871374Y-87888301D01*
X98877500Y-87888000D01*
X99002500Y-87888000D01*
X99008626Y-87888301D01*
X99008626Y-87888301D01*
G37*
D17*
X98940000Y-88425500D03*
D10*
G36*
X98508626Y-87888301D02*
G01*
X98514693Y-87889201D01*
X98520643Y-87890691D01*
X98526418Y-87892758D01*
X98531962Y-87895380D01*
X98537223Y-87898533D01*
X98542150Y-87902187D01*
X98546694Y-87906306D01*
X98550813Y-87910850D01*
X98554467Y-87915777D01*
X98557620Y-87921038D01*
X98560242Y-87926582D01*
X98562309Y-87932357D01*
X98563799Y-87938307D01*
X98564699Y-87944374D01*
X98565000Y-87950500D01*
X98565000Y-88900500D01*
X98564699Y-88906626D01*
X98563799Y-88912693D01*
X98562309Y-88918643D01*
X98560242Y-88924418D01*
X98557620Y-88929962D01*
X98554467Y-88935223D01*
X98550813Y-88940150D01*
X98546694Y-88944694D01*
X98542150Y-88948813D01*
X98537223Y-88952467D01*
X98531962Y-88955620D01*
X98526418Y-88958242D01*
X98520643Y-88960309D01*
X98514693Y-88961799D01*
X98508626Y-88962699D01*
X98502500Y-88963000D01*
X98377500Y-88963000D01*
X98371374Y-88962699D01*
X98365307Y-88961799D01*
X98359357Y-88960309D01*
X98353582Y-88958242D01*
X98348038Y-88955620D01*
X98342777Y-88952467D01*
X98337850Y-88948813D01*
X98333306Y-88944694D01*
X98329187Y-88940150D01*
X98325533Y-88935223D01*
X98322380Y-88929962D01*
X98319758Y-88924418D01*
X98317691Y-88918643D01*
X98316201Y-88912693D01*
X98315301Y-88906626D01*
X98315000Y-88900500D01*
X98315000Y-87950500D01*
X98315301Y-87944374D01*
X98316201Y-87938307D01*
X98317691Y-87932357D01*
X98319758Y-87926582D01*
X98322380Y-87921038D01*
X98325533Y-87915777D01*
X98329187Y-87910850D01*
X98333306Y-87906306D01*
X98337850Y-87902187D01*
X98342777Y-87898533D01*
X98348038Y-87895380D01*
X98353582Y-87892758D01*
X98359357Y-87890691D01*
X98365307Y-87889201D01*
X98371374Y-87888301D01*
X98377500Y-87888000D01*
X98502500Y-87888000D01*
X98508626Y-87888301D01*
X98508626Y-87888301D01*
G37*
D17*
X98440000Y-88425500D03*
D10*
G36*
X98008626Y-87888301D02*
G01*
X98014693Y-87889201D01*
X98020643Y-87890691D01*
X98026418Y-87892758D01*
X98031962Y-87895380D01*
X98037223Y-87898533D01*
X98042150Y-87902187D01*
X98046694Y-87906306D01*
X98050813Y-87910850D01*
X98054467Y-87915777D01*
X98057620Y-87921038D01*
X98060242Y-87926582D01*
X98062309Y-87932357D01*
X98063799Y-87938307D01*
X98064699Y-87944374D01*
X98065000Y-87950500D01*
X98065000Y-88900500D01*
X98064699Y-88906626D01*
X98063799Y-88912693D01*
X98062309Y-88918643D01*
X98060242Y-88924418D01*
X98057620Y-88929962D01*
X98054467Y-88935223D01*
X98050813Y-88940150D01*
X98046694Y-88944694D01*
X98042150Y-88948813D01*
X98037223Y-88952467D01*
X98031962Y-88955620D01*
X98026418Y-88958242D01*
X98020643Y-88960309D01*
X98014693Y-88961799D01*
X98008626Y-88962699D01*
X98002500Y-88963000D01*
X97877500Y-88963000D01*
X97871374Y-88962699D01*
X97865307Y-88961799D01*
X97859357Y-88960309D01*
X97853582Y-88958242D01*
X97848038Y-88955620D01*
X97842777Y-88952467D01*
X97837850Y-88948813D01*
X97833306Y-88944694D01*
X97829187Y-88940150D01*
X97825533Y-88935223D01*
X97822380Y-88929962D01*
X97819758Y-88924418D01*
X97817691Y-88918643D01*
X97816201Y-88912693D01*
X97815301Y-88906626D01*
X97815000Y-88900500D01*
X97815000Y-87950500D01*
X97815301Y-87944374D01*
X97816201Y-87938307D01*
X97817691Y-87932357D01*
X97819758Y-87926582D01*
X97822380Y-87921038D01*
X97825533Y-87915777D01*
X97829187Y-87910850D01*
X97833306Y-87906306D01*
X97837850Y-87902187D01*
X97842777Y-87898533D01*
X97848038Y-87895380D01*
X97853582Y-87892758D01*
X97859357Y-87890691D01*
X97865307Y-87889201D01*
X97871374Y-87888301D01*
X97877500Y-87888000D01*
X98002500Y-87888000D01*
X98008626Y-87888301D01*
X98008626Y-87888301D01*
G37*
D17*
X97940000Y-88425500D03*
D10*
G36*
X97508626Y-87888301D02*
G01*
X97514693Y-87889201D01*
X97520643Y-87890691D01*
X97526418Y-87892758D01*
X97531962Y-87895380D01*
X97537223Y-87898533D01*
X97542150Y-87902187D01*
X97546694Y-87906306D01*
X97550813Y-87910850D01*
X97554467Y-87915777D01*
X97557620Y-87921038D01*
X97560242Y-87926582D01*
X97562309Y-87932357D01*
X97563799Y-87938307D01*
X97564699Y-87944374D01*
X97565000Y-87950500D01*
X97565000Y-88900500D01*
X97564699Y-88906626D01*
X97563799Y-88912693D01*
X97562309Y-88918643D01*
X97560242Y-88924418D01*
X97557620Y-88929962D01*
X97554467Y-88935223D01*
X97550813Y-88940150D01*
X97546694Y-88944694D01*
X97542150Y-88948813D01*
X97537223Y-88952467D01*
X97531962Y-88955620D01*
X97526418Y-88958242D01*
X97520643Y-88960309D01*
X97514693Y-88961799D01*
X97508626Y-88962699D01*
X97502500Y-88963000D01*
X97377500Y-88963000D01*
X97371374Y-88962699D01*
X97365307Y-88961799D01*
X97359357Y-88960309D01*
X97353582Y-88958242D01*
X97348038Y-88955620D01*
X97342777Y-88952467D01*
X97337850Y-88948813D01*
X97333306Y-88944694D01*
X97329187Y-88940150D01*
X97325533Y-88935223D01*
X97322380Y-88929962D01*
X97319758Y-88924418D01*
X97317691Y-88918643D01*
X97316201Y-88912693D01*
X97315301Y-88906626D01*
X97315000Y-88900500D01*
X97315000Y-87950500D01*
X97315301Y-87944374D01*
X97316201Y-87938307D01*
X97317691Y-87932357D01*
X97319758Y-87926582D01*
X97322380Y-87921038D01*
X97325533Y-87915777D01*
X97329187Y-87910850D01*
X97333306Y-87906306D01*
X97337850Y-87902187D01*
X97342777Y-87898533D01*
X97348038Y-87895380D01*
X97353582Y-87892758D01*
X97359357Y-87890691D01*
X97365307Y-87889201D01*
X97371374Y-87888301D01*
X97377500Y-87888000D01*
X97502500Y-87888000D01*
X97508626Y-87888301D01*
X97508626Y-87888301D01*
G37*
D17*
X97440000Y-88425500D03*
D10*
G36*
X97083626Y-87463301D02*
G01*
X97089693Y-87464201D01*
X97095643Y-87465691D01*
X97101418Y-87467758D01*
X97106962Y-87470380D01*
X97112223Y-87473533D01*
X97117150Y-87477187D01*
X97121694Y-87481306D01*
X97125813Y-87485850D01*
X97129467Y-87490777D01*
X97132620Y-87496038D01*
X97135242Y-87501582D01*
X97137309Y-87507357D01*
X97138799Y-87513307D01*
X97139699Y-87519374D01*
X97140000Y-87525500D01*
X97140000Y-87650500D01*
X97139699Y-87656626D01*
X97138799Y-87662693D01*
X97137309Y-87668643D01*
X97135242Y-87674418D01*
X97132620Y-87679962D01*
X97129467Y-87685223D01*
X97125813Y-87690150D01*
X97121694Y-87694694D01*
X97117150Y-87698813D01*
X97112223Y-87702467D01*
X97106962Y-87705620D01*
X97101418Y-87708242D01*
X97095643Y-87710309D01*
X97089693Y-87711799D01*
X97083626Y-87712699D01*
X97077500Y-87713000D01*
X96127500Y-87713000D01*
X96121374Y-87712699D01*
X96115307Y-87711799D01*
X96109357Y-87710309D01*
X96103582Y-87708242D01*
X96098038Y-87705620D01*
X96092777Y-87702467D01*
X96087850Y-87698813D01*
X96083306Y-87694694D01*
X96079187Y-87690150D01*
X96075533Y-87685223D01*
X96072380Y-87679962D01*
X96069758Y-87674418D01*
X96067691Y-87668643D01*
X96066201Y-87662693D01*
X96065301Y-87656626D01*
X96065000Y-87650500D01*
X96065000Y-87525500D01*
X96065301Y-87519374D01*
X96066201Y-87513307D01*
X96067691Y-87507357D01*
X96069758Y-87501582D01*
X96072380Y-87496038D01*
X96075533Y-87490777D01*
X96079187Y-87485850D01*
X96083306Y-87481306D01*
X96087850Y-87477187D01*
X96092777Y-87473533D01*
X96098038Y-87470380D01*
X96103582Y-87467758D01*
X96109357Y-87465691D01*
X96115307Y-87464201D01*
X96121374Y-87463301D01*
X96127500Y-87463000D01*
X97077500Y-87463000D01*
X97083626Y-87463301D01*
X97083626Y-87463301D01*
G37*
D17*
X96602500Y-87588000D03*
D10*
G36*
X97083626Y-86963301D02*
G01*
X97089693Y-86964201D01*
X97095643Y-86965691D01*
X97101418Y-86967758D01*
X97106962Y-86970380D01*
X97112223Y-86973533D01*
X97117150Y-86977187D01*
X97121694Y-86981306D01*
X97125813Y-86985850D01*
X97129467Y-86990777D01*
X97132620Y-86996038D01*
X97135242Y-87001582D01*
X97137309Y-87007357D01*
X97138799Y-87013307D01*
X97139699Y-87019374D01*
X97140000Y-87025500D01*
X97140000Y-87150500D01*
X97139699Y-87156626D01*
X97138799Y-87162693D01*
X97137309Y-87168643D01*
X97135242Y-87174418D01*
X97132620Y-87179962D01*
X97129467Y-87185223D01*
X97125813Y-87190150D01*
X97121694Y-87194694D01*
X97117150Y-87198813D01*
X97112223Y-87202467D01*
X97106962Y-87205620D01*
X97101418Y-87208242D01*
X97095643Y-87210309D01*
X97089693Y-87211799D01*
X97083626Y-87212699D01*
X97077500Y-87213000D01*
X96127500Y-87213000D01*
X96121374Y-87212699D01*
X96115307Y-87211799D01*
X96109357Y-87210309D01*
X96103582Y-87208242D01*
X96098038Y-87205620D01*
X96092777Y-87202467D01*
X96087850Y-87198813D01*
X96083306Y-87194694D01*
X96079187Y-87190150D01*
X96075533Y-87185223D01*
X96072380Y-87179962D01*
X96069758Y-87174418D01*
X96067691Y-87168643D01*
X96066201Y-87162693D01*
X96065301Y-87156626D01*
X96065000Y-87150500D01*
X96065000Y-87025500D01*
X96065301Y-87019374D01*
X96066201Y-87013307D01*
X96067691Y-87007357D01*
X96069758Y-87001582D01*
X96072380Y-86996038D01*
X96075533Y-86990777D01*
X96079187Y-86985850D01*
X96083306Y-86981306D01*
X96087850Y-86977187D01*
X96092777Y-86973533D01*
X96098038Y-86970380D01*
X96103582Y-86967758D01*
X96109357Y-86965691D01*
X96115307Y-86964201D01*
X96121374Y-86963301D01*
X96127500Y-86963000D01*
X97077500Y-86963000D01*
X97083626Y-86963301D01*
X97083626Y-86963301D01*
G37*
D17*
X96602500Y-87088000D03*
D10*
G36*
X97083626Y-86463301D02*
G01*
X97089693Y-86464201D01*
X97095643Y-86465691D01*
X97101418Y-86467758D01*
X97106962Y-86470380D01*
X97112223Y-86473533D01*
X97117150Y-86477187D01*
X97121694Y-86481306D01*
X97125813Y-86485850D01*
X97129467Y-86490777D01*
X97132620Y-86496038D01*
X97135242Y-86501582D01*
X97137309Y-86507357D01*
X97138799Y-86513307D01*
X97139699Y-86519374D01*
X97140000Y-86525500D01*
X97140000Y-86650500D01*
X97139699Y-86656626D01*
X97138799Y-86662693D01*
X97137309Y-86668643D01*
X97135242Y-86674418D01*
X97132620Y-86679962D01*
X97129467Y-86685223D01*
X97125813Y-86690150D01*
X97121694Y-86694694D01*
X97117150Y-86698813D01*
X97112223Y-86702467D01*
X97106962Y-86705620D01*
X97101418Y-86708242D01*
X97095643Y-86710309D01*
X97089693Y-86711799D01*
X97083626Y-86712699D01*
X97077500Y-86713000D01*
X96127500Y-86713000D01*
X96121374Y-86712699D01*
X96115307Y-86711799D01*
X96109357Y-86710309D01*
X96103582Y-86708242D01*
X96098038Y-86705620D01*
X96092777Y-86702467D01*
X96087850Y-86698813D01*
X96083306Y-86694694D01*
X96079187Y-86690150D01*
X96075533Y-86685223D01*
X96072380Y-86679962D01*
X96069758Y-86674418D01*
X96067691Y-86668643D01*
X96066201Y-86662693D01*
X96065301Y-86656626D01*
X96065000Y-86650500D01*
X96065000Y-86525500D01*
X96065301Y-86519374D01*
X96066201Y-86513307D01*
X96067691Y-86507357D01*
X96069758Y-86501582D01*
X96072380Y-86496038D01*
X96075533Y-86490777D01*
X96079187Y-86485850D01*
X96083306Y-86481306D01*
X96087850Y-86477187D01*
X96092777Y-86473533D01*
X96098038Y-86470380D01*
X96103582Y-86467758D01*
X96109357Y-86465691D01*
X96115307Y-86464201D01*
X96121374Y-86463301D01*
X96127500Y-86463000D01*
X97077500Y-86463000D01*
X97083626Y-86463301D01*
X97083626Y-86463301D01*
G37*
D17*
X96602500Y-86588000D03*
D10*
G36*
X97083626Y-85963301D02*
G01*
X97089693Y-85964201D01*
X97095643Y-85965691D01*
X97101418Y-85967758D01*
X97106962Y-85970380D01*
X97112223Y-85973533D01*
X97117150Y-85977187D01*
X97121694Y-85981306D01*
X97125813Y-85985850D01*
X97129467Y-85990777D01*
X97132620Y-85996038D01*
X97135242Y-86001582D01*
X97137309Y-86007357D01*
X97138799Y-86013307D01*
X97139699Y-86019374D01*
X97140000Y-86025500D01*
X97140000Y-86150500D01*
X97139699Y-86156626D01*
X97138799Y-86162693D01*
X97137309Y-86168643D01*
X97135242Y-86174418D01*
X97132620Y-86179962D01*
X97129467Y-86185223D01*
X97125813Y-86190150D01*
X97121694Y-86194694D01*
X97117150Y-86198813D01*
X97112223Y-86202467D01*
X97106962Y-86205620D01*
X97101418Y-86208242D01*
X97095643Y-86210309D01*
X97089693Y-86211799D01*
X97083626Y-86212699D01*
X97077500Y-86213000D01*
X96127500Y-86213000D01*
X96121374Y-86212699D01*
X96115307Y-86211799D01*
X96109357Y-86210309D01*
X96103582Y-86208242D01*
X96098038Y-86205620D01*
X96092777Y-86202467D01*
X96087850Y-86198813D01*
X96083306Y-86194694D01*
X96079187Y-86190150D01*
X96075533Y-86185223D01*
X96072380Y-86179962D01*
X96069758Y-86174418D01*
X96067691Y-86168643D01*
X96066201Y-86162693D01*
X96065301Y-86156626D01*
X96065000Y-86150500D01*
X96065000Y-86025500D01*
X96065301Y-86019374D01*
X96066201Y-86013307D01*
X96067691Y-86007357D01*
X96069758Y-86001582D01*
X96072380Y-85996038D01*
X96075533Y-85990777D01*
X96079187Y-85985850D01*
X96083306Y-85981306D01*
X96087850Y-85977187D01*
X96092777Y-85973533D01*
X96098038Y-85970380D01*
X96103582Y-85967758D01*
X96109357Y-85965691D01*
X96115307Y-85964201D01*
X96121374Y-85963301D01*
X96127500Y-85963000D01*
X97077500Y-85963000D01*
X97083626Y-85963301D01*
X97083626Y-85963301D01*
G37*
D17*
X96602500Y-86088000D03*
D10*
G36*
X97083626Y-85463301D02*
G01*
X97089693Y-85464201D01*
X97095643Y-85465691D01*
X97101418Y-85467758D01*
X97106962Y-85470380D01*
X97112223Y-85473533D01*
X97117150Y-85477187D01*
X97121694Y-85481306D01*
X97125813Y-85485850D01*
X97129467Y-85490777D01*
X97132620Y-85496038D01*
X97135242Y-85501582D01*
X97137309Y-85507357D01*
X97138799Y-85513307D01*
X97139699Y-85519374D01*
X97140000Y-85525500D01*
X97140000Y-85650500D01*
X97139699Y-85656626D01*
X97138799Y-85662693D01*
X97137309Y-85668643D01*
X97135242Y-85674418D01*
X97132620Y-85679962D01*
X97129467Y-85685223D01*
X97125813Y-85690150D01*
X97121694Y-85694694D01*
X97117150Y-85698813D01*
X97112223Y-85702467D01*
X97106962Y-85705620D01*
X97101418Y-85708242D01*
X97095643Y-85710309D01*
X97089693Y-85711799D01*
X97083626Y-85712699D01*
X97077500Y-85713000D01*
X96127500Y-85713000D01*
X96121374Y-85712699D01*
X96115307Y-85711799D01*
X96109357Y-85710309D01*
X96103582Y-85708242D01*
X96098038Y-85705620D01*
X96092777Y-85702467D01*
X96087850Y-85698813D01*
X96083306Y-85694694D01*
X96079187Y-85690150D01*
X96075533Y-85685223D01*
X96072380Y-85679962D01*
X96069758Y-85674418D01*
X96067691Y-85668643D01*
X96066201Y-85662693D01*
X96065301Y-85656626D01*
X96065000Y-85650500D01*
X96065000Y-85525500D01*
X96065301Y-85519374D01*
X96066201Y-85513307D01*
X96067691Y-85507357D01*
X96069758Y-85501582D01*
X96072380Y-85496038D01*
X96075533Y-85490777D01*
X96079187Y-85485850D01*
X96083306Y-85481306D01*
X96087850Y-85477187D01*
X96092777Y-85473533D01*
X96098038Y-85470380D01*
X96103582Y-85467758D01*
X96109357Y-85465691D01*
X96115307Y-85464201D01*
X96121374Y-85463301D01*
X96127500Y-85463000D01*
X97077500Y-85463000D01*
X97083626Y-85463301D01*
X97083626Y-85463301D01*
G37*
D17*
X96602500Y-85588000D03*
D10*
G36*
X97083626Y-84963301D02*
G01*
X97089693Y-84964201D01*
X97095643Y-84965691D01*
X97101418Y-84967758D01*
X97106962Y-84970380D01*
X97112223Y-84973533D01*
X97117150Y-84977187D01*
X97121694Y-84981306D01*
X97125813Y-84985850D01*
X97129467Y-84990777D01*
X97132620Y-84996038D01*
X97135242Y-85001582D01*
X97137309Y-85007357D01*
X97138799Y-85013307D01*
X97139699Y-85019374D01*
X97140000Y-85025500D01*
X97140000Y-85150500D01*
X97139699Y-85156626D01*
X97138799Y-85162693D01*
X97137309Y-85168643D01*
X97135242Y-85174418D01*
X97132620Y-85179962D01*
X97129467Y-85185223D01*
X97125813Y-85190150D01*
X97121694Y-85194694D01*
X97117150Y-85198813D01*
X97112223Y-85202467D01*
X97106962Y-85205620D01*
X97101418Y-85208242D01*
X97095643Y-85210309D01*
X97089693Y-85211799D01*
X97083626Y-85212699D01*
X97077500Y-85213000D01*
X96127500Y-85213000D01*
X96121374Y-85212699D01*
X96115307Y-85211799D01*
X96109357Y-85210309D01*
X96103582Y-85208242D01*
X96098038Y-85205620D01*
X96092777Y-85202467D01*
X96087850Y-85198813D01*
X96083306Y-85194694D01*
X96079187Y-85190150D01*
X96075533Y-85185223D01*
X96072380Y-85179962D01*
X96069758Y-85174418D01*
X96067691Y-85168643D01*
X96066201Y-85162693D01*
X96065301Y-85156626D01*
X96065000Y-85150500D01*
X96065000Y-85025500D01*
X96065301Y-85019374D01*
X96066201Y-85013307D01*
X96067691Y-85007357D01*
X96069758Y-85001582D01*
X96072380Y-84996038D01*
X96075533Y-84990777D01*
X96079187Y-84985850D01*
X96083306Y-84981306D01*
X96087850Y-84977187D01*
X96092777Y-84973533D01*
X96098038Y-84970380D01*
X96103582Y-84967758D01*
X96109357Y-84965691D01*
X96115307Y-84964201D01*
X96121374Y-84963301D01*
X96127500Y-84963000D01*
X97077500Y-84963000D01*
X97083626Y-84963301D01*
X97083626Y-84963301D01*
G37*
D17*
X96602500Y-85088000D03*
D10*
G36*
X97083626Y-84463301D02*
G01*
X97089693Y-84464201D01*
X97095643Y-84465691D01*
X97101418Y-84467758D01*
X97106962Y-84470380D01*
X97112223Y-84473533D01*
X97117150Y-84477187D01*
X97121694Y-84481306D01*
X97125813Y-84485850D01*
X97129467Y-84490777D01*
X97132620Y-84496038D01*
X97135242Y-84501582D01*
X97137309Y-84507357D01*
X97138799Y-84513307D01*
X97139699Y-84519374D01*
X97140000Y-84525500D01*
X97140000Y-84650500D01*
X97139699Y-84656626D01*
X97138799Y-84662693D01*
X97137309Y-84668643D01*
X97135242Y-84674418D01*
X97132620Y-84679962D01*
X97129467Y-84685223D01*
X97125813Y-84690150D01*
X97121694Y-84694694D01*
X97117150Y-84698813D01*
X97112223Y-84702467D01*
X97106962Y-84705620D01*
X97101418Y-84708242D01*
X97095643Y-84710309D01*
X97089693Y-84711799D01*
X97083626Y-84712699D01*
X97077500Y-84713000D01*
X96127500Y-84713000D01*
X96121374Y-84712699D01*
X96115307Y-84711799D01*
X96109357Y-84710309D01*
X96103582Y-84708242D01*
X96098038Y-84705620D01*
X96092777Y-84702467D01*
X96087850Y-84698813D01*
X96083306Y-84694694D01*
X96079187Y-84690150D01*
X96075533Y-84685223D01*
X96072380Y-84679962D01*
X96069758Y-84674418D01*
X96067691Y-84668643D01*
X96066201Y-84662693D01*
X96065301Y-84656626D01*
X96065000Y-84650500D01*
X96065000Y-84525500D01*
X96065301Y-84519374D01*
X96066201Y-84513307D01*
X96067691Y-84507357D01*
X96069758Y-84501582D01*
X96072380Y-84496038D01*
X96075533Y-84490777D01*
X96079187Y-84485850D01*
X96083306Y-84481306D01*
X96087850Y-84477187D01*
X96092777Y-84473533D01*
X96098038Y-84470380D01*
X96103582Y-84467758D01*
X96109357Y-84465691D01*
X96115307Y-84464201D01*
X96121374Y-84463301D01*
X96127500Y-84463000D01*
X97077500Y-84463000D01*
X97083626Y-84463301D01*
X97083626Y-84463301D01*
G37*
D17*
X96602500Y-84588000D03*
D10*
G36*
X97083626Y-83963301D02*
G01*
X97089693Y-83964201D01*
X97095643Y-83965691D01*
X97101418Y-83967758D01*
X97106962Y-83970380D01*
X97112223Y-83973533D01*
X97117150Y-83977187D01*
X97121694Y-83981306D01*
X97125813Y-83985850D01*
X97129467Y-83990777D01*
X97132620Y-83996038D01*
X97135242Y-84001582D01*
X97137309Y-84007357D01*
X97138799Y-84013307D01*
X97139699Y-84019374D01*
X97140000Y-84025500D01*
X97140000Y-84150500D01*
X97139699Y-84156626D01*
X97138799Y-84162693D01*
X97137309Y-84168643D01*
X97135242Y-84174418D01*
X97132620Y-84179962D01*
X97129467Y-84185223D01*
X97125813Y-84190150D01*
X97121694Y-84194694D01*
X97117150Y-84198813D01*
X97112223Y-84202467D01*
X97106962Y-84205620D01*
X97101418Y-84208242D01*
X97095643Y-84210309D01*
X97089693Y-84211799D01*
X97083626Y-84212699D01*
X97077500Y-84213000D01*
X96127500Y-84213000D01*
X96121374Y-84212699D01*
X96115307Y-84211799D01*
X96109357Y-84210309D01*
X96103582Y-84208242D01*
X96098038Y-84205620D01*
X96092777Y-84202467D01*
X96087850Y-84198813D01*
X96083306Y-84194694D01*
X96079187Y-84190150D01*
X96075533Y-84185223D01*
X96072380Y-84179962D01*
X96069758Y-84174418D01*
X96067691Y-84168643D01*
X96066201Y-84162693D01*
X96065301Y-84156626D01*
X96065000Y-84150500D01*
X96065000Y-84025500D01*
X96065301Y-84019374D01*
X96066201Y-84013307D01*
X96067691Y-84007357D01*
X96069758Y-84001582D01*
X96072380Y-83996038D01*
X96075533Y-83990777D01*
X96079187Y-83985850D01*
X96083306Y-83981306D01*
X96087850Y-83977187D01*
X96092777Y-83973533D01*
X96098038Y-83970380D01*
X96103582Y-83967758D01*
X96109357Y-83965691D01*
X96115307Y-83964201D01*
X96121374Y-83963301D01*
X96127500Y-83963000D01*
X97077500Y-83963000D01*
X97083626Y-83963301D01*
X97083626Y-83963301D01*
G37*
D17*
X96602500Y-84088000D03*
D10*
G36*
X97083626Y-83463301D02*
G01*
X97089693Y-83464201D01*
X97095643Y-83465691D01*
X97101418Y-83467758D01*
X97106962Y-83470380D01*
X97112223Y-83473533D01*
X97117150Y-83477187D01*
X97121694Y-83481306D01*
X97125813Y-83485850D01*
X97129467Y-83490777D01*
X97132620Y-83496038D01*
X97135242Y-83501582D01*
X97137309Y-83507357D01*
X97138799Y-83513307D01*
X97139699Y-83519374D01*
X97140000Y-83525500D01*
X97140000Y-83650500D01*
X97139699Y-83656626D01*
X97138799Y-83662693D01*
X97137309Y-83668643D01*
X97135242Y-83674418D01*
X97132620Y-83679962D01*
X97129467Y-83685223D01*
X97125813Y-83690150D01*
X97121694Y-83694694D01*
X97117150Y-83698813D01*
X97112223Y-83702467D01*
X97106962Y-83705620D01*
X97101418Y-83708242D01*
X97095643Y-83710309D01*
X97089693Y-83711799D01*
X97083626Y-83712699D01*
X97077500Y-83713000D01*
X96127500Y-83713000D01*
X96121374Y-83712699D01*
X96115307Y-83711799D01*
X96109357Y-83710309D01*
X96103582Y-83708242D01*
X96098038Y-83705620D01*
X96092777Y-83702467D01*
X96087850Y-83698813D01*
X96083306Y-83694694D01*
X96079187Y-83690150D01*
X96075533Y-83685223D01*
X96072380Y-83679962D01*
X96069758Y-83674418D01*
X96067691Y-83668643D01*
X96066201Y-83662693D01*
X96065301Y-83656626D01*
X96065000Y-83650500D01*
X96065000Y-83525500D01*
X96065301Y-83519374D01*
X96066201Y-83513307D01*
X96067691Y-83507357D01*
X96069758Y-83501582D01*
X96072380Y-83496038D01*
X96075533Y-83490777D01*
X96079187Y-83485850D01*
X96083306Y-83481306D01*
X96087850Y-83477187D01*
X96092777Y-83473533D01*
X96098038Y-83470380D01*
X96103582Y-83467758D01*
X96109357Y-83465691D01*
X96115307Y-83464201D01*
X96121374Y-83463301D01*
X96127500Y-83463000D01*
X97077500Y-83463000D01*
X97083626Y-83463301D01*
X97083626Y-83463301D01*
G37*
D17*
X96602500Y-83588000D03*
D10*
G36*
X97083626Y-82963301D02*
G01*
X97089693Y-82964201D01*
X97095643Y-82965691D01*
X97101418Y-82967758D01*
X97106962Y-82970380D01*
X97112223Y-82973533D01*
X97117150Y-82977187D01*
X97121694Y-82981306D01*
X97125813Y-82985850D01*
X97129467Y-82990777D01*
X97132620Y-82996038D01*
X97135242Y-83001582D01*
X97137309Y-83007357D01*
X97138799Y-83013307D01*
X97139699Y-83019374D01*
X97140000Y-83025500D01*
X97140000Y-83150500D01*
X97139699Y-83156626D01*
X97138799Y-83162693D01*
X97137309Y-83168643D01*
X97135242Y-83174418D01*
X97132620Y-83179962D01*
X97129467Y-83185223D01*
X97125813Y-83190150D01*
X97121694Y-83194694D01*
X97117150Y-83198813D01*
X97112223Y-83202467D01*
X97106962Y-83205620D01*
X97101418Y-83208242D01*
X97095643Y-83210309D01*
X97089693Y-83211799D01*
X97083626Y-83212699D01*
X97077500Y-83213000D01*
X96127500Y-83213000D01*
X96121374Y-83212699D01*
X96115307Y-83211799D01*
X96109357Y-83210309D01*
X96103582Y-83208242D01*
X96098038Y-83205620D01*
X96092777Y-83202467D01*
X96087850Y-83198813D01*
X96083306Y-83194694D01*
X96079187Y-83190150D01*
X96075533Y-83185223D01*
X96072380Y-83179962D01*
X96069758Y-83174418D01*
X96067691Y-83168643D01*
X96066201Y-83162693D01*
X96065301Y-83156626D01*
X96065000Y-83150500D01*
X96065000Y-83025500D01*
X96065301Y-83019374D01*
X96066201Y-83013307D01*
X96067691Y-83007357D01*
X96069758Y-83001582D01*
X96072380Y-82996038D01*
X96075533Y-82990777D01*
X96079187Y-82985850D01*
X96083306Y-82981306D01*
X96087850Y-82977187D01*
X96092777Y-82973533D01*
X96098038Y-82970380D01*
X96103582Y-82967758D01*
X96109357Y-82965691D01*
X96115307Y-82964201D01*
X96121374Y-82963301D01*
X96127500Y-82963000D01*
X97077500Y-82963000D01*
X97083626Y-82963301D01*
X97083626Y-82963301D01*
G37*
D17*
X96602500Y-83088000D03*
D10*
G36*
X97083626Y-82463301D02*
G01*
X97089693Y-82464201D01*
X97095643Y-82465691D01*
X97101418Y-82467758D01*
X97106962Y-82470380D01*
X97112223Y-82473533D01*
X97117150Y-82477187D01*
X97121694Y-82481306D01*
X97125813Y-82485850D01*
X97129467Y-82490777D01*
X97132620Y-82496038D01*
X97135242Y-82501582D01*
X97137309Y-82507357D01*
X97138799Y-82513307D01*
X97139699Y-82519374D01*
X97140000Y-82525500D01*
X97140000Y-82650500D01*
X97139699Y-82656626D01*
X97138799Y-82662693D01*
X97137309Y-82668643D01*
X97135242Y-82674418D01*
X97132620Y-82679962D01*
X97129467Y-82685223D01*
X97125813Y-82690150D01*
X97121694Y-82694694D01*
X97117150Y-82698813D01*
X97112223Y-82702467D01*
X97106962Y-82705620D01*
X97101418Y-82708242D01*
X97095643Y-82710309D01*
X97089693Y-82711799D01*
X97083626Y-82712699D01*
X97077500Y-82713000D01*
X96127500Y-82713000D01*
X96121374Y-82712699D01*
X96115307Y-82711799D01*
X96109357Y-82710309D01*
X96103582Y-82708242D01*
X96098038Y-82705620D01*
X96092777Y-82702467D01*
X96087850Y-82698813D01*
X96083306Y-82694694D01*
X96079187Y-82690150D01*
X96075533Y-82685223D01*
X96072380Y-82679962D01*
X96069758Y-82674418D01*
X96067691Y-82668643D01*
X96066201Y-82662693D01*
X96065301Y-82656626D01*
X96065000Y-82650500D01*
X96065000Y-82525500D01*
X96065301Y-82519374D01*
X96066201Y-82513307D01*
X96067691Y-82507357D01*
X96069758Y-82501582D01*
X96072380Y-82496038D01*
X96075533Y-82490777D01*
X96079187Y-82485850D01*
X96083306Y-82481306D01*
X96087850Y-82477187D01*
X96092777Y-82473533D01*
X96098038Y-82470380D01*
X96103582Y-82467758D01*
X96109357Y-82465691D01*
X96115307Y-82464201D01*
X96121374Y-82463301D01*
X96127500Y-82463000D01*
X97077500Y-82463000D01*
X97083626Y-82463301D01*
X97083626Y-82463301D01*
G37*
D17*
X96602500Y-82588000D03*
D10*
G36*
X97508626Y-81213301D02*
G01*
X97514693Y-81214201D01*
X97520643Y-81215691D01*
X97526418Y-81217758D01*
X97531962Y-81220380D01*
X97537223Y-81223533D01*
X97542150Y-81227187D01*
X97546694Y-81231306D01*
X97550813Y-81235850D01*
X97554467Y-81240777D01*
X97557620Y-81246038D01*
X97560242Y-81251582D01*
X97562309Y-81257357D01*
X97563799Y-81263307D01*
X97564699Y-81269374D01*
X97565000Y-81275500D01*
X97565000Y-82225500D01*
X97564699Y-82231626D01*
X97563799Y-82237693D01*
X97562309Y-82243643D01*
X97560242Y-82249418D01*
X97557620Y-82254962D01*
X97554467Y-82260223D01*
X97550813Y-82265150D01*
X97546694Y-82269694D01*
X97542150Y-82273813D01*
X97537223Y-82277467D01*
X97531962Y-82280620D01*
X97526418Y-82283242D01*
X97520643Y-82285309D01*
X97514693Y-82286799D01*
X97508626Y-82287699D01*
X97502500Y-82288000D01*
X97377500Y-82288000D01*
X97371374Y-82287699D01*
X97365307Y-82286799D01*
X97359357Y-82285309D01*
X97353582Y-82283242D01*
X97348038Y-82280620D01*
X97342777Y-82277467D01*
X97337850Y-82273813D01*
X97333306Y-82269694D01*
X97329187Y-82265150D01*
X97325533Y-82260223D01*
X97322380Y-82254962D01*
X97319758Y-82249418D01*
X97317691Y-82243643D01*
X97316201Y-82237693D01*
X97315301Y-82231626D01*
X97315000Y-82225500D01*
X97315000Y-81275500D01*
X97315301Y-81269374D01*
X97316201Y-81263307D01*
X97317691Y-81257357D01*
X97319758Y-81251582D01*
X97322380Y-81246038D01*
X97325533Y-81240777D01*
X97329187Y-81235850D01*
X97333306Y-81231306D01*
X97337850Y-81227187D01*
X97342777Y-81223533D01*
X97348038Y-81220380D01*
X97353582Y-81217758D01*
X97359357Y-81215691D01*
X97365307Y-81214201D01*
X97371374Y-81213301D01*
X97377500Y-81213000D01*
X97502500Y-81213000D01*
X97508626Y-81213301D01*
X97508626Y-81213301D01*
G37*
D17*
X97440000Y-81750500D03*
D10*
G36*
X98008626Y-81213301D02*
G01*
X98014693Y-81214201D01*
X98020643Y-81215691D01*
X98026418Y-81217758D01*
X98031962Y-81220380D01*
X98037223Y-81223533D01*
X98042150Y-81227187D01*
X98046694Y-81231306D01*
X98050813Y-81235850D01*
X98054467Y-81240777D01*
X98057620Y-81246038D01*
X98060242Y-81251582D01*
X98062309Y-81257357D01*
X98063799Y-81263307D01*
X98064699Y-81269374D01*
X98065000Y-81275500D01*
X98065000Y-82225500D01*
X98064699Y-82231626D01*
X98063799Y-82237693D01*
X98062309Y-82243643D01*
X98060242Y-82249418D01*
X98057620Y-82254962D01*
X98054467Y-82260223D01*
X98050813Y-82265150D01*
X98046694Y-82269694D01*
X98042150Y-82273813D01*
X98037223Y-82277467D01*
X98031962Y-82280620D01*
X98026418Y-82283242D01*
X98020643Y-82285309D01*
X98014693Y-82286799D01*
X98008626Y-82287699D01*
X98002500Y-82288000D01*
X97877500Y-82288000D01*
X97871374Y-82287699D01*
X97865307Y-82286799D01*
X97859357Y-82285309D01*
X97853582Y-82283242D01*
X97848038Y-82280620D01*
X97842777Y-82277467D01*
X97837850Y-82273813D01*
X97833306Y-82269694D01*
X97829187Y-82265150D01*
X97825533Y-82260223D01*
X97822380Y-82254962D01*
X97819758Y-82249418D01*
X97817691Y-82243643D01*
X97816201Y-82237693D01*
X97815301Y-82231626D01*
X97815000Y-82225500D01*
X97815000Y-81275500D01*
X97815301Y-81269374D01*
X97816201Y-81263307D01*
X97817691Y-81257357D01*
X97819758Y-81251582D01*
X97822380Y-81246038D01*
X97825533Y-81240777D01*
X97829187Y-81235850D01*
X97833306Y-81231306D01*
X97837850Y-81227187D01*
X97842777Y-81223533D01*
X97848038Y-81220380D01*
X97853582Y-81217758D01*
X97859357Y-81215691D01*
X97865307Y-81214201D01*
X97871374Y-81213301D01*
X97877500Y-81213000D01*
X98002500Y-81213000D01*
X98008626Y-81213301D01*
X98008626Y-81213301D01*
G37*
D17*
X97940000Y-81750500D03*
D10*
G36*
X98508626Y-81213301D02*
G01*
X98514693Y-81214201D01*
X98520643Y-81215691D01*
X98526418Y-81217758D01*
X98531962Y-81220380D01*
X98537223Y-81223533D01*
X98542150Y-81227187D01*
X98546694Y-81231306D01*
X98550813Y-81235850D01*
X98554467Y-81240777D01*
X98557620Y-81246038D01*
X98560242Y-81251582D01*
X98562309Y-81257357D01*
X98563799Y-81263307D01*
X98564699Y-81269374D01*
X98565000Y-81275500D01*
X98565000Y-82225500D01*
X98564699Y-82231626D01*
X98563799Y-82237693D01*
X98562309Y-82243643D01*
X98560242Y-82249418D01*
X98557620Y-82254962D01*
X98554467Y-82260223D01*
X98550813Y-82265150D01*
X98546694Y-82269694D01*
X98542150Y-82273813D01*
X98537223Y-82277467D01*
X98531962Y-82280620D01*
X98526418Y-82283242D01*
X98520643Y-82285309D01*
X98514693Y-82286799D01*
X98508626Y-82287699D01*
X98502500Y-82288000D01*
X98377500Y-82288000D01*
X98371374Y-82287699D01*
X98365307Y-82286799D01*
X98359357Y-82285309D01*
X98353582Y-82283242D01*
X98348038Y-82280620D01*
X98342777Y-82277467D01*
X98337850Y-82273813D01*
X98333306Y-82269694D01*
X98329187Y-82265150D01*
X98325533Y-82260223D01*
X98322380Y-82254962D01*
X98319758Y-82249418D01*
X98317691Y-82243643D01*
X98316201Y-82237693D01*
X98315301Y-82231626D01*
X98315000Y-82225500D01*
X98315000Y-81275500D01*
X98315301Y-81269374D01*
X98316201Y-81263307D01*
X98317691Y-81257357D01*
X98319758Y-81251582D01*
X98322380Y-81246038D01*
X98325533Y-81240777D01*
X98329187Y-81235850D01*
X98333306Y-81231306D01*
X98337850Y-81227187D01*
X98342777Y-81223533D01*
X98348038Y-81220380D01*
X98353582Y-81217758D01*
X98359357Y-81215691D01*
X98365307Y-81214201D01*
X98371374Y-81213301D01*
X98377500Y-81213000D01*
X98502500Y-81213000D01*
X98508626Y-81213301D01*
X98508626Y-81213301D01*
G37*
D17*
X98440000Y-81750500D03*
D10*
G36*
X99008626Y-81213301D02*
G01*
X99014693Y-81214201D01*
X99020643Y-81215691D01*
X99026418Y-81217758D01*
X99031962Y-81220380D01*
X99037223Y-81223533D01*
X99042150Y-81227187D01*
X99046694Y-81231306D01*
X99050813Y-81235850D01*
X99054467Y-81240777D01*
X99057620Y-81246038D01*
X99060242Y-81251582D01*
X99062309Y-81257357D01*
X99063799Y-81263307D01*
X99064699Y-81269374D01*
X99065000Y-81275500D01*
X99065000Y-82225500D01*
X99064699Y-82231626D01*
X99063799Y-82237693D01*
X99062309Y-82243643D01*
X99060242Y-82249418D01*
X99057620Y-82254962D01*
X99054467Y-82260223D01*
X99050813Y-82265150D01*
X99046694Y-82269694D01*
X99042150Y-82273813D01*
X99037223Y-82277467D01*
X99031962Y-82280620D01*
X99026418Y-82283242D01*
X99020643Y-82285309D01*
X99014693Y-82286799D01*
X99008626Y-82287699D01*
X99002500Y-82288000D01*
X98877500Y-82288000D01*
X98871374Y-82287699D01*
X98865307Y-82286799D01*
X98859357Y-82285309D01*
X98853582Y-82283242D01*
X98848038Y-82280620D01*
X98842777Y-82277467D01*
X98837850Y-82273813D01*
X98833306Y-82269694D01*
X98829187Y-82265150D01*
X98825533Y-82260223D01*
X98822380Y-82254962D01*
X98819758Y-82249418D01*
X98817691Y-82243643D01*
X98816201Y-82237693D01*
X98815301Y-82231626D01*
X98815000Y-82225500D01*
X98815000Y-81275500D01*
X98815301Y-81269374D01*
X98816201Y-81263307D01*
X98817691Y-81257357D01*
X98819758Y-81251582D01*
X98822380Y-81246038D01*
X98825533Y-81240777D01*
X98829187Y-81235850D01*
X98833306Y-81231306D01*
X98837850Y-81227187D01*
X98842777Y-81223533D01*
X98848038Y-81220380D01*
X98853582Y-81217758D01*
X98859357Y-81215691D01*
X98865307Y-81214201D01*
X98871374Y-81213301D01*
X98877500Y-81213000D01*
X99002500Y-81213000D01*
X99008626Y-81213301D01*
X99008626Y-81213301D01*
G37*
D17*
X98940000Y-81750500D03*
D10*
G36*
X99508626Y-81213301D02*
G01*
X99514693Y-81214201D01*
X99520643Y-81215691D01*
X99526418Y-81217758D01*
X99531962Y-81220380D01*
X99537223Y-81223533D01*
X99542150Y-81227187D01*
X99546694Y-81231306D01*
X99550813Y-81235850D01*
X99554467Y-81240777D01*
X99557620Y-81246038D01*
X99560242Y-81251582D01*
X99562309Y-81257357D01*
X99563799Y-81263307D01*
X99564699Y-81269374D01*
X99565000Y-81275500D01*
X99565000Y-82225500D01*
X99564699Y-82231626D01*
X99563799Y-82237693D01*
X99562309Y-82243643D01*
X99560242Y-82249418D01*
X99557620Y-82254962D01*
X99554467Y-82260223D01*
X99550813Y-82265150D01*
X99546694Y-82269694D01*
X99542150Y-82273813D01*
X99537223Y-82277467D01*
X99531962Y-82280620D01*
X99526418Y-82283242D01*
X99520643Y-82285309D01*
X99514693Y-82286799D01*
X99508626Y-82287699D01*
X99502500Y-82288000D01*
X99377500Y-82288000D01*
X99371374Y-82287699D01*
X99365307Y-82286799D01*
X99359357Y-82285309D01*
X99353582Y-82283242D01*
X99348038Y-82280620D01*
X99342777Y-82277467D01*
X99337850Y-82273813D01*
X99333306Y-82269694D01*
X99329187Y-82265150D01*
X99325533Y-82260223D01*
X99322380Y-82254962D01*
X99319758Y-82249418D01*
X99317691Y-82243643D01*
X99316201Y-82237693D01*
X99315301Y-82231626D01*
X99315000Y-82225500D01*
X99315000Y-81275500D01*
X99315301Y-81269374D01*
X99316201Y-81263307D01*
X99317691Y-81257357D01*
X99319758Y-81251582D01*
X99322380Y-81246038D01*
X99325533Y-81240777D01*
X99329187Y-81235850D01*
X99333306Y-81231306D01*
X99337850Y-81227187D01*
X99342777Y-81223533D01*
X99348038Y-81220380D01*
X99353582Y-81217758D01*
X99359357Y-81215691D01*
X99365307Y-81214201D01*
X99371374Y-81213301D01*
X99377500Y-81213000D01*
X99502500Y-81213000D01*
X99508626Y-81213301D01*
X99508626Y-81213301D01*
G37*
D17*
X99440000Y-81750500D03*
D10*
G36*
X100008626Y-81213301D02*
G01*
X100014693Y-81214201D01*
X100020643Y-81215691D01*
X100026418Y-81217758D01*
X100031962Y-81220380D01*
X100037223Y-81223533D01*
X100042150Y-81227187D01*
X100046694Y-81231306D01*
X100050813Y-81235850D01*
X100054467Y-81240777D01*
X100057620Y-81246038D01*
X100060242Y-81251582D01*
X100062309Y-81257357D01*
X100063799Y-81263307D01*
X100064699Y-81269374D01*
X100065000Y-81275500D01*
X100065000Y-82225500D01*
X100064699Y-82231626D01*
X100063799Y-82237693D01*
X100062309Y-82243643D01*
X100060242Y-82249418D01*
X100057620Y-82254962D01*
X100054467Y-82260223D01*
X100050813Y-82265150D01*
X100046694Y-82269694D01*
X100042150Y-82273813D01*
X100037223Y-82277467D01*
X100031962Y-82280620D01*
X100026418Y-82283242D01*
X100020643Y-82285309D01*
X100014693Y-82286799D01*
X100008626Y-82287699D01*
X100002500Y-82288000D01*
X99877500Y-82288000D01*
X99871374Y-82287699D01*
X99865307Y-82286799D01*
X99859357Y-82285309D01*
X99853582Y-82283242D01*
X99848038Y-82280620D01*
X99842777Y-82277467D01*
X99837850Y-82273813D01*
X99833306Y-82269694D01*
X99829187Y-82265150D01*
X99825533Y-82260223D01*
X99822380Y-82254962D01*
X99819758Y-82249418D01*
X99817691Y-82243643D01*
X99816201Y-82237693D01*
X99815301Y-82231626D01*
X99815000Y-82225500D01*
X99815000Y-81275500D01*
X99815301Y-81269374D01*
X99816201Y-81263307D01*
X99817691Y-81257357D01*
X99819758Y-81251582D01*
X99822380Y-81246038D01*
X99825533Y-81240777D01*
X99829187Y-81235850D01*
X99833306Y-81231306D01*
X99837850Y-81227187D01*
X99842777Y-81223533D01*
X99848038Y-81220380D01*
X99853582Y-81217758D01*
X99859357Y-81215691D01*
X99865307Y-81214201D01*
X99871374Y-81213301D01*
X99877500Y-81213000D01*
X100002500Y-81213000D01*
X100008626Y-81213301D01*
X100008626Y-81213301D01*
G37*
D17*
X99940000Y-81750500D03*
D10*
G36*
X100508626Y-81213301D02*
G01*
X100514693Y-81214201D01*
X100520643Y-81215691D01*
X100526418Y-81217758D01*
X100531962Y-81220380D01*
X100537223Y-81223533D01*
X100542150Y-81227187D01*
X100546694Y-81231306D01*
X100550813Y-81235850D01*
X100554467Y-81240777D01*
X100557620Y-81246038D01*
X100560242Y-81251582D01*
X100562309Y-81257357D01*
X100563799Y-81263307D01*
X100564699Y-81269374D01*
X100565000Y-81275500D01*
X100565000Y-82225500D01*
X100564699Y-82231626D01*
X100563799Y-82237693D01*
X100562309Y-82243643D01*
X100560242Y-82249418D01*
X100557620Y-82254962D01*
X100554467Y-82260223D01*
X100550813Y-82265150D01*
X100546694Y-82269694D01*
X100542150Y-82273813D01*
X100537223Y-82277467D01*
X100531962Y-82280620D01*
X100526418Y-82283242D01*
X100520643Y-82285309D01*
X100514693Y-82286799D01*
X100508626Y-82287699D01*
X100502500Y-82288000D01*
X100377500Y-82288000D01*
X100371374Y-82287699D01*
X100365307Y-82286799D01*
X100359357Y-82285309D01*
X100353582Y-82283242D01*
X100348038Y-82280620D01*
X100342777Y-82277467D01*
X100337850Y-82273813D01*
X100333306Y-82269694D01*
X100329187Y-82265150D01*
X100325533Y-82260223D01*
X100322380Y-82254962D01*
X100319758Y-82249418D01*
X100317691Y-82243643D01*
X100316201Y-82237693D01*
X100315301Y-82231626D01*
X100315000Y-82225500D01*
X100315000Y-81275500D01*
X100315301Y-81269374D01*
X100316201Y-81263307D01*
X100317691Y-81257357D01*
X100319758Y-81251582D01*
X100322380Y-81246038D01*
X100325533Y-81240777D01*
X100329187Y-81235850D01*
X100333306Y-81231306D01*
X100337850Y-81227187D01*
X100342777Y-81223533D01*
X100348038Y-81220380D01*
X100353582Y-81217758D01*
X100359357Y-81215691D01*
X100365307Y-81214201D01*
X100371374Y-81213301D01*
X100377500Y-81213000D01*
X100502500Y-81213000D01*
X100508626Y-81213301D01*
X100508626Y-81213301D01*
G37*
D17*
X100440000Y-81750500D03*
D10*
G36*
X101008626Y-81213301D02*
G01*
X101014693Y-81214201D01*
X101020643Y-81215691D01*
X101026418Y-81217758D01*
X101031962Y-81220380D01*
X101037223Y-81223533D01*
X101042150Y-81227187D01*
X101046694Y-81231306D01*
X101050813Y-81235850D01*
X101054467Y-81240777D01*
X101057620Y-81246038D01*
X101060242Y-81251582D01*
X101062309Y-81257357D01*
X101063799Y-81263307D01*
X101064699Y-81269374D01*
X101065000Y-81275500D01*
X101065000Y-82225500D01*
X101064699Y-82231626D01*
X101063799Y-82237693D01*
X101062309Y-82243643D01*
X101060242Y-82249418D01*
X101057620Y-82254962D01*
X101054467Y-82260223D01*
X101050813Y-82265150D01*
X101046694Y-82269694D01*
X101042150Y-82273813D01*
X101037223Y-82277467D01*
X101031962Y-82280620D01*
X101026418Y-82283242D01*
X101020643Y-82285309D01*
X101014693Y-82286799D01*
X101008626Y-82287699D01*
X101002500Y-82288000D01*
X100877500Y-82288000D01*
X100871374Y-82287699D01*
X100865307Y-82286799D01*
X100859357Y-82285309D01*
X100853582Y-82283242D01*
X100848038Y-82280620D01*
X100842777Y-82277467D01*
X100837850Y-82273813D01*
X100833306Y-82269694D01*
X100829187Y-82265150D01*
X100825533Y-82260223D01*
X100822380Y-82254962D01*
X100819758Y-82249418D01*
X100817691Y-82243643D01*
X100816201Y-82237693D01*
X100815301Y-82231626D01*
X100815000Y-82225500D01*
X100815000Y-81275500D01*
X100815301Y-81269374D01*
X100816201Y-81263307D01*
X100817691Y-81257357D01*
X100819758Y-81251582D01*
X100822380Y-81246038D01*
X100825533Y-81240777D01*
X100829187Y-81235850D01*
X100833306Y-81231306D01*
X100837850Y-81227187D01*
X100842777Y-81223533D01*
X100848038Y-81220380D01*
X100853582Y-81217758D01*
X100859357Y-81215691D01*
X100865307Y-81214201D01*
X100871374Y-81213301D01*
X100877500Y-81213000D01*
X101002500Y-81213000D01*
X101008626Y-81213301D01*
X101008626Y-81213301D01*
G37*
D17*
X100940000Y-81750500D03*
D10*
G36*
X101508626Y-81213301D02*
G01*
X101514693Y-81214201D01*
X101520643Y-81215691D01*
X101526418Y-81217758D01*
X101531962Y-81220380D01*
X101537223Y-81223533D01*
X101542150Y-81227187D01*
X101546694Y-81231306D01*
X101550813Y-81235850D01*
X101554467Y-81240777D01*
X101557620Y-81246038D01*
X101560242Y-81251582D01*
X101562309Y-81257357D01*
X101563799Y-81263307D01*
X101564699Y-81269374D01*
X101565000Y-81275500D01*
X101565000Y-82225500D01*
X101564699Y-82231626D01*
X101563799Y-82237693D01*
X101562309Y-82243643D01*
X101560242Y-82249418D01*
X101557620Y-82254962D01*
X101554467Y-82260223D01*
X101550813Y-82265150D01*
X101546694Y-82269694D01*
X101542150Y-82273813D01*
X101537223Y-82277467D01*
X101531962Y-82280620D01*
X101526418Y-82283242D01*
X101520643Y-82285309D01*
X101514693Y-82286799D01*
X101508626Y-82287699D01*
X101502500Y-82288000D01*
X101377500Y-82288000D01*
X101371374Y-82287699D01*
X101365307Y-82286799D01*
X101359357Y-82285309D01*
X101353582Y-82283242D01*
X101348038Y-82280620D01*
X101342777Y-82277467D01*
X101337850Y-82273813D01*
X101333306Y-82269694D01*
X101329187Y-82265150D01*
X101325533Y-82260223D01*
X101322380Y-82254962D01*
X101319758Y-82249418D01*
X101317691Y-82243643D01*
X101316201Y-82237693D01*
X101315301Y-82231626D01*
X101315000Y-82225500D01*
X101315000Y-81275500D01*
X101315301Y-81269374D01*
X101316201Y-81263307D01*
X101317691Y-81257357D01*
X101319758Y-81251582D01*
X101322380Y-81246038D01*
X101325533Y-81240777D01*
X101329187Y-81235850D01*
X101333306Y-81231306D01*
X101337850Y-81227187D01*
X101342777Y-81223533D01*
X101348038Y-81220380D01*
X101353582Y-81217758D01*
X101359357Y-81215691D01*
X101365307Y-81214201D01*
X101371374Y-81213301D01*
X101377500Y-81213000D01*
X101502500Y-81213000D01*
X101508626Y-81213301D01*
X101508626Y-81213301D01*
G37*
D17*
X101440000Y-81750500D03*
D10*
G36*
X102008626Y-81213301D02*
G01*
X102014693Y-81214201D01*
X102020643Y-81215691D01*
X102026418Y-81217758D01*
X102031962Y-81220380D01*
X102037223Y-81223533D01*
X102042150Y-81227187D01*
X102046694Y-81231306D01*
X102050813Y-81235850D01*
X102054467Y-81240777D01*
X102057620Y-81246038D01*
X102060242Y-81251582D01*
X102062309Y-81257357D01*
X102063799Y-81263307D01*
X102064699Y-81269374D01*
X102065000Y-81275500D01*
X102065000Y-82225500D01*
X102064699Y-82231626D01*
X102063799Y-82237693D01*
X102062309Y-82243643D01*
X102060242Y-82249418D01*
X102057620Y-82254962D01*
X102054467Y-82260223D01*
X102050813Y-82265150D01*
X102046694Y-82269694D01*
X102042150Y-82273813D01*
X102037223Y-82277467D01*
X102031962Y-82280620D01*
X102026418Y-82283242D01*
X102020643Y-82285309D01*
X102014693Y-82286799D01*
X102008626Y-82287699D01*
X102002500Y-82288000D01*
X101877500Y-82288000D01*
X101871374Y-82287699D01*
X101865307Y-82286799D01*
X101859357Y-82285309D01*
X101853582Y-82283242D01*
X101848038Y-82280620D01*
X101842777Y-82277467D01*
X101837850Y-82273813D01*
X101833306Y-82269694D01*
X101829187Y-82265150D01*
X101825533Y-82260223D01*
X101822380Y-82254962D01*
X101819758Y-82249418D01*
X101817691Y-82243643D01*
X101816201Y-82237693D01*
X101815301Y-82231626D01*
X101815000Y-82225500D01*
X101815000Y-81275500D01*
X101815301Y-81269374D01*
X101816201Y-81263307D01*
X101817691Y-81257357D01*
X101819758Y-81251582D01*
X101822380Y-81246038D01*
X101825533Y-81240777D01*
X101829187Y-81235850D01*
X101833306Y-81231306D01*
X101837850Y-81227187D01*
X101842777Y-81223533D01*
X101848038Y-81220380D01*
X101853582Y-81217758D01*
X101859357Y-81215691D01*
X101865307Y-81214201D01*
X101871374Y-81213301D01*
X101877500Y-81213000D01*
X102002500Y-81213000D01*
X102008626Y-81213301D01*
X102008626Y-81213301D01*
G37*
D17*
X101940000Y-81750500D03*
D10*
G36*
X102508626Y-81213301D02*
G01*
X102514693Y-81214201D01*
X102520643Y-81215691D01*
X102526418Y-81217758D01*
X102531962Y-81220380D01*
X102537223Y-81223533D01*
X102542150Y-81227187D01*
X102546694Y-81231306D01*
X102550813Y-81235850D01*
X102554467Y-81240777D01*
X102557620Y-81246038D01*
X102560242Y-81251582D01*
X102562309Y-81257357D01*
X102563799Y-81263307D01*
X102564699Y-81269374D01*
X102565000Y-81275500D01*
X102565000Y-82225500D01*
X102564699Y-82231626D01*
X102563799Y-82237693D01*
X102562309Y-82243643D01*
X102560242Y-82249418D01*
X102557620Y-82254962D01*
X102554467Y-82260223D01*
X102550813Y-82265150D01*
X102546694Y-82269694D01*
X102542150Y-82273813D01*
X102537223Y-82277467D01*
X102531962Y-82280620D01*
X102526418Y-82283242D01*
X102520643Y-82285309D01*
X102514693Y-82286799D01*
X102508626Y-82287699D01*
X102502500Y-82288000D01*
X102377500Y-82288000D01*
X102371374Y-82287699D01*
X102365307Y-82286799D01*
X102359357Y-82285309D01*
X102353582Y-82283242D01*
X102348038Y-82280620D01*
X102342777Y-82277467D01*
X102337850Y-82273813D01*
X102333306Y-82269694D01*
X102329187Y-82265150D01*
X102325533Y-82260223D01*
X102322380Y-82254962D01*
X102319758Y-82249418D01*
X102317691Y-82243643D01*
X102316201Y-82237693D01*
X102315301Y-82231626D01*
X102315000Y-82225500D01*
X102315000Y-81275500D01*
X102315301Y-81269374D01*
X102316201Y-81263307D01*
X102317691Y-81257357D01*
X102319758Y-81251582D01*
X102322380Y-81246038D01*
X102325533Y-81240777D01*
X102329187Y-81235850D01*
X102333306Y-81231306D01*
X102337850Y-81227187D01*
X102342777Y-81223533D01*
X102348038Y-81220380D01*
X102353582Y-81217758D01*
X102359357Y-81215691D01*
X102365307Y-81214201D01*
X102371374Y-81213301D01*
X102377500Y-81213000D01*
X102502500Y-81213000D01*
X102508626Y-81213301D01*
X102508626Y-81213301D01*
G37*
D17*
X102440000Y-81750500D03*
D10*
G36*
X83551579Y-80547844D02*
G01*
X83574634Y-80551263D01*
X83597243Y-80556927D01*
X83619187Y-80564779D01*
X83640257Y-80574744D01*
X83660248Y-80586726D01*
X83678968Y-80600610D01*
X83696238Y-80616262D01*
X83711890Y-80633532D01*
X83725774Y-80652252D01*
X83737756Y-80672243D01*
X83747721Y-80693313D01*
X83755573Y-80715257D01*
X83761237Y-80737866D01*
X83764656Y-80760921D01*
X83765800Y-80784200D01*
X83765800Y-81259200D01*
X83764656Y-81282479D01*
X83761237Y-81305534D01*
X83755573Y-81328143D01*
X83747721Y-81350087D01*
X83737756Y-81371157D01*
X83725774Y-81391148D01*
X83711890Y-81409868D01*
X83696238Y-81427138D01*
X83678968Y-81442790D01*
X83660248Y-81456674D01*
X83640257Y-81468656D01*
X83619187Y-81478621D01*
X83597243Y-81486473D01*
X83574634Y-81492137D01*
X83551579Y-81495556D01*
X83528300Y-81496700D01*
X82953300Y-81496700D01*
X82930021Y-81495556D01*
X82906966Y-81492137D01*
X82884357Y-81486473D01*
X82862413Y-81478621D01*
X82841343Y-81468656D01*
X82821352Y-81456674D01*
X82802632Y-81442790D01*
X82785362Y-81427138D01*
X82769710Y-81409868D01*
X82755826Y-81391148D01*
X82743844Y-81371157D01*
X82733879Y-81350087D01*
X82726027Y-81328143D01*
X82720363Y-81305534D01*
X82716944Y-81282479D01*
X82715800Y-81259200D01*
X82715800Y-80784200D01*
X82716944Y-80760921D01*
X82720363Y-80737866D01*
X82726027Y-80715257D01*
X82733879Y-80693313D01*
X82743844Y-80672243D01*
X82755826Y-80652252D01*
X82769710Y-80633532D01*
X82785362Y-80616262D01*
X82802632Y-80600610D01*
X82821352Y-80586726D01*
X82841343Y-80574744D01*
X82862413Y-80564779D01*
X82884357Y-80556927D01*
X82906966Y-80551263D01*
X82930021Y-80547844D01*
X82953300Y-80546700D01*
X83528300Y-80546700D01*
X83551579Y-80547844D01*
X83551579Y-80547844D01*
G37*
D11*
X83240800Y-81021700D03*
D10*
G36*
X85301579Y-80547844D02*
G01*
X85324634Y-80551263D01*
X85347243Y-80556927D01*
X85369187Y-80564779D01*
X85390257Y-80574744D01*
X85410248Y-80586726D01*
X85428968Y-80600610D01*
X85446238Y-80616262D01*
X85461890Y-80633532D01*
X85475774Y-80652252D01*
X85487756Y-80672243D01*
X85497721Y-80693313D01*
X85505573Y-80715257D01*
X85511237Y-80737866D01*
X85514656Y-80760921D01*
X85515800Y-80784200D01*
X85515800Y-81259200D01*
X85514656Y-81282479D01*
X85511237Y-81305534D01*
X85505573Y-81328143D01*
X85497721Y-81350087D01*
X85487756Y-81371157D01*
X85475774Y-81391148D01*
X85461890Y-81409868D01*
X85446238Y-81427138D01*
X85428968Y-81442790D01*
X85410248Y-81456674D01*
X85390257Y-81468656D01*
X85369187Y-81478621D01*
X85347243Y-81486473D01*
X85324634Y-81492137D01*
X85301579Y-81495556D01*
X85278300Y-81496700D01*
X84703300Y-81496700D01*
X84680021Y-81495556D01*
X84656966Y-81492137D01*
X84634357Y-81486473D01*
X84612413Y-81478621D01*
X84591343Y-81468656D01*
X84571352Y-81456674D01*
X84552632Y-81442790D01*
X84535362Y-81427138D01*
X84519710Y-81409868D01*
X84505826Y-81391148D01*
X84493844Y-81371157D01*
X84483879Y-81350087D01*
X84476027Y-81328143D01*
X84470363Y-81305534D01*
X84466944Y-81282479D01*
X84465800Y-81259200D01*
X84465800Y-80784200D01*
X84466944Y-80760921D01*
X84470363Y-80737866D01*
X84476027Y-80715257D01*
X84483879Y-80693313D01*
X84493844Y-80672243D01*
X84505826Y-80652252D01*
X84519710Y-80633532D01*
X84535362Y-80616262D01*
X84552632Y-80600610D01*
X84571352Y-80586726D01*
X84591343Y-80574744D01*
X84612413Y-80564779D01*
X84634357Y-80556927D01*
X84656966Y-80551263D01*
X84680021Y-80547844D01*
X84703300Y-80546700D01*
X85278300Y-80546700D01*
X85301579Y-80547844D01*
X85301579Y-80547844D01*
G37*
D11*
X84990800Y-81021700D03*
D10*
G36*
X83538879Y-82186144D02*
G01*
X83561934Y-82189563D01*
X83584543Y-82195227D01*
X83606487Y-82203079D01*
X83627557Y-82213044D01*
X83647548Y-82225026D01*
X83666268Y-82238910D01*
X83683538Y-82254562D01*
X83699190Y-82271832D01*
X83713074Y-82290552D01*
X83725056Y-82310543D01*
X83735021Y-82331613D01*
X83742873Y-82353557D01*
X83748537Y-82376166D01*
X83751956Y-82399221D01*
X83753100Y-82422500D01*
X83753100Y-82897500D01*
X83751956Y-82920779D01*
X83748537Y-82943834D01*
X83742873Y-82966443D01*
X83735021Y-82988387D01*
X83725056Y-83009457D01*
X83713074Y-83029448D01*
X83699190Y-83048168D01*
X83683538Y-83065438D01*
X83666268Y-83081090D01*
X83647548Y-83094974D01*
X83627557Y-83106956D01*
X83606487Y-83116921D01*
X83584543Y-83124773D01*
X83561934Y-83130437D01*
X83538879Y-83133856D01*
X83515600Y-83135000D01*
X82940600Y-83135000D01*
X82917321Y-83133856D01*
X82894266Y-83130437D01*
X82871657Y-83124773D01*
X82849713Y-83116921D01*
X82828643Y-83106956D01*
X82808652Y-83094974D01*
X82789932Y-83081090D01*
X82772662Y-83065438D01*
X82757010Y-83048168D01*
X82743126Y-83029448D01*
X82731144Y-83009457D01*
X82721179Y-82988387D01*
X82713327Y-82966443D01*
X82707663Y-82943834D01*
X82704244Y-82920779D01*
X82703100Y-82897500D01*
X82703100Y-82422500D01*
X82704244Y-82399221D01*
X82707663Y-82376166D01*
X82713327Y-82353557D01*
X82721179Y-82331613D01*
X82731144Y-82310543D01*
X82743126Y-82290552D01*
X82757010Y-82271832D01*
X82772662Y-82254562D01*
X82789932Y-82238910D01*
X82808652Y-82225026D01*
X82828643Y-82213044D01*
X82849713Y-82203079D01*
X82871657Y-82195227D01*
X82894266Y-82189563D01*
X82917321Y-82186144D01*
X82940600Y-82185000D01*
X83515600Y-82185000D01*
X83538879Y-82186144D01*
X83538879Y-82186144D01*
G37*
D11*
X83228100Y-82660000D03*
D10*
G36*
X85288879Y-82186144D02*
G01*
X85311934Y-82189563D01*
X85334543Y-82195227D01*
X85356487Y-82203079D01*
X85377557Y-82213044D01*
X85397548Y-82225026D01*
X85416268Y-82238910D01*
X85433538Y-82254562D01*
X85449190Y-82271832D01*
X85463074Y-82290552D01*
X85475056Y-82310543D01*
X85485021Y-82331613D01*
X85492873Y-82353557D01*
X85498537Y-82376166D01*
X85501956Y-82399221D01*
X85503100Y-82422500D01*
X85503100Y-82897500D01*
X85501956Y-82920779D01*
X85498537Y-82943834D01*
X85492873Y-82966443D01*
X85485021Y-82988387D01*
X85475056Y-83009457D01*
X85463074Y-83029448D01*
X85449190Y-83048168D01*
X85433538Y-83065438D01*
X85416268Y-83081090D01*
X85397548Y-83094974D01*
X85377557Y-83106956D01*
X85356487Y-83116921D01*
X85334543Y-83124773D01*
X85311934Y-83130437D01*
X85288879Y-83133856D01*
X85265600Y-83135000D01*
X84690600Y-83135000D01*
X84667321Y-83133856D01*
X84644266Y-83130437D01*
X84621657Y-83124773D01*
X84599713Y-83116921D01*
X84578643Y-83106956D01*
X84558652Y-83094974D01*
X84539932Y-83081090D01*
X84522662Y-83065438D01*
X84507010Y-83048168D01*
X84493126Y-83029448D01*
X84481144Y-83009457D01*
X84471179Y-82988387D01*
X84463327Y-82966443D01*
X84457663Y-82943834D01*
X84454244Y-82920779D01*
X84453100Y-82897500D01*
X84453100Y-82422500D01*
X84454244Y-82399221D01*
X84457663Y-82376166D01*
X84463327Y-82353557D01*
X84471179Y-82331613D01*
X84481144Y-82310543D01*
X84493126Y-82290552D01*
X84507010Y-82271832D01*
X84522662Y-82254562D01*
X84539932Y-82238910D01*
X84558652Y-82225026D01*
X84578643Y-82213044D01*
X84599713Y-82203079D01*
X84621657Y-82195227D01*
X84644266Y-82189563D01*
X84667321Y-82186144D01*
X84690600Y-82185000D01*
X85265600Y-82185000D01*
X85288879Y-82186144D01*
X85288879Y-82186144D01*
G37*
D11*
X84978100Y-82660000D03*
M02*
