M48
; DRILL file {KiCad (5.1.2)-2} date 02.11.2020 14:54:19
; FORMAT={-:-/ absolute / inch / decimal}
; #@! TF.CreationDate,2020-11-02T14:54:19+01:00
; #@! TF.GenerationSoftware,Kicad,Pcbnew,(5.1.2)-2
FMAT,2
INCH
T1C0.0157
T2C0.0236
T3C0.0394
T4C0.0591
T5C0.1260
T6C0.0669
T7C0.1575
%
G90
G05
T1
X2.9646Y-3.4943
X2.9946Y-3.0443
X3.0346Y-4.4143
X3.1246Y-3.1143
X3.1396Y-5.2943
X3.1546Y-3.5443
X3.1746Y-3.6143
X3.2236Y-3.2543
X3.2746Y-3.5143
X3.3846Y-5.2693
X3.4677Y-3.4512
X3.4846Y-3.1443
X3.5177Y-3.5013
X3.5396Y-4.0143
X3.5396Y-4.5393
X3.5396Y-4.7893
X3.5946Y-3.1443
X3.6346Y-3.3243
X3.6646Y-3.4143
X3.6696Y-3.0343
X3.6996Y-3.4793
X3.7046Y-3.0593
X3.7116Y-3.3617
X3.7329Y-3.4355
X3.7496Y-3.2518
X3.7521Y-3.2943
X3.7621Y-3.4943
X3.7773Y-3.1924
X3.8133Y-3.1758
X3.8446Y-3.6543
X3.8546Y-3.2743
X3.8546Y-3.3543
X3.8546Y-3.4343
X3.8609Y-3.1609
X3.9014Y-3.1681
X3.9346Y-3.2743
X3.9346Y-3.3493
X3.9346Y-3.4343
X4.0146Y-3.2743
X4.0146Y-3.3543
X4.0146Y-3.4343
X4.0246Y-3.8043
X4.0446Y-3.6743
X4.0646Y-3.7743
X4.0665Y-3.6416
X4.1046Y-3.7443
X4.1146Y-3.4843
X4.1245Y-3.2595
X4.1446Y-3.1958
X4.1446Y-3.7158
X4.1496Y-3.0929
X4.1596Y-5.2693
X4.1646Y-4.5393
X4.1796Y-3.2243
X4.1846Y-3.6872
X4.1946Y-3.1443
X4.1949Y-3.0843
X4.2296Y-3.1743
X4.2385Y-3.0685
X4.2946Y-3.1693
X4.3396Y-4.0043
X4.3496Y-4.7893
X4.3546Y-4.2893
X4.4296Y-3.2943
X4.4986Y-3.8033
X4.4996Y-3.9043
X4.5896Y-4.2893
X4.7496Y-3.2943
X4.9496Y-5.2693
X4.9546Y-4.5393
X5.0096Y-3.3093
X5.1396Y-4.7893
X5.1496Y-4.0143
X5.2996Y-4.5943
X5.2996Y-4.7093
X5.3346Y-4.5943
X5.3346Y-4.7093
X5.3946Y-3.3093
X5.5446Y-3.3843
X5.5496Y-3.4643
X5.6016Y-3.6662
X5.6496Y-3.7093
X5.7056Y-3.0834
X5.7396Y-4.5393
X5.7396Y-5.2693
X5.8296Y-3.0843
X5.9196Y-3.7943
X5.9396Y-4.0143
X5.9496Y-4.7893
X6.5196Y-5.2693
X6.5296Y-4.5393
X6.7196Y-4.2893
X6.7496Y-4.0093
X6.7496Y-4.7893
X3.0215Y-3.1743
X3.0215Y-3.2078
X3.0215Y-3.2413
X3.0215Y-3.2747
X3.0215Y-3.3082
X3.0215Y-3.3417
X3.0215Y-3.3751
X3.0215Y-3.4086
X3.0746Y-3.1743
X3.0746Y-3.2078
X3.0746Y-3.2413
X3.0746Y-3.2747
X3.0746Y-3.3082
X3.0746Y-3.3417
X3.0746Y-3.3751
X3.0746Y-3.4086
T3
X5.9294Y-3.3252
X5.9294Y-3.4252
X5.9294Y-3.5252
X6.205Y-3.3252
X6.205Y-3.4252
X6.205Y-3.5252
X4.3396Y-3.4543
X4.3396Y-3.5543
X4.4396Y-3.4543
X4.4396Y-3.5543
X4.5396Y-3.4543
X4.5396Y-3.5543
X4.6396Y-3.4543
X4.6396Y-3.5543
X4.7396Y-3.4543
X4.7396Y-3.5543
X4.8396Y-3.4543
X4.8396Y-3.5543
X4.9396Y-3.4543
X4.9396Y-3.5543
T4
X4.6819Y-4.8319
X4.9319Y-4.7319
X6.2567Y-4.05
X6.5067Y-3.95
X3.1071Y-4.0445
X3.3571Y-3.9445
X5.4693Y-4.8319
X5.7193Y-4.7319
X3.8945Y-4.8319
X4.1445Y-4.7319
X5.4693Y-4.0445
X5.7193Y-3.9445
X4.6819Y-4.0445
X4.9319Y-3.9445
X3.1071Y-4.8319
X3.3571Y-4.7319
X3.8945Y-4.0445
X4.1445Y-3.9445
X6.2567Y-4.8319
X6.5067Y-4.7319
T5
X3.2283Y-3.3858
X3.622Y-4.9606
X6.063Y-4.9606
X6.4567Y-3.3858
T6
X3.8445Y-4.1445
X4.2445Y-4.1445
X6.2067Y-4.9319
X6.6067Y-4.9319
X4.6319Y-4.9319
X5.0319Y-4.9319
X6.2067Y-4.15
X6.6067Y-4.15
X3.0571Y-4.1445
X3.4571Y-4.1445
X5.4193Y-4.9319
X5.8193Y-4.9319
X3.8445Y-4.9319
X4.2445Y-4.9319
X5.4193Y-4.1445
X5.8193Y-4.1445
X4.6319Y-4.1445
X5.0319Y-4.1445
X3.0571Y-4.9319
X3.4571Y-4.9319
T7
X3.2571Y-4.9319
X4.8319Y-4.9319
X6.4067Y-4.15
X3.2571Y-4.1445
X5.6193Y-4.1445
X4.0445Y-4.1445
X5.6193Y-4.9319
X4.0445Y-4.9319
X4.8319Y-4.1445
X6.4067Y-4.9319
T2
G00X2.9187Y-3.1212
M15
G01X2.8872Y-3.1212
M16
G05
G00X2.9187Y-3.4617
M15
G01X2.8872Y-3.4617
M16
G05
G00X3.0656Y-3.1212
M15
G01X3.0065Y-3.1212
M16
G05
G00X3.0656Y-3.4617
M15
G01X3.0065Y-3.4617
M16
G05
T0
M30
