G04 #@! TF.GenerationSoftware,KiCad,Pcbnew,(5.1.2)-2*
G04 #@! TF.CreationDate,2020-11-02T14:54:12+01:00*
G04 #@! TF.ProjectId,MacroBoard,4d616372-6f42-46f6-9172-642e6b696361,rev?*
G04 #@! TF.SameCoordinates,Original*
G04 #@! TF.FileFunction,Soldermask,Bot*
G04 #@! TF.FilePolarity,Negative*
%FSLAX46Y46*%
G04 Gerber Fmt 4.6, Leading zero omitted, Abs format (unit mm)*
G04 Created by KiCad (PCBNEW (5.1.2)-2) date 2020-11-02 14:54:12*
%MOMM*%
%LPD*%
G04 APERTURE LIST*
%ADD10C,0.100000*%
G04 APERTURE END LIST*
D10*
G36*
X86429000Y-132721000D02*
G01*
X85127000Y-132721000D01*
X85127000Y-131419000D01*
X86429000Y-131419000D01*
X86429000Y-132721000D01*
X86429000Y-132721000D01*
G37*
G36*
X80333000Y-132721000D02*
G01*
X79031000Y-132721000D01*
X79031000Y-131419000D01*
X80333000Y-131419000D01*
X80333000Y-132721000D01*
X80333000Y-132721000D01*
G37*
G36*
X106429000Y-132721000D02*
G01*
X105127000Y-132721000D01*
X105127000Y-131419000D01*
X106429000Y-131419000D01*
X106429000Y-132721000D01*
X106429000Y-132721000D01*
G37*
G36*
X100333000Y-132721000D02*
G01*
X99031000Y-132721000D01*
X99031000Y-131419000D01*
X100333000Y-131419000D01*
X100333000Y-132721000D01*
X100333000Y-132721000D01*
G37*
G36*
X126429000Y-132721000D02*
G01*
X125127000Y-132721000D01*
X125127000Y-131419000D01*
X126429000Y-131419000D01*
X126429000Y-132721000D01*
X126429000Y-132721000D01*
G37*
G36*
X120333000Y-132721000D02*
G01*
X119031000Y-132721000D01*
X119031000Y-131419000D01*
X120333000Y-131419000D01*
X120333000Y-132721000D01*
X120333000Y-132721000D01*
G37*
G36*
X146429000Y-132721000D02*
G01*
X145127000Y-132721000D01*
X145127000Y-131419000D01*
X146429000Y-131419000D01*
X146429000Y-132721000D01*
X146429000Y-132721000D01*
G37*
G36*
X140333000Y-132721000D02*
G01*
X139031000Y-132721000D01*
X139031000Y-131419000D01*
X140333000Y-131419000D01*
X140333000Y-132721000D01*
X140333000Y-132721000D01*
G37*
G36*
X166429000Y-132721000D02*
G01*
X165127000Y-132721000D01*
X165127000Y-131419000D01*
X166429000Y-131419000D01*
X166429000Y-132721000D01*
X166429000Y-132721000D01*
G37*
G36*
X160333000Y-132721000D02*
G01*
X159031000Y-132721000D01*
X159031000Y-131419000D01*
X160333000Y-131419000D01*
X160333000Y-132721000D01*
X160333000Y-132721000D01*
G37*
G36*
X160333000Y-129521000D02*
G01*
X159031000Y-129521000D01*
X159031000Y-128219000D01*
X160333000Y-128219000D01*
X160333000Y-129521000D01*
X160333000Y-129521000D01*
G37*
G36*
X166429000Y-129521000D02*
G01*
X165127000Y-129521000D01*
X165127000Y-128219000D01*
X166429000Y-128219000D01*
X166429000Y-129521000D01*
X166429000Y-129521000D01*
G37*
G36*
X86429000Y-129521000D02*
G01*
X85127000Y-129521000D01*
X85127000Y-128219000D01*
X86429000Y-128219000D01*
X86429000Y-129521000D01*
X86429000Y-129521000D01*
G37*
G36*
X146429000Y-129521000D02*
G01*
X145127000Y-129521000D01*
X145127000Y-128219000D01*
X146429000Y-128219000D01*
X146429000Y-129521000D01*
X146429000Y-129521000D01*
G37*
G36*
X80333000Y-129521000D02*
G01*
X79031000Y-129521000D01*
X79031000Y-128219000D01*
X80333000Y-128219000D01*
X80333000Y-129521000D01*
X80333000Y-129521000D01*
G37*
G36*
X126429000Y-129521000D02*
G01*
X125127000Y-129521000D01*
X125127000Y-128219000D01*
X126429000Y-128219000D01*
X126429000Y-129521000D01*
X126429000Y-129521000D01*
G37*
G36*
X140333000Y-129521000D02*
G01*
X139031000Y-129521000D01*
X139031000Y-128219000D01*
X140333000Y-128219000D01*
X140333000Y-129521000D01*
X140333000Y-129521000D01*
G37*
G36*
X100333000Y-129521000D02*
G01*
X99031000Y-129521000D01*
X99031000Y-128219000D01*
X100333000Y-128219000D01*
X100333000Y-129521000D01*
X100333000Y-129521000D01*
G37*
G36*
X106429000Y-129521000D02*
G01*
X105127000Y-129521000D01*
X105127000Y-128219000D01*
X106429000Y-128219000D01*
X106429000Y-129521000D01*
X106429000Y-129521000D01*
G37*
G36*
X120333000Y-129521000D02*
G01*
X119031000Y-129521000D01*
X119031000Y-128219000D01*
X120333000Y-128219000D01*
X120333000Y-129521000D01*
X120333000Y-129521000D01*
G37*
G36*
X103328254Y-123297818D02*
G01*
X103701511Y-123452426D01*
X103701513Y-123452427D01*
X104037436Y-123676884D01*
X104323116Y-123962564D01*
X104547574Y-124298489D01*
X104702182Y-124671746D01*
X104781000Y-125067993D01*
X104781000Y-125472007D01*
X104702182Y-125868254D01*
X104547574Y-126241511D01*
X104547573Y-126241513D01*
X104323116Y-126577436D01*
X104037436Y-126863116D01*
X103701513Y-127087573D01*
X103701512Y-127087574D01*
X103701511Y-127087574D01*
X103328254Y-127242182D01*
X102932007Y-127321000D01*
X102527993Y-127321000D01*
X102131746Y-127242182D01*
X101758489Y-127087574D01*
X101758488Y-127087574D01*
X101758487Y-127087573D01*
X101422564Y-126863116D01*
X101136884Y-126577436D01*
X100912427Y-126241513D01*
X100912426Y-126241511D01*
X100757818Y-125868254D01*
X100679000Y-125472007D01*
X100679000Y-125067993D01*
X100757818Y-124671746D01*
X100912426Y-124298489D01*
X101136884Y-123962564D01*
X101422564Y-123676884D01*
X101758487Y-123452427D01*
X101758489Y-123452426D01*
X102131746Y-123297818D01*
X102527993Y-123219000D01*
X102932007Y-123219000D01*
X103328254Y-123297818D01*
X103328254Y-123297818D01*
G37*
G36*
X163328254Y-123297818D02*
G01*
X163701511Y-123452426D01*
X163701513Y-123452427D01*
X164037436Y-123676884D01*
X164323116Y-123962564D01*
X164547574Y-124298489D01*
X164702182Y-124671746D01*
X164781000Y-125067993D01*
X164781000Y-125472007D01*
X164702182Y-125868254D01*
X164547574Y-126241511D01*
X164547573Y-126241513D01*
X164323116Y-126577436D01*
X164037436Y-126863116D01*
X163701513Y-127087573D01*
X163701512Y-127087574D01*
X163701511Y-127087574D01*
X163328254Y-127242182D01*
X162932007Y-127321000D01*
X162527993Y-127321000D01*
X162131746Y-127242182D01*
X161758489Y-127087574D01*
X161758488Y-127087574D01*
X161758487Y-127087573D01*
X161422564Y-126863116D01*
X161136884Y-126577436D01*
X160912427Y-126241513D01*
X160912426Y-126241511D01*
X160757818Y-125868254D01*
X160679000Y-125472007D01*
X160679000Y-125067993D01*
X160757818Y-124671746D01*
X160912426Y-124298489D01*
X161136884Y-123962564D01*
X161422564Y-123676884D01*
X161758487Y-123452427D01*
X161758489Y-123452426D01*
X162131746Y-123297818D01*
X162527993Y-123219000D01*
X162932007Y-123219000D01*
X163328254Y-123297818D01*
X163328254Y-123297818D01*
G37*
G36*
X143328254Y-123297818D02*
G01*
X143701511Y-123452426D01*
X143701513Y-123452427D01*
X144037436Y-123676884D01*
X144323116Y-123962564D01*
X144547574Y-124298489D01*
X144702182Y-124671746D01*
X144781000Y-125067993D01*
X144781000Y-125472007D01*
X144702182Y-125868254D01*
X144547574Y-126241511D01*
X144547573Y-126241513D01*
X144323116Y-126577436D01*
X144037436Y-126863116D01*
X143701513Y-127087573D01*
X143701512Y-127087574D01*
X143701511Y-127087574D01*
X143328254Y-127242182D01*
X142932007Y-127321000D01*
X142527993Y-127321000D01*
X142131746Y-127242182D01*
X141758489Y-127087574D01*
X141758488Y-127087574D01*
X141758487Y-127087573D01*
X141422564Y-126863116D01*
X141136884Y-126577436D01*
X140912427Y-126241513D01*
X140912426Y-126241511D01*
X140757818Y-125868254D01*
X140679000Y-125472007D01*
X140679000Y-125067993D01*
X140757818Y-124671746D01*
X140912426Y-124298489D01*
X141136884Y-123962564D01*
X141422564Y-123676884D01*
X141758487Y-123452427D01*
X141758489Y-123452426D01*
X142131746Y-123297818D01*
X142527993Y-123219000D01*
X142932007Y-123219000D01*
X143328254Y-123297818D01*
X143328254Y-123297818D01*
G37*
G36*
X123328254Y-123297818D02*
G01*
X123701511Y-123452426D01*
X123701513Y-123452427D01*
X124037436Y-123676884D01*
X124323116Y-123962564D01*
X124547574Y-124298489D01*
X124702182Y-124671746D01*
X124781000Y-125067993D01*
X124781000Y-125472007D01*
X124702182Y-125868254D01*
X124547574Y-126241511D01*
X124547573Y-126241513D01*
X124323116Y-126577436D01*
X124037436Y-126863116D01*
X123701513Y-127087573D01*
X123701512Y-127087574D01*
X123701511Y-127087574D01*
X123328254Y-127242182D01*
X122932007Y-127321000D01*
X122527993Y-127321000D01*
X122131746Y-127242182D01*
X121758489Y-127087574D01*
X121758488Y-127087574D01*
X121758487Y-127087573D01*
X121422564Y-126863116D01*
X121136884Y-126577436D01*
X120912427Y-126241513D01*
X120912426Y-126241511D01*
X120757818Y-125868254D01*
X120679000Y-125472007D01*
X120679000Y-125067993D01*
X120757818Y-124671746D01*
X120912426Y-124298489D01*
X121136884Y-123962564D01*
X121422564Y-123676884D01*
X121758487Y-123452427D01*
X121758489Y-123452426D01*
X122131746Y-123297818D01*
X122527993Y-123219000D01*
X122932007Y-123219000D01*
X123328254Y-123297818D01*
X123328254Y-123297818D01*
G37*
G36*
X83328254Y-123297818D02*
G01*
X83701511Y-123452426D01*
X83701513Y-123452427D01*
X84037436Y-123676884D01*
X84323116Y-123962564D01*
X84547574Y-124298489D01*
X84702182Y-124671746D01*
X84781000Y-125067993D01*
X84781000Y-125472007D01*
X84702182Y-125868254D01*
X84547574Y-126241511D01*
X84547573Y-126241513D01*
X84323116Y-126577436D01*
X84037436Y-126863116D01*
X83701513Y-127087573D01*
X83701512Y-127087574D01*
X83701511Y-127087574D01*
X83328254Y-127242182D01*
X82932007Y-127321000D01*
X82527993Y-127321000D01*
X82131746Y-127242182D01*
X81758489Y-127087574D01*
X81758488Y-127087574D01*
X81758487Y-127087573D01*
X81422564Y-126863116D01*
X81136884Y-126577436D01*
X80912427Y-126241513D01*
X80912426Y-126241511D01*
X80757818Y-125868254D01*
X80679000Y-125472007D01*
X80679000Y-125067993D01*
X80757818Y-124671746D01*
X80912426Y-124298489D01*
X81136884Y-123962564D01*
X81422564Y-123676884D01*
X81758487Y-123452427D01*
X81758489Y-123452426D01*
X82131746Y-123297818D01*
X82527993Y-123219000D01*
X82932007Y-123219000D01*
X83328254Y-123297818D01*
X83328254Y-123297818D01*
G37*
G36*
X77763512Y-124373927D02*
G01*
X77912812Y-124403624D01*
X78076784Y-124471544D01*
X78224354Y-124570147D01*
X78349853Y-124695646D01*
X78448456Y-124843216D01*
X78516376Y-125007188D01*
X78551000Y-125181259D01*
X78551000Y-125358741D01*
X78516376Y-125532812D01*
X78448456Y-125696784D01*
X78349853Y-125844354D01*
X78224354Y-125969853D01*
X78076784Y-126068456D01*
X77912812Y-126136376D01*
X77763512Y-126166073D01*
X77738742Y-126171000D01*
X77561258Y-126171000D01*
X77536488Y-126166073D01*
X77387188Y-126136376D01*
X77223216Y-126068456D01*
X77075646Y-125969853D01*
X76950147Y-125844354D01*
X76851544Y-125696784D01*
X76783624Y-125532812D01*
X76749000Y-125358741D01*
X76749000Y-125181259D01*
X76783624Y-125007188D01*
X76851544Y-124843216D01*
X76950147Y-124695646D01*
X77075646Y-124570147D01*
X77223216Y-124471544D01*
X77387188Y-124403624D01*
X77536488Y-124373927D01*
X77561258Y-124369000D01*
X77738742Y-124369000D01*
X77763512Y-124373927D01*
X77763512Y-124373927D01*
G37*
G36*
X157763512Y-124373927D02*
G01*
X157912812Y-124403624D01*
X158076784Y-124471544D01*
X158224354Y-124570147D01*
X158349853Y-124695646D01*
X158448456Y-124843216D01*
X158516376Y-125007188D01*
X158551000Y-125181259D01*
X158551000Y-125358741D01*
X158516376Y-125532812D01*
X158448456Y-125696784D01*
X158349853Y-125844354D01*
X158224354Y-125969853D01*
X158076784Y-126068456D01*
X157912812Y-126136376D01*
X157763512Y-126166073D01*
X157738742Y-126171000D01*
X157561258Y-126171000D01*
X157536488Y-126166073D01*
X157387188Y-126136376D01*
X157223216Y-126068456D01*
X157075646Y-125969853D01*
X156950147Y-125844354D01*
X156851544Y-125696784D01*
X156783624Y-125532812D01*
X156749000Y-125358741D01*
X156749000Y-125181259D01*
X156783624Y-125007188D01*
X156851544Y-124843216D01*
X156950147Y-124695646D01*
X157075646Y-124570147D01*
X157223216Y-124471544D01*
X157387188Y-124403624D01*
X157536488Y-124373927D01*
X157561258Y-124369000D01*
X157738742Y-124369000D01*
X157763512Y-124373927D01*
X157763512Y-124373927D01*
G37*
G36*
X147923512Y-124373927D02*
G01*
X148072812Y-124403624D01*
X148236784Y-124471544D01*
X148384354Y-124570147D01*
X148509853Y-124695646D01*
X148608456Y-124843216D01*
X148676376Y-125007188D01*
X148711000Y-125181259D01*
X148711000Y-125358741D01*
X148676376Y-125532812D01*
X148608456Y-125696784D01*
X148509853Y-125844354D01*
X148384354Y-125969853D01*
X148236784Y-126068456D01*
X148072812Y-126136376D01*
X147923512Y-126166073D01*
X147898742Y-126171000D01*
X147721258Y-126171000D01*
X147696488Y-126166073D01*
X147547188Y-126136376D01*
X147383216Y-126068456D01*
X147235646Y-125969853D01*
X147110147Y-125844354D01*
X147011544Y-125696784D01*
X146943624Y-125532812D01*
X146909000Y-125358741D01*
X146909000Y-125181259D01*
X146943624Y-125007188D01*
X147011544Y-124843216D01*
X147110147Y-124695646D01*
X147235646Y-124570147D01*
X147383216Y-124471544D01*
X147547188Y-124403624D01*
X147696488Y-124373927D01*
X147721258Y-124369000D01*
X147898742Y-124369000D01*
X147923512Y-124373927D01*
X147923512Y-124373927D01*
G37*
G36*
X137763512Y-124373927D02*
G01*
X137912812Y-124403624D01*
X138076784Y-124471544D01*
X138224354Y-124570147D01*
X138349853Y-124695646D01*
X138448456Y-124843216D01*
X138516376Y-125007188D01*
X138551000Y-125181259D01*
X138551000Y-125358741D01*
X138516376Y-125532812D01*
X138448456Y-125696784D01*
X138349853Y-125844354D01*
X138224354Y-125969853D01*
X138076784Y-126068456D01*
X137912812Y-126136376D01*
X137763512Y-126166073D01*
X137738742Y-126171000D01*
X137561258Y-126171000D01*
X137536488Y-126166073D01*
X137387188Y-126136376D01*
X137223216Y-126068456D01*
X137075646Y-125969853D01*
X136950147Y-125844354D01*
X136851544Y-125696784D01*
X136783624Y-125532812D01*
X136749000Y-125358741D01*
X136749000Y-125181259D01*
X136783624Y-125007188D01*
X136851544Y-124843216D01*
X136950147Y-124695646D01*
X137075646Y-124570147D01*
X137223216Y-124471544D01*
X137387188Y-124403624D01*
X137536488Y-124373927D01*
X137561258Y-124369000D01*
X137738742Y-124369000D01*
X137763512Y-124373927D01*
X137763512Y-124373927D01*
G37*
G36*
X127923512Y-124373927D02*
G01*
X128072812Y-124403624D01*
X128236784Y-124471544D01*
X128384354Y-124570147D01*
X128509853Y-124695646D01*
X128608456Y-124843216D01*
X128676376Y-125007188D01*
X128711000Y-125181259D01*
X128711000Y-125358741D01*
X128676376Y-125532812D01*
X128608456Y-125696784D01*
X128509853Y-125844354D01*
X128384354Y-125969853D01*
X128236784Y-126068456D01*
X128072812Y-126136376D01*
X127923512Y-126166073D01*
X127898742Y-126171000D01*
X127721258Y-126171000D01*
X127696488Y-126166073D01*
X127547188Y-126136376D01*
X127383216Y-126068456D01*
X127235646Y-125969853D01*
X127110147Y-125844354D01*
X127011544Y-125696784D01*
X126943624Y-125532812D01*
X126909000Y-125358741D01*
X126909000Y-125181259D01*
X126943624Y-125007188D01*
X127011544Y-124843216D01*
X127110147Y-124695646D01*
X127235646Y-124570147D01*
X127383216Y-124471544D01*
X127547188Y-124403624D01*
X127696488Y-124373927D01*
X127721258Y-124369000D01*
X127898742Y-124369000D01*
X127923512Y-124373927D01*
X127923512Y-124373927D01*
G37*
G36*
X117763512Y-124373927D02*
G01*
X117912812Y-124403624D01*
X118076784Y-124471544D01*
X118224354Y-124570147D01*
X118349853Y-124695646D01*
X118448456Y-124843216D01*
X118516376Y-125007188D01*
X118551000Y-125181259D01*
X118551000Y-125358741D01*
X118516376Y-125532812D01*
X118448456Y-125696784D01*
X118349853Y-125844354D01*
X118224354Y-125969853D01*
X118076784Y-126068456D01*
X117912812Y-126136376D01*
X117763512Y-126166073D01*
X117738742Y-126171000D01*
X117561258Y-126171000D01*
X117536488Y-126166073D01*
X117387188Y-126136376D01*
X117223216Y-126068456D01*
X117075646Y-125969853D01*
X116950147Y-125844354D01*
X116851544Y-125696784D01*
X116783624Y-125532812D01*
X116749000Y-125358741D01*
X116749000Y-125181259D01*
X116783624Y-125007188D01*
X116851544Y-124843216D01*
X116950147Y-124695646D01*
X117075646Y-124570147D01*
X117223216Y-124471544D01*
X117387188Y-124403624D01*
X117536488Y-124373927D01*
X117561258Y-124369000D01*
X117738742Y-124369000D01*
X117763512Y-124373927D01*
X117763512Y-124373927D01*
G37*
G36*
X107923512Y-124373927D02*
G01*
X108072812Y-124403624D01*
X108236784Y-124471544D01*
X108384354Y-124570147D01*
X108509853Y-124695646D01*
X108608456Y-124843216D01*
X108676376Y-125007188D01*
X108711000Y-125181259D01*
X108711000Y-125358741D01*
X108676376Y-125532812D01*
X108608456Y-125696784D01*
X108509853Y-125844354D01*
X108384354Y-125969853D01*
X108236784Y-126068456D01*
X108072812Y-126136376D01*
X107923512Y-126166073D01*
X107898742Y-126171000D01*
X107721258Y-126171000D01*
X107696488Y-126166073D01*
X107547188Y-126136376D01*
X107383216Y-126068456D01*
X107235646Y-125969853D01*
X107110147Y-125844354D01*
X107011544Y-125696784D01*
X106943624Y-125532812D01*
X106909000Y-125358741D01*
X106909000Y-125181259D01*
X106943624Y-125007188D01*
X107011544Y-124843216D01*
X107110147Y-124695646D01*
X107235646Y-124570147D01*
X107383216Y-124471544D01*
X107547188Y-124403624D01*
X107696488Y-124373927D01*
X107721258Y-124369000D01*
X107898742Y-124369000D01*
X107923512Y-124373927D01*
X107923512Y-124373927D01*
G37*
G36*
X97763512Y-124373927D02*
G01*
X97912812Y-124403624D01*
X98076784Y-124471544D01*
X98224354Y-124570147D01*
X98349853Y-124695646D01*
X98448456Y-124843216D01*
X98516376Y-125007188D01*
X98551000Y-125181259D01*
X98551000Y-125358741D01*
X98516376Y-125532812D01*
X98448456Y-125696784D01*
X98349853Y-125844354D01*
X98224354Y-125969853D01*
X98076784Y-126068456D01*
X97912812Y-126136376D01*
X97763512Y-126166073D01*
X97738742Y-126171000D01*
X97561258Y-126171000D01*
X97536488Y-126166073D01*
X97387188Y-126136376D01*
X97223216Y-126068456D01*
X97075646Y-125969853D01*
X96950147Y-125844354D01*
X96851544Y-125696784D01*
X96783624Y-125532812D01*
X96749000Y-125358741D01*
X96749000Y-125181259D01*
X96783624Y-125007188D01*
X96851544Y-124843216D01*
X96950147Y-124695646D01*
X97075646Y-124570147D01*
X97223216Y-124471544D01*
X97387188Y-124403624D01*
X97536488Y-124373927D01*
X97561258Y-124369000D01*
X97738742Y-124369000D01*
X97763512Y-124373927D01*
X97763512Y-124373927D01*
G37*
G36*
X87923512Y-124373927D02*
G01*
X88072812Y-124403624D01*
X88236784Y-124471544D01*
X88384354Y-124570147D01*
X88509853Y-124695646D01*
X88608456Y-124843216D01*
X88676376Y-125007188D01*
X88711000Y-125181259D01*
X88711000Y-125358741D01*
X88676376Y-125532812D01*
X88608456Y-125696784D01*
X88509853Y-125844354D01*
X88384354Y-125969853D01*
X88236784Y-126068456D01*
X88072812Y-126136376D01*
X87923512Y-126166073D01*
X87898742Y-126171000D01*
X87721258Y-126171000D01*
X87696488Y-126166073D01*
X87547188Y-126136376D01*
X87383216Y-126068456D01*
X87235646Y-125969853D01*
X87110147Y-125844354D01*
X87011544Y-125696784D01*
X86943624Y-125532812D01*
X86909000Y-125358741D01*
X86909000Y-125181259D01*
X86943624Y-125007188D01*
X87011544Y-124843216D01*
X87110147Y-124695646D01*
X87235646Y-124570147D01*
X87383216Y-124471544D01*
X87547188Y-124403624D01*
X87696488Y-124373927D01*
X87721258Y-124369000D01*
X87898742Y-124369000D01*
X87923512Y-124373927D01*
X87923512Y-124373927D01*
G37*
G36*
X167923512Y-124373927D02*
G01*
X168072812Y-124403624D01*
X168236784Y-124471544D01*
X168384354Y-124570147D01*
X168509853Y-124695646D01*
X168608456Y-124843216D01*
X168676376Y-125007188D01*
X168711000Y-125181259D01*
X168711000Y-125358741D01*
X168676376Y-125532812D01*
X168608456Y-125696784D01*
X168509853Y-125844354D01*
X168384354Y-125969853D01*
X168236784Y-126068456D01*
X168072812Y-126136376D01*
X167923512Y-126166073D01*
X167898742Y-126171000D01*
X167721258Y-126171000D01*
X167696488Y-126166073D01*
X167547188Y-126136376D01*
X167383216Y-126068456D01*
X167235646Y-125969853D01*
X167110147Y-125844354D01*
X167011544Y-125696784D01*
X166943624Y-125532812D01*
X166909000Y-125358741D01*
X166909000Y-125181259D01*
X166943624Y-125007188D01*
X167011544Y-124843216D01*
X167110147Y-124695646D01*
X167235646Y-124570147D01*
X167383216Y-124471544D01*
X167547188Y-124403624D01*
X167696488Y-124373927D01*
X167721258Y-124369000D01*
X167898742Y-124369000D01*
X167923512Y-124373927D01*
X167923512Y-124373927D01*
G37*
G36*
X99144549Y-121601116D02*
G01*
X99255734Y-121623232D01*
X99465203Y-121709997D01*
X99653720Y-121835960D01*
X99814040Y-121996280D01*
X99940003Y-122184797D01*
X100026768Y-122394266D01*
X100071000Y-122616636D01*
X100071000Y-122843364D01*
X100026768Y-123065734D01*
X99940003Y-123275203D01*
X99814040Y-123463720D01*
X99653720Y-123624040D01*
X99465203Y-123750003D01*
X99255734Y-123836768D01*
X99144549Y-123858884D01*
X99033365Y-123881000D01*
X98806635Y-123881000D01*
X98695451Y-123858884D01*
X98584266Y-123836768D01*
X98374797Y-123750003D01*
X98186280Y-123624040D01*
X98025960Y-123463720D01*
X97899997Y-123275203D01*
X97813232Y-123065734D01*
X97769000Y-122843364D01*
X97769000Y-122616636D01*
X97813232Y-122394266D01*
X97899997Y-122184797D01*
X98025960Y-121996280D01*
X98186280Y-121835960D01*
X98374797Y-121709997D01*
X98584266Y-121623232D01*
X98695451Y-121601116D01*
X98806635Y-121579000D01*
X99033365Y-121579000D01*
X99144549Y-121601116D01*
X99144549Y-121601116D01*
G37*
G36*
X139144549Y-121601116D02*
G01*
X139255734Y-121623232D01*
X139465203Y-121709997D01*
X139653720Y-121835960D01*
X139814040Y-121996280D01*
X139940003Y-122184797D01*
X140026768Y-122394266D01*
X140071000Y-122616636D01*
X140071000Y-122843364D01*
X140026768Y-123065734D01*
X139940003Y-123275203D01*
X139814040Y-123463720D01*
X139653720Y-123624040D01*
X139465203Y-123750003D01*
X139255734Y-123836768D01*
X139144549Y-123858884D01*
X139033365Y-123881000D01*
X138806635Y-123881000D01*
X138695451Y-123858884D01*
X138584266Y-123836768D01*
X138374797Y-123750003D01*
X138186280Y-123624040D01*
X138025960Y-123463720D01*
X137899997Y-123275203D01*
X137813232Y-123065734D01*
X137769000Y-122843364D01*
X137769000Y-122616636D01*
X137813232Y-122394266D01*
X137899997Y-122184797D01*
X138025960Y-121996280D01*
X138186280Y-121835960D01*
X138374797Y-121709997D01*
X138584266Y-121623232D01*
X138695451Y-121601116D01*
X138806635Y-121579000D01*
X139033365Y-121579000D01*
X139144549Y-121601116D01*
X139144549Y-121601116D01*
G37*
G36*
X119144549Y-121601116D02*
G01*
X119255734Y-121623232D01*
X119465203Y-121709997D01*
X119653720Y-121835960D01*
X119814040Y-121996280D01*
X119940003Y-122184797D01*
X120026768Y-122394266D01*
X120071000Y-122616636D01*
X120071000Y-122843364D01*
X120026768Y-123065734D01*
X119940003Y-123275203D01*
X119814040Y-123463720D01*
X119653720Y-123624040D01*
X119465203Y-123750003D01*
X119255734Y-123836768D01*
X119144549Y-123858884D01*
X119033365Y-123881000D01*
X118806635Y-123881000D01*
X118695451Y-123858884D01*
X118584266Y-123836768D01*
X118374797Y-123750003D01*
X118186280Y-123624040D01*
X118025960Y-123463720D01*
X117899997Y-123275203D01*
X117813232Y-123065734D01*
X117769000Y-122843364D01*
X117769000Y-122616636D01*
X117813232Y-122394266D01*
X117899997Y-122184797D01*
X118025960Y-121996280D01*
X118186280Y-121835960D01*
X118374797Y-121709997D01*
X118584266Y-121623232D01*
X118695451Y-121601116D01*
X118806635Y-121579000D01*
X119033365Y-121579000D01*
X119144549Y-121601116D01*
X119144549Y-121601116D01*
G37*
G36*
X79144549Y-121601116D02*
G01*
X79255734Y-121623232D01*
X79465203Y-121709997D01*
X79653720Y-121835960D01*
X79814040Y-121996280D01*
X79940003Y-122184797D01*
X80026768Y-122394266D01*
X80071000Y-122616636D01*
X80071000Y-122843364D01*
X80026768Y-123065734D01*
X79940003Y-123275203D01*
X79814040Y-123463720D01*
X79653720Y-123624040D01*
X79465203Y-123750003D01*
X79255734Y-123836768D01*
X79144549Y-123858884D01*
X79033365Y-123881000D01*
X78806635Y-123881000D01*
X78695451Y-123858884D01*
X78584266Y-123836768D01*
X78374797Y-123750003D01*
X78186280Y-123624040D01*
X78025960Y-123463720D01*
X77899997Y-123275203D01*
X77813232Y-123065734D01*
X77769000Y-122843364D01*
X77769000Y-122616636D01*
X77813232Y-122394266D01*
X77899997Y-122184797D01*
X78025960Y-121996280D01*
X78186280Y-121835960D01*
X78374797Y-121709997D01*
X78584266Y-121623232D01*
X78695451Y-121601116D01*
X78806635Y-121579000D01*
X79033365Y-121579000D01*
X79144549Y-121601116D01*
X79144549Y-121601116D01*
G37*
G36*
X159144549Y-121601116D02*
G01*
X159255734Y-121623232D01*
X159465203Y-121709997D01*
X159653720Y-121835960D01*
X159814040Y-121996280D01*
X159940003Y-122184797D01*
X160026768Y-122394266D01*
X160071000Y-122616636D01*
X160071000Y-122843364D01*
X160026768Y-123065734D01*
X159940003Y-123275203D01*
X159814040Y-123463720D01*
X159653720Y-123624040D01*
X159465203Y-123750003D01*
X159255734Y-123836768D01*
X159144549Y-123858884D01*
X159033365Y-123881000D01*
X158806635Y-123881000D01*
X158695451Y-123858884D01*
X158584266Y-123836768D01*
X158374797Y-123750003D01*
X158186280Y-123624040D01*
X158025960Y-123463720D01*
X157899997Y-123275203D01*
X157813232Y-123065734D01*
X157769000Y-122843364D01*
X157769000Y-122616636D01*
X157813232Y-122394266D01*
X157899997Y-122184797D01*
X158025960Y-121996280D01*
X158186280Y-121835960D01*
X158374797Y-121709997D01*
X158584266Y-121623232D01*
X158695451Y-121601116D01*
X158806635Y-121579000D01*
X159033365Y-121579000D01*
X159144549Y-121601116D01*
X159144549Y-121601116D01*
G37*
G36*
X145494549Y-119061116D02*
G01*
X145605734Y-119083232D01*
X145815203Y-119169997D01*
X146003720Y-119295960D01*
X146164040Y-119456280D01*
X146290003Y-119644797D01*
X146376768Y-119854266D01*
X146421000Y-120076636D01*
X146421000Y-120303364D01*
X146376768Y-120525734D01*
X146290003Y-120735203D01*
X146164040Y-120923720D01*
X146003720Y-121084040D01*
X145815203Y-121210003D01*
X145605734Y-121296768D01*
X145494549Y-121318884D01*
X145383365Y-121341000D01*
X145156635Y-121341000D01*
X145045451Y-121318884D01*
X144934266Y-121296768D01*
X144724797Y-121210003D01*
X144536280Y-121084040D01*
X144375960Y-120923720D01*
X144249997Y-120735203D01*
X144163232Y-120525734D01*
X144119000Y-120303364D01*
X144119000Y-120076636D01*
X144163232Y-119854266D01*
X144249997Y-119644797D01*
X144375960Y-119456280D01*
X144536280Y-119295960D01*
X144724797Y-119169997D01*
X144934266Y-119083232D01*
X145045451Y-119061116D01*
X145156635Y-119039000D01*
X145383365Y-119039000D01*
X145494549Y-119061116D01*
X145494549Y-119061116D01*
G37*
G36*
X85494549Y-119061116D02*
G01*
X85605734Y-119083232D01*
X85815203Y-119169997D01*
X86003720Y-119295960D01*
X86164040Y-119456280D01*
X86290003Y-119644797D01*
X86376768Y-119854266D01*
X86421000Y-120076636D01*
X86421000Y-120303364D01*
X86376768Y-120525734D01*
X86290003Y-120735203D01*
X86164040Y-120923720D01*
X86003720Y-121084040D01*
X85815203Y-121210003D01*
X85605734Y-121296768D01*
X85494549Y-121318884D01*
X85383365Y-121341000D01*
X85156635Y-121341000D01*
X85045451Y-121318884D01*
X84934266Y-121296768D01*
X84724797Y-121210003D01*
X84536280Y-121084040D01*
X84375960Y-120923720D01*
X84249997Y-120735203D01*
X84163232Y-120525734D01*
X84119000Y-120303364D01*
X84119000Y-120076636D01*
X84163232Y-119854266D01*
X84249997Y-119644797D01*
X84375960Y-119456280D01*
X84536280Y-119295960D01*
X84724797Y-119169997D01*
X84934266Y-119083232D01*
X85045451Y-119061116D01*
X85156635Y-119039000D01*
X85383365Y-119039000D01*
X85494549Y-119061116D01*
X85494549Y-119061116D01*
G37*
G36*
X105494549Y-119061116D02*
G01*
X105605734Y-119083232D01*
X105815203Y-119169997D01*
X106003720Y-119295960D01*
X106164040Y-119456280D01*
X106290003Y-119644797D01*
X106376768Y-119854266D01*
X106421000Y-120076636D01*
X106421000Y-120303364D01*
X106376768Y-120525734D01*
X106290003Y-120735203D01*
X106164040Y-120923720D01*
X106003720Y-121084040D01*
X105815203Y-121210003D01*
X105605734Y-121296768D01*
X105494549Y-121318884D01*
X105383365Y-121341000D01*
X105156635Y-121341000D01*
X105045451Y-121318884D01*
X104934266Y-121296768D01*
X104724797Y-121210003D01*
X104536280Y-121084040D01*
X104375960Y-120923720D01*
X104249997Y-120735203D01*
X104163232Y-120525734D01*
X104119000Y-120303364D01*
X104119000Y-120076636D01*
X104163232Y-119854266D01*
X104249997Y-119644797D01*
X104375960Y-119456280D01*
X104536280Y-119295960D01*
X104724797Y-119169997D01*
X104934266Y-119083232D01*
X105045451Y-119061116D01*
X105156635Y-119039000D01*
X105383365Y-119039000D01*
X105494549Y-119061116D01*
X105494549Y-119061116D01*
G37*
G36*
X125494549Y-119061116D02*
G01*
X125605734Y-119083232D01*
X125815203Y-119169997D01*
X126003720Y-119295960D01*
X126164040Y-119456280D01*
X126290003Y-119644797D01*
X126376768Y-119854266D01*
X126421000Y-120076636D01*
X126421000Y-120303364D01*
X126376768Y-120525734D01*
X126290003Y-120735203D01*
X126164040Y-120923720D01*
X126003720Y-121084040D01*
X125815203Y-121210003D01*
X125605734Y-121296768D01*
X125494549Y-121318884D01*
X125383365Y-121341000D01*
X125156635Y-121341000D01*
X125045451Y-121318884D01*
X124934266Y-121296768D01*
X124724797Y-121210003D01*
X124536280Y-121084040D01*
X124375960Y-120923720D01*
X124249997Y-120735203D01*
X124163232Y-120525734D01*
X124119000Y-120303364D01*
X124119000Y-120076636D01*
X124163232Y-119854266D01*
X124249997Y-119644797D01*
X124375960Y-119456280D01*
X124536280Y-119295960D01*
X124724797Y-119169997D01*
X124934266Y-119083232D01*
X125045451Y-119061116D01*
X125156635Y-119039000D01*
X125383365Y-119039000D01*
X125494549Y-119061116D01*
X125494549Y-119061116D01*
G37*
G36*
X165494549Y-119061116D02*
G01*
X165605734Y-119083232D01*
X165815203Y-119169997D01*
X166003720Y-119295960D01*
X166164040Y-119456280D01*
X166290003Y-119644797D01*
X166376768Y-119854266D01*
X166421000Y-120076636D01*
X166421000Y-120303364D01*
X166376768Y-120525734D01*
X166290003Y-120735203D01*
X166164040Y-120923720D01*
X166003720Y-121084040D01*
X165815203Y-121210003D01*
X165605734Y-121296768D01*
X165494549Y-121318884D01*
X165383365Y-121341000D01*
X165156635Y-121341000D01*
X165045451Y-121318884D01*
X164934266Y-121296768D01*
X164724797Y-121210003D01*
X164536280Y-121084040D01*
X164375960Y-120923720D01*
X164249997Y-120735203D01*
X164163232Y-120525734D01*
X164119000Y-120303364D01*
X164119000Y-120076636D01*
X164163232Y-119854266D01*
X164249997Y-119644797D01*
X164375960Y-119456280D01*
X164536280Y-119295960D01*
X164724797Y-119169997D01*
X164934266Y-119083232D01*
X165045451Y-119061116D01*
X165156635Y-119039000D01*
X165383365Y-119039000D01*
X165494549Y-119061116D01*
X165494549Y-119061116D01*
G37*
G36*
X131028674Y-119395465D02*
G01*
X131066367Y-119406899D01*
X131101103Y-119425466D01*
X131131548Y-119450452D01*
X131156534Y-119480897D01*
X131175101Y-119515633D01*
X131186535Y-119553326D01*
X131191000Y-119598661D01*
X131191000Y-120685339D01*
X131186535Y-120730674D01*
X131175101Y-120768367D01*
X131156534Y-120803103D01*
X131131548Y-120833548D01*
X131101103Y-120858534D01*
X131066367Y-120877101D01*
X131028674Y-120888535D01*
X130983339Y-120893000D01*
X130146661Y-120893000D01*
X130101326Y-120888535D01*
X130063633Y-120877101D01*
X130028897Y-120858534D01*
X129998452Y-120833548D01*
X129973466Y-120803103D01*
X129954899Y-120768367D01*
X129943465Y-120730674D01*
X129939000Y-120685339D01*
X129939000Y-119598661D01*
X129943465Y-119553326D01*
X129954899Y-119515633D01*
X129973466Y-119480897D01*
X129998452Y-119450452D01*
X130028897Y-119425466D01*
X130063633Y-119406899D01*
X130101326Y-119395465D01*
X130146661Y-119391000D01*
X130983339Y-119391000D01*
X131028674Y-119395465D01*
X131028674Y-119395465D01*
G37*
G36*
X171913674Y-119395465D02*
G01*
X171951367Y-119406899D01*
X171986103Y-119425466D01*
X172016548Y-119450452D01*
X172041534Y-119480897D01*
X172060101Y-119515633D01*
X172071535Y-119553326D01*
X172076000Y-119598661D01*
X172076000Y-120685339D01*
X172071535Y-120730674D01*
X172060101Y-120768367D01*
X172041534Y-120803103D01*
X172016548Y-120833548D01*
X171986103Y-120858534D01*
X171951367Y-120877101D01*
X171913674Y-120888535D01*
X171868339Y-120893000D01*
X171031661Y-120893000D01*
X170986326Y-120888535D01*
X170948633Y-120877101D01*
X170913897Y-120858534D01*
X170883452Y-120833548D01*
X170858466Y-120803103D01*
X170839899Y-120768367D01*
X170828465Y-120730674D01*
X170824000Y-120685339D01*
X170824000Y-119598661D01*
X170828465Y-119553326D01*
X170839899Y-119515633D01*
X170858466Y-119480897D01*
X170883452Y-119450452D01*
X170913897Y-119425466D01*
X170948633Y-119406899D01*
X170986326Y-119395465D01*
X171031661Y-119391000D01*
X171868339Y-119391000D01*
X171913674Y-119395465D01*
X171913674Y-119395465D01*
G37*
G36*
X149543674Y-119395465D02*
G01*
X149581367Y-119406899D01*
X149616103Y-119425466D01*
X149646548Y-119450452D01*
X149671534Y-119480897D01*
X149690101Y-119515633D01*
X149701535Y-119553326D01*
X149706000Y-119598661D01*
X149706000Y-120685339D01*
X149701535Y-120730674D01*
X149690101Y-120768367D01*
X149671534Y-120803103D01*
X149646548Y-120833548D01*
X149616103Y-120858534D01*
X149581367Y-120877101D01*
X149543674Y-120888535D01*
X149498339Y-120893000D01*
X148661661Y-120893000D01*
X148616326Y-120888535D01*
X148578633Y-120877101D01*
X148543897Y-120858534D01*
X148513452Y-120833548D01*
X148488466Y-120803103D01*
X148469899Y-120768367D01*
X148458465Y-120730674D01*
X148454000Y-120685339D01*
X148454000Y-119598661D01*
X148458465Y-119553326D01*
X148469899Y-119515633D01*
X148488466Y-119480897D01*
X148513452Y-119450452D01*
X148543897Y-119425466D01*
X148578633Y-119406899D01*
X148616326Y-119395465D01*
X148661661Y-119391000D01*
X149498339Y-119391000D01*
X149543674Y-119395465D01*
X149543674Y-119395465D01*
G37*
G36*
X151593674Y-119395465D02*
G01*
X151631367Y-119406899D01*
X151666103Y-119425466D01*
X151696548Y-119450452D01*
X151721534Y-119480897D01*
X151740101Y-119515633D01*
X151751535Y-119553326D01*
X151756000Y-119598661D01*
X151756000Y-120685339D01*
X151751535Y-120730674D01*
X151740101Y-120768367D01*
X151721534Y-120803103D01*
X151696548Y-120833548D01*
X151666103Y-120858534D01*
X151631367Y-120877101D01*
X151593674Y-120888535D01*
X151548339Y-120893000D01*
X150711661Y-120893000D01*
X150666326Y-120888535D01*
X150628633Y-120877101D01*
X150593897Y-120858534D01*
X150563452Y-120833548D01*
X150538466Y-120803103D01*
X150519899Y-120768367D01*
X150508465Y-120730674D01*
X150504000Y-120685339D01*
X150504000Y-119598661D01*
X150508465Y-119553326D01*
X150519899Y-119515633D01*
X150538466Y-119480897D01*
X150563452Y-119450452D01*
X150593897Y-119425466D01*
X150628633Y-119406899D01*
X150666326Y-119395465D01*
X150711661Y-119391000D01*
X151548339Y-119391000D01*
X151593674Y-119395465D01*
X151593674Y-119395465D01*
G37*
G36*
X128978674Y-119395465D02*
G01*
X129016367Y-119406899D01*
X129051103Y-119425466D01*
X129081548Y-119450452D01*
X129106534Y-119480897D01*
X129125101Y-119515633D01*
X129136535Y-119553326D01*
X129141000Y-119598661D01*
X129141000Y-120685339D01*
X129136535Y-120730674D01*
X129125101Y-120768367D01*
X129106534Y-120803103D01*
X129081548Y-120833548D01*
X129051103Y-120858534D01*
X129016367Y-120877101D01*
X128978674Y-120888535D01*
X128933339Y-120893000D01*
X128096661Y-120893000D01*
X128051326Y-120888535D01*
X128013633Y-120877101D01*
X127978897Y-120858534D01*
X127948452Y-120833548D01*
X127923466Y-120803103D01*
X127904899Y-120768367D01*
X127893465Y-120730674D01*
X127889000Y-120685339D01*
X127889000Y-119598661D01*
X127893465Y-119553326D01*
X127904899Y-119515633D01*
X127923466Y-119480897D01*
X127948452Y-119450452D01*
X127978897Y-119425466D01*
X128013633Y-119406899D01*
X128051326Y-119395465D01*
X128096661Y-119391000D01*
X128933339Y-119391000D01*
X128978674Y-119395465D01*
X128978674Y-119395465D01*
G37*
G36*
X110953674Y-119395465D02*
G01*
X110991367Y-119406899D01*
X111026103Y-119425466D01*
X111056548Y-119450452D01*
X111081534Y-119480897D01*
X111100101Y-119515633D01*
X111111535Y-119553326D01*
X111116000Y-119598661D01*
X111116000Y-120685339D01*
X111111535Y-120730674D01*
X111100101Y-120768367D01*
X111081534Y-120803103D01*
X111056548Y-120833548D01*
X111026103Y-120858534D01*
X110991367Y-120877101D01*
X110953674Y-120888535D01*
X110908339Y-120893000D01*
X110071661Y-120893000D01*
X110026326Y-120888535D01*
X109988633Y-120877101D01*
X109953897Y-120858534D01*
X109923452Y-120833548D01*
X109898466Y-120803103D01*
X109879899Y-120768367D01*
X109868465Y-120730674D01*
X109864000Y-120685339D01*
X109864000Y-119598661D01*
X109868465Y-119553326D01*
X109879899Y-119515633D01*
X109898466Y-119480897D01*
X109923452Y-119450452D01*
X109953897Y-119425466D01*
X109988633Y-119406899D01*
X110026326Y-119395465D01*
X110071661Y-119391000D01*
X110908339Y-119391000D01*
X110953674Y-119395465D01*
X110953674Y-119395465D01*
G37*
G36*
X88338674Y-119395465D02*
G01*
X88376367Y-119406899D01*
X88411103Y-119425466D01*
X88441548Y-119450452D01*
X88466534Y-119480897D01*
X88485101Y-119515633D01*
X88496535Y-119553326D01*
X88501000Y-119598661D01*
X88501000Y-120685339D01*
X88496535Y-120730674D01*
X88485101Y-120768367D01*
X88466534Y-120803103D01*
X88441548Y-120833548D01*
X88411103Y-120858534D01*
X88376367Y-120877101D01*
X88338674Y-120888535D01*
X88293339Y-120893000D01*
X87456661Y-120893000D01*
X87411326Y-120888535D01*
X87373633Y-120877101D01*
X87338897Y-120858534D01*
X87308452Y-120833548D01*
X87283466Y-120803103D01*
X87264899Y-120768367D01*
X87253465Y-120730674D01*
X87249000Y-120685339D01*
X87249000Y-119598661D01*
X87253465Y-119553326D01*
X87264899Y-119515633D01*
X87283466Y-119480897D01*
X87308452Y-119450452D01*
X87338897Y-119425466D01*
X87373633Y-119406899D01*
X87411326Y-119395465D01*
X87456661Y-119391000D01*
X88293339Y-119391000D01*
X88338674Y-119395465D01*
X88338674Y-119395465D01*
G37*
G36*
X90388674Y-119395465D02*
G01*
X90426367Y-119406899D01*
X90461103Y-119425466D01*
X90491548Y-119450452D01*
X90516534Y-119480897D01*
X90535101Y-119515633D01*
X90546535Y-119553326D01*
X90551000Y-119598661D01*
X90551000Y-120685339D01*
X90546535Y-120730674D01*
X90535101Y-120768367D01*
X90516534Y-120803103D01*
X90491548Y-120833548D01*
X90461103Y-120858534D01*
X90426367Y-120877101D01*
X90388674Y-120888535D01*
X90343339Y-120893000D01*
X89506661Y-120893000D01*
X89461326Y-120888535D01*
X89423633Y-120877101D01*
X89388897Y-120858534D01*
X89358452Y-120833548D01*
X89333466Y-120803103D01*
X89314899Y-120768367D01*
X89303465Y-120730674D01*
X89299000Y-120685339D01*
X89299000Y-119598661D01*
X89303465Y-119553326D01*
X89314899Y-119515633D01*
X89333466Y-119480897D01*
X89358452Y-119450452D01*
X89388897Y-119425466D01*
X89423633Y-119406899D01*
X89461326Y-119395465D01*
X89506661Y-119391000D01*
X90343339Y-119391000D01*
X90388674Y-119395465D01*
X90388674Y-119395465D01*
G37*
G36*
X169863674Y-119395465D02*
G01*
X169901367Y-119406899D01*
X169936103Y-119425466D01*
X169966548Y-119450452D01*
X169991534Y-119480897D01*
X170010101Y-119515633D01*
X170021535Y-119553326D01*
X170026000Y-119598661D01*
X170026000Y-120685339D01*
X170021535Y-120730674D01*
X170010101Y-120768367D01*
X169991534Y-120803103D01*
X169966548Y-120833548D01*
X169936103Y-120858534D01*
X169901367Y-120877101D01*
X169863674Y-120888535D01*
X169818339Y-120893000D01*
X168981661Y-120893000D01*
X168936326Y-120888535D01*
X168898633Y-120877101D01*
X168863897Y-120858534D01*
X168833452Y-120833548D01*
X168808466Y-120803103D01*
X168789899Y-120768367D01*
X168778465Y-120730674D01*
X168774000Y-120685339D01*
X168774000Y-119598661D01*
X168778465Y-119553326D01*
X168789899Y-119515633D01*
X168808466Y-119480897D01*
X168833452Y-119450452D01*
X168863897Y-119425466D01*
X168898633Y-119406899D01*
X168936326Y-119395465D01*
X168981661Y-119391000D01*
X169818339Y-119391000D01*
X169863674Y-119395465D01*
X169863674Y-119395465D01*
G37*
G36*
X108903674Y-119395465D02*
G01*
X108941367Y-119406899D01*
X108976103Y-119425466D01*
X109006548Y-119450452D01*
X109031534Y-119480897D01*
X109050101Y-119515633D01*
X109061535Y-119553326D01*
X109066000Y-119598661D01*
X109066000Y-120685339D01*
X109061535Y-120730674D01*
X109050101Y-120768367D01*
X109031534Y-120803103D01*
X109006548Y-120833548D01*
X108976103Y-120858534D01*
X108941367Y-120877101D01*
X108903674Y-120888535D01*
X108858339Y-120893000D01*
X108021661Y-120893000D01*
X107976326Y-120888535D01*
X107938633Y-120877101D01*
X107903897Y-120858534D01*
X107873452Y-120833548D01*
X107848466Y-120803103D01*
X107829899Y-120768367D01*
X107818465Y-120730674D01*
X107814000Y-120685339D01*
X107814000Y-119598661D01*
X107818465Y-119553326D01*
X107829899Y-119515633D01*
X107848466Y-119480897D01*
X107873452Y-119450452D01*
X107903897Y-119425466D01*
X107938633Y-119406899D01*
X107976326Y-119395465D01*
X108021661Y-119391000D01*
X108858339Y-119391000D01*
X108903674Y-119395465D01*
X108903674Y-119395465D01*
G37*
G36*
X120333000Y-112721000D02*
G01*
X119031000Y-112721000D01*
X119031000Y-111419000D01*
X120333000Y-111419000D01*
X120333000Y-112721000D01*
X120333000Y-112721000D01*
G37*
G36*
X160333000Y-112721000D02*
G01*
X159031000Y-112721000D01*
X159031000Y-111419000D01*
X160333000Y-111419000D01*
X160333000Y-112721000D01*
X160333000Y-112721000D01*
G37*
G36*
X166429000Y-112721000D02*
G01*
X165127000Y-112721000D01*
X165127000Y-111419000D01*
X166429000Y-111419000D01*
X166429000Y-112721000D01*
X166429000Y-112721000D01*
G37*
G36*
X140333000Y-112721000D02*
G01*
X139031000Y-112721000D01*
X139031000Y-111419000D01*
X140333000Y-111419000D01*
X140333000Y-112721000D01*
X140333000Y-112721000D01*
G37*
G36*
X146429000Y-112721000D02*
G01*
X145127000Y-112721000D01*
X145127000Y-111419000D01*
X146429000Y-111419000D01*
X146429000Y-112721000D01*
X146429000Y-112721000D01*
G37*
G36*
X126429000Y-112721000D02*
G01*
X125127000Y-112721000D01*
X125127000Y-111419000D01*
X126429000Y-111419000D01*
X126429000Y-112721000D01*
X126429000Y-112721000D01*
G37*
G36*
X100333000Y-112721000D02*
G01*
X99031000Y-112721000D01*
X99031000Y-111419000D01*
X100333000Y-111419000D01*
X100333000Y-112721000D01*
X100333000Y-112721000D01*
G37*
G36*
X106429000Y-112721000D02*
G01*
X105127000Y-112721000D01*
X105127000Y-111419000D01*
X106429000Y-111419000D01*
X106429000Y-112721000D01*
X106429000Y-112721000D01*
G37*
G36*
X80333000Y-112721000D02*
G01*
X79031000Y-112721000D01*
X79031000Y-111419000D01*
X80333000Y-111419000D01*
X80333000Y-112721000D01*
X80333000Y-112721000D01*
G37*
G36*
X86429000Y-112721000D02*
G01*
X85127000Y-112721000D01*
X85127000Y-111419000D01*
X86429000Y-111419000D01*
X86429000Y-112721000D01*
X86429000Y-112721000D01*
G37*
G36*
X80333000Y-109521000D02*
G01*
X79031000Y-109521000D01*
X79031000Y-108219000D01*
X80333000Y-108219000D01*
X80333000Y-109521000D01*
X80333000Y-109521000D01*
G37*
G36*
X86429000Y-109521000D02*
G01*
X85127000Y-109521000D01*
X85127000Y-108219000D01*
X86429000Y-108219000D01*
X86429000Y-109521000D01*
X86429000Y-109521000D01*
G37*
G36*
X100333000Y-109521000D02*
G01*
X99031000Y-109521000D01*
X99031000Y-108219000D01*
X100333000Y-108219000D01*
X100333000Y-109521000D01*
X100333000Y-109521000D01*
G37*
G36*
X140333000Y-109521000D02*
G01*
X139031000Y-109521000D01*
X139031000Y-108219000D01*
X140333000Y-108219000D01*
X140333000Y-109521000D01*
X140333000Y-109521000D01*
G37*
G36*
X106429000Y-109521000D02*
G01*
X105127000Y-109521000D01*
X105127000Y-108219000D01*
X106429000Y-108219000D01*
X106429000Y-109521000D01*
X106429000Y-109521000D01*
G37*
G36*
X126429000Y-109521000D02*
G01*
X125127000Y-109521000D01*
X125127000Y-108219000D01*
X126429000Y-108219000D01*
X126429000Y-109521000D01*
X126429000Y-109521000D01*
G37*
G36*
X166429000Y-109521000D02*
G01*
X165127000Y-109521000D01*
X165127000Y-108219000D01*
X166429000Y-108219000D01*
X166429000Y-109521000D01*
X166429000Y-109521000D01*
G37*
G36*
X160333000Y-109521000D02*
G01*
X159031000Y-109521000D01*
X159031000Y-108219000D01*
X160333000Y-108219000D01*
X160333000Y-109521000D01*
X160333000Y-109521000D01*
G37*
G36*
X146429000Y-109521000D02*
G01*
X145127000Y-109521000D01*
X145127000Y-108219000D01*
X146429000Y-108219000D01*
X146429000Y-109521000D01*
X146429000Y-109521000D01*
G37*
G36*
X120333000Y-109521000D02*
G01*
X119031000Y-109521000D01*
X119031000Y-108219000D01*
X120333000Y-108219000D01*
X120333000Y-109521000D01*
X120333000Y-109521000D01*
G37*
G36*
X163328254Y-103437818D02*
G01*
X163701511Y-103592426D01*
X163701513Y-103592427D01*
X164037436Y-103816884D01*
X164323116Y-104102564D01*
X164547574Y-104438489D01*
X164702182Y-104811746D01*
X164781000Y-105207993D01*
X164781000Y-105612007D01*
X164702182Y-106008254D01*
X164547574Y-106381511D01*
X164547573Y-106381513D01*
X164323116Y-106717436D01*
X164037436Y-107003116D01*
X163701513Y-107227573D01*
X163701512Y-107227574D01*
X163701511Y-107227574D01*
X163328254Y-107382182D01*
X162932007Y-107461000D01*
X162527993Y-107461000D01*
X162131746Y-107382182D01*
X161758489Y-107227574D01*
X161758488Y-107227574D01*
X161758487Y-107227573D01*
X161422564Y-107003116D01*
X161136884Y-106717436D01*
X160912427Y-106381513D01*
X160912426Y-106381511D01*
X160757818Y-106008254D01*
X160679000Y-105612007D01*
X160679000Y-105207993D01*
X160757818Y-104811746D01*
X160912426Y-104438489D01*
X161136884Y-104102564D01*
X161422564Y-103816884D01*
X161758487Y-103592427D01*
X161758489Y-103592426D01*
X162131746Y-103437818D01*
X162527993Y-103359000D01*
X162932007Y-103359000D01*
X163328254Y-103437818D01*
X163328254Y-103437818D01*
G37*
G36*
X103328254Y-103297818D02*
G01*
X103701511Y-103452426D01*
X103701513Y-103452427D01*
X104037436Y-103676884D01*
X104323116Y-103962564D01*
X104547574Y-104298489D01*
X104702182Y-104671746D01*
X104781000Y-105067993D01*
X104781000Y-105472007D01*
X104702182Y-105868254D01*
X104561266Y-106208456D01*
X104547573Y-106241513D01*
X104323116Y-106577436D01*
X104037436Y-106863116D01*
X103701513Y-107087573D01*
X103701512Y-107087574D01*
X103701511Y-107087574D01*
X103328254Y-107242182D01*
X102932007Y-107321000D01*
X102527993Y-107321000D01*
X102131746Y-107242182D01*
X101758489Y-107087574D01*
X101758488Y-107087574D01*
X101758487Y-107087573D01*
X101422564Y-106863116D01*
X101136884Y-106577436D01*
X100912427Y-106241513D01*
X100898734Y-106208456D01*
X100757818Y-105868254D01*
X100679000Y-105472007D01*
X100679000Y-105067993D01*
X100757818Y-104671746D01*
X100912426Y-104298489D01*
X101136884Y-103962564D01*
X101422564Y-103676884D01*
X101758487Y-103452427D01*
X101758489Y-103452426D01*
X102131746Y-103297818D01*
X102527993Y-103219000D01*
X102932007Y-103219000D01*
X103328254Y-103297818D01*
X103328254Y-103297818D01*
G37*
G36*
X83328254Y-103297818D02*
G01*
X83701511Y-103452426D01*
X83701513Y-103452427D01*
X84037436Y-103676884D01*
X84323116Y-103962564D01*
X84547574Y-104298489D01*
X84702182Y-104671746D01*
X84781000Y-105067993D01*
X84781000Y-105472007D01*
X84702182Y-105868254D01*
X84561266Y-106208456D01*
X84547573Y-106241513D01*
X84323116Y-106577436D01*
X84037436Y-106863116D01*
X83701513Y-107087573D01*
X83701512Y-107087574D01*
X83701511Y-107087574D01*
X83328254Y-107242182D01*
X82932007Y-107321000D01*
X82527993Y-107321000D01*
X82131746Y-107242182D01*
X81758489Y-107087574D01*
X81758488Y-107087574D01*
X81758487Y-107087573D01*
X81422564Y-106863116D01*
X81136884Y-106577436D01*
X80912427Y-106241513D01*
X80898734Y-106208456D01*
X80757818Y-105868254D01*
X80679000Y-105472007D01*
X80679000Y-105067993D01*
X80757818Y-104671746D01*
X80912426Y-104298489D01*
X81136884Y-103962564D01*
X81422564Y-103676884D01*
X81758487Y-103452427D01*
X81758489Y-103452426D01*
X82131746Y-103297818D01*
X82527993Y-103219000D01*
X82932007Y-103219000D01*
X83328254Y-103297818D01*
X83328254Y-103297818D01*
G37*
G36*
X123328254Y-103297818D02*
G01*
X123701511Y-103452426D01*
X123701513Y-103452427D01*
X124037436Y-103676884D01*
X124323116Y-103962564D01*
X124547574Y-104298489D01*
X124702182Y-104671746D01*
X124781000Y-105067993D01*
X124781000Y-105472007D01*
X124702182Y-105868254D01*
X124561266Y-106208456D01*
X124547573Y-106241513D01*
X124323116Y-106577436D01*
X124037436Y-106863116D01*
X123701513Y-107087573D01*
X123701512Y-107087574D01*
X123701511Y-107087574D01*
X123328254Y-107242182D01*
X122932007Y-107321000D01*
X122527993Y-107321000D01*
X122131746Y-107242182D01*
X121758489Y-107087574D01*
X121758488Y-107087574D01*
X121758487Y-107087573D01*
X121422564Y-106863116D01*
X121136884Y-106577436D01*
X120912427Y-106241513D01*
X120898734Y-106208456D01*
X120757818Y-105868254D01*
X120679000Y-105472007D01*
X120679000Y-105067993D01*
X120757818Y-104671746D01*
X120912426Y-104298489D01*
X121136884Y-103962564D01*
X121422564Y-103676884D01*
X121758487Y-103452427D01*
X121758489Y-103452426D01*
X122131746Y-103297818D01*
X122527993Y-103219000D01*
X122932007Y-103219000D01*
X123328254Y-103297818D01*
X123328254Y-103297818D01*
G37*
G36*
X143328254Y-103297818D02*
G01*
X143701511Y-103452426D01*
X143701513Y-103452427D01*
X144037436Y-103676884D01*
X144323116Y-103962564D01*
X144547574Y-104298489D01*
X144702182Y-104671746D01*
X144781000Y-105067993D01*
X144781000Y-105472007D01*
X144702182Y-105868254D01*
X144561266Y-106208456D01*
X144547573Y-106241513D01*
X144323116Y-106577436D01*
X144037436Y-106863116D01*
X143701513Y-107087573D01*
X143701512Y-107087574D01*
X143701511Y-107087574D01*
X143328254Y-107242182D01*
X142932007Y-107321000D01*
X142527993Y-107321000D01*
X142131746Y-107242182D01*
X141758489Y-107087574D01*
X141758488Y-107087574D01*
X141758487Y-107087573D01*
X141422564Y-106863116D01*
X141136884Y-106577436D01*
X140912427Y-106241513D01*
X140898734Y-106208456D01*
X140757818Y-105868254D01*
X140679000Y-105472007D01*
X140679000Y-105067993D01*
X140757818Y-104671746D01*
X140912426Y-104298489D01*
X141136884Y-103962564D01*
X141422564Y-103676884D01*
X141758487Y-103452427D01*
X141758489Y-103452426D01*
X142131746Y-103297818D01*
X142527993Y-103219000D01*
X142932007Y-103219000D01*
X143328254Y-103297818D01*
X143328254Y-103297818D01*
G37*
G36*
X167923512Y-104513927D02*
G01*
X168072812Y-104543624D01*
X168236784Y-104611544D01*
X168384354Y-104710147D01*
X168509853Y-104835646D01*
X168608456Y-104983216D01*
X168676376Y-105147188D01*
X168711000Y-105321259D01*
X168711000Y-105498741D01*
X168676376Y-105672812D01*
X168608456Y-105836784D01*
X168509853Y-105984354D01*
X168384354Y-106109853D01*
X168236784Y-106208456D01*
X168072812Y-106276376D01*
X167923512Y-106306073D01*
X167898742Y-106311000D01*
X167721258Y-106311000D01*
X167696488Y-106306073D01*
X167547188Y-106276376D01*
X167383216Y-106208456D01*
X167235646Y-106109853D01*
X167110147Y-105984354D01*
X167011544Y-105836784D01*
X166943624Y-105672812D01*
X166909000Y-105498741D01*
X166909000Y-105321259D01*
X166943624Y-105147188D01*
X167011544Y-104983216D01*
X167110147Y-104835646D01*
X167235646Y-104710147D01*
X167383216Y-104611544D01*
X167547188Y-104543624D01*
X167696488Y-104513927D01*
X167721258Y-104509000D01*
X167898742Y-104509000D01*
X167923512Y-104513927D01*
X167923512Y-104513927D01*
G37*
G36*
X157763512Y-104513927D02*
G01*
X157912812Y-104543624D01*
X158076784Y-104611544D01*
X158224354Y-104710147D01*
X158349853Y-104835646D01*
X158448456Y-104983216D01*
X158516376Y-105147188D01*
X158551000Y-105321259D01*
X158551000Y-105498741D01*
X158516376Y-105672812D01*
X158448456Y-105836784D01*
X158349853Y-105984354D01*
X158224354Y-106109853D01*
X158076784Y-106208456D01*
X157912812Y-106276376D01*
X157763512Y-106306073D01*
X157738742Y-106311000D01*
X157561258Y-106311000D01*
X157536488Y-106306073D01*
X157387188Y-106276376D01*
X157223216Y-106208456D01*
X157075646Y-106109853D01*
X156950147Y-105984354D01*
X156851544Y-105836784D01*
X156783624Y-105672812D01*
X156749000Y-105498741D01*
X156749000Y-105321259D01*
X156783624Y-105147188D01*
X156851544Y-104983216D01*
X156950147Y-104835646D01*
X157075646Y-104710147D01*
X157223216Y-104611544D01*
X157387188Y-104543624D01*
X157536488Y-104513927D01*
X157561258Y-104509000D01*
X157738742Y-104509000D01*
X157763512Y-104513927D01*
X157763512Y-104513927D01*
G37*
G36*
X97763512Y-104373927D02*
G01*
X97912812Y-104403624D01*
X98076784Y-104471544D01*
X98224354Y-104570147D01*
X98349853Y-104695646D01*
X98448456Y-104843216D01*
X98516376Y-105007188D01*
X98551000Y-105181259D01*
X98551000Y-105358741D01*
X98516376Y-105532812D01*
X98448456Y-105696784D01*
X98349853Y-105844354D01*
X98224354Y-105969853D01*
X98076784Y-106068456D01*
X97912812Y-106136376D01*
X97763512Y-106166073D01*
X97738742Y-106171000D01*
X97561258Y-106171000D01*
X97536488Y-106166073D01*
X97387188Y-106136376D01*
X97223216Y-106068456D01*
X97075646Y-105969853D01*
X96950147Y-105844354D01*
X96851544Y-105696784D01*
X96783624Y-105532812D01*
X96749000Y-105358741D01*
X96749000Y-105181259D01*
X96783624Y-105007188D01*
X96851544Y-104843216D01*
X96950147Y-104695646D01*
X97075646Y-104570147D01*
X97223216Y-104471544D01*
X97387188Y-104403624D01*
X97536488Y-104373927D01*
X97561258Y-104369000D01*
X97738742Y-104369000D01*
X97763512Y-104373927D01*
X97763512Y-104373927D01*
G37*
G36*
X117763512Y-104373927D02*
G01*
X117912812Y-104403624D01*
X118076784Y-104471544D01*
X118224354Y-104570147D01*
X118349853Y-104695646D01*
X118448456Y-104843216D01*
X118516376Y-105007188D01*
X118551000Y-105181259D01*
X118551000Y-105358741D01*
X118516376Y-105532812D01*
X118448456Y-105696784D01*
X118349853Y-105844354D01*
X118224354Y-105969853D01*
X118076784Y-106068456D01*
X117912812Y-106136376D01*
X117763512Y-106166073D01*
X117738742Y-106171000D01*
X117561258Y-106171000D01*
X117536488Y-106166073D01*
X117387188Y-106136376D01*
X117223216Y-106068456D01*
X117075646Y-105969853D01*
X116950147Y-105844354D01*
X116851544Y-105696784D01*
X116783624Y-105532812D01*
X116749000Y-105358741D01*
X116749000Y-105181259D01*
X116783624Y-105007188D01*
X116851544Y-104843216D01*
X116950147Y-104695646D01*
X117075646Y-104570147D01*
X117223216Y-104471544D01*
X117387188Y-104403624D01*
X117536488Y-104373927D01*
X117561258Y-104369000D01*
X117738742Y-104369000D01*
X117763512Y-104373927D01*
X117763512Y-104373927D01*
G37*
G36*
X77763512Y-104373927D02*
G01*
X77912812Y-104403624D01*
X78076784Y-104471544D01*
X78224354Y-104570147D01*
X78349853Y-104695646D01*
X78448456Y-104843216D01*
X78516376Y-105007188D01*
X78551000Y-105181259D01*
X78551000Y-105358741D01*
X78516376Y-105532812D01*
X78448456Y-105696784D01*
X78349853Y-105844354D01*
X78224354Y-105969853D01*
X78076784Y-106068456D01*
X77912812Y-106136376D01*
X77763512Y-106166073D01*
X77738742Y-106171000D01*
X77561258Y-106171000D01*
X77536488Y-106166073D01*
X77387188Y-106136376D01*
X77223216Y-106068456D01*
X77075646Y-105969853D01*
X76950147Y-105844354D01*
X76851544Y-105696784D01*
X76783624Y-105532812D01*
X76749000Y-105358741D01*
X76749000Y-105181259D01*
X76783624Y-105007188D01*
X76851544Y-104843216D01*
X76950147Y-104695646D01*
X77075646Y-104570147D01*
X77223216Y-104471544D01*
X77387188Y-104403624D01*
X77536488Y-104373927D01*
X77561258Y-104369000D01*
X77738742Y-104369000D01*
X77763512Y-104373927D01*
X77763512Y-104373927D01*
G37*
G36*
X107923512Y-104373927D02*
G01*
X108072812Y-104403624D01*
X108236784Y-104471544D01*
X108384354Y-104570147D01*
X108509853Y-104695646D01*
X108608456Y-104843216D01*
X108676376Y-105007188D01*
X108711000Y-105181259D01*
X108711000Y-105358741D01*
X108676376Y-105532812D01*
X108608456Y-105696784D01*
X108509853Y-105844354D01*
X108384354Y-105969853D01*
X108236784Y-106068456D01*
X108072812Y-106136376D01*
X107923512Y-106166073D01*
X107898742Y-106171000D01*
X107721258Y-106171000D01*
X107696488Y-106166073D01*
X107547188Y-106136376D01*
X107383216Y-106068456D01*
X107235646Y-105969853D01*
X107110147Y-105844354D01*
X107011544Y-105696784D01*
X106943624Y-105532812D01*
X106909000Y-105358741D01*
X106909000Y-105181259D01*
X106943624Y-105007188D01*
X107011544Y-104843216D01*
X107110147Y-104695646D01*
X107235646Y-104570147D01*
X107383216Y-104471544D01*
X107547188Y-104403624D01*
X107696488Y-104373927D01*
X107721258Y-104369000D01*
X107898742Y-104369000D01*
X107923512Y-104373927D01*
X107923512Y-104373927D01*
G37*
G36*
X127923512Y-104373927D02*
G01*
X128072812Y-104403624D01*
X128236784Y-104471544D01*
X128384354Y-104570147D01*
X128509853Y-104695646D01*
X128608456Y-104843216D01*
X128676376Y-105007188D01*
X128711000Y-105181259D01*
X128711000Y-105358741D01*
X128676376Y-105532812D01*
X128608456Y-105696784D01*
X128509853Y-105844354D01*
X128384354Y-105969853D01*
X128236784Y-106068456D01*
X128072812Y-106136376D01*
X127923512Y-106166073D01*
X127898742Y-106171000D01*
X127721258Y-106171000D01*
X127696488Y-106166073D01*
X127547188Y-106136376D01*
X127383216Y-106068456D01*
X127235646Y-105969853D01*
X127110147Y-105844354D01*
X127011544Y-105696784D01*
X126943624Y-105532812D01*
X126909000Y-105358741D01*
X126909000Y-105181259D01*
X126943624Y-105007188D01*
X127011544Y-104843216D01*
X127110147Y-104695646D01*
X127235646Y-104570147D01*
X127383216Y-104471544D01*
X127547188Y-104403624D01*
X127696488Y-104373927D01*
X127721258Y-104369000D01*
X127898742Y-104369000D01*
X127923512Y-104373927D01*
X127923512Y-104373927D01*
G37*
G36*
X137763512Y-104373927D02*
G01*
X137912812Y-104403624D01*
X138076784Y-104471544D01*
X138224354Y-104570147D01*
X138349853Y-104695646D01*
X138448456Y-104843216D01*
X138516376Y-105007188D01*
X138551000Y-105181259D01*
X138551000Y-105358741D01*
X138516376Y-105532812D01*
X138448456Y-105696784D01*
X138349853Y-105844354D01*
X138224354Y-105969853D01*
X138076784Y-106068456D01*
X137912812Y-106136376D01*
X137763512Y-106166073D01*
X137738742Y-106171000D01*
X137561258Y-106171000D01*
X137536488Y-106166073D01*
X137387188Y-106136376D01*
X137223216Y-106068456D01*
X137075646Y-105969853D01*
X136950147Y-105844354D01*
X136851544Y-105696784D01*
X136783624Y-105532812D01*
X136749000Y-105358741D01*
X136749000Y-105181259D01*
X136783624Y-105007188D01*
X136851544Y-104843216D01*
X136950147Y-104695646D01*
X137075646Y-104570147D01*
X137223216Y-104471544D01*
X137387188Y-104403624D01*
X137536488Y-104373927D01*
X137561258Y-104369000D01*
X137738742Y-104369000D01*
X137763512Y-104373927D01*
X137763512Y-104373927D01*
G37*
G36*
X87923512Y-104373927D02*
G01*
X88072812Y-104403624D01*
X88236784Y-104471544D01*
X88384354Y-104570147D01*
X88509853Y-104695646D01*
X88608456Y-104843216D01*
X88676376Y-105007188D01*
X88711000Y-105181259D01*
X88711000Y-105358741D01*
X88676376Y-105532812D01*
X88608456Y-105696784D01*
X88509853Y-105844354D01*
X88384354Y-105969853D01*
X88236784Y-106068456D01*
X88072812Y-106136376D01*
X87923512Y-106166073D01*
X87898742Y-106171000D01*
X87721258Y-106171000D01*
X87696488Y-106166073D01*
X87547188Y-106136376D01*
X87383216Y-106068456D01*
X87235646Y-105969853D01*
X87110147Y-105844354D01*
X87011544Y-105696784D01*
X86943624Y-105532812D01*
X86909000Y-105358741D01*
X86909000Y-105181259D01*
X86943624Y-105007188D01*
X87011544Y-104843216D01*
X87110147Y-104695646D01*
X87235646Y-104570147D01*
X87383216Y-104471544D01*
X87547188Y-104403624D01*
X87696488Y-104373927D01*
X87721258Y-104369000D01*
X87898742Y-104369000D01*
X87923512Y-104373927D01*
X87923512Y-104373927D01*
G37*
G36*
X147923512Y-104373927D02*
G01*
X148072812Y-104403624D01*
X148236784Y-104471544D01*
X148384354Y-104570147D01*
X148509853Y-104695646D01*
X148608456Y-104843216D01*
X148676376Y-105007188D01*
X148711000Y-105181259D01*
X148711000Y-105358741D01*
X148676376Y-105532812D01*
X148608456Y-105696784D01*
X148509853Y-105844354D01*
X148384354Y-105969853D01*
X148236784Y-106068456D01*
X148072812Y-106136376D01*
X147923512Y-106166073D01*
X147898742Y-106171000D01*
X147721258Y-106171000D01*
X147696488Y-106166073D01*
X147547188Y-106136376D01*
X147383216Y-106068456D01*
X147235646Y-105969853D01*
X147110147Y-105844354D01*
X147011544Y-105696784D01*
X146943624Y-105532812D01*
X146909000Y-105358741D01*
X146909000Y-105181259D01*
X146943624Y-105007188D01*
X147011544Y-104843216D01*
X147110147Y-104695646D01*
X147235646Y-104570147D01*
X147383216Y-104471544D01*
X147547188Y-104403624D01*
X147696488Y-104373927D01*
X147721258Y-104369000D01*
X147898742Y-104369000D01*
X147923512Y-104373927D01*
X147923512Y-104373927D01*
G37*
G36*
X159144549Y-101741116D02*
G01*
X159255734Y-101763232D01*
X159465203Y-101849997D01*
X159653720Y-101975960D01*
X159814040Y-102136280D01*
X159940003Y-102324797D01*
X160026768Y-102534266D01*
X160071000Y-102756636D01*
X160071000Y-102983364D01*
X160026768Y-103205734D01*
X159940003Y-103415203D01*
X159814040Y-103603720D01*
X159653720Y-103764040D01*
X159465203Y-103890003D01*
X159255734Y-103976768D01*
X159144549Y-103998884D01*
X159033365Y-104021000D01*
X158806635Y-104021000D01*
X158695451Y-103998884D01*
X158584266Y-103976768D01*
X158374797Y-103890003D01*
X158186280Y-103764040D01*
X158025960Y-103603720D01*
X157899997Y-103415203D01*
X157813232Y-103205734D01*
X157769000Y-102983364D01*
X157769000Y-102756636D01*
X157813232Y-102534266D01*
X157899997Y-102324797D01*
X158025960Y-102136280D01*
X158186280Y-101975960D01*
X158374797Y-101849997D01*
X158584266Y-101763232D01*
X158695451Y-101741116D01*
X158806635Y-101719000D01*
X159033365Y-101719000D01*
X159144549Y-101741116D01*
X159144549Y-101741116D01*
G37*
G36*
X139144549Y-101601116D02*
G01*
X139255734Y-101623232D01*
X139465203Y-101709997D01*
X139653720Y-101835960D01*
X139814040Y-101996280D01*
X139940003Y-102184797D01*
X140026768Y-102394266D01*
X140071000Y-102616636D01*
X140071000Y-102843364D01*
X140026768Y-103065734D01*
X139940003Y-103275203D01*
X139814040Y-103463720D01*
X139653720Y-103624040D01*
X139465203Y-103750003D01*
X139255734Y-103836768D01*
X139144549Y-103858884D01*
X139033365Y-103881000D01*
X138806635Y-103881000D01*
X138695451Y-103858884D01*
X138584266Y-103836768D01*
X138374797Y-103750003D01*
X138186280Y-103624040D01*
X138025960Y-103463720D01*
X137899997Y-103275203D01*
X137813232Y-103065734D01*
X137769000Y-102843364D01*
X137769000Y-102616636D01*
X137813232Y-102394266D01*
X137899997Y-102184797D01*
X138025960Y-101996280D01*
X138186280Y-101835960D01*
X138374797Y-101709997D01*
X138584266Y-101623232D01*
X138695451Y-101601116D01*
X138806635Y-101579000D01*
X139033365Y-101579000D01*
X139144549Y-101601116D01*
X139144549Y-101601116D01*
G37*
G36*
X119144549Y-101601116D02*
G01*
X119255734Y-101623232D01*
X119465203Y-101709997D01*
X119653720Y-101835960D01*
X119814040Y-101996280D01*
X119940003Y-102184797D01*
X120026768Y-102394266D01*
X120071000Y-102616636D01*
X120071000Y-102843364D01*
X120026768Y-103065734D01*
X119940003Y-103275203D01*
X119814040Y-103463720D01*
X119653720Y-103624040D01*
X119465203Y-103750003D01*
X119255734Y-103836768D01*
X119144549Y-103858884D01*
X119033365Y-103881000D01*
X118806635Y-103881000D01*
X118695451Y-103858884D01*
X118584266Y-103836768D01*
X118374797Y-103750003D01*
X118186280Y-103624040D01*
X118025960Y-103463720D01*
X117899997Y-103275203D01*
X117813232Y-103065734D01*
X117769000Y-102843364D01*
X117769000Y-102616636D01*
X117813232Y-102394266D01*
X117899997Y-102184797D01*
X118025960Y-101996280D01*
X118186280Y-101835960D01*
X118374797Y-101709997D01*
X118584266Y-101623232D01*
X118695451Y-101601116D01*
X118806635Y-101579000D01*
X119033365Y-101579000D01*
X119144549Y-101601116D01*
X119144549Y-101601116D01*
G37*
G36*
X99144549Y-101601116D02*
G01*
X99255734Y-101623232D01*
X99465203Y-101709997D01*
X99653720Y-101835960D01*
X99814040Y-101996280D01*
X99940003Y-102184797D01*
X100026768Y-102394266D01*
X100071000Y-102616636D01*
X100071000Y-102843364D01*
X100026768Y-103065734D01*
X99940003Y-103275203D01*
X99814040Y-103463720D01*
X99653720Y-103624040D01*
X99465203Y-103750003D01*
X99255734Y-103836768D01*
X99144549Y-103858884D01*
X99033365Y-103881000D01*
X98806635Y-103881000D01*
X98695451Y-103858884D01*
X98584266Y-103836768D01*
X98374797Y-103750003D01*
X98186280Y-103624040D01*
X98025960Y-103463720D01*
X97899997Y-103275203D01*
X97813232Y-103065734D01*
X97769000Y-102843364D01*
X97769000Y-102616636D01*
X97813232Y-102394266D01*
X97899997Y-102184797D01*
X98025960Y-101996280D01*
X98186280Y-101835960D01*
X98374797Y-101709997D01*
X98584266Y-101623232D01*
X98695451Y-101601116D01*
X98806635Y-101579000D01*
X99033365Y-101579000D01*
X99144549Y-101601116D01*
X99144549Y-101601116D01*
G37*
G36*
X79144549Y-101601116D02*
G01*
X79255734Y-101623232D01*
X79465203Y-101709997D01*
X79653720Y-101835960D01*
X79814040Y-101996280D01*
X79940003Y-102184797D01*
X80026768Y-102394266D01*
X80071000Y-102616636D01*
X80071000Y-102843364D01*
X80026768Y-103065734D01*
X79940003Y-103275203D01*
X79814040Y-103463720D01*
X79653720Y-103624040D01*
X79465203Y-103750003D01*
X79255734Y-103836768D01*
X79144549Y-103858884D01*
X79033365Y-103881000D01*
X78806635Y-103881000D01*
X78695451Y-103858884D01*
X78584266Y-103836768D01*
X78374797Y-103750003D01*
X78186280Y-103624040D01*
X78025960Y-103463720D01*
X77899997Y-103275203D01*
X77813232Y-103065734D01*
X77769000Y-102843364D01*
X77769000Y-102616636D01*
X77813232Y-102394266D01*
X77899997Y-102184797D01*
X78025960Y-101996280D01*
X78186280Y-101835960D01*
X78374797Y-101709997D01*
X78584266Y-101623232D01*
X78695451Y-101601116D01*
X78806635Y-101579000D01*
X79033365Y-101579000D01*
X79144549Y-101601116D01*
X79144549Y-101601116D01*
G37*
G36*
X165494549Y-99201116D02*
G01*
X165605734Y-99223232D01*
X165815203Y-99309997D01*
X166003720Y-99435960D01*
X166164040Y-99596280D01*
X166290003Y-99784797D01*
X166376768Y-99994266D01*
X166421000Y-100216636D01*
X166421000Y-100443364D01*
X166376768Y-100665734D01*
X166290003Y-100875203D01*
X166164040Y-101063720D01*
X166003720Y-101224040D01*
X165815203Y-101350003D01*
X165605734Y-101436768D01*
X165494549Y-101458884D01*
X165383365Y-101481000D01*
X165156635Y-101481000D01*
X165045451Y-101458884D01*
X164934266Y-101436768D01*
X164724797Y-101350003D01*
X164536280Y-101224040D01*
X164375960Y-101063720D01*
X164249997Y-100875203D01*
X164163232Y-100665734D01*
X164119000Y-100443364D01*
X164119000Y-100216636D01*
X164163232Y-99994266D01*
X164249997Y-99784797D01*
X164375960Y-99596280D01*
X164536280Y-99435960D01*
X164724797Y-99309997D01*
X164934266Y-99223232D01*
X165045451Y-99201116D01*
X165156635Y-99179000D01*
X165383365Y-99179000D01*
X165494549Y-99201116D01*
X165494549Y-99201116D01*
G37*
G36*
X125494549Y-99061116D02*
G01*
X125605734Y-99083232D01*
X125815203Y-99169997D01*
X126003720Y-99295960D01*
X126164040Y-99456280D01*
X126290003Y-99644797D01*
X126376768Y-99854266D01*
X126421000Y-100076636D01*
X126421000Y-100303364D01*
X126376768Y-100525734D01*
X126290003Y-100735203D01*
X126164040Y-100923720D01*
X126003720Y-101084040D01*
X125815203Y-101210003D01*
X125605734Y-101296768D01*
X125494549Y-101318884D01*
X125383365Y-101341000D01*
X125156635Y-101341000D01*
X125045451Y-101318884D01*
X124934266Y-101296768D01*
X124724797Y-101210003D01*
X124536280Y-101084040D01*
X124375960Y-100923720D01*
X124249997Y-100735203D01*
X124163232Y-100525734D01*
X124119000Y-100303364D01*
X124119000Y-100076636D01*
X124163232Y-99854266D01*
X124249997Y-99644797D01*
X124375960Y-99456280D01*
X124536280Y-99295960D01*
X124724797Y-99169997D01*
X124934266Y-99083232D01*
X125045451Y-99061116D01*
X125156635Y-99039000D01*
X125383365Y-99039000D01*
X125494549Y-99061116D01*
X125494549Y-99061116D01*
G37*
G36*
X145494549Y-99061116D02*
G01*
X145605734Y-99083232D01*
X145815203Y-99169997D01*
X146003720Y-99295960D01*
X146164040Y-99456280D01*
X146290003Y-99644797D01*
X146376768Y-99854266D01*
X146421000Y-100076636D01*
X146421000Y-100303364D01*
X146376768Y-100525734D01*
X146290003Y-100735203D01*
X146164040Y-100923720D01*
X146003720Y-101084040D01*
X145815203Y-101210003D01*
X145605734Y-101296768D01*
X145494549Y-101318884D01*
X145383365Y-101341000D01*
X145156635Y-101341000D01*
X145045451Y-101318884D01*
X144934266Y-101296768D01*
X144724797Y-101210003D01*
X144536280Y-101084040D01*
X144375960Y-100923720D01*
X144249997Y-100735203D01*
X144163232Y-100525734D01*
X144119000Y-100303364D01*
X144119000Y-100076636D01*
X144163232Y-99854266D01*
X144249997Y-99644797D01*
X144375960Y-99456280D01*
X144536280Y-99295960D01*
X144724797Y-99169997D01*
X144934266Y-99083232D01*
X145045451Y-99061116D01*
X145156635Y-99039000D01*
X145383365Y-99039000D01*
X145494549Y-99061116D01*
X145494549Y-99061116D01*
G37*
G36*
X85494549Y-99061116D02*
G01*
X85605734Y-99083232D01*
X85815203Y-99169997D01*
X86003720Y-99295960D01*
X86164040Y-99456280D01*
X86290003Y-99644797D01*
X86376768Y-99854266D01*
X86421000Y-100076636D01*
X86421000Y-100303364D01*
X86376768Y-100525734D01*
X86290003Y-100735203D01*
X86164040Y-100923720D01*
X86003720Y-101084040D01*
X85815203Y-101210003D01*
X85605734Y-101296768D01*
X85494549Y-101318884D01*
X85383365Y-101341000D01*
X85156635Y-101341000D01*
X85045451Y-101318884D01*
X84934266Y-101296768D01*
X84724797Y-101210003D01*
X84536280Y-101084040D01*
X84375960Y-100923720D01*
X84249997Y-100735203D01*
X84163232Y-100525734D01*
X84119000Y-100303364D01*
X84119000Y-100076636D01*
X84163232Y-99854266D01*
X84249997Y-99644797D01*
X84375960Y-99456280D01*
X84536280Y-99295960D01*
X84724797Y-99169997D01*
X84934266Y-99083232D01*
X85045451Y-99061116D01*
X85156635Y-99039000D01*
X85383365Y-99039000D01*
X85494549Y-99061116D01*
X85494549Y-99061116D01*
G37*
G36*
X105494549Y-99061116D02*
G01*
X105605734Y-99083232D01*
X105815203Y-99169997D01*
X106003720Y-99295960D01*
X106164040Y-99456280D01*
X106290003Y-99644797D01*
X106376768Y-99854266D01*
X106421000Y-100076636D01*
X106421000Y-100303364D01*
X106376768Y-100525734D01*
X106290003Y-100735203D01*
X106164040Y-100923720D01*
X106003720Y-101084040D01*
X105815203Y-101210003D01*
X105605734Y-101296768D01*
X105494549Y-101318884D01*
X105383365Y-101341000D01*
X105156635Y-101341000D01*
X105045451Y-101318884D01*
X104934266Y-101296768D01*
X104724797Y-101210003D01*
X104536280Y-101084040D01*
X104375960Y-100923720D01*
X104249997Y-100735203D01*
X104163232Y-100525734D01*
X104119000Y-100303364D01*
X104119000Y-100076636D01*
X104163232Y-99854266D01*
X104249997Y-99644797D01*
X104375960Y-99456280D01*
X104536280Y-99295960D01*
X104724797Y-99169997D01*
X104934266Y-99083232D01*
X105045451Y-99061116D01*
X105156635Y-99039000D01*
X105383365Y-99039000D01*
X105494549Y-99061116D01*
X105494549Y-99061116D01*
G37*
G36*
X169863674Y-99583465D02*
G01*
X169901367Y-99594899D01*
X169936103Y-99613466D01*
X169966548Y-99638452D01*
X169991534Y-99668897D01*
X170010101Y-99703633D01*
X170021535Y-99741326D01*
X170026000Y-99786661D01*
X170026000Y-100873339D01*
X170021535Y-100918674D01*
X170010101Y-100956367D01*
X169991534Y-100991103D01*
X169966548Y-101021548D01*
X169936103Y-101046534D01*
X169901367Y-101065101D01*
X169863674Y-101076535D01*
X169818339Y-101081000D01*
X168981661Y-101081000D01*
X168936326Y-101076535D01*
X168898633Y-101065101D01*
X168863897Y-101046534D01*
X168833452Y-101021548D01*
X168808466Y-100991103D01*
X168789899Y-100956367D01*
X168778465Y-100918674D01*
X168774000Y-100873339D01*
X168774000Y-99786661D01*
X168778465Y-99741326D01*
X168789899Y-99703633D01*
X168808466Y-99668897D01*
X168833452Y-99638452D01*
X168863897Y-99613466D01*
X168898633Y-99594899D01*
X168936326Y-99583465D01*
X168981661Y-99579000D01*
X169818339Y-99579000D01*
X169863674Y-99583465D01*
X169863674Y-99583465D01*
G37*
G36*
X110708674Y-99583465D02*
G01*
X110746367Y-99594899D01*
X110781103Y-99613466D01*
X110811548Y-99638452D01*
X110836534Y-99668897D01*
X110855101Y-99703633D01*
X110866535Y-99741326D01*
X110871000Y-99786661D01*
X110871000Y-100873339D01*
X110866535Y-100918674D01*
X110855101Y-100956367D01*
X110836534Y-100991103D01*
X110811548Y-101021548D01*
X110781103Y-101046534D01*
X110746367Y-101065101D01*
X110708674Y-101076535D01*
X110663339Y-101081000D01*
X109826661Y-101081000D01*
X109781326Y-101076535D01*
X109743633Y-101065101D01*
X109708897Y-101046534D01*
X109678452Y-101021548D01*
X109653466Y-100991103D01*
X109634899Y-100956367D01*
X109623465Y-100918674D01*
X109619000Y-100873339D01*
X109619000Y-99786661D01*
X109623465Y-99741326D01*
X109634899Y-99703633D01*
X109653466Y-99668897D01*
X109678452Y-99638452D01*
X109708897Y-99613466D01*
X109743633Y-99594899D01*
X109781326Y-99583465D01*
X109826661Y-99579000D01*
X110663339Y-99579000D01*
X110708674Y-99583465D01*
X110708674Y-99583465D01*
G37*
G36*
X108658674Y-99583465D02*
G01*
X108696367Y-99594899D01*
X108731103Y-99613466D01*
X108761548Y-99638452D01*
X108786534Y-99668897D01*
X108805101Y-99703633D01*
X108816535Y-99741326D01*
X108821000Y-99786661D01*
X108821000Y-100873339D01*
X108816535Y-100918674D01*
X108805101Y-100956367D01*
X108786534Y-100991103D01*
X108761548Y-101021548D01*
X108731103Y-101046534D01*
X108696367Y-101065101D01*
X108658674Y-101076535D01*
X108613339Y-101081000D01*
X107776661Y-101081000D01*
X107731326Y-101076535D01*
X107693633Y-101065101D01*
X107658897Y-101046534D01*
X107628452Y-101021548D01*
X107603466Y-100991103D01*
X107584899Y-100956367D01*
X107573465Y-100918674D01*
X107569000Y-100873339D01*
X107569000Y-99786661D01*
X107573465Y-99741326D01*
X107584899Y-99703633D01*
X107603466Y-99668897D01*
X107628452Y-99638452D01*
X107658897Y-99613466D01*
X107693633Y-99594899D01*
X107731326Y-99583465D01*
X107776661Y-99579000D01*
X108613339Y-99579000D01*
X108658674Y-99583465D01*
X108658674Y-99583465D01*
G37*
G36*
X90388674Y-99583465D02*
G01*
X90426367Y-99594899D01*
X90461103Y-99613466D01*
X90491548Y-99638452D01*
X90516534Y-99668897D01*
X90535101Y-99703633D01*
X90546535Y-99741326D01*
X90551000Y-99786661D01*
X90551000Y-100873339D01*
X90546535Y-100918674D01*
X90535101Y-100956367D01*
X90516534Y-100991103D01*
X90491548Y-101021548D01*
X90461103Y-101046534D01*
X90426367Y-101065101D01*
X90388674Y-101076535D01*
X90343339Y-101081000D01*
X89506661Y-101081000D01*
X89461326Y-101076535D01*
X89423633Y-101065101D01*
X89388897Y-101046534D01*
X89358452Y-101021548D01*
X89333466Y-100991103D01*
X89314899Y-100956367D01*
X89303465Y-100918674D01*
X89299000Y-100873339D01*
X89299000Y-99786661D01*
X89303465Y-99741326D01*
X89314899Y-99703633D01*
X89333466Y-99668897D01*
X89358452Y-99638452D01*
X89388897Y-99613466D01*
X89423633Y-99594899D01*
X89461326Y-99583465D01*
X89506661Y-99579000D01*
X90343339Y-99579000D01*
X90388674Y-99583465D01*
X90388674Y-99583465D01*
G37*
G36*
X151348674Y-99583465D02*
G01*
X151386367Y-99594899D01*
X151421103Y-99613466D01*
X151451548Y-99638452D01*
X151476534Y-99668897D01*
X151495101Y-99703633D01*
X151506535Y-99741326D01*
X151511000Y-99786661D01*
X151511000Y-100873339D01*
X151506535Y-100918674D01*
X151495101Y-100956367D01*
X151476534Y-100991103D01*
X151451548Y-101021548D01*
X151421103Y-101046534D01*
X151386367Y-101065101D01*
X151348674Y-101076535D01*
X151303339Y-101081000D01*
X150466661Y-101081000D01*
X150421326Y-101076535D01*
X150383633Y-101065101D01*
X150348897Y-101046534D01*
X150318452Y-101021548D01*
X150293466Y-100991103D01*
X150274899Y-100956367D01*
X150263465Y-100918674D01*
X150259000Y-100873339D01*
X150259000Y-99786661D01*
X150263465Y-99741326D01*
X150274899Y-99703633D01*
X150293466Y-99668897D01*
X150318452Y-99638452D01*
X150348897Y-99613466D01*
X150383633Y-99594899D01*
X150421326Y-99583465D01*
X150466661Y-99579000D01*
X151303339Y-99579000D01*
X151348674Y-99583465D01*
X151348674Y-99583465D01*
G37*
G36*
X149298674Y-99583465D02*
G01*
X149336367Y-99594899D01*
X149371103Y-99613466D01*
X149401548Y-99638452D01*
X149426534Y-99668897D01*
X149445101Y-99703633D01*
X149456535Y-99741326D01*
X149461000Y-99786661D01*
X149461000Y-100873339D01*
X149456535Y-100918674D01*
X149445101Y-100956367D01*
X149426534Y-100991103D01*
X149401548Y-101021548D01*
X149371103Y-101046534D01*
X149336367Y-101065101D01*
X149298674Y-101076535D01*
X149253339Y-101081000D01*
X148416661Y-101081000D01*
X148371326Y-101076535D01*
X148333633Y-101065101D01*
X148298897Y-101046534D01*
X148268452Y-101021548D01*
X148243466Y-100991103D01*
X148224899Y-100956367D01*
X148213465Y-100918674D01*
X148209000Y-100873339D01*
X148209000Y-99786661D01*
X148213465Y-99741326D01*
X148224899Y-99703633D01*
X148243466Y-99668897D01*
X148268452Y-99638452D01*
X148298897Y-99613466D01*
X148333633Y-99594899D01*
X148371326Y-99583465D01*
X148416661Y-99579000D01*
X149253339Y-99579000D01*
X149298674Y-99583465D01*
X149298674Y-99583465D01*
G37*
G36*
X88338674Y-99583465D02*
G01*
X88376367Y-99594899D01*
X88411103Y-99613466D01*
X88441548Y-99638452D01*
X88466534Y-99668897D01*
X88485101Y-99703633D01*
X88496535Y-99741326D01*
X88501000Y-99786661D01*
X88501000Y-100873339D01*
X88496535Y-100918674D01*
X88485101Y-100956367D01*
X88466534Y-100991103D01*
X88441548Y-101021548D01*
X88411103Y-101046534D01*
X88376367Y-101065101D01*
X88338674Y-101076535D01*
X88293339Y-101081000D01*
X87456661Y-101081000D01*
X87411326Y-101076535D01*
X87373633Y-101065101D01*
X87338897Y-101046534D01*
X87308452Y-101021548D01*
X87283466Y-100991103D01*
X87264899Y-100956367D01*
X87253465Y-100918674D01*
X87249000Y-100873339D01*
X87249000Y-99786661D01*
X87253465Y-99741326D01*
X87264899Y-99703633D01*
X87283466Y-99668897D01*
X87308452Y-99638452D01*
X87338897Y-99613466D01*
X87373633Y-99594899D01*
X87411326Y-99583465D01*
X87456661Y-99579000D01*
X88293339Y-99579000D01*
X88338674Y-99583465D01*
X88338674Y-99583465D01*
G37*
G36*
X129223674Y-99583465D02*
G01*
X129261367Y-99594899D01*
X129296103Y-99613466D01*
X129326548Y-99638452D01*
X129351534Y-99668897D01*
X129370101Y-99703633D01*
X129381535Y-99741326D01*
X129386000Y-99786661D01*
X129386000Y-100873339D01*
X129381535Y-100918674D01*
X129370101Y-100956367D01*
X129351534Y-100991103D01*
X129326548Y-101021548D01*
X129296103Y-101046534D01*
X129261367Y-101065101D01*
X129223674Y-101076535D01*
X129178339Y-101081000D01*
X128341661Y-101081000D01*
X128296326Y-101076535D01*
X128258633Y-101065101D01*
X128223897Y-101046534D01*
X128193452Y-101021548D01*
X128168466Y-100991103D01*
X128149899Y-100956367D01*
X128138465Y-100918674D01*
X128134000Y-100873339D01*
X128134000Y-99786661D01*
X128138465Y-99741326D01*
X128149899Y-99703633D01*
X128168466Y-99668897D01*
X128193452Y-99638452D01*
X128223897Y-99613466D01*
X128258633Y-99594899D01*
X128296326Y-99583465D01*
X128341661Y-99579000D01*
X129178339Y-99579000D01*
X129223674Y-99583465D01*
X129223674Y-99583465D01*
G37*
G36*
X131273674Y-99583465D02*
G01*
X131311367Y-99594899D01*
X131346103Y-99613466D01*
X131376548Y-99638452D01*
X131401534Y-99668897D01*
X131420101Y-99703633D01*
X131431535Y-99741326D01*
X131436000Y-99786661D01*
X131436000Y-100873339D01*
X131431535Y-100918674D01*
X131420101Y-100956367D01*
X131401534Y-100991103D01*
X131376548Y-101021548D01*
X131346103Y-101046534D01*
X131311367Y-101065101D01*
X131273674Y-101076535D01*
X131228339Y-101081000D01*
X130391661Y-101081000D01*
X130346326Y-101076535D01*
X130308633Y-101065101D01*
X130273897Y-101046534D01*
X130243452Y-101021548D01*
X130218466Y-100991103D01*
X130199899Y-100956367D01*
X130188465Y-100918674D01*
X130184000Y-100873339D01*
X130184000Y-99786661D01*
X130188465Y-99741326D01*
X130199899Y-99703633D01*
X130218466Y-99668897D01*
X130243452Y-99638452D01*
X130273897Y-99613466D01*
X130308633Y-99594899D01*
X130346326Y-99583465D01*
X130391661Y-99579000D01*
X131228339Y-99579000D01*
X131273674Y-99583465D01*
X131273674Y-99583465D01*
G37*
G36*
X171913674Y-99583465D02*
G01*
X171951367Y-99594899D01*
X171986103Y-99613466D01*
X172016548Y-99638452D01*
X172041534Y-99668897D01*
X172060101Y-99703633D01*
X172071535Y-99741326D01*
X172076000Y-99786661D01*
X172076000Y-100873339D01*
X172071535Y-100918674D01*
X172060101Y-100956367D01*
X172041534Y-100991103D01*
X172016548Y-101021548D01*
X171986103Y-101046534D01*
X171951367Y-101065101D01*
X171913674Y-101076535D01*
X171868339Y-101081000D01*
X171031661Y-101081000D01*
X170986326Y-101076535D01*
X170948633Y-101065101D01*
X170913897Y-101046534D01*
X170883452Y-101021548D01*
X170858466Y-100991103D01*
X170839899Y-100956367D01*
X170828465Y-100918674D01*
X170824000Y-100873339D01*
X170824000Y-99786661D01*
X170828465Y-99741326D01*
X170839899Y-99703633D01*
X170858466Y-99668897D01*
X170883452Y-99638452D01*
X170913897Y-99613466D01*
X170948633Y-99594899D01*
X170986326Y-99583465D01*
X171031661Y-99579000D01*
X171868339Y-99579000D01*
X171913674Y-99583465D01*
X171913674Y-99583465D01*
G37*
G36*
X115417443Y-89385519D02*
G01*
X115483627Y-89392037D01*
X115653466Y-89443557D01*
X115809991Y-89527222D01*
X115845729Y-89556552D01*
X115947186Y-89639814D01*
X116030448Y-89741271D01*
X116059778Y-89777009D01*
X116143443Y-89933534D01*
X116194963Y-90103373D01*
X116212359Y-90280000D01*
X116194963Y-90456627D01*
X116143443Y-90626466D01*
X116059778Y-90782991D01*
X116030448Y-90818729D01*
X115947186Y-90920186D01*
X115845729Y-91003448D01*
X115809991Y-91032778D01*
X115653466Y-91116443D01*
X115483627Y-91167963D01*
X115417443Y-91174481D01*
X115351260Y-91181000D01*
X115262740Y-91181000D01*
X115196557Y-91174481D01*
X115130373Y-91167963D01*
X114960534Y-91116443D01*
X114804009Y-91032778D01*
X114768271Y-91003448D01*
X114666814Y-90920186D01*
X114583552Y-90818729D01*
X114554222Y-90782991D01*
X114470557Y-90626466D01*
X114419037Y-90456627D01*
X114401641Y-90280000D01*
X114419037Y-90103373D01*
X114470557Y-89933534D01*
X114554222Y-89777009D01*
X114583552Y-89741271D01*
X114666814Y-89639814D01*
X114768271Y-89556552D01*
X114804009Y-89527222D01*
X114960534Y-89443557D01*
X115130373Y-89392037D01*
X115196557Y-89385519D01*
X115262740Y-89379000D01*
X115351260Y-89379000D01*
X115417443Y-89385519D01*
X115417443Y-89385519D01*
G37*
G36*
X110337443Y-89385519D02*
G01*
X110403627Y-89392037D01*
X110573466Y-89443557D01*
X110729991Y-89527222D01*
X110765729Y-89556552D01*
X110867186Y-89639814D01*
X110950448Y-89741271D01*
X110979778Y-89777009D01*
X111063443Y-89933534D01*
X111114963Y-90103373D01*
X111132359Y-90280000D01*
X111114963Y-90456627D01*
X111063443Y-90626466D01*
X110979778Y-90782991D01*
X110950448Y-90818729D01*
X110867186Y-90920186D01*
X110765729Y-91003448D01*
X110729991Y-91032778D01*
X110573466Y-91116443D01*
X110403627Y-91167963D01*
X110337443Y-91174481D01*
X110271260Y-91181000D01*
X110182740Y-91181000D01*
X110116557Y-91174481D01*
X110050373Y-91167963D01*
X109880534Y-91116443D01*
X109724009Y-91032778D01*
X109688271Y-91003448D01*
X109586814Y-90920186D01*
X109503552Y-90818729D01*
X109474222Y-90782991D01*
X109390557Y-90626466D01*
X109339037Y-90456627D01*
X109321641Y-90280000D01*
X109339037Y-90103373D01*
X109390557Y-89933534D01*
X109474222Y-89777009D01*
X109503552Y-89741271D01*
X109586814Y-89639814D01*
X109688271Y-89556552D01*
X109724009Y-89527222D01*
X109880534Y-89443557D01*
X110050373Y-89392037D01*
X110116557Y-89385519D01*
X110182740Y-89379000D01*
X110271260Y-89379000D01*
X110337443Y-89385519D01*
X110337443Y-89385519D01*
G37*
G36*
X112877443Y-89385519D02*
G01*
X112943627Y-89392037D01*
X113113466Y-89443557D01*
X113269991Y-89527222D01*
X113305729Y-89556552D01*
X113407186Y-89639814D01*
X113490448Y-89741271D01*
X113519778Y-89777009D01*
X113603443Y-89933534D01*
X113654963Y-90103373D01*
X113672359Y-90280000D01*
X113654963Y-90456627D01*
X113603443Y-90626466D01*
X113519778Y-90782991D01*
X113490448Y-90818729D01*
X113407186Y-90920186D01*
X113305729Y-91003448D01*
X113269991Y-91032778D01*
X113113466Y-91116443D01*
X112943627Y-91167963D01*
X112877443Y-91174481D01*
X112811260Y-91181000D01*
X112722740Y-91181000D01*
X112656557Y-91174481D01*
X112590373Y-91167963D01*
X112420534Y-91116443D01*
X112264009Y-91032778D01*
X112228271Y-91003448D01*
X112126814Y-90920186D01*
X112043552Y-90818729D01*
X112014222Y-90782991D01*
X111930557Y-90626466D01*
X111879037Y-90456627D01*
X111861641Y-90280000D01*
X111879037Y-90103373D01*
X111930557Y-89933534D01*
X112014222Y-89777009D01*
X112043552Y-89741271D01*
X112126814Y-89639814D01*
X112228271Y-89556552D01*
X112264009Y-89527222D01*
X112420534Y-89443557D01*
X112590373Y-89392037D01*
X112656557Y-89385519D01*
X112722740Y-89379000D01*
X112811260Y-89379000D01*
X112877443Y-89385519D01*
X112877443Y-89385519D01*
G37*
G36*
X125577443Y-89385519D02*
G01*
X125643627Y-89392037D01*
X125813466Y-89443557D01*
X125969991Y-89527222D01*
X126005729Y-89556552D01*
X126107186Y-89639814D01*
X126190448Y-89741271D01*
X126219778Y-89777009D01*
X126303443Y-89933534D01*
X126354963Y-90103373D01*
X126372359Y-90280000D01*
X126354963Y-90456627D01*
X126303443Y-90626466D01*
X126219778Y-90782991D01*
X126190448Y-90818729D01*
X126107186Y-90920186D01*
X126005729Y-91003448D01*
X125969991Y-91032778D01*
X125813466Y-91116443D01*
X125643627Y-91167963D01*
X125577443Y-91174481D01*
X125511260Y-91181000D01*
X125422740Y-91181000D01*
X125356557Y-91174481D01*
X125290373Y-91167963D01*
X125120534Y-91116443D01*
X124964009Y-91032778D01*
X124928271Y-91003448D01*
X124826814Y-90920186D01*
X124743552Y-90818729D01*
X124714222Y-90782991D01*
X124630557Y-90626466D01*
X124579037Y-90456627D01*
X124561641Y-90280000D01*
X124579037Y-90103373D01*
X124630557Y-89933534D01*
X124714222Y-89777009D01*
X124743552Y-89741271D01*
X124826814Y-89639814D01*
X124928271Y-89556552D01*
X124964009Y-89527222D01*
X125120534Y-89443557D01*
X125290373Y-89392037D01*
X125356557Y-89385519D01*
X125422740Y-89379000D01*
X125511260Y-89379000D01*
X125577443Y-89385519D01*
X125577443Y-89385519D01*
G37*
G36*
X117957443Y-89385519D02*
G01*
X118023627Y-89392037D01*
X118193466Y-89443557D01*
X118349991Y-89527222D01*
X118385729Y-89556552D01*
X118487186Y-89639814D01*
X118570448Y-89741271D01*
X118599778Y-89777009D01*
X118683443Y-89933534D01*
X118734963Y-90103373D01*
X118752359Y-90280000D01*
X118734963Y-90456627D01*
X118683443Y-90626466D01*
X118599778Y-90782991D01*
X118570448Y-90818729D01*
X118487186Y-90920186D01*
X118385729Y-91003448D01*
X118349991Y-91032778D01*
X118193466Y-91116443D01*
X118023627Y-91167963D01*
X117957443Y-91174481D01*
X117891260Y-91181000D01*
X117802740Y-91181000D01*
X117736557Y-91174481D01*
X117670373Y-91167963D01*
X117500534Y-91116443D01*
X117344009Y-91032778D01*
X117308271Y-91003448D01*
X117206814Y-90920186D01*
X117123552Y-90818729D01*
X117094222Y-90782991D01*
X117010557Y-90626466D01*
X116959037Y-90456627D01*
X116941641Y-90280000D01*
X116959037Y-90103373D01*
X117010557Y-89933534D01*
X117094222Y-89777009D01*
X117123552Y-89741271D01*
X117206814Y-89639814D01*
X117308271Y-89556552D01*
X117344009Y-89527222D01*
X117500534Y-89443557D01*
X117670373Y-89392037D01*
X117736557Y-89385519D01*
X117802740Y-89379000D01*
X117891260Y-89379000D01*
X117957443Y-89385519D01*
X117957443Y-89385519D01*
G37*
G36*
X123037443Y-89385519D02*
G01*
X123103627Y-89392037D01*
X123273466Y-89443557D01*
X123429991Y-89527222D01*
X123465729Y-89556552D01*
X123567186Y-89639814D01*
X123650448Y-89741271D01*
X123679778Y-89777009D01*
X123763443Y-89933534D01*
X123814963Y-90103373D01*
X123832359Y-90280000D01*
X123814963Y-90456627D01*
X123763443Y-90626466D01*
X123679778Y-90782991D01*
X123650448Y-90818729D01*
X123567186Y-90920186D01*
X123465729Y-91003448D01*
X123429991Y-91032778D01*
X123273466Y-91116443D01*
X123103627Y-91167963D01*
X123037443Y-91174481D01*
X122971260Y-91181000D01*
X122882740Y-91181000D01*
X122816557Y-91174481D01*
X122750373Y-91167963D01*
X122580534Y-91116443D01*
X122424009Y-91032778D01*
X122388271Y-91003448D01*
X122286814Y-90920186D01*
X122203552Y-90818729D01*
X122174222Y-90782991D01*
X122090557Y-90626466D01*
X122039037Y-90456627D01*
X122021641Y-90280000D01*
X122039037Y-90103373D01*
X122090557Y-89933534D01*
X122174222Y-89777009D01*
X122203552Y-89741271D01*
X122286814Y-89639814D01*
X122388271Y-89556552D01*
X122424009Y-89527222D01*
X122580534Y-89443557D01*
X122750373Y-89392037D01*
X122816557Y-89385519D01*
X122882740Y-89379000D01*
X122971260Y-89379000D01*
X123037443Y-89385519D01*
X123037443Y-89385519D01*
G37*
G36*
X120497443Y-89385519D02*
G01*
X120563627Y-89392037D01*
X120733466Y-89443557D01*
X120889991Y-89527222D01*
X120925729Y-89556552D01*
X121027186Y-89639814D01*
X121110448Y-89741271D01*
X121139778Y-89777009D01*
X121223443Y-89933534D01*
X121274963Y-90103373D01*
X121292359Y-90280000D01*
X121274963Y-90456627D01*
X121223443Y-90626466D01*
X121139778Y-90782991D01*
X121110448Y-90818729D01*
X121027186Y-90920186D01*
X120925729Y-91003448D01*
X120889991Y-91032778D01*
X120733466Y-91116443D01*
X120563627Y-91167963D01*
X120497443Y-91174481D01*
X120431260Y-91181000D01*
X120342740Y-91181000D01*
X120276557Y-91174481D01*
X120210373Y-91167963D01*
X120040534Y-91116443D01*
X119884009Y-91032778D01*
X119848271Y-91003448D01*
X119746814Y-90920186D01*
X119663552Y-90818729D01*
X119634222Y-90782991D01*
X119550557Y-90626466D01*
X119499037Y-90456627D01*
X119481641Y-90280000D01*
X119499037Y-90103373D01*
X119550557Y-89933534D01*
X119634222Y-89777009D01*
X119663552Y-89741271D01*
X119746814Y-89639814D01*
X119848271Y-89556552D01*
X119884009Y-89527222D01*
X120040534Y-89443557D01*
X120210373Y-89392037D01*
X120276557Y-89385519D01*
X120342740Y-89379000D01*
X120431260Y-89379000D01*
X120497443Y-89385519D01*
X120497443Y-89385519D01*
G37*
G36*
X158509000Y-90441000D02*
G01*
X156707000Y-90441000D01*
X156707000Y-88639000D01*
X158509000Y-88639000D01*
X158509000Y-90441000D01*
X158509000Y-90441000D01*
G37*
G36*
X151509000Y-90441000D02*
G01*
X149707000Y-90441000D01*
X149707000Y-88639000D01*
X151509000Y-88639000D01*
X151509000Y-90441000D01*
X151509000Y-90441000D01*
G37*
G36*
X115417442Y-86845518D02*
G01*
X115483627Y-86852037D01*
X115653466Y-86903557D01*
X115809991Y-86987222D01*
X115845729Y-87016552D01*
X115947186Y-87099814D01*
X116030448Y-87201271D01*
X116059778Y-87237009D01*
X116143443Y-87393534D01*
X116194963Y-87563373D01*
X116212359Y-87740000D01*
X116194963Y-87916627D01*
X116143443Y-88086466D01*
X116059778Y-88242991D01*
X116030448Y-88278729D01*
X115947186Y-88380186D01*
X115845729Y-88463448D01*
X115809991Y-88492778D01*
X115653466Y-88576443D01*
X115483627Y-88627963D01*
X115417443Y-88634481D01*
X115351260Y-88641000D01*
X115262740Y-88641000D01*
X115196557Y-88634481D01*
X115130373Y-88627963D01*
X114960534Y-88576443D01*
X114804009Y-88492778D01*
X114768271Y-88463448D01*
X114666814Y-88380186D01*
X114583552Y-88278729D01*
X114554222Y-88242991D01*
X114470557Y-88086466D01*
X114419037Y-87916627D01*
X114401641Y-87740000D01*
X114419037Y-87563373D01*
X114470557Y-87393534D01*
X114554222Y-87237009D01*
X114583552Y-87201271D01*
X114666814Y-87099814D01*
X114768271Y-87016552D01*
X114804009Y-86987222D01*
X114960534Y-86903557D01*
X115130373Y-86852037D01*
X115196558Y-86845518D01*
X115262740Y-86839000D01*
X115351260Y-86839000D01*
X115417442Y-86845518D01*
X115417442Y-86845518D01*
G37*
G36*
X125577442Y-86845518D02*
G01*
X125643627Y-86852037D01*
X125813466Y-86903557D01*
X125969991Y-86987222D01*
X126005729Y-87016552D01*
X126107186Y-87099814D01*
X126190448Y-87201271D01*
X126219778Y-87237009D01*
X126303443Y-87393534D01*
X126354963Y-87563373D01*
X126372359Y-87740000D01*
X126354963Y-87916627D01*
X126303443Y-88086466D01*
X126219778Y-88242991D01*
X126190448Y-88278729D01*
X126107186Y-88380186D01*
X126005729Y-88463448D01*
X125969991Y-88492778D01*
X125813466Y-88576443D01*
X125643627Y-88627963D01*
X125577443Y-88634481D01*
X125511260Y-88641000D01*
X125422740Y-88641000D01*
X125356557Y-88634481D01*
X125290373Y-88627963D01*
X125120534Y-88576443D01*
X124964009Y-88492778D01*
X124928271Y-88463448D01*
X124826814Y-88380186D01*
X124743552Y-88278729D01*
X124714222Y-88242991D01*
X124630557Y-88086466D01*
X124579037Y-87916627D01*
X124561641Y-87740000D01*
X124579037Y-87563373D01*
X124630557Y-87393534D01*
X124714222Y-87237009D01*
X124743552Y-87201271D01*
X124826814Y-87099814D01*
X124928271Y-87016552D01*
X124964009Y-86987222D01*
X125120534Y-86903557D01*
X125290373Y-86852037D01*
X125356558Y-86845518D01*
X125422740Y-86839000D01*
X125511260Y-86839000D01*
X125577442Y-86845518D01*
X125577442Y-86845518D01*
G37*
G36*
X111128000Y-88641000D02*
G01*
X109326000Y-88641000D01*
X109326000Y-86839000D01*
X111128000Y-86839000D01*
X111128000Y-88641000D01*
X111128000Y-88641000D01*
G37*
G36*
X123037442Y-86845518D02*
G01*
X123103627Y-86852037D01*
X123273466Y-86903557D01*
X123429991Y-86987222D01*
X123465729Y-87016552D01*
X123567186Y-87099814D01*
X123650448Y-87201271D01*
X123679778Y-87237009D01*
X123763443Y-87393534D01*
X123814963Y-87563373D01*
X123832359Y-87740000D01*
X123814963Y-87916627D01*
X123763443Y-88086466D01*
X123679778Y-88242991D01*
X123650448Y-88278729D01*
X123567186Y-88380186D01*
X123465729Y-88463448D01*
X123429991Y-88492778D01*
X123273466Y-88576443D01*
X123103627Y-88627963D01*
X123037443Y-88634481D01*
X122971260Y-88641000D01*
X122882740Y-88641000D01*
X122816557Y-88634481D01*
X122750373Y-88627963D01*
X122580534Y-88576443D01*
X122424009Y-88492778D01*
X122388271Y-88463448D01*
X122286814Y-88380186D01*
X122203552Y-88278729D01*
X122174222Y-88242991D01*
X122090557Y-88086466D01*
X122039037Y-87916627D01*
X122021641Y-87740000D01*
X122039037Y-87563373D01*
X122090557Y-87393534D01*
X122174222Y-87237009D01*
X122203552Y-87201271D01*
X122286814Y-87099814D01*
X122388271Y-87016552D01*
X122424009Y-86987222D01*
X122580534Y-86903557D01*
X122750373Y-86852037D01*
X122816558Y-86845518D01*
X122882740Y-86839000D01*
X122971260Y-86839000D01*
X123037442Y-86845518D01*
X123037442Y-86845518D01*
G37*
G36*
X112877442Y-86845518D02*
G01*
X112943627Y-86852037D01*
X113113466Y-86903557D01*
X113269991Y-86987222D01*
X113305729Y-87016552D01*
X113407186Y-87099814D01*
X113490448Y-87201271D01*
X113519778Y-87237009D01*
X113603443Y-87393534D01*
X113654963Y-87563373D01*
X113672359Y-87740000D01*
X113654963Y-87916627D01*
X113603443Y-88086466D01*
X113519778Y-88242991D01*
X113490448Y-88278729D01*
X113407186Y-88380186D01*
X113305729Y-88463448D01*
X113269991Y-88492778D01*
X113113466Y-88576443D01*
X112943627Y-88627963D01*
X112877443Y-88634481D01*
X112811260Y-88641000D01*
X112722740Y-88641000D01*
X112656557Y-88634481D01*
X112590373Y-88627963D01*
X112420534Y-88576443D01*
X112264009Y-88492778D01*
X112228271Y-88463448D01*
X112126814Y-88380186D01*
X112043552Y-88278729D01*
X112014222Y-88242991D01*
X111930557Y-88086466D01*
X111879037Y-87916627D01*
X111861641Y-87740000D01*
X111879037Y-87563373D01*
X111930557Y-87393534D01*
X112014222Y-87237009D01*
X112043552Y-87201271D01*
X112126814Y-87099814D01*
X112228271Y-87016552D01*
X112264009Y-86987222D01*
X112420534Y-86903557D01*
X112590373Y-86852037D01*
X112656558Y-86845518D01*
X112722740Y-86839000D01*
X112811260Y-86839000D01*
X112877442Y-86845518D01*
X112877442Y-86845518D01*
G37*
G36*
X120497442Y-86845518D02*
G01*
X120563627Y-86852037D01*
X120733466Y-86903557D01*
X120889991Y-86987222D01*
X120925729Y-87016552D01*
X121027186Y-87099814D01*
X121110448Y-87201271D01*
X121139778Y-87237009D01*
X121223443Y-87393534D01*
X121274963Y-87563373D01*
X121292359Y-87740000D01*
X121274963Y-87916627D01*
X121223443Y-88086466D01*
X121139778Y-88242991D01*
X121110448Y-88278729D01*
X121027186Y-88380186D01*
X120925729Y-88463448D01*
X120889991Y-88492778D01*
X120733466Y-88576443D01*
X120563627Y-88627963D01*
X120497443Y-88634481D01*
X120431260Y-88641000D01*
X120342740Y-88641000D01*
X120276557Y-88634481D01*
X120210373Y-88627963D01*
X120040534Y-88576443D01*
X119884009Y-88492778D01*
X119848271Y-88463448D01*
X119746814Y-88380186D01*
X119663552Y-88278729D01*
X119634222Y-88242991D01*
X119550557Y-88086466D01*
X119499037Y-87916627D01*
X119481641Y-87740000D01*
X119499037Y-87563373D01*
X119550557Y-87393534D01*
X119634222Y-87237009D01*
X119663552Y-87201271D01*
X119746814Y-87099814D01*
X119848271Y-87016552D01*
X119884009Y-86987222D01*
X120040534Y-86903557D01*
X120210373Y-86852037D01*
X120276558Y-86845518D01*
X120342740Y-86839000D01*
X120431260Y-86839000D01*
X120497442Y-86845518D01*
X120497442Y-86845518D01*
G37*
G36*
X117957442Y-86845518D02*
G01*
X118023627Y-86852037D01*
X118193466Y-86903557D01*
X118349991Y-86987222D01*
X118385729Y-87016552D01*
X118487186Y-87099814D01*
X118570448Y-87201271D01*
X118599778Y-87237009D01*
X118683443Y-87393534D01*
X118734963Y-87563373D01*
X118752359Y-87740000D01*
X118734963Y-87916627D01*
X118683443Y-88086466D01*
X118599778Y-88242991D01*
X118570448Y-88278729D01*
X118487186Y-88380186D01*
X118385729Y-88463448D01*
X118349991Y-88492778D01*
X118193466Y-88576443D01*
X118023627Y-88627963D01*
X117957443Y-88634481D01*
X117891260Y-88641000D01*
X117802740Y-88641000D01*
X117736557Y-88634481D01*
X117670373Y-88627963D01*
X117500534Y-88576443D01*
X117344009Y-88492778D01*
X117308271Y-88463448D01*
X117206814Y-88380186D01*
X117123552Y-88278729D01*
X117094222Y-88242991D01*
X117010557Y-88086466D01*
X116959037Y-87916627D01*
X116941641Y-87740000D01*
X116959037Y-87563373D01*
X117010557Y-87393534D01*
X117094222Y-87237009D01*
X117123552Y-87201271D01*
X117206814Y-87099814D01*
X117308271Y-87016552D01*
X117344009Y-86987222D01*
X117500534Y-86903557D01*
X117670373Y-86852037D01*
X117736558Y-86845518D01*
X117802740Y-86839000D01*
X117891260Y-86839000D01*
X117957442Y-86845518D01*
X117957442Y-86845518D01*
G37*
G36*
X77964213Y-87434249D02*
G01*
X78058652Y-87462897D01*
X78145687Y-87509418D01*
X78221975Y-87572025D01*
X78284582Y-87648313D01*
X78331103Y-87735348D01*
X78359751Y-87829787D01*
X78369424Y-87928000D01*
X78359751Y-88026213D01*
X78331103Y-88120652D01*
X78284582Y-88207687D01*
X78221975Y-88283975D01*
X78145687Y-88346582D01*
X78058652Y-88393103D01*
X77964213Y-88421751D01*
X77890612Y-88429000D01*
X76341388Y-88429000D01*
X76267787Y-88421751D01*
X76173348Y-88393103D01*
X76086313Y-88346582D01*
X76010025Y-88283975D01*
X75947418Y-88207687D01*
X75900897Y-88120652D01*
X75872249Y-88026213D01*
X75862576Y-87928000D01*
X75872249Y-87829787D01*
X75900897Y-87735348D01*
X75947418Y-87648313D01*
X76010025Y-87572025D01*
X76086313Y-87509418D01*
X76173348Y-87462897D01*
X76267787Y-87434249D01*
X76341388Y-87427000D01*
X77890612Y-87427000D01*
X77964213Y-87434249D01*
X77964213Y-87434249D01*
G37*
G36*
X74234213Y-87434249D02*
G01*
X74328652Y-87462897D01*
X74415687Y-87509418D01*
X74491975Y-87572025D01*
X74554582Y-87648313D01*
X74601103Y-87735348D01*
X74629751Y-87829787D01*
X74639424Y-87928000D01*
X74629751Y-88026213D01*
X74601103Y-88120652D01*
X74554582Y-88207687D01*
X74491975Y-88283975D01*
X74415687Y-88346582D01*
X74328652Y-88393103D01*
X74234213Y-88421751D01*
X74160612Y-88429000D01*
X73311388Y-88429000D01*
X73237787Y-88421751D01*
X73143348Y-88393103D01*
X73056313Y-88346582D01*
X72980025Y-88283975D01*
X72917418Y-88207687D01*
X72870897Y-88120652D01*
X72842249Y-88026213D01*
X72832576Y-87928000D01*
X72842249Y-87829787D01*
X72870897Y-87735348D01*
X72917418Y-87648313D01*
X72980025Y-87572025D01*
X73056313Y-87509418D01*
X73143348Y-87462897D01*
X73237787Y-87434249D01*
X73311388Y-87427000D01*
X74160612Y-87427000D01*
X74234213Y-87434249D01*
X74234213Y-87434249D01*
G37*
G36*
X150714843Y-86105164D02*
G01*
X150784627Y-86112037D01*
X150954466Y-86163557D01*
X151110991Y-86247222D01*
X151134508Y-86266522D01*
X151248186Y-86359814D01*
X151331253Y-86461033D01*
X151360778Y-86497009D01*
X151444443Y-86653534D01*
X151495963Y-86823373D01*
X151513359Y-87000000D01*
X151495963Y-87176627D01*
X151444443Y-87346466D01*
X151360778Y-87502991D01*
X151331448Y-87538729D01*
X151248186Y-87640186D01*
X151146729Y-87723448D01*
X151110991Y-87752778D01*
X151110989Y-87752779D01*
X150966919Y-87829787D01*
X150954466Y-87836443D01*
X150784627Y-87887963D01*
X150718443Y-87894481D01*
X150652260Y-87901000D01*
X150563740Y-87901000D01*
X150497557Y-87894481D01*
X150431373Y-87887963D01*
X150261534Y-87836443D01*
X150249082Y-87829787D01*
X150105011Y-87752779D01*
X150105009Y-87752778D01*
X150069271Y-87723448D01*
X149967814Y-87640186D01*
X149884552Y-87538729D01*
X149855222Y-87502991D01*
X149771557Y-87346466D01*
X149720037Y-87176627D01*
X149702641Y-87000000D01*
X149720037Y-86823373D01*
X149771557Y-86653534D01*
X149855222Y-86497009D01*
X149884747Y-86461033D01*
X149967814Y-86359814D01*
X150081492Y-86266522D01*
X150105009Y-86247222D01*
X150261534Y-86163557D01*
X150431373Y-86112037D01*
X150501157Y-86105164D01*
X150563740Y-86099000D01*
X150652260Y-86099000D01*
X150714843Y-86105164D01*
X150714843Y-86105164D01*
G37*
G36*
X157714843Y-86105164D02*
G01*
X157784627Y-86112037D01*
X157954466Y-86163557D01*
X158110991Y-86247222D01*
X158134508Y-86266522D01*
X158248186Y-86359814D01*
X158331253Y-86461033D01*
X158360778Y-86497009D01*
X158444443Y-86653534D01*
X158495963Y-86823373D01*
X158513359Y-87000000D01*
X158495963Y-87176627D01*
X158444443Y-87346466D01*
X158360778Y-87502991D01*
X158331448Y-87538729D01*
X158248186Y-87640186D01*
X158146729Y-87723448D01*
X158110991Y-87752778D01*
X158110989Y-87752779D01*
X157966919Y-87829787D01*
X157954466Y-87836443D01*
X157784627Y-87887963D01*
X157718443Y-87894481D01*
X157652260Y-87901000D01*
X157563740Y-87901000D01*
X157497557Y-87894481D01*
X157431373Y-87887963D01*
X157261534Y-87836443D01*
X157249082Y-87829787D01*
X157105011Y-87752779D01*
X157105009Y-87752778D01*
X157069271Y-87723448D01*
X156967814Y-87640186D01*
X156884552Y-87538729D01*
X156855222Y-87502991D01*
X156771557Y-87346466D01*
X156720037Y-87176627D01*
X156702641Y-87000000D01*
X156720037Y-86823373D01*
X156771557Y-86653534D01*
X156855222Y-86497009D01*
X156884747Y-86461033D01*
X156967814Y-86359814D01*
X157081492Y-86266522D01*
X157105009Y-86247222D01*
X157261534Y-86163557D01*
X157431373Y-86112037D01*
X157501157Y-86105164D01*
X157563740Y-86099000D01*
X157652260Y-86099000D01*
X157714843Y-86105164D01*
X157714843Y-86105164D01*
G37*
G36*
X76824231Y-80234705D02*
G01*
X76862967Y-80242410D01*
X76893195Y-80254931D01*
X76935944Y-80272638D01*
X77001622Y-80316523D01*
X77057477Y-80372378D01*
X77101362Y-80438056D01*
X77131590Y-80511034D01*
X77147000Y-80588504D01*
X77147000Y-80667496D01*
X77131590Y-80744966D01*
X77101362Y-80817944D01*
X77057477Y-80883622D01*
X77001621Y-80939478D01*
X76987270Y-80949067D01*
X76968328Y-80964613D01*
X76952783Y-80983555D01*
X76941232Y-81005165D01*
X76934119Y-81028614D01*
X76931717Y-81053001D01*
X76934119Y-81077387D01*
X76941232Y-81100836D01*
X76952783Y-81122446D01*
X76968329Y-81141388D01*
X76987270Y-81156933D01*
X77001621Y-81166522D01*
X77057477Y-81222378D01*
X77101362Y-81288056D01*
X77131590Y-81361034D01*
X77147000Y-81438504D01*
X77147000Y-81517496D01*
X77131590Y-81594966D01*
X77101362Y-81667944D01*
X77057477Y-81733622D01*
X77001621Y-81789478D01*
X76987270Y-81799067D01*
X76968328Y-81814613D01*
X76952783Y-81833555D01*
X76941232Y-81855165D01*
X76934119Y-81878614D01*
X76931717Y-81903001D01*
X76934119Y-81927387D01*
X76941232Y-81950836D01*
X76952783Y-81972446D01*
X76968329Y-81991388D01*
X76987270Y-82006933D01*
X77001621Y-82016522D01*
X77057477Y-82072378D01*
X77101362Y-82138056D01*
X77131590Y-82211034D01*
X77147000Y-82288504D01*
X77147000Y-82367496D01*
X77131590Y-82444966D01*
X77101362Y-82517944D01*
X77057477Y-82583622D01*
X77001621Y-82639478D01*
X76987270Y-82649067D01*
X76968328Y-82664613D01*
X76952783Y-82683555D01*
X76941232Y-82705165D01*
X76934119Y-82728614D01*
X76931717Y-82753001D01*
X76934119Y-82777387D01*
X76941232Y-82800836D01*
X76952783Y-82822446D01*
X76968329Y-82841388D01*
X76987270Y-82856933D01*
X77001621Y-82866522D01*
X77057477Y-82922378D01*
X77101362Y-82988056D01*
X77131590Y-83061034D01*
X77147000Y-83138504D01*
X77147000Y-83217496D01*
X77131590Y-83294966D01*
X77101362Y-83367944D01*
X77057477Y-83433622D01*
X77001621Y-83489478D01*
X76987270Y-83499067D01*
X76968328Y-83514613D01*
X76952783Y-83533555D01*
X76941232Y-83555165D01*
X76934119Y-83578614D01*
X76931717Y-83603001D01*
X76934119Y-83627387D01*
X76941232Y-83650836D01*
X76952783Y-83672446D01*
X76968329Y-83691388D01*
X76987270Y-83706933D01*
X77001621Y-83716522D01*
X77057477Y-83772378D01*
X77101362Y-83838056D01*
X77131590Y-83911034D01*
X77147000Y-83988504D01*
X77147000Y-84067496D01*
X77131590Y-84144966D01*
X77101362Y-84217944D01*
X77057477Y-84283622D01*
X77001621Y-84339478D01*
X76987270Y-84349067D01*
X76968328Y-84364613D01*
X76952783Y-84383555D01*
X76941232Y-84405165D01*
X76934119Y-84428614D01*
X76931717Y-84453001D01*
X76934119Y-84477387D01*
X76941232Y-84500836D01*
X76952783Y-84522446D01*
X76968329Y-84541388D01*
X76987270Y-84556933D01*
X77001621Y-84566522D01*
X77057477Y-84622378D01*
X77101362Y-84688056D01*
X77131590Y-84761034D01*
X77147000Y-84838504D01*
X77147000Y-84917496D01*
X77131590Y-84994966D01*
X77101362Y-85067944D01*
X77057477Y-85133622D01*
X77001621Y-85189478D01*
X76987270Y-85199067D01*
X76968328Y-85214613D01*
X76952783Y-85233555D01*
X76941232Y-85255165D01*
X76934119Y-85278614D01*
X76931717Y-85303001D01*
X76934119Y-85327387D01*
X76941232Y-85350836D01*
X76952783Y-85372446D01*
X76968329Y-85391388D01*
X76987270Y-85406933D01*
X77001621Y-85416522D01*
X77057477Y-85472378D01*
X77101362Y-85538056D01*
X77131590Y-85611034D01*
X77147000Y-85688504D01*
X77147000Y-85767496D01*
X77131590Y-85844966D01*
X77101362Y-85917944D01*
X77057477Y-85983622D01*
X77001621Y-86039478D01*
X76987270Y-86049067D01*
X76968328Y-86064613D01*
X76952783Y-86083555D01*
X76941232Y-86105165D01*
X76934119Y-86128614D01*
X76931717Y-86153001D01*
X76934119Y-86177387D01*
X76941232Y-86200836D01*
X76952783Y-86222446D01*
X76968329Y-86241388D01*
X76987270Y-86256933D01*
X77001621Y-86266522D01*
X77057477Y-86322378D01*
X77101362Y-86388056D01*
X77131590Y-86461034D01*
X77147000Y-86538504D01*
X77147000Y-86617496D01*
X77131590Y-86694966D01*
X77101362Y-86767944D01*
X77057477Y-86833622D01*
X77001622Y-86889477D01*
X76935944Y-86933362D01*
X76893195Y-86951069D01*
X76862967Y-86963590D01*
X76824231Y-86971295D01*
X76785496Y-86979000D01*
X76706504Y-86979000D01*
X76667769Y-86971295D01*
X76629033Y-86963590D01*
X76598805Y-86951069D01*
X76556056Y-86933362D01*
X76490378Y-86889477D01*
X76434523Y-86833622D01*
X76390638Y-86767944D01*
X76360410Y-86694966D01*
X76345000Y-86617496D01*
X76345000Y-86538504D01*
X76360410Y-86461034D01*
X76390638Y-86388056D01*
X76434523Y-86322378D01*
X76490379Y-86266522D01*
X76504730Y-86256933D01*
X76523672Y-86241387D01*
X76539217Y-86222445D01*
X76550768Y-86200835D01*
X76557881Y-86177386D01*
X76560283Y-86152999D01*
X76557881Y-86128613D01*
X76550768Y-86105164D01*
X76539217Y-86083554D01*
X76523671Y-86064612D01*
X76504730Y-86049067D01*
X76490379Y-86039478D01*
X76434523Y-85983622D01*
X76390638Y-85917944D01*
X76360410Y-85844966D01*
X76345000Y-85767496D01*
X76345000Y-85688504D01*
X76360410Y-85611034D01*
X76390638Y-85538056D01*
X76434523Y-85472378D01*
X76490379Y-85416522D01*
X76504730Y-85406933D01*
X76523672Y-85391387D01*
X76539217Y-85372445D01*
X76550768Y-85350835D01*
X76557881Y-85327386D01*
X76560283Y-85302999D01*
X76557881Y-85278613D01*
X76550768Y-85255164D01*
X76539217Y-85233554D01*
X76523671Y-85214612D01*
X76504730Y-85199067D01*
X76490379Y-85189478D01*
X76434523Y-85133622D01*
X76390638Y-85067944D01*
X76360410Y-84994966D01*
X76345000Y-84917496D01*
X76345000Y-84838504D01*
X76360410Y-84761034D01*
X76390638Y-84688056D01*
X76434523Y-84622378D01*
X76490379Y-84566522D01*
X76504730Y-84556933D01*
X76523672Y-84541387D01*
X76539217Y-84522445D01*
X76550768Y-84500835D01*
X76557881Y-84477386D01*
X76560283Y-84452999D01*
X76557881Y-84428613D01*
X76550768Y-84405164D01*
X76539217Y-84383554D01*
X76523671Y-84364612D01*
X76504730Y-84349067D01*
X76490379Y-84339478D01*
X76434523Y-84283622D01*
X76390638Y-84217944D01*
X76360410Y-84144966D01*
X76345000Y-84067496D01*
X76345000Y-83988504D01*
X76360410Y-83911034D01*
X76390638Y-83838056D01*
X76434523Y-83772378D01*
X76490379Y-83716522D01*
X76504730Y-83706933D01*
X76523672Y-83691387D01*
X76539217Y-83672445D01*
X76550768Y-83650835D01*
X76557881Y-83627386D01*
X76560283Y-83602999D01*
X76557881Y-83578613D01*
X76550768Y-83555164D01*
X76539217Y-83533554D01*
X76523671Y-83514612D01*
X76504730Y-83499067D01*
X76490379Y-83489478D01*
X76434523Y-83433622D01*
X76390638Y-83367944D01*
X76360410Y-83294966D01*
X76345000Y-83217496D01*
X76345000Y-83138504D01*
X76360410Y-83061034D01*
X76390638Y-82988056D01*
X76434523Y-82922378D01*
X76490379Y-82866522D01*
X76504730Y-82856933D01*
X76523672Y-82841387D01*
X76539217Y-82822445D01*
X76550768Y-82800835D01*
X76557881Y-82777386D01*
X76560283Y-82752999D01*
X76557881Y-82728613D01*
X76550768Y-82705164D01*
X76539217Y-82683554D01*
X76523671Y-82664612D01*
X76504730Y-82649067D01*
X76490379Y-82639478D01*
X76434523Y-82583622D01*
X76390638Y-82517944D01*
X76360410Y-82444966D01*
X76345000Y-82367496D01*
X76345000Y-82288504D01*
X76360410Y-82211034D01*
X76390638Y-82138056D01*
X76434523Y-82072378D01*
X76490379Y-82016522D01*
X76504730Y-82006933D01*
X76523672Y-81991387D01*
X76539217Y-81972445D01*
X76550768Y-81950835D01*
X76557881Y-81927386D01*
X76560283Y-81902999D01*
X76557881Y-81878613D01*
X76550768Y-81855164D01*
X76539217Y-81833554D01*
X76523671Y-81814612D01*
X76504730Y-81799067D01*
X76490379Y-81789478D01*
X76434523Y-81733622D01*
X76390638Y-81667944D01*
X76360410Y-81594966D01*
X76345000Y-81517496D01*
X76345000Y-81438504D01*
X76360410Y-81361034D01*
X76390638Y-81288056D01*
X76434523Y-81222378D01*
X76490379Y-81166522D01*
X76504730Y-81156933D01*
X76523672Y-81141387D01*
X76539217Y-81122445D01*
X76550768Y-81100835D01*
X76557881Y-81077386D01*
X76560283Y-81052999D01*
X76557881Y-81028613D01*
X76550768Y-81005164D01*
X76539217Y-80983554D01*
X76523671Y-80964612D01*
X76504730Y-80949067D01*
X76490379Y-80939478D01*
X76434523Y-80883622D01*
X76390638Y-80817944D01*
X76360410Y-80744966D01*
X76345000Y-80667496D01*
X76345000Y-80588504D01*
X76360410Y-80511034D01*
X76390638Y-80438056D01*
X76434523Y-80372378D01*
X76490378Y-80316523D01*
X76556056Y-80272638D01*
X76598805Y-80254931D01*
X76629033Y-80242410D01*
X76667769Y-80234705D01*
X76706504Y-80227000D01*
X76785496Y-80227000D01*
X76824231Y-80234705D01*
X76824231Y-80234705D01*
G37*
G36*
X78174231Y-80234705D02*
G01*
X78212967Y-80242410D01*
X78243195Y-80254931D01*
X78285944Y-80272638D01*
X78351622Y-80316523D01*
X78407477Y-80372378D01*
X78451362Y-80438056D01*
X78481590Y-80511034D01*
X78497000Y-80588504D01*
X78497000Y-80667496D01*
X78481590Y-80744966D01*
X78451362Y-80817944D01*
X78407477Y-80883622D01*
X78351621Y-80939478D01*
X78337270Y-80949067D01*
X78318328Y-80964613D01*
X78302783Y-80983555D01*
X78291232Y-81005165D01*
X78284119Y-81028614D01*
X78281717Y-81053001D01*
X78284119Y-81077387D01*
X78291232Y-81100836D01*
X78302783Y-81122446D01*
X78318329Y-81141388D01*
X78337270Y-81156933D01*
X78351621Y-81166522D01*
X78407477Y-81222378D01*
X78451362Y-81288056D01*
X78481590Y-81361034D01*
X78497000Y-81438504D01*
X78497000Y-81517496D01*
X78481590Y-81594966D01*
X78451362Y-81667944D01*
X78407477Y-81733622D01*
X78351621Y-81789478D01*
X78337270Y-81799067D01*
X78318328Y-81814613D01*
X78302783Y-81833555D01*
X78291232Y-81855165D01*
X78284119Y-81878614D01*
X78281717Y-81903001D01*
X78284119Y-81927387D01*
X78291232Y-81950836D01*
X78302783Y-81972446D01*
X78318329Y-81991388D01*
X78337270Y-82006933D01*
X78351621Y-82016522D01*
X78407477Y-82072378D01*
X78451362Y-82138056D01*
X78481590Y-82211034D01*
X78497000Y-82288504D01*
X78497000Y-82367496D01*
X78481590Y-82444966D01*
X78451362Y-82517944D01*
X78407477Y-82583622D01*
X78351621Y-82639478D01*
X78337270Y-82649067D01*
X78318328Y-82664613D01*
X78302783Y-82683555D01*
X78291232Y-82705165D01*
X78284119Y-82728614D01*
X78281717Y-82753001D01*
X78284119Y-82777387D01*
X78291232Y-82800836D01*
X78302783Y-82822446D01*
X78318329Y-82841388D01*
X78337270Y-82856933D01*
X78351621Y-82866522D01*
X78407477Y-82922378D01*
X78451362Y-82988056D01*
X78481590Y-83061034D01*
X78497000Y-83138504D01*
X78497000Y-83217496D01*
X78481590Y-83294966D01*
X78451362Y-83367944D01*
X78407477Y-83433622D01*
X78351621Y-83489478D01*
X78337270Y-83499067D01*
X78318328Y-83514613D01*
X78302783Y-83533555D01*
X78291232Y-83555165D01*
X78284119Y-83578614D01*
X78281717Y-83603001D01*
X78284119Y-83627387D01*
X78291232Y-83650836D01*
X78302783Y-83672446D01*
X78318329Y-83691388D01*
X78337270Y-83706933D01*
X78351621Y-83716522D01*
X78407477Y-83772378D01*
X78451362Y-83838056D01*
X78481590Y-83911034D01*
X78497000Y-83988504D01*
X78497000Y-84067496D01*
X78481590Y-84144966D01*
X78451362Y-84217944D01*
X78407477Y-84283622D01*
X78351621Y-84339478D01*
X78337270Y-84349067D01*
X78318328Y-84364613D01*
X78302783Y-84383555D01*
X78291232Y-84405165D01*
X78284119Y-84428614D01*
X78281717Y-84453001D01*
X78284119Y-84477387D01*
X78291232Y-84500836D01*
X78302783Y-84522446D01*
X78318329Y-84541388D01*
X78337270Y-84556933D01*
X78351621Y-84566522D01*
X78407477Y-84622378D01*
X78451362Y-84688056D01*
X78481590Y-84761034D01*
X78497000Y-84838504D01*
X78497000Y-84917496D01*
X78481590Y-84994966D01*
X78451362Y-85067944D01*
X78407477Y-85133622D01*
X78351621Y-85189478D01*
X78337270Y-85199067D01*
X78318328Y-85214613D01*
X78302783Y-85233555D01*
X78291232Y-85255165D01*
X78284119Y-85278614D01*
X78281717Y-85303001D01*
X78284119Y-85327387D01*
X78291232Y-85350836D01*
X78302783Y-85372446D01*
X78318329Y-85391388D01*
X78337270Y-85406933D01*
X78351621Y-85416522D01*
X78407477Y-85472378D01*
X78451362Y-85538056D01*
X78481590Y-85611034D01*
X78497000Y-85688504D01*
X78497000Y-85767496D01*
X78481590Y-85844966D01*
X78451362Y-85917944D01*
X78407477Y-85983622D01*
X78351621Y-86039478D01*
X78337270Y-86049067D01*
X78318328Y-86064613D01*
X78302783Y-86083555D01*
X78291232Y-86105165D01*
X78284119Y-86128614D01*
X78281717Y-86153001D01*
X78284119Y-86177387D01*
X78291232Y-86200836D01*
X78302783Y-86222446D01*
X78318329Y-86241388D01*
X78337270Y-86256933D01*
X78351621Y-86266522D01*
X78407477Y-86322378D01*
X78451362Y-86388056D01*
X78481590Y-86461034D01*
X78497000Y-86538504D01*
X78497000Y-86617496D01*
X78481590Y-86694966D01*
X78451362Y-86767944D01*
X78407477Y-86833622D01*
X78351622Y-86889477D01*
X78285944Y-86933362D01*
X78243195Y-86951069D01*
X78212967Y-86963590D01*
X78174231Y-86971295D01*
X78135496Y-86979000D01*
X78056504Y-86979000D01*
X78017769Y-86971295D01*
X77979033Y-86963590D01*
X77948805Y-86951069D01*
X77906056Y-86933362D01*
X77840378Y-86889477D01*
X77784523Y-86833622D01*
X77740638Y-86767944D01*
X77710410Y-86694966D01*
X77695000Y-86617496D01*
X77695000Y-86538504D01*
X77710410Y-86461034D01*
X77740638Y-86388056D01*
X77784523Y-86322378D01*
X77840379Y-86266522D01*
X77854730Y-86256933D01*
X77873672Y-86241387D01*
X77889217Y-86222445D01*
X77900768Y-86200835D01*
X77907881Y-86177386D01*
X77910283Y-86152999D01*
X77907881Y-86128613D01*
X77900768Y-86105164D01*
X77889217Y-86083554D01*
X77873671Y-86064612D01*
X77854730Y-86049067D01*
X77840379Y-86039478D01*
X77784523Y-85983622D01*
X77740638Y-85917944D01*
X77710410Y-85844966D01*
X77695000Y-85767496D01*
X77695000Y-85688504D01*
X77710410Y-85611034D01*
X77740638Y-85538056D01*
X77784523Y-85472378D01*
X77840379Y-85416522D01*
X77854730Y-85406933D01*
X77873672Y-85391387D01*
X77889217Y-85372445D01*
X77900768Y-85350835D01*
X77907881Y-85327386D01*
X77910283Y-85302999D01*
X77907881Y-85278613D01*
X77900768Y-85255164D01*
X77889217Y-85233554D01*
X77873671Y-85214612D01*
X77854730Y-85199067D01*
X77840379Y-85189478D01*
X77784523Y-85133622D01*
X77740638Y-85067944D01*
X77710410Y-84994966D01*
X77695000Y-84917496D01*
X77695000Y-84838504D01*
X77710410Y-84761034D01*
X77740638Y-84688056D01*
X77784523Y-84622378D01*
X77840379Y-84566522D01*
X77854730Y-84556933D01*
X77873672Y-84541387D01*
X77889217Y-84522445D01*
X77900768Y-84500835D01*
X77907881Y-84477386D01*
X77910283Y-84452999D01*
X77907881Y-84428613D01*
X77900768Y-84405164D01*
X77889217Y-84383554D01*
X77873671Y-84364612D01*
X77854730Y-84349067D01*
X77840379Y-84339478D01*
X77784523Y-84283622D01*
X77740638Y-84217944D01*
X77710410Y-84144966D01*
X77695000Y-84067496D01*
X77695000Y-83988504D01*
X77710410Y-83911034D01*
X77740638Y-83838056D01*
X77784523Y-83772378D01*
X77840379Y-83716522D01*
X77854730Y-83706933D01*
X77873672Y-83691387D01*
X77889217Y-83672445D01*
X77900768Y-83650835D01*
X77907881Y-83627386D01*
X77910283Y-83602999D01*
X77907881Y-83578613D01*
X77900768Y-83555164D01*
X77889217Y-83533554D01*
X77873671Y-83514612D01*
X77854730Y-83499067D01*
X77840379Y-83489478D01*
X77784523Y-83433622D01*
X77740638Y-83367944D01*
X77710410Y-83294966D01*
X77695000Y-83217496D01*
X77695000Y-83138504D01*
X77710410Y-83061034D01*
X77740638Y-82988056D01*
X77784523Y-82922378D01*
X77840379Y-82866522D01*
X77854730Y-82856933D01*
X77873672Y-82841387D01*
X77889217Y-82822445D01*
X77900768Y-82800835D01*
X77907881Y-82777386D01*
X77910283Y-82752999D01*
X77907881Y-82728613D01*
X77900768Y-82705164D01*
X77889217Y-82683554D01*
X77873671Y-82664612D01*
X77854730Y-82649067D01*
X77840379Y-82639478D01*
X77784523Y-82583622D01*
X77740638Y-82517944D01*
X77710410Y-82444966D01*
X77695000Y-82367496D01*
X77695000Y-82288504D01*
X77710410Y-82211034D01*
X77740638Y-82138056D01*
X77784523Y-82072378D01*
X77840379Y-82016522D01*
X77854730Y-82006933D01*
X77873672Y-81991387D01*
X77889217Y-81972445D01*
X77900768Y-81950835D01*
X77907881Y-81927386D01*
X77910283Y-81902999D01*
X77907881Y-81878613D01*
X77900768Y-81855164D01*
X77889217Y-81833554D01*
X77873671Y-81814612D01*
X77854730Y-81799067D01*
X77840379Y-81789478D01*
X77784523Y-81733622D01*
X77740638Y-81667944D01*
X77710410Y-81594966D01*
X77695000Y-81517496D01*
X77695000Y-81438504D01*
X77710410Y-81361034D01*
X77740638Y-81288056D01*
X77784523Y-81222378D01*
X77840379Y-81166522D01*
X77854730Y-81156933D01*
X77873672Y-81141387D01*
X77889217Y-81122445D01*
X77900768Y-81100835D01*
X77907881Y-81077386D01*
X77910283Y-81052999D01*
X77907881Y-81028613D01*
X77900768Y-81005164D01*
X77889217Y-80983554D01*
X77873671Y-80964612D01*
X77854730Y-80949067D01*
X77840379Y-80939478D01*
X77784523Y-80883622D01*
X77740638Y-80817944D01*
X77710410Y-80744966D01*
X77695000Y-80667496D01*
X77695000Y-80588504D01*
X77710410Y-80511034D01*
X77740638Y-80438056D01*
X77784523Y-80372378D01*
X77840378Y-80316523D01*
X77906056Y-80272638D01*
X77948805Y-80254931D01*
X77979033Y-80242410D01*
X78017769Y-80234705D01*
X78056504Y-80227000D01*
X78135496Y-80227000D01*
X78174231Y-80234705D01*
X78174231Y-80234705D01*
G37*
G36*
X157698862Y-83563590D02*
G01*
X157784627Y-83572037D01*
X157954466Y-83623557D01*
X157954468Y-83623558D01*
X157961631Y-83627387D01*
X158110991Y-83707222D01*
X158122324Y-83716523D01*
X158248186Y-83819814D01*
X158323046Y-83911033D01*
X158360778Y-83957009D01*
X158444443Y-84113534D01*
X158495963Y-84283373D01*
X158513359Y-84460000D01*
X158495963Y-84636627D01*
X158444443Y-84806466D01*
X158360778Y-84962991D01*
X158334537Y-84994966D01*
X158248186Y-85100186D01*
X158146729Y-85183448D01*
X158110991Y-85212778D01*
X158110989Y-85212779D01*
X157987822Y-85278614D01*
X157954466Y-85296443D01*
X157784627Y-85347963D01*
X157718442Y-85354482D01*
X157652260Y-85361000D01*
X157563740Y-85361000D01*
X157497558Y-85354482D01*
X157431373Y-85347963D01*
X157261534Y-85296443D01*
X157228179Y-85278614D01*
X157105011Y-85212779D01*
X157105009Y-85212778D01*
X157069271Y-85183448D01*
X156967814Y-85100186D01*
X156881463Y-84994966D01*
X156855222Y-84962991D01*
X156771557Y-84806466D01*
X156720037Y-84636627D01*
X156702641Y-84460000D01*
X156720037Y-84283373D01*
X156771557Y-84113534D01*
X156855222Y-83957009D01*
X156892954Y-83911033D01*
X156967814Y-83819814D01*
X157093676Y-83716523D01*
X157105009Y-83707222D01*
X157254369Y-83627387D01*
X157261532Y-83623558D01*
X157261534Y-83623557D01*
X157431373Y-83572037D01*
X157517138Y-83563590D01*
X157563740Y-83559000D01*
X157652260Y-83559000D01*
X157698862Y-83563590D01*
X157698862Y-83563590D01*
G37*
G36*
X150698862Y-83563590D02*
G01*
X150784627Y-83572037D01*
X150954466Y-83623557D01*
X150954468Y-83623558D01*
X150961631Y-83627387D01*
X151110991Y-83707222D01*
X151122324Y-83716523D01*
X151248186Y-83819814D01*
X151323046Y-83911033D01*
X151360778Y-83957009D01*
X151444443Y-84113534D01*
X151495963Y-84283373D01*
X151513359Y-84460000D01*
X151495963Y-84636627D01*
X151444443Y-84806466D01*
X151360778Y-84962991D01*
X151334537Y-84994966D01*
X151248186Y-85100186D01*
X151146729Y-85183448D01*
X151110991Y-85212778D01*
X151110989Y-85212779D01*
X150987822Y-85278614D01*
X150954466Y-85296443D01*
X150784627Y-85347963D01*
X150718442Y-85354482D01*
X150652260Y-85361000D01*
X150563740Y-85361000D01*
X150497558Y-85354482D01*
X150431373Y-85347963D01*
X150261534Y-85296443D01*
X150228179Y-85278614D01*
X150105011Y-85212779D01*
X150105009Y-85212778D01*
X150069271Y-85183448D01*
X149967814Y-85100186D01*
X149881463Y-84994966D01*
X149855222Y-84962991D01*
X149771557Y-84806466D01*
X149720037Y-84636627D01*
X149702641Y-84460000D01*
X149720037Y-84283373D01*
X149771557Y-84113534D01*
X149855222Y-83957009D01*
X149892954Y-83911033D01*
X149967814Y-83819814D01*
X150093676Y-83716523D01*
X150105009Y-83707222D01*
X150254369Y-83627387D01*
X150261532Y-83623558D01*
X150261534Y-83623557D01*
X150431373Y-83572037D01*
X150517138Y-83563590D01*
X150563740Y-83559000D01*
X150652260Y-83559000D01*
X150698862Y-83563590D01*
X150698862Y-83563590D01*
G37*
G36*
X77964213Y-78784249D02*
G01*
X78058652Y-78812897D01*
X78145687Y-78859418D01*
X78221975Y-78922025D01*
X78284582Y-78998313D01*
X78331103Y-79085348D01*
X78359751Y-79179787D01*
X78369424Y-79278000D01*
X78359751Y-79376213D01*
X78331103Y-79470652D01*
X78284582Y-79557687D01*
X78221975Y-79633975D01*
X78145687Y-79696582D01*
X78058652Y-79743103D01*
X77964213Y-79771751D01*
X77890612Y-79779000D01*
X76341388Y-79779000D01*
X76267787Y-79771751D01*
X76173348Y-79743103D01*
X76086313Y-79696582D01*
X76010025Y-79633975D01*
X75947418Y-79557687D01*
X75900897Y-79470652D01*
X75872249Y-79376213D01*
X75862576Y-79278000D01*
X75872249Y-79179787D01*
X75900897Y-79085348D01*
X75947418Y-78998313D01*
X76010025Y-78922025D01*
X76086313Y-78859418D01*
X76173348Y-78812897D01*
X76267787Y-78784249D01*
X76341388Y-78777000D01*
X77890612Y-78777000D01*
X77964213Y-78784249D01*
X77964213Y-78784249D01*
G37*
G36*
X74234213Y-78784249D02*
G01*
X74328652Y-78812897D01*
X74415687Y-78859418D01*
X74491975Y-78922025D01*
X74554582Y-78998313D01*
X74601103Y-79085348D01*
X74629751Y-79179787D01*
X74639424Y-79278000D01*
X74629751Y-79376213D01*
X74601103Y-79470652D01*
X74554582Y-79557687D01*
X74491975Y-79633975D01*
X74415687Y-79696582D01*
X74328652Y-79743103D01*
X74234213Y-79771751D01*
X74160612Y-79779000D01*
X73311388Y-79779000D01*
X73237787Y-79771751D01*
X73143348Y-79743103D01*
X73056313Y-79696582D01*
X72980025Y-79633975D01*
X72917418Y-79557687D01*
X72870897Y-79470652D01*
X72842249Y-79376213D01*
X72832576Y-79278000D01*
X72842249Y-79179787D01*
X72870897Y-79085348D01*
X72917418Y-78998313D01*
X72980025Y-78922025D01*
X73056313Y-78859418D01*
X73143348Y-78812897D01*
X73237787Y-78784249D01*
X73311388Y-78777000D01*
X74160612Y-78777000D01*
X74234213Y-78784249D01*
X74234213Y-78784249D01*
G37*
M02*
